M48
;DRILL file {KiCad 5.0.0-rc2-dev-unknown-9f5316e~63~ubuntu17.10.1} date Mon Apr 23 17:13:16 2018
;FORMAT={-:-/ absolute / metric / decimal}
FMAT,2
METRIC,TZ
T1C0.250
T2C0.500
T3C0.800
T4C1.000
T5C1.100
%
G90
G05
M71
T1
X6.572Y14.072
X7.621Y6.204
X7.773Y13.177
X8.25Y2.654
X8.564Y6.886
X9.425Y45.425
X9.946Y42.947
X9.946Y42.347
X9.946Y41.747
X10.498Y52.7
X10.546Y42.947
X10.546Y42.347
X10.546Y41.747
X10.85Y35.875
X11.125Y7.4
X11.146Y42.947
X11.146Y42.347
X11.146Y41.747
X11.746Y42.947
X11.746Y42.347
X11.746Y41.747
X11.772Y2.693
X12.09Y50.165
X12.101Y12.501
X12.5Y2.8
X12.516Y2.253
X12.625Y21.175
X12.717Y15.783
X12.85Y31.75
X12.875Y27.375
X13.Y23.05
X13.425Y40.45
X13.55Y4.4
X13.575Y2.85
X13.6Y7.175
X13.611Y43.361
X13.698Y44.552
X13.95Y9.95
X14.475Y40.625
X14.834Y48.409
X14.941Y3.591
X15.05Y14.9
X15.55Y12.45
X15.901Y40.427
X16.218Y41.232
X16.275Y12.325
X16.375Y10.05
X16.375Y9.25
X16.579Y11.375
X16.7Y8.425
X16.825Y37.525
X17.17Y3.
X17.225Y4.5
X17.425Y13.425
X17.512Y5.688
X18.01Y15.06
X18.025Y17.65
X18.675Y63.625
X19.069Y14.919
X19.889Y3.689
X20.125Y40.4
X20.45Y64.9
X20.625Y11.228
X20.639Y13.336
X20.686Y12.336
X20.75Y62.575
X20.75Y7.698
X21.076Y4.675
X21.5Y9.225
X21.68Y41.545
X22.1Y26.75
X22.15Y48.85
X22.325Y11.375
X22.909Y59.255
X22.909Y58.655
X22.909Y58.055
X22.909Y57.455
X22.909Y56.855
X22.909Y56.255
X22.909Y55.655
X22.909Y55.055
X22.909Y54.455
X23.225Y63.625
X23.437Y62.069
X23.509Y59.255
X23.509Y58.655
X23.509Y58.055
X23.509Y57.455
X23.509Y56.855
X23.509Y56.255
X23.509Y55.655
X23.509Y55.055
X23.509Y54.455
X23.618Y65.082
X24.Y9.2
X24.109Y59.255
X24.109Y58.655
X24.109Y58.055
X24.109Y57.455
X24.109Y56.855
X24.109Y56.255
X24.109Y55.655
X24.109Y55.055
X24.109Y54.455
X24.25Y80.75
X24.575Y38.7
X24.585Y42.815
X24.7Y84.7
X24.709Y59.255
X24.709Y58.655
X24.709Y58.055
X24.709Y57.455
X24.709Y56.855
X24.709Y56.255
X24.709Y55.655
X24.709Y55.055
X24.709Y54.455
X25.051Y6.675
X25.275Y37.975
X25.775Y29.575
X25.8Y31.3
X26.05Y74.9
X26.45Y16.4
X26.475Y26.525
X26.6Y24.55
X26.801Y41.552
X26.825Y44.225
X26.831Y71.831
X26.839Y52.211
X26.876Y8.025
X26.9Y48.675
X26.94Y49.735
X26.95Y42.8
X27.2Y84.7
X27.208Y33.008
X27.351Y17.426
X27.5Y78.1
X27.55Y32.05
X27.7Y30.675
X28.194Y71.431
X28.25Y-14.25
X28.634Y60.43
X28.634Y59.83
X29.234Y60.43
X29.234Y59.83
X29.238Y9.45
X29.418Y36.718
X29.55Y38.55
X29.595Y45.355
X29.722Y40.978
X29.802Y63.725
X29.822Y41.978
X29.834Y60.43
X29.834Y59.83
X30.Y5.675
X30.026Y9.425
X30.05Y23.275
X30.169Y76.344
X30.2Y77.3
X30.255Y-14.25
X30.276Y19.476
X30.3Y73.075
X30.434Y60.43
X30.434Y59.83
X30.531Y-9.
X30.75Y-1.5
X31.123Y31.377
X31.175Y23.525
X31.223Y32.377
X31.236Y44.936
X31.322Y40.978
X31.336Y45.636
X31.5Y30.5
X31.581Y76.344
X31.6Y73.1
X31.727Y38.752
X31.729Y16.775
X31.75Y51.625
X31.823Y49.123
X31.825Y52.45
X31.85Y43.975
X32.Y37.
X32.Y5.625
X32.069Y16.075
X32.175Y42.675
X32.25Y-14.25
X32.35Y77.375
X32.477Y48.952
X32.575Y78.1
X32.6Y29.1
X32.7Y39.3
X32.7Y19.8
X32.75Y58.65
X32.8Y30.2
X32.9Y47.275
X32.975Y22.325
X34.075Y50.6
X34.15Y67.65
X34.25Y-14.25
X34.558Y75.906
X34.558Y75.306
X34.558Y74.706
X35.158Y75.906
X35.158Y75.306
X35.158Y74.706
X35.375Y81.625
X35.4Y27.3
X35.5Y22.9
X35.6Y21.1
X35.6Y20.4
X35.758Y75.906
X35.758Y75.306
X35.758Y74.706
X35.925Y59.1
X36.Y40.1
X36.Y15.825
X36.358Y75.906
X36.358Y75.306
X36.358Y74.706
X36.8Y21.3
X36.975Y61.225
X37.125Y71.75
X37.75Y23.375
X37.8Y25.325
X37.8Y21.6
X37.875Y16.575
X37.982Y42.621
X38.Y19.4
X38.05Y49.123
X38.05Y41.4
X38.075Y50.975
X38.1Y40.55
X38.1Y31.4
X38.125Y37.65
X38.127Y43.852
X38.275Y34.225
X38.5Y28.9
X38.65Y25.15
X38.7Y19.3
X38.718Y50.082
X38.975Y36.175
X39.025Y43.4
X39.2Y21.4
X39.225Y40.2
X39.275Y33.925
X39.3Y28.5
X39.4Y45.425
X39.5Y-14.25
X39.525Y39.475
X39.55Y4.8
X39.575Y42.9
X39.6Y29.5
X39.65Y42.225
X39.718Y50.082
X40.125Y51.675
X40.47Y20.73
X41.4Y19.3
X41.5Y-14.25
X41.85Y40.65
X41.9Y8.075
X42.025Y41.9
X42.025Y37.425
X42.025Y28.825
X42.15Y38.425
X42.375Y45.025
X42.4Y31.5
X42.5Y39.15
X42.575Y40.175
X42.925Y45.6
X43.45Y8.75
X43.5Y-14.25
X43.9Y62.875
X44.25Y16.55
X44.55Y24.225
X44.552Y60.378
X44.602Y76.352
X44.625Y45.775
X44.625Y9.925
X44.727Y8.725
X45.442Y78.905
X45.442Y77.889
X45.442Y76.898
X45.442Y75.882
X45.442Y74.892
X45.442Y73.901
X45.442Y72.885
X45.442Y71.895
X45.442Y70.904
X45.442Y69.888
X45.442Y67.889
X45.442Y65.889
X45.442Y64.889
X45.442Y63.889
X45.442Y62.889
X45.442Y61.889
X45.442Y60.889
X45.442Y59.889
X45.442Y58.889
X45.442Y57.889
X45.449Y66.878
X45.5Y-14.25
X45.7Y45.9
X45.8Y10.1
X45.9Y32.375
X45.925Y33.475
X45.925Y31.65
X45.975Y14.125
X46.Y41.875
X46.431Y78.91
X46.433Y79.896
X46.433Y77.889
X46.433Y76.898
X46.433Y75.882
X46.433Y74.892
X46.433Y73.901
X46.433Y72.885
X46.433Y71.895
X46.433Y70.904
X46.433Y69.888
X46.433Y67.889
X46.433Y66.889
X46.433Y65.889
X46.433Y64.889
X46.433Y63.889
X46.433Y62.889
X46.433Y61.889
X46.433Y60.889
X46.433Y59.889
X46.433Y58.889
X46.433Y57.889
X46.925Y8.7
X47.Y48.5
X47.025Y36.05
X47.352Y9.725
X47.427Y41.402
X47.449Y69.888
X47.449Y79.896
X47.449Y78.905
X47.449Y77.889
X47.449Y76.898
X47.449Y75.882
X47.449Y74.892
X47.449Y73.901
X47.449Y72.885
X47.449Y71.895
X47.449Y70.904
X47.449Y66.889
X47.449Y65.889
X47.449Y64.889
X47.449Y63.889
X47.449Y62.889
X47.449Y61.889
X47.449Y60.889
X47.449Y59.889
X47.449Y58.889
X47.449Y57.889
X47.455Y67.894
X47.5Y49.
X47.9Y49.7
X47.902Y43.877
X48.Y48.5
X48.002Y31.127
X48.05Y30.175
X48.1Y19.65
X48.44Y79.896
X48.44Y78.905
X48.44Y77.889
X48.44Y76.898
X48.44Y75.882
X48.44Y74.892
X48.44Y73.901
X48.44Y72.885
X48.44Y71.895
X48.44Y70.904
X48.44Y67.889
X48.44Y66.889
X48.44Y65.889
X48.44Y64.889
X48.44Y63.889
X48.44Y62.889
X48.44Y61.889
X48.44Y60.889
X48.44Y59.889
X48.44Y58.889
X48.44Y57.889
X48.44Y69.888
X48.5Y34.425
X48.9Y19.8
X49.075Y42.875
X49.456Y79.896
X49.456Y78.905
X49.456Y77.889
X49.456Y76.898
X49.456Y75.882
X49.456Y74.892
X49.456Y73.901
X49.456Y72.885
X49.456Y71.895
X49.456Y70.904
X49.456Y69.888
X49.456Y67.889
X49.456Y66.889
X49.456Y65.889
X49.456Y64.889
X49.456Y63.889
X49.456Y62.889
X49.456Y61.889
X49.456Y60.889
X49.456Y59.889
X49.456Y58.889
X49.456Y57.889
X49.475Y32.65
X49.75Y22.375
X50.Y29.475
X50.Y-14.25
X50.148Y50.052
X50.152Y41.002
X50.225Y26.675
X50.25Y20.9
X50.377Y45.877
X50.427Y31.452
X50.446Y79.896
X50.446Y78.905
X50.446Y77.889
X50.446Y76.898
X50.446Y75.882
X50.446Y74.892
X50.446Y73.901
X50.446Y72.885
X50.446Y71.895
X50.446Y70.904
X50.446Y69.888
X50.446Y67.889
X50.446Y66.889
X50.446Y65.889
X50.446Y64.889
X50.446Y63.889
X50.446Y62.889
X50.446Y61.889
X50.446Y60.889
X50.446Y59.889
X50.446Y58.889
X50.446Y57.889
X50.65Y40.4
X50.925Y31.
X50.975Y41.
X51.05Y37.275
X51.148Y50.052
X51.378Y21.301
X51.437Y79.896
X51.437Y78.905
X51.437Y77.889
X51.437Y75.882
X51.437Y74.892
X51.437Y73.901
X51.437Y72.885
X51.437Y70.904
X51.437Y69.888
X51.437Y67.889
X51.437Y66.889
X51.437Y65.889
X51.437Y64.889
X51.437Y63.889
X51.437Y62.889
X51.437Y61.889
X51.437Y60.889
X51.437Y59.889
X51.437Y58.889
X51.437Y57.889
X51.46Y71.89
X51.475Y76.875
X51.816Y12.559
X51.875Y45.95
X51.9Y20.85
X51.925Y37.3
X51.971Y81.786
X52.Y-14.25
X52.15Y48.9
X52.2Y23.55
X52.3Y44.9
X52.45Y76.875
X52.45Y16.375
X52.451Y74.887
X52.453Y79.896
X52.453Y78.905
X52.453Y77.889
X52.453Y75.882
X52.453Y73.901
X52.453Y72.885
X52.453Y71.895
X52.453Y70.904
X52.453Y69.888
X52.453Y67.889
X52.453Y66.889
X52.453Y65.889
X52.453Y64.889
X52.453Y63.889
X52.453Y62.889
X52.453Y61.889
X52.453Y60.889
X52.453Y59.889
X52.453Y58.889
X52.453Y57.889
X52.55Y56.4
X52.675Y21.2
X52.775Y37.3
X52.95Y19.675
X52.975Y45.4
X53.025Y44.2
X53.275Y40.975
X53.35Y21.8
X53.444Y78.905
X53.444Y77.889
X53.444Y76.898
X53.444Y75.882
X53.444Y74.892
X53.444Y73.901
X53.444Y72.885
X53.444Y71.895
X53.444Y70.904
X53.444Y69.888
X53.444Y67.889
X53.444Y66.889
X53.444Y65.889
X53.444Y64.889
X53.444Y63.889
X53.444Y62.889
X53.444Y61.889
X53.444Y60.889
X53.444Y59.889
X53.444Y58.889
X53.444Y57.889
X53.467Y79.926
X53.7Y37.275
X53.7Y25.4
X53.725Y23.55
X53.725Y11.975
X53.753Y40.497
X53.9Y26.1
X53.925Y36.6
X53.95Y44.2
X54.Y-14.25
X54.125Y35.95
X54.186Y15.286
X54.35Y24.8
X54.403Y40.627
X54.434Y78.905
X54.434Y77.889
X54.434Y76.898
X54.434Y75.882
X54.434Y74.892
X54.434Y73.901
X54.434Y72.885
X54.434Y71.895
X54.434Y70.904
X54.434Y69.888
X54.434Y67.889
X54.434Y66.889
X54.434Y65.889
X54.434Y64.889
X54.434Y63.889
X54.434Y62.889
X54.434Y61.889
X54.434Y60.889
X54.434Y59.889
X54.434Y58.889
X54.434Y57.889
X54.458Y79.959
X54.528Y36.952
X54.628Y44.227
X55.186Y15.314
X55.425Y67.889
X55.441Y69.897
X55.445Y66.885
X55.445Y65.885
X55.445Y64.885
X55.445Y63.885
X55.445Y62.885
X55.445Y61.885
X55.445Y60.885
X55.445Y59.885
X55.445Y58.885
X55.445Y57.885
X55.448Y79.959
X55.45Y78.905
X55.45Y77.889
X55.45Y76.898
X55.45Y75.882
X55.45Y74.892
X55.45Y73.901
X55.45Y72.885
X55.45Y71.895
X55.45Y70.904
X55.453Y19.426
X55.5Y36.95
X55.55Y40.375
X55.975Y44.2
X56.Y36.425
X56.Y-14.25
X56.05Y22.15
X56.1Y44.9
X56.413Y79.959
X56.45Y66.925
X56.589Y51.511
X56.825Y21.925
X56.875Y42.7
X57.2Y30.075
X57.3Y21.4
X57.44Y58.885
X57.449Y79.896
X57.449Y78.905
X57.449Y77.889
X57.449Y76.898
X57.449Y75.882
X57.449Y74.892
X57.449Y73.901
X57.449Y72.885
X57.449Y71.895
X57.449Y70.904
X57.453Y69.893
X57.453Y67.885
X57.453Y66.885
X57.453Y65.885
X57.453Y64.885
X57.453Y63.885
X57.453Y62.885
X57.453Y61.885
X57.453Y60.885
X57.453Y59.885
X57.453Y57.885
X57.7Y31.95
X57.778Y28.551
X57.975Y49.025
X57.975Y29.35
X58.Y50.825
X58.175Y43.325
X58.275Y28.129
X58.449Y79.896
X58.449Y78.905
X58.449Y77.889
X58.449Y76.898
X58.449Y75.882
X58.449Y74.892
X58.449Y73.901
X58.449Y72.885
X58.449Y71.895
X58.449Y70.904
X58.453Y69.893
X58.453Y67.885
X58.453Y66.885
X58.453Y65.885
X58.453Y64.885
X58.453Y63.885
X58.453Y62.885
X58.453Y61.885
X58.453Y60.885
X58.453Y59.885
X58.453Y58.885
X58.453Y57.885
X58.7Y41.824
X58.828Y40.552
X58.9Y26.05
X59.35Y41.625
X59.449Y79.896
X59.449Y78.905
X59.449Y77.889
X59.449Y76.898
X59.449Y75.882
X59.449Y74.892
X59.449Y73.901
X59.449Y72.885
X59.449Y71.895
X59.449Y70.904
X59.453Y69.893
X59.453Y67.885
X59.453Y66.885
X59.453Y65.885
X59.453Y64.885
X59.453Y63.885
X59.453Y62.885
X59.453Y61.885
X59.453Y60.885
X59.453Y59.885
X59.453Y58.885
X59.453Y57.885
X59.475Y26.725
X59.5Y5.5
X59.825Y27.35
X60.125Y23.425
X60.125Y19.5
X60.449Y79.896
X60.449Y78.905
X60.449Y77.889
X60.449Y76.898
X60.449Y75.882
X60.449Y74.892
X60.449Y73.901
X60.449Y72.885
X60.449Y71.895
X60.449Y70.904
X60.45Y32.95
X60.453Y69.893
X60.453Y67.885
X60.453Y66.885
X60.453Y65.885
X60.453Y64.885
X60.453Y63.885
X60.453Y62.885
X60.453Y61.885
X60.453Y60.885
X60.453Y59.885
X60.453Y58.885
X60.453Y57.885
X60.5Y22.3
X60.825Y21.075
X60.841Y15.341
X60.935Y50.865
X61.Y8.475
X61.Y2.
X61.449Y79.896
X61.449Y78.905
X61.449Y77.889
X61.449Y76.898
X61.449Y75.882
X61.449Y74.892
X61.449Y73.901
X61.449Y72.885
X61.449Y71.895
X61.449Y70.904
X61.45Y34.3
X61.45Y24.6
X61.453Y69.893
X61.453Y67.885
X61.453Y66.885
X61.453Y65.885
X61.453Y64.885
X61.453Y63.885
X61.453Y62.885
X61.453Y61.885
X61.453Y60.885
X61.453Y59.885
X61.453Y58.885
X61.453Y57.885
X61.653Y53.253
X61.675Y48.95
X61.725Y44.875
X61.825Y39.975
X61.85Y37.25
X61.85Y36.375
X61.9Y42.3
X61.925Y23.6
X61.975Y35.6
X61.975Y31.828
X62.Y41.6
X62.003Y21.576
X62.375Y57.875
X62.4Y15.951
X62.449Y79.896
X62.449Y78.905
X62.449Y77.889
X62.449Y76.898
X62.449Y75.882
X62.449Y74.892
X62.449Y73.901
X62.449Y72.885
X62.449Y71.895
X62.449Y70.904
X62.453Y69.893
X62.453Y67.885
X62.453Y66.885
X62.453Y65.885
X62.453Y64.885
X62.453Y63.885
X62.453Y62.885
X62.453Y61.885
X62.453Y60.885
X62.453Y59.885
X62.453Y58.885
X63.449Y79.896
X63.449Y78.905
X63.449Y77.889
X63.449Y76.898
X63.449Y75.882
X63.449Y74.892
X63.449Y73.901
X63.449Y72.885
X63.449Y71.895
X63.449Y70.904
X63.45Y57.875
X63.453Y69.893
X63.453Y67.885
X63.453Y66.885
X63.453Y65.885
X63.453Y64.885
X63.453Y63.885
X63.453Y62.885
X63.453Y61.885
X63.453Y60.885
X63.453Y59.885
X63.453Y58.885
X64.279Y25.785
X64.449Y79.896
X64.449Y78.905
X64.449Y77.889
X64.449Y76.898
X64.449Y75.882
X64.449Y74.892
X64.449Y73.901
X64.449Y72.885
X64.449Y71.895
X64.449Y70.904
X64.453Y69.893
X64.453Y67.885
X64.453Y66.885
X64.453Y65.885
X64.453Y64.885
X64.453Y63.885
X64.453Y62.885
X64.453Y61.885
X64.453Y60.885
X64.453Y59.885
X64.453Y58.885
X64.453Y57.885
X64.553Y42.025
X64.625Y32.8
X64.653Y26.376
X64.775Y20.975
X64.8Y44.35
X64.875Y27.8
X64.9Y21.77
X64.95Y20.225
X65.025Y37.657
X65.043Y88.443
X65.35Y33.525
X65.4Y82.8
X65.449Y79.896
X65.449Y78.905
X65.449Y77.889
X65.449Y76.898
X65.449Y75.882
X65.449Y74.892
X65.449Y73.901
X65.449Y72.885
X65.449Y71.895
X65.449Y70.904
X65.453Y69.893
X65.453Y67.885
X65.453Y66.885
X65.453Y65.885
X65.453Y64.885
X65.453Y63.885
X65.453Y62.885
X65.453Y61.885
X65.453Y60.885
X65.453Y59.885
X65.453Y58.885
X65.453Y57.885
X65.675Y39.2
X65.8Y21.275
X66.Y5.5
X66.038Y35.162
X66.062Y36.162
X66.128Y49.652
X66.157Y30.243
X66.157Y29.243
X66.175Y38.2
X66.285Y41.115
X66.285Y40.115
X66.314Y44.843
X66.449Y79.896
X66.449Y78.905
X66.449Y77.889
X66.449Y76.898
X66.449Y75.882
X66.449Y74.892
X66.449Y73.901
X66.449Y72.885
X66.449Y71.895
X66.449Y70.904
X66.453Y69.893
X66.453Y67.885
X66.453Y66.885
X66.453Y65.885
X66.453Y64.885
X66.453Y63.885
X66.453Y62.885
X66.453Y61.885
X66.453Y60.885
X66.453Y59.885
X66.453Y58.885
X66.453Y57.885
X66.575Y54.675
X66.7Y89.1
X66.725Y39.05
X66.875Y53.375
X66.9Y50.025
X67.025Y44.75
X67.225Y39.65
X67.25Y41.6
X67.353Y54.653
X67.449Y79.896
X67.449Y78.905
X67.449Y77.889
X67.449Y76.898
X67.449Y75.882
X67.449Y74.892
X67.449Y73.901
X67.449Y72.885
X67.449Y71.895
X67.449Y70.904
X67.453Y69.893
X67.453Y66.885
X67.453Y65.885
X67.453Y63.885
X67.453Y62.885
X67.453Y61.885
X67.453Y60.885
X67.453Y59.885
X67.453Y58.885
X67.453Y57.885
X67.529Y21.971
X67.55Y35.675
X67.793Y23.007
X68.08Y87.82
X68.265Y30.81
X68.3Y67.775
X68.475Y68.975
X68.584Y23.684
X68.875Y64.9
X69.113Y12.737
X69.175Y32.8
X69.175Y17.575
X69.225Y63.425
X69.275Y48.425
X69.375Y61.325
X69.425Y28.025
X69.525Y43.475
X69.575Y27.
X69.675Y68.889
X69.675Y33.775
X69.7Y38.825
X70.125Y90.075
X70.145Y89.42
X70.225Y88.75
X70.225Y82.35
X70.228Y42.252
X70.25Y98.25
X70.25Y92.5
X70.3Y20.875
X70.45Y99.125
X70.5Y91.25
X70.5Y88.
X70.525Y16.775
X70.75Y96.339
X70.775Y27.225
X70.925Y33.625
X71.1Y31.975
X71.175Y58.85
X71.41Y66.81
X71.425Y37.075
X71.5Y85.25
X71.5Y84.
X71.625Y29.75
X71.675Y39.275
X71.775Y65.35
X71.95Y43.425
X72.008Y41.392
X72.042Y46.042
X72.05Y67.575
X72.108Y40.392
X72.117Y38.183
X72.129Y53.129
X72.129Y52.129
X72.15Y55.375
X72.158Y45.042
X72.2Y56.2
X72.202Y59.098
X72.202Y58.098
X72.3Y60.5
X72.725Y-16.5
X72.75Y-15.
X72.825Y39.7
X72.9Y49.
X72.95Y47.35
X73.05Y29.8
X73.225Y33.325
X73.45Y46.875
X73.5Y95.25
X73.5Y90.
X73.5Y88.
X73.5Y82.75
X73.539Y23.825
X73.557Y61.457
X73.95Y37.175
X74.225Y16.7
X74.3Y61.425
X74.725Y33.925
X74.875Y61.05
X75.475Y27.05
X75.6Y33.625
X75.75Y21.675
X75.85Y28.075
X75.997Y24.175
X76.05Y83.275
X76.1Y52.3
X76.125Y16.75
X76.15Y40.8
X76.2Y54.575
X76.228Y48.175
X76.25Y57.425
X76.25Y44.85
X76.254Y50.865
X76.325Y43.875
X76.4Y58.925
X76.4Y41.9
X76.429Y56.028
X76.472Y46.265
X76.5Y96.25
X76.5Y93.5
X76.5Y90.75
X76.5Y81.5
X76.675Y31.975
X76.7Y51.8
X76.7Y49.5
X76.725Y29.075
X76.875Y55.525
X76.9Y47.95
X76.9Y37.425
X76.954Y43.102
X77.049Y76.921
X77.1Y40.075
X77.173Y15.606
X77.2Y20.1
X77.229Y53.903
X77.25Y16.7
X77.291Y86.091
X77.376Y55.024
X77.405Y57.895
X77.424Y56.024
X77.425Y48.4
X77.454Y45.852
X77.454Y44.852
X77.496Y-14.964
X77.496Y-16.469
X77.5Y99.25
X77.5Y78.75
X77.504Y40.627
X77.505Y58.895
X77.573Y41.727
X77.6Y50.5
X77.725Y39.625
X77.95Y8.4
X77.975Y7.55
X78.104Y54.078
X78.275Y4.
X78.29Y50.29
X78.3Y37.325
X78.45Y47.85
X78.604Y50.952
X78.811Y39.311
X78.85Y43.75
X78.875Y53.65
X78.9Y55.8
X78.904Y46.677
X79.Y60.4
X79.172Y19.623
X79.4Y8.7
X79.45Y21.55
X79.578Y16.597
X79.6Y15.597
X79.655Y18.62
X79.725Y19.62
X80.Y96.25
X80.Y93.5
X80.Y90.75
X80.125Y29.75
X80.35Y10.525
X80.696Y80.725
X81.05Y14.9
X81.207Y77.225
X81.3Y11.15
X81.45Y53.375
X81.711Y43.657
X81.75Y40.1
X81.825Y49.075
X81.85Y47.225
X82.175Y56.1
X82.2Y3.15
X82.25Y78.75
X82.347Y32.003
X82.375Y59.9
X82.4Y41.6
X82.5Y99.25
X82.554Y50.952
X82.654Y52.853
X82.798Y5.925
X82.825Y47.7
X83.006Y23.844
X83.175Y44.05
X83.225Y58.875
X83.25Y96.25
X83.25Y93.5
X83.375Y40.65
X83.5Y-6.5
X83.525Y62.675
X83.546Y18.104
X83.635Y23.04
X83.704Y71.053
X83.95Y44.325
X84.075Y56.55
X84.1Y58.2
X84.135Y20.568
X84.23Y19.085
X84.35Y69.125
X84.475Y55.075
X84.5Y-6.5
X84.554Y15.101
X84.575Y59.5
X84.599Y11.126
X84.6Y20.05
X84.625Y52.575
X84.75Y57.725
X84.754Y56.753
X84.85Y43.475
X84.879Y60.478
X84.925Y49.125
X85.Y99.25
X85.Y78.75
X85.Y41.45
X85.104Y7.75
X85.279Y53.303
X85.4Y19.775
X85.5Y-6.5
X85.575Y15.2
X86.Y2.477
X86.131Y10.169
X86.225Y20.075
X86.229Y15.701
X86.4Y64.325
X86.5Y-6.5
X86.999Y2.477
X87.Y96.25
X87.Y83.25
X87.55Y15.025
X87.8Y43.324
X87.847Y37.378
X87.9Y55.425
X87.924Y60.326
X87.998Y2.527
X88.032Y24.968
X88.054Y48.177
X88.1Y10.3
X88.135Y15.286
X88.175Y66.575
X88.225Y49.875
X88.424Y53.326
X88.439Y39.311
X88.45Y64.375
X88.504Y50.952
X88.6Y60.075
X88.679Y15.001
X88.993Y2.527
X89.032Y24.032
X89.054Y43.475
X89.125Y19.525
X89.15Y52.35
X89.3Y49.5
X89.325Y53.45
X89.379Y41.627
X89.398Y40.648
X89.416Y59.166
X89.416Y58.166
X89.454Y56.046
X89.454Y55.046
X89.487Y45.987
X89.487Y44.987
X89.525Y9.425
X89.6Y42.9
X89.6Y10.275
X89.8Y47.7
X90.Y99.25
X90.Y78.75
X90.Y57.807
X90.Y51.3
X90.025Y41.925
X90.1Y53.45
X90.137Y45.987
X90.2Y50.3
X90.404Y58.328
X90.425Y43.
X90.425Y39.775
X90.5Y51.9
X90.5Y38.9
X90.525Y43.725
X90.575Y54.45
X90.575Y48.525
X90.6Y49.2
X90.6Y14.525
X90.625Y40.875
X90.675Y42.3
X90.725Y57.325
X90.775Y46.775
X90.8Y49.9
X90.879Y41.527
X91.032Y24.032
X91.292Y13.633
X91.325Y74.
X91.968Y25.032
X92.Y81.25
X92.208Y84.633
X92.25Y96.25
X92.25Y21.5
X93.052Y68.402
X93.052Y65.827
X93.108Y17.433
X93.127Y63.327
X93.163Y19.813
X93.218Y12.718
X93.3Y57.8
X93.5Y38.1
X93.675Y47.3
X93.8Y15.125
X93.885Y48.81
X93.955Y92.648
X93.968Y11.782
X94.Y95.25
X94.Y90.
X94.Y88.
X94.Y82.75
X94.1Y62.
X94.239Y72.111
X94.3Y50.3
X94.6Y60.5
X94.6Y59.377
X94.6Y58.4
X94.6Y55.4
X94.6Y53.4
X94.6Y52.4
X94.6Y46.4
X94.677Y45.423
X94.692Y39.108
X94.696Y40.496
X94.7Y56.4
X94.796Y41.496
X95.952Y67.002
X95.952Y63.352
X96.052Y65.834
X96.152Y68.402
T2
X4.1Y42.1
X4.15Y40.15
X5.1Y61.6
X5.1Y60.3
X5.1Y54.9
X5.15Y53.725
X6.4Y56.7
X6.5Y58.9
X7.2Y42.1
X7.2Y40.15
X7.25Y82.
X7.25Y80.75
X7.25Y79.5
X7.25Y78.25
X7.25Y77.
X7.25Y75.75
X7.25Y74.5
X7.7Y56.7
X7.75Y17.05
X7.8Y58.9
X8.Y97.44
X8.Y95.945
X8.Y94.44
X8.Y92.945
X8.Y91.44
X8.Y89.945
X8.Y88.515
X8.Y87.02
X8.25Y82.
X8.25Y80.75
X8.25Y79.5
X8.25Y78.25
X8.25Y77.
X8.25Y75.75
X8.25Y74.5
X9.25Y82.
X9.25Y80.75
X9.25Y79.5
X9.25Y78.25
X9.25Y77.
X9.25Y75.75
X9.25Y74.5
X9.5Y97.42
X9.5Y95.925
X9.5Y94.42
X9.5Y92.925
X9.5Y91.42
X9.5Y89.925
X9.5Y88.495
X9.5Y87.
X9.625Y34.575
X9.65Y31.725
X10.25Y82.
X10.25Y80.75
X10.25Y79.5
X10.25Y78.25
X10.25Y77.
X10.25Y75.75
X10.25Y74.5
X10.575Y33.6
X10.625Y32.525
X11.25Y82.
X11.25Y80.75
X11.25Y79.5
X11.25Y78.25
X11.25Y77.
X11.25Y75.75
X11.25Y74.5
X12.1Y67.9
X12.1Y66.5
X12.25Y82.
X12.25Y80.75
X12.25Y79.5
X12.25Y78.25
X12.25Y77.
X12.25Y75.75
X12.25Y74.5
X13.25Y82.
X13.25Y80.75
X13.25Y79.5
X13.25Y78.25
X13.25Y77.
X13.25Y75.75
X13.25Y74.5
X13.8Y69.6
X14.25Y82.
X14.25Y80.75
X14.25Y79.5
X14.25Y78.25
X14.25Y77.
X14.25Y75.75
X14.25Y74.5
X15.25Y82.
X15.25Y80.75
X15.25Y79.5
X15.25Y78.25
X15.25Y77.
X15.25Y75.75
X15.25Y74.5
X16.25Y82.
X16.25Y80.75
X16.25Y79.5
X16.25Y78.25
X16.25Y77.
X16.25Y75.75
X16.25Y74.5
X17.25Y82.
X17.25Y80.75
X17.25Y79.5
X17.25Y78.25
X17.25Y77.
X17.25Y75.75
X17.25Y74.5
X18.25Y82.
X18.25Y80.75
X18.25Y79.5
X18.25Y78.25
X18.25Y77.
X18.25Y75.75
X18.25Y74.5
X24.275Y99.85
X24.275Y98.35
X24.275Y94.85
X24.275Y93.35
X24.275Y89.85
X24.275Y88.25
X24.618Y82.093
X24.8Y51.4
X24.8Y49.9
X24.8Y47.
X24.8Y45.5
X25.275Y16.9
X25.525Y79.
X26.85Y8.975
X27.Y-16.8
X29.725Y28.7
X29.75Y24.45
X31.5Y65.2
X31.525Y82.5
X31.55Y63.475
X32.Y94.
X32.9Y54.
X34.1Y65.2
X34.425Y52.4
X35.4Y65.2
X35.75Y-16.75
X36.5Y54.2
X37.Y94.
X37.982Y-16.75
X38.75Y75.425
X38.775Y76.6
X38.775Y72.825
X39.Y64.825
X39.025Y62.075
X39.425Y7.402
X39.525Y86.45
X39.825Y72.8
X39.875Y75.375
X39.9Y76.6
X40.35Y68.1
X40.35Y66.375
X40.375Y79.2
X40.95Y87.5
X41.05Y54.45
X41.475Y62.025
X41.5Y64.075
X41.6Y75.825
X41.825Y69.6
X42.05Y58.925
X42.075Y80.975
X42.1Y52.675
X42.2Y78.175
X42.45Y72.675
X42.8Y68.1
X42.875Y70.675
X42.875Y66.1
X43.55Y51.35
X43.594Y52.492
X43.6Y58.925
X43.725Y76.8
X43.75Y87.525
X43.8Y80.975
X43.825Y78.175
X44.Y73.725
X44.25Y94.
X44.675Y56.6
X45.125Y86.7
X46.025Y81.65
X46.075Y83.15
X46.125Y85.95
X46.425Y54.55
X47.Y-16.75
X47.05Y13.35
X47.175Y87.35
X47.25Y81.625
X47.65Y51.35
X48.275Y8.5
X48.45Y55.
X48.45Y13.35
X48.65Y81.625
X48.7Y87.325
X48.75Y-16.75
X49.725Y86.075
X49.925Y91.725
X49.95Y90.275
X50.925Y92.8
X50.925Y89.175
X51.1Y86.825
X51.1Y84.125
X51.3Y53.8
X52.125Y28.15
X52.3Y92.775
X52.3Y89.2
X53.3Y53.725
X54.025Y85.75
X54.025Y83.05
X55.225Y30.175
X55.325Y84.
X55.35Y81.525
X55.7Y52.7
X55.775Y55.075
X57.425Y89.175
X57.475Y92.825
X57.5Y-16.8
X57.75Y52.725
X57.803Y55.103
X58.8Y92.825
X58.85Y89.15
X59.275Y84.025
X59.3Y81.45
X59.825Y91.775
X59.85Y90.2
X60.1Y52.8
X60.5Y-9.414
X60.66Y-14.964
X60.9Y82.65
X61.Y85.575
X61.225Y56.125
X62.075Y55.075
X62.2Y86.85
X62.875Y82.675
X63.2Y52.65
X64.025Y84.325
X64.175Y81.475
X64.95Y86.925
X65.053Y52.703
X66.478Y52.028
X66.5Y-9.
X66.6Y56.1
X67.95Y51.65
X68.125Y81.45
X68.55Y57.175
X69.275Y80.925
X69.425Y67.675
X69.488Y-9.
X69.488Y-15.
X69.625Y57.25
X69.75Y51.65
X70.35Y73.825
X70.375Y71.95
X70.375Y69.975
X70.4Y75.5
X70.45Y78.175
X70.5Y64.675
X70.6Y56.125
X70.8Y53.025
X71.275Y77.225
X72.725Y66.95
X72.75Y72.025
X72.75Y64.3
X72.754Y70.078
X73.825Y63.05
X73.875Y68.55
X74.3Y73.3
X74.825Y74.525
X74.85Y8.475
X74.875Y76.8
X75.25Y68.55
X75.325Y63.05
X76.275Y67.375
X76.325Y64.3
X77.9Y68.825
X77.925Y74.7
X78.9Y66.6
X78.975Y73.025
X80.35Y69.9
X80.4Y73.05
X80.5Y66.575
X80.5Y-9.536
X80.66Y-15.068
X81.45Y74.625
X85.Y-8.
X86.425Y5.075
X89.487Y-9.5
X89.5Y-15.
X92.3Y6.2
T3
X20.Y-4.8
X20.Y-10.6
X24.8Y-7.8
T4
X63.377Y91.745
X65.917Y91.745
X84.161Y33.07
X84.161Y30.53
X86.139Y-1.5
X88.679Y-1.5
X91.219Y-1.5
X87.847Y33.706
X87.847Y31.166
X87.847Y28.626
X90.387Y33.706
X90.387Y31.166
X90.387Y28.626
X31.41Y1.3
X33.95Y1.3
X36.49Y1.3
X39.03Y1.3
X41.57Y1.3
X44.11Y1.3
X46.65Y1.3
X49.19Y1.3
X72.365Y13.792
X72.365Y11.252
X74.905Y13.792
X74.905Y11.252
X77.445Y13.792
X77.445Y11.252
X27.909Y99.035
X27.909Y96.495
X30.449Y99.035
X30.449Y96.495
X32.989Y99.035
X32.989Y96.495
X35.529Y99.035
X35.529Y96.495
X38.069Y99.035
X38.069Y96.495
X40.609Y99.035
X40.609Y96.495
X43.149Y99.035
X43.149Y96.495
X45.689Y99.035
X45.689Y96.495
X16.434Y20.422
X18.974Y20.422
X21.514Y20.422
X24.054Y20.422
X26.594Y20.422
X29.134Y20.422
X38.506Y13.792
X38.506Y11.252
X41.046Y13.792
X41.046Y11.252
X43.586Y13.792
X43.586Y11.252
X50.693Y99.035
X50.693Y96.495
X53.233Y99.035
X53.233Y96.495
X55.773Y99.035
X55.773Y96.495
X58.313Y99.035
X58.313Y96.495
X60.853Y99.035
X60.853Y96.495
X63.393Y99.035
X63.393Y96.495
X65.933Y99.035
X65.933Y96.495
X68.473Y99.035
X68.473Y96.495
X16.98Y32.015
X16.98Y29.475
X16.98Y26.935
X19.52Y32.015
X19.52Y29.475
X19.52Y26.935
X31.5Y-6.
X34.04Y-6.
X36.58Y-6.
X39.12Y-6.
X41.66Y-6.
X44.2Y-6.
X46.74Y-6.
X49.28Y-6.
X51.82Y-6.
X54.36Y-6.
T5
X82.8Y-13.884
X87.21Y-13.884
X62.8Y-13.884
X67.21Y-13.884
T0
M30
