G04 #@! TF.GenerationSoftware,KiCad,Pcbnew,5.0.0-rc2-dev-unknown-9f5316e~63~ubuntu17.10.1*
G04 #@! TF.CreationDate,2018-04-23T17:13:07+02:00*
G04 #@! TF.ProjectId,Cryptech Alpha,437279707465636820416C7068612E6B,rev?*
G04 #@! TF.SameCoordinates,Original*
G04 #@! TF.FileFunction,Copper,L1,Top,Signal*
G04 #@! TF.FilePolarity,Positive*
%FSLAX46Y46*%
G04 Gerber Fmt 4.6, Leading zero omitted, Abs format (unit mm)*
G04 Created by KiCad (PCBNEW 5.0.0-rc2-dev-unknown-9f5316e~63~ubuntu17.10.1) date Mon Apr 23 17:13:07 2018*
%MOMM*%
%LPD*%
G01*
G04 APERTURE LIST*
%ADD10C,1.500000*%
%ADD11R,1.500000X1.500000*%
%ADD12R,1.000000X1.200000*%
%ADD13R,0.600000X0.450000*%
%ADD14R,0.450000X0.600000*%
%ADD15R,1.200000X1.000000*%
%ADD16R,2.600000X2.400000*%
%ADD17R,2.600000X1.600000*%
%ADD18R,2.400000X2.600000*%
%ADD19R,1.600000X2.600000*%
%ADD20C,1.016000*%
%ADD21R,1.600000X2.000000*%
%ADD22R,0.600000X1.600000*%
%ADD23R,1.200000X0.800000*%
%ADD24R,1.000000X0.900000*%
%ADD25R,0.900000X1.000000*%
%ADD26R,2.032000X0.660400*%
%ADD27R,0.660400X2.032000*%
%ADD28R,0.300000X0.850000*%
%ADD29O,2.000000X4.500000*%
%ADD30O,4.500000X2.000000*%
%ADD31R,1.000000X0.800000*%
%ADD32R,0.800000X1.200000*%
%ADD33R,0.450000X1.016000*%
%ADD34R,0.609600X1.016000*%
%ADD35R,1.244600X0.406400*%
%ADD36O,1.200000X0.300000*%
%ADD37R,1.550000X0.600000*%
%ADD38R,0.300000X1.800000*%
%ADD39R,1.800000X0.300000*%
%ADD40O,0.550000X1.550000*%
%ADD41R,0.550000X1.550000*%
%ADD42R,1.550000X0.550000*%
%ADD43R,1.905000X1.117600*%
%ADD44R,1.193800X1.397000*%
%ADD45R,1.397000X1.193800*%
%ADD46C,1.000000*%
%ADD47C,0.500000*%
%ADD48C,0.600000*%
%ADD49C,0.300000*%
%ADD50C,0.150000*%
%ADD51C,0.164000*%
%ADD52C,0.600000*%
%ADD53C,1.000000*%
%ADD54C,0.200000*%
%ADD55C,0.500000*%
G04 APERTURE END LIST*
D10*
X36580000Y-6000000D03*
X54360000Y-6000000D03*
X51820000Y-6000000D03*
X49280000Y-6000000D03*
X46740000Y-6000000D03*
X44200000Y-6000000D03*
X41660000Y-6000000D03*
X39120000Y-6000000D03*
X34040000Y-6000000D03*
D11*
X31500000Y-6000000D03*
X84160740Y30530000D03*
D10*
X84160740Y33070000D03*
D12*
X71500000Y86500000D03*
X73500000Y86500000D03*
D13*
X74500000Y89000000D03*
X74500000Y90000000D03*
D14*
X70750000Y92500000D03*
X71750000Y92500000D03*
D15*
X76250000Y88750000D03*
X76250000Y86750000D03*
D14*
X13625000Y20450000D03*
X12625000Y20450000D03*
D13*
X26600000Y23800000D03*
X26600000Y22800000D03*
X37800000Y21000000D03*
X37800000Y20000000D03*
X39200000Y20800000D03*
X39200000Y19800000D03*
X94056200Y38108000D03*
X94056200Y39108000D03*
X78105000Y41727400D03*
X78105000Y40727400D03*
X94056200Y55405400D03*
X94056200Y56405400D03*
X78105000Y57894600D03*
X78105000Y58894600D03*
X94056200Y45423200D03*
X94056200Y46423200D03*
X78105000Y55024400D03*
X78105000Y56024400D03*
X94056200Y61493400D03*
X94056200Y60493400D03*
X94056200Y40495600D03*
X94056200Y41495600D03*
X94056200Y58377200D03*
X94056200Y59377200D03*
X78105000Y44864400D03*
X78105000Y45864400D03*
X94056200Y52408200D03*
X94056200Y53408200D03*
D14*
X39600000Y51675000D03*
X38600000Y51675000D03*
D13*
X22100000Y48375000D03*
X22100000Y47375000D03*
X19300000Y41400000D03*
X19300000Y40400000D03*
X10719800Y2684400D03*
X10719800Y3684400D03*
X19889200Y4360800D03*
X19889200Y5360800D03*
X9297400Y2684400D03*
X9297400Y3684400D03*
D15*
X25807400Y10890000D03*
X25807400Y8890000D03*
D13*
X19889200Y7697600D03*
X19889200Y6697600D03*
X22325000Y10525000D03*
X22325000Y9525000D03*
D15*
X24207200Y16884400D03*
X24207200Y14884400D03*
D13*
X19889200Y10228200D03*
X19889200Y11228200D03*
D15*
X7773400Y14071600D03*
X7773400Y16071600D03*
D14*
X13048600Y3565400D03*
X12048600Y3565400D03*
X15579200Y3590800D03*
X16579200Y3590800D03*
D13*
X19889200Y12336400D03*
X19889200Y13336400D03*
D14*
X11032600Y15782800D03*
X12032600Y15782800D03*
X80459200Y20897600D03*
X79459200Y20897600D03*
X82300000Y11825000D03*
X81300000Y11825000D03*
X80425000Y22150000D03*
X79425000Y22150000D03*
D15*
X86419000Y8066800D03*
X86419000Y6066800D03*
D14*
X83599400Y11829800D03*
X84599400Y11829800D03*
D13*
X86131400Y11923400D03*
X86131400Y10923400D03*
D15*
X91186000Y6207000D03*
X91186000Y8207000D03*
D13*
X87782400Y10923400D03*
X87782400Y11923400D03*
D12*
X91000000Y25000000D03*
X89000000Y25000000D03*
D13*
X80391000Y16597000D03*
X80391000Y15597000D03*
X89230200Y10923400D03*
X89230200Y11923400D03*
X92202000Y20813400D03*
X92202000Y19813400D03*
X80391000Y18619600D03*
X80391000Y19619600D03*
D12*
X54152600Y30147800D03*
X52152600Y30147800D03*
D14*
X54904000Y44950800D03*
X53904000Y44950800D03*
X53583200Y32428600D03*
X52583200Y32428600D03*
D13*
X65325000Y35125000D03*
X65325000Y34125000D03*
D14*
X55456200Y67894200D03*
X56456200Y67894200D03*
D13*
X34352200Y29648200D03*
X34352200Y30648200D03*
D14*
X49050000Y29475000D03*
X48050000Y29475000D03*
X41500000Y93500000D03*
X42500000Y93500000D03*
D16*
X79705200Y68251000D03*
X79705200Y74751000D03*
D14*
X61434600Y69875400D03*
X60434600Y69875400D03*
X57437400Y72898000D03*
X58437400Y72898000D03*
D17*
X47929800Y86056600D03*
X47929800Y83056600D03*
D18*
X51625400Y90997000D03*
X58125400Y90997000D03*
D14*
X60434600Y70916800D03*
X61434600Y70916800D03*
X61460000Y63855600D03*
X60460000Y63855600D03*
X57437400Y71907400D03*
X58437400Y71907400D03*
X58462800Y66903600D03*
X57462800Y66903600D03*
D12*
X51070000Y83007200D03*
X53070000Y83007200D03*
D17*
X42849800Y57591350D03*
X42849800Y54591350D03*
D13*
X57454800Y69908800D03*
X57454800Y70908800D03*
D14*
X61460000Y67894200D03*
X60460000Y67894200D03*
D15*
X43992800Y70678800D03*
X43992800Y72678800D03*
D17*
X74523600Y64311400D03*
X74523600Y67311400D03*
D14*
X61450600Y66878200D03*
X62450600Y66878200D03*
D12*
X51070000Y85725000D03*
X53070000Y85725000D03*
X62849000Y81559400D03*
X60849000Y81559400D03*
D15*
X60121800Y56118000D03*
X60121800Y54118000D03*
D14*
X61434600Y65887600D03*
X60434600Y65887600D03*
D13*
X55473600Y70899400D03*
X55473600Y71899400D03*
D15*
X71678800Y72018400D03*
X71678800Y70018400D03*
X43916600Y68106800D03*
X43916600Y66106800D03*
D14*
X59478800Y65887600D03*
X58478800Y65887600D03*
D13*
X55473600Y72906000D03*
X55473600Y73906000D03*
D15*
X41427400Y66106800D03*
X41427400Y68106800D03*
X69265800Y69967600D03*
X69265800Y71967600D03*
D14*
X58453400Y64846200D03*
X59453400Y64846200D03*
X58453400Y70891400D03*
X59453400Y70891400D03*
D12*
X56302400Y84023200D03*
X58302400Y84023200D03*
D15*
X70485000Y67649600D03*
X70485000Y65649600D03*
D14*
X60434600Y64846200D03*
X61434600Y64846200D03*
D13*
X57454800Y64879600D03*
X57454800Y65879600D03*
D12*
X55743600Y53797200D03*
X57743600Y53797200D03*
X58302400Y81559400D03*
X56302400Y81559400D03*
D14*
X57437400Y63881000D03*
X58437400Y63881000D03*
D13*
X55422800Y65879600D03*
X55422800Y64879600D03*
D15*
X41402000Y72678800D03*
X41402000Y70678800D03*
D12*
X57769000Y56184800D03*
X55769000Y56184800D03*
D14*
X60434600Y71907400D03*
X61434600Y71907400D03*
D13*
X59436000Y71890000D03*
X59436000Y72890000D03*
D14*
X61460000Y72898000D03*
X60460000Y72898000D03*
D19*
X65279400Y85064600D03*
X62279400Y85064600D03*
X40791000Y85699600D03*
X43791000Y85699600D03*
D17*
X68834000Y55883000D03*
X68834000Y52883000D03*
X73075800Y74471400D03*
X73075800Y77471400D03*
D15*
X63246000Y53742980D03*
X63246000Y55742980D03*
D12*
X43773600Y82067400D03*
X41773600Y82067400D03*
X41824400Y79273400D03*
X43824400Y79273400D03*
D15*
X40157400Y64042800D03*
X40157400Y62042800D03*
X42595800Y62042800D03*
X42595800Y64042800D03*
D12*
X53298600Y54914800D03*
X51298600Y54914800D03*
D15*
X69265800Y79943200D03*
X69265800Y77943200D03*
X65455800Y56118000D03*
X65455800Y54118000D03*
D12*
X67116200Y81559400D03*
X65116200Y81559400D03*
D15*
X42621200Y74920600D03*
X42621200Y76920600D03*
X69265800Y73828400D03*
X69265800Y75828400D03*
D12*
X46447200Y56083200D03*
X48447200Y56083200D03*
D13*
X48437800Y62882400D03*
X48437800Y61882400D03*
D14*
X48455200Y59867800D03*
X47455200Y59867800D03*
D13*
X53467000Y78925800D03*
X53467000Y79925800D03*
D14*
X61450600Y61924400D03*
X62450600Y61924400D03*
X50436400Y69875400D03*
X49436400Y69875400D03*
D13*
X55473600Y75912600D03*
X55473600Y74912600D03*
X44678600Y63898400D03*
X44678600Y62898400D03*
D14*
X52509800Y56997600D03*
X53509800Y56997600D03*
D13*
X52451000Y75887200D03*
X52451000Y74887200D03*
D14*
X68318000Y64744600D03*
X67318000Y64744600D03*
X53459000Y67919600D03*
X52459000Y67919600D03*
D13*
X46431200Y78909800D03*
X46431200Y77909800D03*
X49453800Y65895600D03*
X49453800Y66895600D03*
D14*
X49436400Y58902600D03*
X50436400Y58902600D03*
X49445800Y76911200D03*
X48445800Y76911200D03*
D13*
X60452000Y61907800D03*
X60452000Y62907800D03*
D14*
X47455200Y67894200D03*
X48455200Y67894200D03*
X51427000Y80797400D03*
X50427000Y80797400D03*
X64431800Y67894200D03*
X63431800Y67894200D03*
X50452400Y61899800D03*
X51452400Y61899800D03*
D13*
X51460400Y72890000D03*
X51460400Y71890000D03*
X67462400Y67886200D03*
X67462400Y66886200D03*
D14*
X46448600Y66878200D03*
X45448600Y66878200D03*
D13*
X44595460Y75771950D03*
X44595460Y74771950D03*
X24003000Y62593600D03*
X24003000Y63593600D03*
X14833600Y47769400D03*
X14833600Y46769400D03*
X30911800Y75827000D03*
X30911800Y76827000D03*
X36000000Y15000000D03*
X36000000Y14000000D03*
D14*
X72400000Y16700000D03*
X73400000Y16700000D03*
D20*
X67209800Y-13884000D03*
X62800000Y-13884000D03*
D21*
X69360000Y-16900000D03*
X69360000Y-11394800D03*
X60660000Y-16900000D03*
D22*
X66600200Y-11200000D03*
X65800000Y-11200000D03*
X65000000Y-11200000D03*
X64200000Y-11200000D03*
X63400000Y-11200000D03*
D21*
X60660000Y-11394800D03*
D20*
X82800000Y-13884000D03*
X87209800Y-13884000D03*
D21*
X80660000Y-11394800D03*
D22*
X83400000Y-11200000D03*
X84200000Y-11200000D03*
X85000000Y-11200000D03*
X85800000Y-11200000D03*
X86600200Y-11200000D03*
D21*
X80660000Y-16900000D03*
X89360000Y-11394800D03*
X89360000Y-16900000D03*
D23*
X22080400Y62600800D03*
X22080400Y64500800D03*
X19880400Y63550800D03*
X10507800Y47269400D03*
X12707800Y48219400D03*
X12707800Y46319400D03*
X31716800Y73873400D03*
X31716800Y71973400D03*
X33916800Y72923400D03*
D24*
X27351200Y16572600D03*
X27351200Y14872600D03*
D25*
X21602800Y14919200D03*
X19902800Y14919200D03*
D24*
X93218000Y11816200D03*
X93218000Y10116200D03*
X91186000Y10116200D03*
X91186000Y11816200D03*
D26*
X30081800Y52933000D03*
X36228600Y52933000D03*
X30081800Y51663000D03*
X30081800Y50393000D03*
X36228600Y51663000D03*
X36228600Y50393000D03*
X30081800Y49123000D03*
X36228600Y49123000D03*
X44385200Y32637400D03*
X44385200Y33907400D03*
X44385200Y35177400D03*
X44385200Y36447400D03*
X44385200Y37717400D03*
X44385200Y38987400D03*
X44385200Y40257400D03*
X44385200Y41527400D03*
X34326800Y41527400D03*
X34326800Y40257400D03*
X34326800Y38987400D03*
X34326800Y37717400D03*
X34326800Y36447400D03*
X34326800Y35177400D03*
X34326800Y33907400D03*
X34326800Y32637400D03*
X44385200Y42797400D03*
X44385200Y44067400D03*
X34326800Y42797400D03*
X34326800Y44067400D03*
X48610200Y23378200D03*
X42463400Y23378200D03*
X48610200Y24648200D03*
X48610200Y25918200D03*
X42463400Y24648200D03*
X42463400Y25918200D03*
X48610200Y27188200D03*
X42463400Y27188200D03*
D27*
X79806800Y35493200D03*
X78536800Y35493200D03*
X79806800Y25434800D03*
X78536800Y25434800D03*
X68376800Y35493200D03*
X69646800Y35493200D03*
X70916800Y35493200D03*
X72186800Y35493200D03*
X73456800Y35493200D03*
X74726800Y35493200D03*
X75996800Y35493200D03*
X77266800Y35493200D03*
X77266800Y25434800D03*
X75996800Y25434800D03*
X74726800Y25434800D03*
X73456800Y25434800D03*
X72186800Y25434800D03*
X70916800Y25434800D03*
X69646800Y25434800D03*
X68376800Y25434800D03*
D28*
X52316000Y11799400D03*
X51816000Y11799400D03*
X51316000Y11799400D03*
X51316000Y10349400D03*
X51816000Y10349400D03*
X52316000Y10349400D03*
X69613400Y10349400D03*
X69113400Y10349400D03*
X68613400Y10349400D03*
X68613400Y11799400D03*
X69113400Y11799400D03*
X69613400Y11799400D03*
D10*
X29133790Y20421600D03*
X26593790Y20421600D03*
X24053790Y20421600D03*
X21513790Y20421600D03*
X18973790Y20421600D03*
D11*
X16433790Y20421600D03*
X38506390Y11252200D03*
D10*
X38506390Y13792200D03*
X41046390Y11252200D03*
X41046390Y13792200D03*
X43586390Y11252200D03*
X43586390Y13792200D03*
X77444590Y13792200D03*
X77444590Y11252200D03*
X74904590Y13792200D03*
X74904590Y11252200D03*
X72364590Y13792200D03*
D11*
X72364590Y11252200D03*
D29*
X24800000Y-7800000D03*
D30*
X20000000Y-10600000D03*
X20000000Y-4800000D03*
D10*
X65916800Y91744800D03*
D11*
X63376800Y91744800D03*
X87847000Y33705800D03*
D10*
X90387000Y33705800D03*
X87847000Y31165800D03*
X90387000Y31165800D03*
X87847000Y28625800D03*
X90387000Y28625800D03*
X91219330Y-1500000D03*
X88679330Y-1500000D03*
D11*
X86139330Y-1500000D03*
X16980000Y32015000D03*
D10*
X19520000Y32015000D03*
X16980000Y29475000D03*
X19520000Y29475000D03*
X16980000Y26935000D03*
X19520000Y26935000D03*
D31*
X45514200Y-15200000D03*
X45514200Y-16800000D03*
X41514190Y-16800000D03*
X41514190Y-15200000D03*
X39514190Y-15200000D03*
X39514190Y-16800000D03*
X43514200Y-16800000D03*
X43514200Y-15200000D03*
X34350000Y-15200000D03*
X34350000Y-16800000D03*
X30350000Y-16800000D03*
X30350000Y-15200000D03*
X28350000Y-15200000D03*
X28350000Y-16800000D03*
X32350000Y-16800000D03*
X32350000Y-15200000D03*
X74000000Y-15200000D03*
X74000000Y-16800000D03*
X52050000Y-16800000D03*
X52050000Y-15200000D03*
X56050000Y-15200000D03*
X56050000Y-16800000D03*
X54050000Y-16800000D03*
X54050000Y-15200000D03*
X50050000Y-15200000D03*
X50050000Y-16800000D03*
X76132250Y-16800000D03*
X76132250Y-15200000D03*
D32*
X72452000Y94138800D03*
X71502000Y96338800D03*
X73402000Y96338800D03*
D23*
X88206400Y73050400D03*
X90406400Y74000400D03*
X90406400Y72100400D03*
X14639800Y43360600D03*
X14639800Y41460600D03*
X16839800Y42410600D03*
D13*
X27500000Y81900000D03*
X27500000Y80900000D03*
X27500000Y78700000D03*
X27500000Y79700000D03*
D14*
X25204800Y80830800D03*
X26204800Y80830800D03*
X72250000Y99500000D03*
X71250000Y99500000D03*
X72250000Y98250000D03*
X71250000Y98250000D03*
X41470200Y20040600D03*
X40470200Y20040600D03*
X27940200Y50393000D03*
X26940200Y50393000D03*
X26925000Y52900000D03*
X27925000Y52900000D03*
X30808600Y41629000D03*
X31808600Y41629000D03*
X31183200Y42799000D03*
X30183200Y42799000D03*
X30183200Y44094400D03*
X31183200Y44094400D03*
X19795600Y9153400D03*
X20795600Y9153400D03*
D13*
X7621000Y6875400D03*
X7621000Y7875400D03*
D14*
X88025000Y9400000D03*
X89025000Y9400000D03*
X83675600Y23844000D03*
X84675600Y23844000D03*
D13*
X46700000Y38125000D03*
X46700000Y37125000D03*
X36220400Y23385400D03*
X36220400Y22385400D03*
X79000000Y7875000D03*
X79000000Y6875000D03*
D14*
X38750000Y71575000D03*
X39750000Y71575000D03*
X83709000Y71729600D03*
X84709000Y71729600D03*
X35700000Y67650000D03*
X34700000Y67650000D03*
X92413200Y72110600D03*
X93413200Y72110600D03*
X94835600Y68402200D03*
X93835600Y68402200D03*
X93810200Y65862200D03*
X94810200Y65862200D03*
X94810200Y63347600D03*
X93810200Y63347600D03*
D13*
X12900000Y32325000D03*
X12900000Y33325000D03*
X12875000Y29050000D03*
X12875000Y28050000D03*
X13000000Y23700000D03*
X13000000Y24700000D03*
D14*
X42025000Y29475000D03*
X43025000Y29475000D03*
X84709000Y73126600D03*
X83709000Y73126600D03*
X37725000Y67650000D03*
X36725000Y67650000D03*
D13*
X44700000Y60850000D03*
X44700000Y61850000D03*
D14*
X37775000Y69025000D03*
X36775000Y69025000D03*
D13*
X17780000Y63593600D03*
X17780000Y62593600D03*
D14*
X11498200Y50165000D03*
X10498200Y50165000D03*
X11000000Y44700000D03*
X12000000Y44700000D03*
X34917000Y70358000D03*
X33917000Y70358000D03*
X32975000Y75625000D03*
X31975000Y75625000D03*
D13*
X12971200Y41656600D03*
X12971200Y42656600D03*
D14*
X82900000Y4800000D03*
X83900000Y4800000D03*
X36650000Y66000000D03*
X37650000Y66000000D03*
X37650000Y64560670D03*
X36650000Y64560670D03*
X36650000Y63050000D03*
X37650000Y63050000D03*
D13*
X16752300Y15740000D03*
X16752300Y16740000D03*
X15495000Y16740000D03*
X15495000Y15740000D03*
D14*
X92108400Y15131800D03*
X93108400Y15131800D03*
X93108400Y16605000D03*
X92108400Y16605000D03*
X93108400Y13633200D03*
X92108400Y13633200D03*
D13*
X18009600Y15740000D03*
X18009600Y16740000D03*
D33*
X65317000Y5360800D03*
X60265000Y5360800D03*
D34*
X60945800Y7560800D03*
X60945800Y3151000D03*
X64650000Y3151000D03*
X64650000Y7560800D03*
D10*
X49190000Y1300000D03*
D11*
X31410000Y1300000D03*
D10*
X33950000Y1300000D03*
X36490000Y1300000D03*
X39030000Y1300000D03*
X41570000Y1300000D03*
X44110000Y1300000D03*
X46650000Y1300000D03*
X50692990Y96494600D03*
X50692990Y99034600D03*
X53232990Y96494600D03*
X53232990Y99034600D03*
X55772990Y96494600D03*
X55772990Y99034600D03*
X58312990Y96494600D03*
X58312990Y99034600D03*
X60852990Y96494600D03*
X60852990Y99034600D03*
X63392990Y96494600D03*
X63392990Y99034600D03*
X65932990Y96494600D03*
X65932990Y99034600D03*
X68472990Y96494600D03*
D11*
X68472990Y99034600D03*
X45689190Y99034600D03*
D10*
X45689190Y96494600D03*
X43149190Y99034600D03*
X43149190Y96494600D03*
X40609190Y99034600D03*
X40609190Y96494600D03*
X38069190Y99034600D03*
X38069190Y96494600D03*
X35529190Y99034600D03*
X35529190Y96494600D03*
X32989190Y99034600D03*
X32989190Y96494600D03*
X30449190Y99034600D03*
X30449190Y96494600D03*
X27909190Y99034600D03*
X27909190Y96494600D03*
D35*
X69200000Y90725000D03*
X69200000Y90075000D03*
X69200000Y89419800D03*
X69200000Y88759400D03*
X71820800Y88759400D03*
X71820800Y89419800D03*
X71820800Y90075000D03*
X71820800Y90725000D03*
D36*
X80420400Y60326400D03*
X80420400Y59826400D03*
X80420400Y59326400D03*
X80420400Y58826400D03*
X80420400Y58326400D03*
X80420400Y57826400D03*
X80420400Y57326400D03*
X80420400Y56826400D03*
X80420400Y56326400D03*
X80420400Y55826400D03*
X80420400Y55326400D03*
X80420400Y54826400D03*
X80420400Y54326400D03*
X80420400Y53826400D03*
X80420400Y53326400D03*
X80420400Y52826400D03*
X80420400Y52326400D03*
X80420400Y51826400D03*
X80420400Y51326400D03*
X80420400Y50826400D03*
X80420400Y50326400D03*
X80420400Y49826400D03*
X80420400Y49326400D03*
X80420400Y48826400D03*
X80420400Y48326400D03*
X80420400Y47826400D03*
X80420400Y47326400D03*
X80420400Y46826400D03*
X80420400Y46326400D03*
X80420400Y45826400D03*
X80420400Y45326400D03*
X80420400Y44826400D03*
X80420400Y44326400D03*
X80420400Y43826400D03*
X80420400Y43326400D03*
X80420400Y42826400D03*
X80420400Y42326400D03*
X80420400Y41826400D03*
X80420400Y41326400D03*
X80420400Y40826400D03*
X80420400Y40326400D03*
X80420400Y39826400D03*
X80420400Y39326400D03*
X91920400Y60326400D03*
X91920400Y59826400D03*
X91920400Y59326400D03*
X91920400Y58826400D03*
X91920400Y58326400D03*
X91920400Y57826400D03*
X91920400Y57326400D03*
X91920400Y56826400D03*
X91920400Y56326400D03*
X91920400Y55826400D03*
X91920400Y55326400D03*
X91920400Y54826400D03*
X91920400Y54326400D03*
X91920400Y53826400D03*
X91920400Y53326400D03*
X91920400Y52826400D03*
X91920400Y52326400D03*
X91920400Y51826400D03*
X91920400Y51326400D03*
X91920400Y50826400D03*
X91920400Y50326400D03*
X91920400Y49826400D03*
X91920400Y49326400D03*
X91920400Y48826400D03*
X91920400Y48326400D03*
X91920400Y47826400D03*
X91920400Y47326400D03*
X91920400Y46826400D03*
X91920400Y46326400D03*
X91920400Y45826400D03*
X91920400Y45326400D03*
X91920400Y44826400D03*
X91920400Y44326400D03*
X91920400Y43826400D03*
X91920400Y43326400D03*
X91920400Y42826400D03*
X91920400Y42326400D03*
X91920400Y41826400D03*
X91920400Y41326400D03*
X91920400Y40826400D03*
X91920400Y40326400D03*
X91920400Y39826400D03*
X91920400Y39326400D03*
D37*
X28292400Y45355000D03*
X28292400Y44085000D03*
X28292400Y42815000D03*
X28292400Y41545000D03*
X22882200Y41545000D03*
X22882200Y42815000D03*
X22882200Y44085000D03*
X22882200Y45355000D03*
D38*
X16568600Y5586000D03*
X16068600Y5586000D03*
X15568600Y5586000D03*
X15068600Y5586000D03*
X14568600Y5586000D03*
X14068600Y5586000D03*
X13568600Y5586000D03*
X13068600Y5586000D03*
X12568600Y5586000D03*
X12068600Y5586000D03*
X11568600Y5586000D03*
X11068600Y5586000D03*
D39*
X9768600Y6886000D03*
X9768600Y7385990D03*
X9768600Y7886000D03*
X9768600Y8386000D03*
X9768600Y8886000D03*
X9768600Y9386000D03*
X9768600Y9885990D03*
X9768600Y10386000D03*
X9768600Y10886000D03*
X9768600Y11386000D03*
X9768600Y11886000D03*
X9768600Y12386000D03*
D38*
X11068600Y13686000D03*
X11568600Y13686000D03*
X12068600Y13686000D03*
X12568600Y13686000D03*
X13068600Y13686000D03*
X13568600Y13686000D03*
X14068600Y13686000D03*
X14568600Y13686000D03*
X15068600Y13686000D03*
X15568600Y13686000D03*
X16068600Y13686000D03*
X16568600Y13686000D03*
D39*
X17868600Y12386000D03*
X17868600Y11886000D03*
X17868600Y11386000D03*
X17868600Y10886000D03*
X17868600Y10386000D03*
X17868600Y9885990D03*
X17868600Y9386000D03*
X17868600Y8886000D03*
X17868600Y8386000D03*
X17868600Y7886000D03*
X17868600Y7385990D03*
X17868600Y6886000D03*
D38*
X83635400Y13799600D03*
X84135400Y13799600D03*
X84635400Y13799600D03*
X85135400Y13799600D03*
X85635400Y13799600D03*
X86135400Y13799600D03*
X86635400Y13799600D03*
X87135400Y13799600D03*
X87635400Y13799600D03*
X88135400Y13799600D03*
X88635400Y13799600D03*
X89135400Y13799600D03*
D39*
X90435400Y15099600D03*
X90435400Y15599600D03*
X90435400Y16099600D03*
X90435400Y16599600D03*
X90435400Y17099600D03*
X90435400Y17599600D03*
X90435400Y18099600D03*
X90435400Y18599600D03*
X90435400Y19099600D03*
X90435400Y19599600D03*
X90435400Y20099600D03*
X90435400Y20599600D03*
D38*
X89135400Y21899600D03*
X88635400Y21899600D03*
X88135400Y21899600D03*
X87635400Y21899600D03*
X87135400Y21899600D03*
X86635400Y21899600D03*
X86135400Y21899600D03*
X85635400Y21899600D03*
X85135400Y21899600D03*
X84635400Y21899600D03*
X84135400Y21899600D03*
X83635400Y21899600D03*
D39*
X82335400Y20599600D03*
X82335400Y20099600D03*
X82335400Y19599600D03*
X82335400Y19099600D03*
X82335400Y18599600D03*
X82335400Y18099600D03*
X82335400Y17599600D03*
X82335400Y17099600D03*
X82335400Y16599600D03*
X82335400Y16099600D03*
X82335400Y15599600D03*
X82335400Y15099600D03*
D40*
X50283200Y34075000D03*
D41*
X51083200Y34075000D03*
X51883200Y34075000D03*
X52683200Y34075000D03*
X53483200Y34075000D03*
X54283200Y34075000D03*
X55083200Y34075000D03*
X55883200Y34075000D03*
D42*
X57558200Y35750000D03*
X57558200Y36550000D03*
X57558200Y37350000D03*
X57558200Y38150000D03*
X57558200Y38950000D03*
X57558200Y39750000D03*
X57558200Y40550000D03*
X57558200Y41350000D03*
D41*
X55883200Y43025000D03*
X55083200Y43025000D03*
X54283200Y43025000D03*
X53483200Y43025000D03*
X52683200Y43025000D03*
X51883200Y43025000D03*
X51083200Y43025000D03*
X50283200Y43025000D03*
D42*
X48608200Y41350000D03*
X48608200Y40550000D03*
X48608200Y39750000D03*
X48608200Y38950000D03*
X48608200Y38150000D03*
X48608200Y37350000D03*
X48608200Y36550000D03*
X48608200Y35750000D03*
D43*
X19275000Y46819200D03*
X19275000Y44400000D03*
D44*
X22236800Y6617600D03*
X22236800Y4407800D03*
X23938600Y4407800D03*
X23938600Y6617600D03*
D45*
X83642600Y7936400D03*
X81432800Y7936400D03*
X81432800Y9638200D03*
X83642600Y9638200D03*
D13*
X59400000Y61900000D03*
X59400000Y62900000D03*
D14*
X37591000Y59175700D03*
X36591000Y59175700D03*
X37591000Y60407600D03*
X36591000Y60407600D03*
D46*
X65239400Y15597000D03*
X81710650Y85638070D03*
X25379080Y67996520D03*
D47*
X84500000Y-6500000D03*
X72725000Y-16500000D03*
X83500000Y-6500000D03*
X72750000Y-15000000D03*
X85500000Y-6500000D03*
X77496220Y-14963590D03*
X86500000Y-6500000D03*
X77496220Y-16469460D03*
X66000000Y5500000D03*
D46*
X60660000Y-14963590D03*
X80500000Y-9536420D03*
X89500000Y-15000000D03*
X89487400Y-9500000D03*
X80660000Y-15067780D03*
X69488400Y-15000000D03*
X69488400Y-9000000D03*
X60500000Y-9413610D03*
X85000000Y-8000000D03*
X66500000Y-9000000D03*
X35750000Y-16750000D03*
X57500000Y-16800000D03*
X48750000Y-16750000D03*
X47000000Y-16750000D03*
X37982000Y-16750000D03*
X27000000Y-16800000D03*
D47*
X30530800Y-9000000D03*
X30750000Y-1500000D03*
X8250000Y2654120D03*
X11772170Y2692730D03*
D46*
X43593770Y52492120D03*
D47*
X84554130Y15100740D03*
X87550000Y15025000D03*
X88679330Y15000730D03*
X89125000Y19525000D03*
X12100590Y12500610D03*
X16700000Y8425000D03*
X13550000Y4400000D03*
X11125000Y7400000D03*
X88993380Y2527420D03*
X87997700Y2527420D03*
X86998520Y2477410D03*
X86000000Y2477410D03*
X53950000Y44200000D03*
X54627670Y44227160D03*
X58700000Y41823870D03*
X58827870Y40551980D03*
X47427310Y41402020D03*
X95952200Y63352200D03*
X96152200Y68401800D03*
X95952200Y67001800D03*
X96052200Y65834400D03*
X15550000Y12450000D03*
X17425000Y13425000D03*
X16275000Y12325000D03*
X13600000Y7175000D03*
X17512500Y5687500D03*
X45500000Y-14250000D03*
X41500000Y-14250000D03*
X39500000Y-14250000D03*
X43500000Y-14250000D03*
X34250000Y-14250000D03*
X30255000Y-14250000D03*
X28250000Y-14250000D03*
X32250000Y-14250000D03*
X52000000Y-14250000D03*
X56000000Y-14250000D03*
X54000000Y-14250000D03*
X50000000Y-14250000D03*
D46*
X8000000Y88514570D03*
X9500000Y88494600D03*
X9500000Y87000000D03*
X8000000Y87019970D03*
X8000000Y91439570D03*
X9500000Y91419600D03*
X9500000Y89925000D03*
X8000000Y89944970D03*
X8000000Y94439570D03*
X9500000Y94419600D03*
X9500000Y92925000D03*
X8000000Y92944970D03*
X8000000Y95944970D03*
X9500000Y95925000D03*
X9500000Y97419600D03*
X8000000Y97439570D03*
D47*
X85575000Y15200000D03*
X86229210Y15700770D03*
X50446300Y77889100D03*
X48440000Y69888100D03*
X47449000Y69888100D03*
X46433100Y69888100D03*
X58453420Y69892820D03*
X54434100Y69888100D03*
X54434100Y67889500D03*
X54434100Y66889500D03*
X54434100Y70904100D03*
X53443500Y69888100D03*
X59453420Y67884780D03*
X53443500Y66889500D03*
X53443500Y70904100D03*
X52452900Y69888100D03*
X53443500Y71894700D03*
X53443500Y65889500D03*
X54434100Y72885300D03*
X52452900Y71894700D03*
X53443500Y72885300D03*
X52452900Y65889500D03*
X53443500Y64889500D03*
X51436900Y69888100D03*
X51436900Y67889500D03*
X51436900Y70904100D03*
X54434100Y73901300D03*
X52452900Y72885300D03*
X53443500Y63889500D03*
X51436900Y65889500D03*
X50446300Y67889500D03*
X62453420Y69892820D03*
X62453420Y67884780D03*
X52452900Y63889500D03*
X50446300Y66889500D03*
X58448700Y74891900D03*
X50446300Y70904100D03*
X54434100Y74891900D03*
X52452900Y73901300D03*
X62448700Y70904100D03*
X51436900Y64889500D03*
X50446300Y71894700D03*
X50446300Y65889500D03*
X59448700Y74891900D03*
X62448700Y71894700D03*
X62453420Y65884780D03*
X51436900Y63889500D03*
X51436900Y73901300D03*
X49455700Y67889500D03*
X50446300Y72885300D03*
X52452900Y62889500D03*
X50446300Y64889500D03*
X60448700Y74891900D03*
X63453420Y69892820D03*
X62453420Y64884770D03*
X58448700Y75882500D03*
X49455700Y70904100D03*
X58453420Y61884780D03*
X63453420Y66884780D03*
X54434100Y61889500D03*
X53443500Y61889500D03*
X63448700Y71894700D03*
X63453420Y65884780D03*
X61448700Y74891900D03*
X61453430Y62884780D03*
X62453420Y63884770D03*
X50446300Y73901300D03*
X51436900Y62889500D03*
X49455700Y72885300D03*
X49455700Y64889500D03*
X60448700Y75882500D03*
X52452900Y61889500D03*
X63448700Y72885300D03*
X64453420Y69892820D03*
X57448700Y76898500D03*
X64453420Y66884780D03*
X64448700Y70904100D03*
X48439700Y66889500D03*
X58448700Y76898500D03*
X48439700Y70904100D03*
X50446300Y62889500D03*
X62448700Y74891900D03*
X62453420Y62884780D03*
X49455700Y63889500D03*
X49455700Y73901300D03*
X51436900Y75882500D03*
X64448700Y71894700D03*
X59453420Y60884780D03*
X64453420Y65884780D03*
X63453420Y63884770D03*
X48439700Y71894700D03*
X48439700Y65889500D03*
X59448700Y76898500D03*
X52452900Y60889500D03*
X64448700Y72885300D03*
X48439700Y72885300D03*
X48439700Y64889500D03*
X49455700Y74891900D03*
X49455700Y62889500D03*
X62448700Y75882500D03*
X57448700Y77889100D03*
X65453430Y69892820D03*
X65453430Y67884780D03*
X47449100Y66889500D03*
X65453430Y66884780D03*
X65448700Y70904100D03*
X61453430Y60884780D03*
X64453420Y63884770D03*
X61448700Y76898500D03*
X64448700Y73901300D03*
X47449100Y71894700D03*
X47449100Y65889500D03*
X59448700Y77889100D03*
X59453420Y59884770D03*
X49455700Y75882500D03*
X47449100Y72885300D03*
X60448700Y77889100D03*
X65448700Y72885300D03*
X60453420Y59884770D03*
X65453430Y64884770D03*
X64448700Y74891900D03*
X62453420Y60884780D03*
X48439700Y74891900D03*
X62448700Y76898500D03*
X66453420Y67884780D03*
X46433100Y67889500D03*
X57448700Y78905100D03*
X47449100Y63889500D03*
X61448700Y77889100D03*
X47449100Y73901300D03*
X58453420Y58884780D03*
X66453420Y66884780D03*
X66448700Y70904100D03*
X65453430Y63884770D03*
X65448700Y73901300D03*
X58448700Y78905100D03*
X46433100Y70904100D03*
X66448700Y71894700D03*
X66453420Y65884780D03*
X46433100Y71894700D03*
X59448700Y78905100D03*
X48439700Y75882500D03*
X63453420Y60884780D03*
X63448700Y76898500D03*
X47449100Y74891900D03*
X66448700Y72885300D03*
X65448700Y74891900D03*
X66453420Y64884770D03*
X60448700Y78905100D03*
X67453420Y69892820D03*
X45442500Y67889500D03*
X66448700Y73901300D03*
X46433100Y63889500D03*
X61448700Y78905100D03*
X46433100Y73901300D03*
X58448700Y79895700D03*
X45442500Y70904100D03*
X67448700Y70904100D03*
X64453420Y60884780D03*
X65448700Y75882500D03*
X63448700Y77889100D03*
X45442500Y71894700D03*
X67448700Y71894700D03*
X67453420Y65884780D03*
X46433100Y74891900D03*
X50446300Y78905100D03*
X46433100Y62889500D03*
X62448700Y78905100D03*
X45442500Y72885300D03*
X60448700Y79895700D03*
X64448700Y77889100D03*
X47449100Y76898500D03*
X48439700Y77889100D03*
X45442500Y73901300D03*
X67448700Y73901300D03*
X66448700Y75882500D03*
X46433100Y75882500D03*
X63448700Y78905100D03*
X67448700Y74891900D03*
X62448700Y79895700D03*
X66448700Y76898500D03*
X46433100Y60889500D03*
X64448700Y78905100D03*
X46433100Y76898500D03*
X45442500Y75882500D03*
X67448700Y75882500D03*
X45442500Y61889500D03*
X66448700Y77889100D03*
X66453420Y59884770D03*
X64448700Y79895700D03*
X45442500Y76898500D03*
X67448700Y76898500D03*
X66448700Y78905100D03*
X45442500Y78905100D03*
X67448700Y78905100D03*
X67448700Y79895700D03*
X51475000Y76875000D03*
X52450000Y76875000D03*
X63453420Y62884780D03*
X75850000Y28075000D03*
X47025000Y36050000D03*
X37750000Y23375000D03*
X24585000Y42815000D03*
X76675000Y31975000D03*
X56100000Y44900000D03*
D46*
X52125000Y28150000D03*
D47*
X65350000Y33525000D03*
X71425000Y37075000D03*
X70500000Y91250000D03*
X92207800Y84632800D03*
X79450000Y21550000D03*
X69113400Y12736600D03*
X51436900Y77889100D03*
D46*
X46125000Y85949990D03*
X40950000Y87500000D03*
X47175000Y87350000D03*
X48700000Y87325000D03*
D47*
X55450100Y75882500D03*
X57448700Y75882500D03*
X72202200Y58097800D03*
X52550000Y56400000D03*
D46*
X55225000Y30175000D03*
D47*
X57453420Y67884780D03*
X58453420Y67884780D03*
X57448700Y70904100D03*
X58453420Y66884780D03*
X55450100Y71894700D03*
X59453420Y69892820D03*
X57453420Y65884780D03*
X58448700Y71894700D03*
X59453420Y66884780D03*
X54434100Y65889500D03*
X59448700Y70904100D03*
X52452900Y67889500D03*
X57448700Y72885300D03*
X55445380Y64884770D03*
X60453420Y69892820D03*
X59453420Y65884780D03*
X52452900Y70904100D03*
X58453420Y64884770D03*
X60453420Y66884780D03*
X59448700Y72885300D03*
X60448700Y71894700D03*
X57453420Y63884770D03*
X61453430Y67884780D03*
X55450100Y73901300D03*
X61448700Y70904100D03*
X51436900Y66889500D03*
X58448700Y73901300D03*
X60453420Y64884770D03*
X59453420Y63884770D03*
X61453430Y65884780D03*
X53443500Y73901300D03*
X59448700Y73901300D03*
X57448700Y74891900D03*
X61448700Y72885300D03*
X62453420Y66884780D03*
X60448700Y73901300D03*
X53443500Y62889500D03*
X61453430Y63884770D03*
X61448700Y73901300D03*
X49455700Y69888100D03*
X57453420Y61884780D03*
X63453420Y67884780D03*
X49455700Y66889500D03*
X63448700Y70904100D03*
X49455700Y71894700D03*
X59448700Y75882500D03*
X59453420Y61884780D03*
X50446300Y63889500D03*
X62448700Y73901300D03*
X60453420Y61884780D03*
X55450100Y76898500D03*
X48439700Y67889500D03*
X54434100Y76898500D03*
X50446300Y74891900D03*
X61448700Y75882500D03*
X61453430Y61884780D03*
X63448700Y73901300D03*
X60453420Y60884780D03*
X60448700Y76898500D03*
X55450100Y77889100D03*
X50446300Y61889500D03*
X63448700Y74891900D03*
X58448700Y77889100D03*
X65453430Y65884780D03*
X63448700Y75882500D03*
X47449100Y64889500D03*
X52452900Y59889500D03*
X64453420Y62884780D03*
X55445380Y58884780D03*
X66453420Y69892820D03*
X55450100Y78905100D03*
X49455700Y60889500D03*
X64448700Y75882500D03*
X48439700Y61889500D03*
X62448700Y77889100D03*
X46433100Y72885300D03*
X45442500Y69888100D03*
X57448700Y79895700D03*
X64448700Y76898500D03*
X48439700Y76898500D03*
X47449100Y75882500D03*
X63453420Y59884770D03*
X59453420Y57884780D03*
X59448700Y79895700D03*
X67448700Y72885300D03*
X48439700Y59889500D03*
X65448700Y76898500D03*
X61448700Y79895700D03*
X49455700Y58889500D03*
X46433100Y61889500D03*
X65448700Y77889100D03*
X48439700Y78905100D03*
X67453420Y61884780D03*
X63448700Y79895700D03*
X65448700Y78905100D03*
X66453420Y58884780D03*
X65448700Y79895700D03*
X45442500Y58889500D03*
X66448700Y79895700D03*
X46431200Y78909800D03*
X56413400Y79959200D03*
D46*
X7250000Y82000000D03*
X8250000Y82000000D03*
X9250000Y82000000D03*
X10250000Y82000000D03*
X11250000Y82000000D03*
X12250000Y82000000D03*
X13250000Y82000000D03*
X14250000Y82000000D03*
X15250000Y82000000D03*
X16250000Y82000000D03*
X17250000Y82000000D03*
X18250000Y82000000D03*
X18250000Y80750000D03*
X17250000Y80750000D03*
X16250000Y80750000D03*
X15250000Y80750000D03*
X14250000Y80750000D03*
X13250000Y80750000D03*
X12250000Y80750000D03*
X11250000Y80750000D03*
X10250000Y80750000D03*
X9250000Y80750000D03*
X8250000Y80750000D03*
X7250000Y80750000D03*
X18250000Y79500000D03*
X17250000Y79500000D03*
X16250000Y79500000D03*
X15250000Y79500000D03*
X14250000Y79500000D03*
X13250000Y79500000D03*
X12250000Y79500000D03*
X11250000Y79500000D03*
X10250000Y79500000D03*
X9250000Y79500000D03*
X8250000Y79500000D03*
X7250000Y79500000D03*
X18250000Y78250000D03*
X17250000Y78250000D03*
X16250000Y78250000D03*
X15250000Y78250000D03*
X14250000Y78250000D03*
X13250000Y78250000D03*
X12250000Y78250000D03*
X11250000Y78250000D03*
X10250000Y78250000D03*
X9250000Y78250000D03*
X8250000Y78250000D03*
X7250000Y78250000D03*
X18250000Y77000000D03*
X17250000Y77000000D03*
X16250000Y77000000D03*
X15250000Y77000000D03*
X14250000Y77000000D03*
X13250000Y77000000D03*
X12250000Y77000000D03*
X11250000Y77000000D03*
X10250000Y77000000D03*
X9250000Y77000000D03*
X8250000Y77000000D03*
X7250000Y77000000D03*
X18250000Y75750000D03*
X17250000Y75750000D03*
X16250000Y75750000D03*
X15250000Y75750000D03*
X14250000Y75750000D03*
X13250000Y75750000D03*
X12250000Y75750000D03*
X11250000Y75750000D03*
X10250000Y75750000D03*
X9250000Y75750000D03*
X8250000Y75750000D03*
X7250000Y75750000D03*
X18250000Y74500000D03*
X17250000Y74500000D03*
X16250000Y74500000D03*
X15250000Y74500000D03*
X14250000Y74500000D03*
X13250000Y74500000D03*
X12250000Y74500000D03*
X11250000Y74500000D03*
X10250000Y74500000D03*
X9250000Y74500000D03*
X8250000Y74500000D03*
X7250000Y74500000D03*
X39025000Y62075000D03*
X41475000Y62025000D03*
X41050000Y54450000D03*
X51300000Y53800000D03*
X55700000Y52700000D03*
X55775000Y55075000D03*
X67950000Y51650000D03*
X69750040Y51650000D03*
X70500000Y64675000D03*
X72750000Y64300000D03*
X76325000Y64300000D03*
X73825000Y63050000D03*
X75325000Y63050000D03*
X70375000Y71950000D03*
X72750000Y72025000D03*
X80400000Y73050000D03*
X78975000Y73025000D03*
X77925000Y74700000D03*
X81450000Y74625000D03*
X70350000Y73825000D03*
X74825000Y74525000D03*
X69275000Y80925000D03*
X68125000Y81450000D03*
X62875000Y82675000D03*
X55350000Y81525000D03*
X55325000Y84000000D03*
X62200000Y86850000D03*
X61000000Y85575000D03*
X54025000Y85750000D03*
X54025000Y83050000D03*
X49725000Y86075000D03*
X52300000Y89200000D03*
X50925000Y89175000D03*
X50925000Y92800000D03*
X52300000Y92775000D03*
X49925000Y91725000D03*
X49950000Y90275000D03*
X39525000Y86450000D03*
X42075010Y80975000D03*
X42200000Y78175000D03*
X42450000Y72675000D03*
X42875000Y66100000D03*
X40350000Y66375000D03*
X38775000Y76600000D03*
X39900000Y76600000D03*
X40375000Y79200000D03*
X38775000Y72825000D03*
X39825000Y72800000D03*
X38750000Y75425000D03*
X39875000Y75375000D03*
X24275000Y99850000D03*
X24275000Y98350000D03*
X24275000Y94850000D03*
X24275000Y93350000D03*
X24275000Y89850000D03*
X24275000Y88250000D03*
X5150000Y53724980D03*
X5100000Y54900000D03*
X6400000Y56700000D03*
X7700000Y56700000D03*
X7800000Y58900000D03*
X6500000Y58900000D03*
X5100000Y61600000D03*
X5100000Y60300000D03*
X12100000Y67900000D03*
X12100000Y66500000D03*
X13800000Y69600000D03*
X32900000Y54000000D03*
X36500000Y54200000D03*
X24800000Y51400000D03*
X24800000Y49900000D03*
X24800000Y47000000D03*
X24800000Y45500000D03*
X7200000Y40150000D03*
X7200000Y42100000D03*
X4150000Y40150000D03*
X4100000Y42100000D03*
X29750000Y24450000D03*
X92300000Y6200000D03*
X86425000Y5075000D03*
X74850000Y8475000D03*
X48275000Y8500000D03*
X26850000Y8975000D03*
X7750000Y17050000D03*
X25275000Y16900000D03*
X43549990Y51350000D03*
X74300000Y73300000D03*
D47*
X94100000Y62000000D03*
X93300000Y57800000D03*
X94600000Y58400000D03*
X94600000Y55400000D03*
X94600000Y52400000D03*
X94676800Y45423200D03*
X94795600Y41495600D03*
X93500000Y38100000D03*
X79000000Y60400000D03*
X77505400Y58894600D03*
X77424400Y56024400D03*
X73556800Y61456800D03*
X72128800Y52128800D03*
X60934600Y50865400D03*
X56588800Y51511200D03*
X50147600Y50052400D03*
X39717600Y50082400D03*
X31235800Y44935800D03*
X29821800Y41978200D03*
X29550000Y38550000D03*
X29417600Y36717600D03*
X27207800Y33007800D03*
X27550000Y32050000D03*
X31123000Y31377000D03*
X32700000Y39300000D03*
X39200000Y21400000D03*
X37800000Y21600000D03*
X40470200Y20729800D03*
D46*
X48450000Y13350000D03*
D47*
X55186200Y15313800D03*
X62400000Y15951200D03*
X67529000Y21971000D03*
X68584000Y23684000D03*
X67792600Y23007400D03*
X66156600Y30243400D03*
X66038400Y35161600D03*
X66285400Y41114600D03*
X65042800Y88442800D03*
X87923600Y60326400D03*
X89416000Y59166000D03*
X89454200Y56045800D03*
X88423600Y53326400D03*
X89487400Y45987400D03*
X89398000Y40648000D03*
X88439200Y39310800D03*
X48439700Y57889500D03*
D46*
X63200000Y52650000D03*
X60100000Y52800000D03*
D47*
X72150000Y55375000D03*
X58000000Y50825000D03*
X81450000Y53375000D03*
X72007600Y41392400D03*
X87800000Y43324000D03*
X43900000Y62875000D03*
X77453780Y45852240D03*
D46*
X66478240Y52027540D03*
X65053170Y52702570D03*
D47*
X72157800Y45042200D03*
X72117400Y38182600D03*
X78810800Y39310800D03*
X84599400Y11125600D03*
X81300000Y11150000D03*
X86131400Y10168600D03*
X89525000Y9425000D03*
X88100000Y10300000D03*
X89600000Y10275000D03*
X93163400Y19813400D03*
X88032000Y24968000D03*
X89032000Y24032000D03*
X83635400Y23039600D03*
X79655400Y18619600D03*
X83546400Y18103600D03*
X79600000Y15597000D03*
X81050000Y14900000D03*
X74225000Y16700000D03*
X12875000Y27375000D03*
X13000000Y23050000D03*
X12625000Y21175000D03*
X26600000Y24550000D03*
X51816000Y12559000D03*
X36000000Y15825000D03*
X19889200Y3689200D03*
X20750000Y7697600D03*
X21500000Y9225000D03*
X20625000Y11228200D03*
X22325000Y11375000D03*
X20686390Y12336400D03*
X8564000Y6886000D03*
X13575000Y2850000D03*
X53725000Y11975000D03*
X17225000Y4500000D03*
X17170000Y3000000D03*
X12717200Y15782800D03*
X73500000Y95250000D03*
X73500000Y90000000D03*
X73500000Y88000000D03*
X73500000Y82750000D03*
X77500000Y78750000D03*
X82250000Y78750000D03*
X85000000Y78750000D03*
X90000000Y78750000D03*
X94000000Y82750000D03*
X93954600Y92647600D03*
X90000000Y99250000D03*
X85000000Y99250000D03*
X82500000Y99250000D03*
X77500000Y99250000D03*
X76500000Y96250000D03*
X80000000Y96250000D03*
X83250000Y96250000D03*
X76500000Y93500000D03*
X80000000Y93500000D03*
X83250000Y93500000D03*
X76500000Y90750000D03*
X80000000Y90750000D03*
X76500000Y81500000D03*
X87000000Y83250000D03*
X92000000Y81250000D03*
X92250000Y96250000D03*
X94000000Y95250000D03*
X94000000Y90000000D03*
X94000000Y88000000D03*
X87000000Y96250000D03*
X70250000Y92500000D03*
X70250000Y98250000D03*
X70750000Y96338800D03*
X71500000Y85250000D03*
X71500000Y84000000D03*
X27200000Y84700000D03*
X27500000Y78100000D03*
X26831200Y71831200D03*
X28194000Y71431000D03*
X26050000Y74900000D03*
D46*
X25525000Y79000000D03*
X31525000Y82500000D03*
X32000000Y94000000D03*
X37000000Y94000000D03*
X44250000Y94000000D03*
D47*
X35375000Y81625000D03*
X30169400Y76344400D03*
X31580600Y76344400D03*
X30200000Y77300000D03*
X23225000Y63625000D03*
X23617800Y65082200D03*
X14833600Y48408600D03*
X14475000Y40625000D03*
X16217800Y41232200D03*
X32350000Y77375000D03*
X51970900Y81785740D03*
X53467000Y79925800D03*
X52451000Y74887200D03*
X51460400Y71890000D03*
X45448600Y66878200D03*
X68875000Y64900000D03*
X22150000Y48850000D03*
X21680000Y41545000D03*
X20125000Y40400000D03*
X40125000Y51675000D03*
X31823000Y49123000D03*
X50000000Y29475000D03*
X53275000Y40975000D03*
X76725000Y29075000D03*
X94239400Y72110600D03*
X91325000Y74000000D03*
D46*
X48450000Y55000000D03*
D47*
X44602400Y76352400D03*
D46*
X42875000Y70675000D03*
D47*
X68300000Y67775000D03*
D46*
X35400000Y65200000D03*
X31500000Y65200000D03*
X34100000Y65200000D03*
X31550000Y63475000D03*
X70800000Y53025000D03*
D47*
X35925000Y59100000D03*
D46*
X34425000Y52400000D03*
X42100000Y52675000D03*
D47*
X32600000Y29100000D03*
X44550000Y24225000D03*
X80125000Y29750000D03*
X82346800Y32003200D03*
X68264800Y30810200D03*
X71100000Y31975000D03*
X71625000Y29750000D03*
X73050000Y29800000D03*
D46*
X43725000Y76800000D03*
D47*
X70225000Y88750000D03*
X70144800Y89419800D03*
X70125000Y90075000D03*
X70225000Y82350000D03*
X15900780Y40426970D03*
D46*
X24617800Y82092800D03*
D47*
X67550000Y35675000D03*
X77503780Y40626980D03*
X78850000Y43750000D03*
X37875000Y16575000D03*
X42375000Y45025000D03*
X10850000Y35875000D03*
X16579200Y11375000D03*
X80350000Y10525000D03*
X85104150Y7750380D03*
X21076030Y4675230D03*
X25051220Y6675330D03*
X88135400Y15286200D03*
X84135120Y20567680D03*
D48*
X11745800Y41747200D03*
X11745800Y42347200D03*
X11745800Y42947200D03*
X11145800Y42947200D03*
X11145800Y42347200D03*
X11145800Y41747200D03*
X9945800Y41747200D03*
X9945800Y42347200D03*
X9945800Y42947200D03*
X10545800Y42947190D03*
X10545800Y42347190D03*
X10545800Y41747200D03*
X35758400Y75905600D03*
X35758400Y75305610D03*
X35758400Y74705610D03*
X36358400Y74705600D03*
X36358400Y75305600D03*
X36358400Y75905600D03*
X35158400Y75905600D03*
X35158400Y75305600D03*
X35158400Y74705600D03*
X34558400Y74705600D03*
X34558400Y75305600D03*
X34558400Y75905600D03*
X23509200Y54455200D03*
X23509200Y55055200D03*
X23509200Y55655200D03*
X22909200Y55655200D03*
X22909200Y55055200D03*
X22909200Y54455200D03*
X24109200Y54455210D03*
X24109200Y55055200D03*
X24109200Y55655200D03*
X24709200Y55655200D03*
X24709200Y55055200D03*
X24709200Y54455200D03*
X23509200Y56255200D03*
X23509200Y56855200D03*
X23509200Y57455200D03*
X22909200Y57455200D03*
X22909200Y56855200D03*
X22909200Y56255200D03*
X24109200Y56255210D03*
X24109200Y56855200D03*
X24109200Y57455200D03*
X24709200Y57455200D03*
X24709200Y56855200D03*
X24709200Y56255200D03*
X29234200Y59830200D03*
X29234200Y60430200D03*
X28634200Y60430200D03*
X28634200Y59830200D03*
X29834200Y59830200D03*
X29834200Y60430200D03*
X30434200Y60430200D03*
X30434200Y59830200D03*
X24709200Y58055210D03*
X24709200Y58655200D03*
X24709200Y59255200D03*
X24109200Y59255200D03*
X24109200Y58655200D03*
X24109200Y58055210D03*
X22909200Y58055210D03*
X22909200Y58655200D03*
X22909200Y59255200D03*
X23509200Y59255200D03*
X23509200Y58655200D03*
X23509200Y58055200D03*
D47*
X61000000Y8475000D03*
X61000000Y2000000D03*
X59500000Y5500000D03*
X48500000Y34425000D03*
X55550000Y40375000D03*
X45925000Y33475000D03*
X37982000Y42621260D03*
X66313640Y44843000D03*
X46000000Y41875000D03*
X67250000Y41600000D03*
X48002340Y31126520D03*
X64800000Y44350000D03*
X61975000Y35600000D03*
X61725000Y44875000D03*
X42025000Y37425000D03*
X61850000Y37250000D03*
X45975000Y14125000D03*
X41900000Y8075000D03*
X47352310Y9725470D03*
X46925000Y8700000D03*
X45800000Y10100000D03*
X44727180Y8725430D03*
X43450000Y8750000D03*
X44625000Y9925000D03*
X53925000Y36600000D03*
X54125000Y35950000D03*
X50427460Y31451530D03*
X50925000Y31000000D03*
X52675000Y21200000D03*
X56050000Y22150000D03*
X56825000Y21925000D03*
X57300000Y21400000D03*
X58175000Y43325000D03*
X56875000Y42700000D03*
X54402650Y40626980D03*
X53752660Y40497330D03*
X47449100Y78905100D03*
X50975000Y41000000D03*
X39025000Y43400000D03*
X47449100Y79895700D03*
X38126860Y43852140D03*
X47902340Y43877140D03*
X49455700Y79895700D03*
X39575000Y42900000D03*
X50152450Y41002000D03*
X48439700Y79895700D03*
X50650000Y40400000D03*
X39650000Y42225000D03*
X24000000Y9200000D03*
X30276480Y19475950D03*
X38650000Y25150000D03*
X45925000Y31650000D03*
X30026470Y9425460D03*
X56000000Y36425000D03*
X37800000Y25325000D03*
X45900000Y32375000D03*
X29238280Y9450000D03*
X55500000Y36950000D03*
X55452710Y19425950D03*
X44250000Y16550000D03*
X57975000Y29350000D03*
X26876310Y8025390D03*
X69175000Y32800000D03*
X57777820Y28551390D03*
X76125000Y16750000D03*
X51925000Y37300000D03*
X41400000Y19300000D03*
X48439700Y60889500D03*
X76050000Y83275000D03*
X56450000Y66925000D03*
X50446300Y59889500D03*
X90000000Y51300000D03*
X35400000Y27300000D03*
X72900000Y49000000D03*
X51436900Y57889500D03*
X90500000Y51900000D03*
X76700000Y51800000D03*
X39300000Y28500000D03*
X51436900Y58889500D03*
X76100000Y52300000D03*
X38500000Y28900000D03*
X89150000Y52350000D03*
X84625000Y52575000D03*
X51436900Y59889500D03*
X78103810Y54077640D03*
X32800000Y30200000D03*
X50446300Y57889500D03*
X38100000Y31400000D03*
X82654030Y52852580D03*
X77228770Y53902630D03*
X54434100Y58889500D03*
X39600000Y29500000D03*
X88504320Y50952490D03*
X78603840Y50952490D03*
X78290380Y50290380D03*
X90200000Y50300000D03*
X54434100Y57889500D03*
X45700000Y45900000D03*
X47900000Y49700000D03*
X52452900Y58889500D03*
X77600000Y50500000D03*
X88225000Y49875000D03*
X47000000Y48500000D03*
X52452900Y57889500D03*
X89300000Y49500000D03*
X76253790Y50864570D03*
X47499900Y48999900D03*
X54434100Y59889500D03*
X84925000Y49125000D03*
X81825000Y49075000D03*
X48000000Y48500000D03*
X53443500Y58889500D03*
X82554030Y50952490D03*
X69275000Y48425000D03*
X90600000Y49200000D03*
X53443500Y59889500D03*
X42925000Y45600000D03*
X77425000Y48400000D03*
X58453420Y57884780D03*
X89800000Y47700000D03*
X81850000Y47225000D03*
X61450000Y34300000D03*
X66453420Y61884780D03*
X64625000Y32800000D03*
X76700000Y49500000D03*
X55445380Y57884780D03*
X90799820Y49899900D03*
X60450000Y32950000D03*
X60453420Y57884780D03*
X94300000Y50300000D03*
X78903850Y46677280D03*
X61975000Y31828260D03*
X59453420Y58884780D03*
X61900000Y42300000D03*
X60453420Y58884780D03*
X62000000Y41600000D03*
X61453430Y59884770D03*
X64553150Y42025000D03*
X46433100Y57889500D03*
X35600000Y20400000D03*
X45442500Y57889500D03*
X35600000Y21100000D03*
X36800000Y21300000D03*
X47449100Y57889500D03*
X46433100Y59889500D03*
X35500000Y22900000D03*
X45442500Y59889500D03*
X32700000Y19800000D03*
X48900000Y19800000D03*
X49455700Y57889500D03*
X48439700Y58889500D03*
X48100000Y19650000D03*
X57453420Y60884780D03*
X59350000Y41625000D03*
X61453430Y57884780D03*
X61825000Y39975000D03*
X90425000Y39775000D03*
X77100000Y40075000D03*
X62375000Y57875000D03*
X76150000Y40800000D03*
X65675000Y39200000D03*
X90625000Y40875000D03*
X90879430Y41527030D03*
X67453420Y62884780D03*
X76400000Y41900000D03*
X59475000Y26725000D03*
X66453420Y62884780D03*
X90675000Y42300000D03*
X71675000Y39275000D03*
X58900000Y26050000D03*
X57453420Y57884780D03*
X90425000Y43000000D03*
X76953760Y43102100D03*
X55975000Y44200000D03*
X57440220Y58884780D03*
X53025000Y44200000D03*
X90525000Y43725000D03*
X76325000Y43875000D03*
X57453420Y59884770D03*
X50377460Y45877240D03*
X83175000Y44050000D03*
X55445380Y59884770D03*
X52150000Y48900000D03*
X83950000Y44325000D03*
X49455700Y59889500D03*
X51875000Y45950000D03*
X84850000Y43475000D03*
X46433100Y58889500D03*
X52300000Y44900000D03*
X89054350Y43475000D03*
X69525000Y43475000D03*
X47449100Y60889500D03*
X52975000Y45400000D03*
X81711360Y43656990D03*
X89600000Y42900000D03*
X52452900Y66889500D03*
X90025000Y41925000D03*
X82400000Y41600000D03*
X47449100Y62889500D03*
X76250000Y44850000D03*
X83375000Y40650000D03*
X67453420Y58884780D03*
X85000000Y41450000D03*
X67025000Y44750000D03*
X67453420Y57884780D03*
X81750000Y40100000D03*
X66453420Y57884780D03*
X90500000Y38900000D03*
X77725000Y39625000D03*
X76900000Y37425000D03*
X65453430Y57884780D03*
X90575000Y54450000D03*
X76200000Y54575000D03*
X65453430Y59884770D03*
X84475000Y55075000D03*
X66900000Y50025000D03*
X65453430Y58884780D03*
X84075000Y56550000D03*
X66128230Y49652420D03*
X63453420Y58884780D03*
X84754140Y56752770D03*
X67353290Y54652670D03*
X90725000Y57325000D03*
X63449880Y57874880D03*
X76250000Y57425000D03*
X66875000Y53375000D03*
X76400000Y58925000D03*
X64900000Y21769670D03*
X90404410Y58327850D03*
X64453420Y59884770D03*
X69375000Y61325000D03*
X64775000Y20975000D03*
X84575000Y59500000D03*
X71175000Y58850000D03*
X64453420Y58884780D03*
X84879140Y60477950D03*
X64453420Y61884780D03*
X62003030Y21576050D03*
X82375000Y59900000D03*
X88600000Y60075000D03*
X74300000Y61425000D03*
X58453420Y60884780D03*
X61925000Y23600000D03*
X83225000Y58875000D03*
X60825000Y21075000D03*
X64453420Y64884770D03*
X83525000Y62675000D03*
X60500000Y22300000D03*
X84100000Y58200000D03*
X74875000Y61050000D03*
X55445380Y60884780D03*
X90000000Y57807000D03*
X60125000Y23425000D03*
X53443500Y60889500D03*
X84750000Y57725010D03*
X86400000Y64325000D03*
X47449100Y61889500D03*
X82175000Y56100000D03*
X84350000Y69125000D03*
X32068820Y16075000D03*
X49455700Y61889500D03*
X78900000Y55800000D03*
X88450000Y64375000D03*
X31728800Y16775000D03*
X31175000Y23525000D03*
X46433100Y64889500D03*
X76875000Y55525000D03*
X87900000Y55425000D03*
X76428730Y56027730D03*
X30050000Y23275000D03*
X46433100Y65889500D03*
X90100000Y53450000D03*
X93675000Y47300000D03*
X76471760Y46265120D03*
X52200000Y23550000D03*
X90137400Y45987410D03*
X78450000Y47850000D03*
X53725000Y23550000D03*
X85279160Y53302600D03*
X69700000Y38825000D03*
X53700000Y25400000D03*
X78875000Y53650000D03*
X89325000Y53450000D03*
X53900000Y26100000D03*
X63453420Y61884780D03*
X57200000Y30075000D03*
X50446300Y60889500D03*
X51436900Y60889500D03*
X62453420Y59884770D03*
X66575000Y54675000D03*
X57700000Y31950000D03*
X66175000Y38200000D03*
X62453420Y58884780D03*
X61653010Y53252600D03*
X64950000Y20225000D03*
X66725000Y39050000D03*
X72950000Y47350000D03*
X42150000Y38425000D03*
X64875000Y27800000D03*
X53350000Y21800000D03*
X88054300Y48177350D03*
X76900000Y47950000D03*
X71950000Y43425000D03*
X82825000Y47700000D03*
X67225000Y39650000D03*
X51377510Y21301040D03*
X93885400Y48810400D03*
X78300000Y37325000D03*
X54350000Y24800000D03*
X38975000Y36175000D03*
X38125000Y37650000D03*
X49750000Y22375000D03*
X70228430Y42252060D03*
X76228260Y48175000D03*
X90575000Y48525000D03*
X44625000Y45775000D03*
X73450000Y46875000D03*
X90775000Y46775000D03*
X48439700Y63889500D03*
X25800000Y31300000D03*
X25775000Y29575000D03*
X45442500Y64889500D03*
X45442500Y65889500D03*
X55441360Y69896840D03*
X57448700Y73901300D03*
X22100000Y26750000D03*
X78275000Y4000000D03*
X50250000Y20900000D03*
X26900000Y48675000D03*
X39400000Y45425000D03*
X49455700Y78905100D03*
X70450000Y99125000D03*
X50446300Y76898500D03*
X65400000Y82800000D03*
X53443500Y75882500D03*
X54434100Y75882500D03*
X55448200Y79959200D03*
X54457600Y79959200D03*
X54434100Y77889100D03*
X54434100Y78905100D03*
X52452900Y79895700D03*
X52452900Y78905100D03*
X51436900Y79895700D03*
X52452900Y77889100D03*
X51436900Y78905100D03*
X53443500Y76898500D03*
X49455700Y77889100D03*
X46433100Y79895700D03*
X47449100Y77889100D03*
X45442500Y77889100D03*
X65453430Y62884780D03*
X69225000Y63425000D03*
X67453420Y63884770D03*
X45442500Y60889500D03*
X49075000Y42875000D03*
X77950000Y8400000D03*
X47449100Y58889500D03*
X51900000Y20850000D03*
X77975000Y7550000D03*
X55445380Y62884780D03*
X71409770Y66809780D03*
X88175000Y66575000D03*
X53443500Y74891900D03*
X65024990Y37656640D03*
X51436900Y74891900D03*
X61850000Y36375000D03*
X50446300Y75882500D03*
X52950000Y19675000D03*
X53443500Y77889100D03*
X52450000Y16375000D03*
X55445380Y61884780D03*
X71775000Y65350000D03*
X54434100Y64889500D03*
X68475000Y68975000D03*
X54434100Y62889500D03*
X72050000Y67575000D03*
X54434100Y63889500D03*
X69675000Y68889000D03*
X57453420Y62884780D03*
X58453420Y62884780D03*
X59453420Y62884780D03*
X55445380Y66884780D03*
X32900000Y47275000D03*
X42025000Y41900000D03*
X38275000Y34225000D03*
X41850000Y40650000D03*
X39275000Y33925000D03*
X42500000Y39150000D03*
X36000000Y40100000D03*
X39525000Y39475000D03*
X42575000Y40175000D03*
X49475000Y32650000D03*
X26475000Y26525000D03*
X55450100Y70904100D03*
X58448700Y70904100D03*
X55445380Y65884780D03*
X55450100Y72885300D03*
X57453420Y64884770D03*
X55424700Y67889500D03*
D46*
X47250000Y81625000D03*
X48650000Y81625000D03*
X46075000Y83150000D03*
X44000000Y73725000D03*
X51100000Y84125000D03*
X51100000Y86825000D03*
X46025000Y81650000D03*
X57802820Y55102690D03*
D47*
X57453420Y69892820D03*
X57453420Y66884780D03*
X57448700Y71894700D03*
X58453420Y65884780D03*
X60453420Y67884780D03*
X59448700Y71894700D03*
X58448700Y72885300D03*
X60448700Y70904100D03*
X59453420Y64884770D03*
X60453420Y65884780D03*
X61453430Y69892820D03*
X58453420Y63884770D03*
X61453430Y66884780D03*
X60448700Y72885300D03*
X61448700Y71894700D03*
X60453420Y63884770D03*
X61453430Y64884770D03*
D46*
X41825000Y69600000D03*
X40350000Y68100000D03*
X42800000Y68100000D03*
X43600000Y58924980D03*
X44675000Y56600000D03*
X57750000Y52725000D03*
X61225000Y56125000D03*
X75250000Y68550000D03*
X73875000Y68550000D03*
X76275000Y67375000D03*
X69425000Y67675000D03*
X77900000Y68825000D03*
X78900000Y66600000D03*
X80500000Y66575000D03*
X80350000Y69900000D03*
X70375000Y69975000D03*
X60900000Y82650000D03*
X59300000Y81450000D03*
X59275000Y84025000D03*
X57475000Y92825000D03*
X58800000Y92825000D03*
X59825000Y91775000D03*
X59850000Y90200000D03*
X57425000Y89175000D03*
X58850000Y89150000D03*
X72725000Y66950000D03*
X42050000Y58924980D03*
X72753550Y70078420D03*
D47*
X15050000Y14900000D03*
X38050000Y41400000D03*
X24575000Y38700000D03*
X32476580Y48952390D03*
X85400000Y19775000D03*
X86225000Y20075000D03*
X84600000Y20050000D03*
X93108400Y17433400D03*
X64653150Y26376290D03*
X90600000Y14525000D03*
X93800000Y15125000D03*
X64279110Y25785200D03*
X92250000Y21500000D03*
X93218000Y12718000D03*
X93968000Y11782000D03*
X91968000Y25032000D03*
X91032000Y24032000D03*
X83006000Y23844000D03*
X79725000Y19619600D03*
X79578000Y16597000D03*
X30000000Y5675000D03*
X32000000Y5625000D03*
X79171560Y19622870D03*
X84229700Y19084940D03*
X77173070Y15605840D03*
X38100000Y40550000D03*
X25275000Y37975000D03*
X39225000Y40200000D03*
X18025000Y17650000D03*
X6571600Y14071600D03*
X7773400Y13176600D03*
X7621000Y6204000D03*
X12500000Y2800000D03*
X19069200Y14919200D03*
X27351200Y17426200D03*
X14940800Y3590800D03*
X26450000Y16400000D03*
X20638600Y13336400D03*
X39550000Y4800000D03*
X12516240Y2253300D03*
D46*
X39425000Y7402400D03*
D47*
X31825000Y52450000D03*
X31750000Y51625000D03*
X38050000Y49123000D03*
X34075000Y50600000D03*
X69575000Y27000000D03*
X58275000Y28129350D03*
X70525000Y16775000D03*
X87847000Y37378000D03*
X52775000Y37300000D03*
X53700000Y37275000D03*
X69175000Y17575000D03*
X75750000Y21675000D03*
X77200000Y20100000D03*
X77250000Y16700000D03*
X51050000Y37275000D03*
X69425000Y28025000D03*
X59825000Y27350000D03*
X70300000Y20875000D03*
X54527660Y36951800D03*
X69675000Y33775000D03*
X70925000Y33625000D03*
X66453420Y60884780D03*
X67453420Y59884770D03*
X70775000Y27225000D03*
X67453420Y60884780D03*
X74725000Y33925000D03*
X65453430Y61884780D03*
X73225000Y33325000D03*
X75475000Y27050000D03*
X73538600Y23825000D03*
X75600000Y33625000D03*
X73950000Y37175000D03*
X75996800Y24175000D03*
X29802200Y63725000D03*
X32750000Y58650000D03*
X16825000Y37525000D03*
X82200000Y3150000D03*
X24250000Y80750000D03*
X32975000Y22325000D03*
X45442500Y62889500D03*
X32000000Y37000000D03*
X30300000Y73075000D03*
X10498200Y52700000D03*
X23436600Y62069330D03*
X13610600Y43360600D03*
X70500000Y88000000D03*
X24700000Y84700000D03*
X31600000Y73100000D03*
X20750000Y62575000D03*
X13698400Y44551600D03*
X26825000Y44225000D03*
X26950000Y42800000D03*
X26801310Y41552030D03*
X42400000Y31500000D03*
X27700000Y30675000D03*
X60125000Y19500000D03*
X61450000Y24600000D03*
X16375000Y9250000D03*
X16375000Y10050000D03*
X82797720Y5925000D03*
X13950000Y9950000D03*
X37125000Y71750000D03*
X18675000Y63625000D03*
X20450000Y64900000D03*
X12090000Y50165000D03*
X13425000Y40450000D03*
X9425000Y45425000D03*
X32575000Y78100000D03*
D46*
X43750000Y87525000D03*
X45125000Y86700080D03*
D47*
X50446300Y79895700D03*
D46*
X62075000Y55075000D03*
D47*
X53443500Y67889500D03*
X54434100Y71894700D03*
X55445380Y63884770D03*
X52452900Y64889500D03*
X50446300Y69888100D03*
X55450100Y74891900D03*
X51436900Y72885300D03*
X62448700Y72885300D03*
X60453420Y62884780D03*
X49455700Y65889500D03*
X52452900Y75882500D03*
X63453420Y64884770D03*
X64453420Y67884780D03*
X51436900Y61889500D03*
X62453420Y61884780D03*
X47449100Y70904100D03*
X58453420Y59884770D03*
X48439700Y73901300D03*
X65448700Y71894700D03*
X48439700Y62889500D03*
X46433100Y66889500D03*
X53443500Y78905100D03*
X49455700Y76898500D03*
X61453430Y58884780D03*
X66453420Y63884770D03*
X67453420Y66884780D03*
X53443500Y57889500D03*
X50446300Y58889500D03*
X66448700Y74891900D03*
X65453430Y60884780D03*
X45442500Y63889500D03*
X45442500Y74891900D03*
X47449100Y59889500D03*
X46433100Y77889100D03*
X64453420Y57884780D03*
X67448700Y77889100D03*
D46*
X41500000Y64075000D03*
X53300000Y53725000D03*
X68550000Y57175000D03*
X66600000Y56100000D03*
X71275000Y77225000D03*
X74875000Y76800000D03*
X64175000Y81475000D03*
X64950000Y86925000D03*
X64025000Y84325000D03*
X43800000Y80975000D03*
X43825000Y78175000D03*
X41600000Y75825000D03*
X9625000Y34575000D03*
X10575000Y33600000D03*
X10625000Y32525000D03*
X9650000Y31725000D03*
X29725000Y28700000D03*
X47650000Y51350000D03*
X70400000Y75500000D03*
D47*
X94600000Y60500000D03*
X94600000Y59377200D03*
X94700000Y56400000D03*
X94600000Y53400000D03*
X94600000Y46400000D03*
X94695600Y40495600D03*
X94692000Y39108000D03*
X77405400Y57894600D03*
X77375600Y55024400D03*
X72202200Y59097800D03*
X72300000Y60500000D03*
X72200000Y56200000D03*
X72128800Y53128800D03*
X51147600Y50052400D03*
X31335800Y45635800D03*
X31321800Y40978200D03*
X29721800Y40978200D03*
X31223000Y32377000D03*
X38000000Y19400000D03*
X38700000Y19300000D03*
D46*
X47050000Y13350000D03*
D47*
X54186200Y15286200D03*
X60841000Y15341000D03*
X66156600Y29243400D03*
X66061600Y36161600D03*
X66285400Y40114600D03*
X68080000Y87820000D03*
X66700400Y89099600D03*
X89416000Y58166000D03*
X89454200Y55045800D03*
X89487400Y44987400D03*
D46*
X70600000Y56124990D03*
X69625000Y57250000D03*
X46425000Y54550000D03*
D47*
X54434100Y60889500D03*
X57975000Y49025000D03*
X61675000Y48950000D03*
X38717600Y50082400D03*
X72107600Y40392400D03*
X72825000Y39700000D03*
X77453780Y44852190D03*
X89379360Y41627030D03*
X72042200Y46042200D03*
X91291800Y13633200D03*
X12850000Y31750000D03*
X18009600Y15059600D03*
X80695800Y80725000D03*
X47455200Y67894200D03*
X38075000Y50975000D03*
X26838600Y52211400D03*
X26940200Y49734800D03*
X42025000Y28825000D03*
X93052200Y68402200D03*
X93052200Y65827200D03*
X93127200Y63327200D03*
X79400000Y8700000D03*
X83704080Y71053470D03*
X44552170Y60377950D03*
D46*
X39000000Y64825000D03*
D47*
X36975000Y61225000D03*
X34150000Y67650000D03*
X31850000Y43975000D03*
X32175000Y42675000D03*
X31726550Y38751890D03*
X31500000Y30500000D03*
X48050000Y30175000D03*
X50225000Y26675000D03*
X29595000Y45355000D03*
X65800000Y21275000D03*
X77572600Y41727400D03*
X77290800Y86090800D03*
D46*
X70450000Y78175000D03*
D47*
X77048600Y76920600D03*
X81207400Y77225000D03*
D49*
X27050000Y-16750000D02*
X35750000Y-16750000D01*
D50*
X27000000Y-16800000D02*
X27050000Y-16750000D01*
D49*
X37982000Y-16750000D02*
X47000000Y-16750000D01*
D50*
X69338400Y9574400D02*
X69613400Y9849400D01*
X69613400Y9849400D02*
X69613400Y10349400D01*
X84825000Y-10150000D02*
X85000000Y-10325000D01*
X85000000Y-11200000D02*
X85000000Y-10325000D01*
X69338400Y6073000D02*
X69338400Y9574400D01*
X69338400Y6073000D02*
X84825000Y-9413610D01*
X84825000Y-10150000D02*
X84825000Y-9413610D01*
X68613400Y9849400D02*
X68613400Y10349400D01*
X68613400Y9849400D02*
X68888400Y9574400D01*
X84200000Y-11200000D02*
X84200000Y-10325000D01*
X84200000Y-10325000D02*
X84375000Y-10150000D01*
X68888400Y5886600D02*
X68888400Y9574400D01*
X68888400Y5886600D02*
X84375000Y-9600000D01*
X84375000Y-10150000D02*
X84375000Y-9600000D01*
D49*
X54904000Y44950800D02*
X55177660Y44677130D01*
X55089800Y42791800D02*
X55177660Y42879670D01*
X55177660Y42879670D02*
X55177660Y44677130D01*
D51*
X36220400Y23385400D02*
X37750000Y23385400D01*
D52*
X52152600Y28150000D02*
X52152600Y30147800D01*
D49*
X52152600Y30147800D02*
X52152600Y30977600D01*
X52152600Y30977600D02*
X52583200Y31408200D01*
X52583200Y31408200D02*
X52583200Y32428600D01*
X52583200Y32428600D02*
X52583200Y34214600D01*
X52583200Y34214600D02*
X52676800Y34308200D01*
X46700000Y36425000D02*
X46700000Y37125000D01*
X46700000Y36425000D02*
X46925000Y36200000D01*
X22882200Y42815000D02*
X24585000Y42815000D01*
X24585000Y42815000D02*
X24625000Y42775000D01*
X54904000Y44950800D02*
X56074200Y44950800D01*
X56074200Y44950800D02*
X56100000Y44925000D01*
X56100000Y44900000D02*
X56100000Y44925000D01*
X65325000Y34125000D02*
X68250000Y34125000D01*
X68250000Y34125000D02*
X68376800Y34251800D01*
X68376800Y34251800D02*
X68376800Y35493200D01*
X65325000Y33575000D02*
X65325000Y34125000D01*
X65350000Y33525000D02*
X65375000Y33525000D01*
X65325000Y33575000D02*
X65375000Y33525000D01*
X63376800Y91123200D02*
X63376800Y91744800D01*
X69200000Y90725000D02*
X69975000Y90725000D01*
X69975000Y90725000D02*
X70500000Y91250000D01*
X63376800Y91123200D02*
X64250000Y90250000D01*
X64250000Y90250000D02*
X68125240Y90250000D01*
X68600240Y90725000D02*
X69200000Y90725000D01*
X68125240Y90250000D02*
X68600240Y90725000D01*
X72320800Y89419800D02*
X74080200Y89419800D01*
X74080200Y89419800D02*
X74500000Y89000000D01*
X74500000Y89000000D02*
X76000000Y89000000D01*
X76000000Y89000000D02*
X76250000Y88750000D01*
X76250000Y88750000D02*
X88090600Y88750000D01*
X88090600Y88750000D02*
X92207800Y84632800D01*
X85000000Y-8000000D02*
X86600200Y-9600200D01*
X86600200Y-11200000D02*
X86600200Y-9600200D01*
X66500000Y-9000000D02*
X66600200Y-9100200D01*
X66600200Y-11200000D02*
X66600200Y-9100200D01*
X50050000Y-16800000D02*
X52050000Y-16800000D01*
X48800000Y-16800000D02*
X50050000Y-16800000D01*
X56050000Y-16800000D02*
X57500000Y-16800000D01*
X54050000Y-16800000D02*
X56050000Y-16800000D01*
X52050000Y-16800000D02*
X54050000Y-16800000D01*
D50*
X8250000Y2654120D02*
X9267120Y2654120D01*
X9267120Y2654120D02*
X9297400Y2684400D01*
X10728130Y2692730D02*
X11772170Y2692730D01*
X10719800Y2684400D02*
X10728130Y2692730D01*
D53*
X43593770Y52492120D02*
X43593770Y54493770D01*
X43593770Y54493770D02*
X43600000Y54500000D01*
D54*
X84967160Y15100740D02*
X85135400Y14932500D01*
X85135400Y13799600D02*
X85135400Y14932500D01*
X84554130Y15100740D02*
X84967160Y15100740D01*
D50*
X87655400Y13599600D02*
X87655400Y14919600D01*
X87550000Y15025000D02*
X87655400Y14919600D01*
X88679330Y13632930D02*
X88679330Y15000730D01*
X88646000Y13599600D02*
X88679330Y13632930D01*
D54*
X89125000Y19525000D02*
X90575400Y19525000D01*
X90575400Y19525000D02*
X90652600Y19602200D01*
X84104100Y22085500D02*
X84135400Y22116800D01*
D50*
X12100590Y12500610D02*
X12100590Y13868610D01*
X12066000Y13903200D02*
X12100590Y13868610D01*
X16700000Y8425000D02*
X18029600Y8425000D01*
X18029600Y8425000D02*
X18068600Y8386000D01*
D54*
X13564600Y4414600D02*
X13564600Y5386000D01*
X13550000Y4400000D02*
X13564600Y4414600D01*
D50*
X9551400Y7386000D02*
X9565400Y7400000D01*
D49*
X79425000Y20931800D02*
X79459200Y20897600D01*
X79425000Y20931800D02*
X79425000Y22150000D01*
D54*
X69113400Y11799400D02*
X69113400Y12736600D01*
D53*
X46125000Y85949990D02*
X46662220Y86350040D01*
X40950000Y86075000D02*
X40950000Y87500000D01*
X47175000Y86275000D02*
X47175000Y87350000D01*
X48700000Y85900000D02*
X48700000Y87325000D01*
D49*
X52550000Y56400000D02*
X52550000Y56957400D01*
X52509800Y56997600D02*
X52550000Y56957400D01*
D53*
X54585600Y30175000D02*
X55225000Y30175000D01*
X39025000Y62075000D02*
X40157400Y62075000D01*
X41475000Y62025000D02*
X42595800Y62025000D01*
X41050000Y54450000D02*
X42475000Y54450000D01*
X51300000Y53800000D02*
X51300000Y54914800D01*
X55700000Y52700000D02*
X55700000Y53797200D01*
X55775000Y55075000D02*
X55775000Y56184800D01*
X60125000Y53100000D02*
X60125000Y54118000D01*
X63225000Y52725000D02*
X63225000Y53743000D01*
X69750040Y51650000D02*
X69750040Y53075000D01*
X70500000Y64675000D02*
X70500000Y65649600D01*
X72750000Y64300000D02*
X74175000Y64300000D01*
X74900000Y64300000D02*
X76325000Y64300000D01*
X73825000Y63050000D02*
X73825000Y64475000D01*
X75325000Y63050000D02*
X75325000Y64475000D01*
X69265800Y71950000D02*
X70375000Y71950000D01*
X71678800Y72025000D02*
X72750000Y72025000D01*
X80400000Y73050000D02*
X80400000Y74475000D01*
X78975000Y73025000D02*
X78975000Y74450000D01*
X77925000Y74700000D02*
X79350000Y74700000D01*
X80025000Y74625000D02*
X81450000Y74625000D01*
X69265800Y73825000D02*
X70350000Y73825000D01*
X73400000Y74525000D02*
X74825000Y74525000D01*
X69275000Y79943200D02*
X69275000Y80925000D01*
X67116200Y81450000D02*
X68125000Y81450000D01*
X62875000Y81559400D02*
X62875000Y82675000D01*
X55350000Y81525000D02*
X56302400Y81525000D01*
X55325000Y84000000D02*
X56302400Y84000000D01*
X62200000Y85425000D02*
X62200000Y86850000D01*
X61000000Y85575000D02*
X62425000Y85575000D01*
X53070000Y85750000D02*
X54025000Y85750000D01*
X53070000Y83050000D02*
X54025000Y83050000D01*
X48300000Y86075000D02*
X49725000Y86075000D01*
X52300000Y89200000D02*
X52300000Y90625000D01*
X50925000Y89175000D02*
X50925000Y90600000D01*
X50925000Y91375000D02*
X50925000Y92800000D01*
X52300000Y91350000D02*
X52300000Y92775000D01*
X49925000Y91725000D02*
X51350000Y91725000D01*
X49950000Y90275000D02*
X51375000Y90275000D01*
X39525000Y86450000D02*
X40950000Y86450000D01*
X46662220Y86350040D02*
X47175000Y86275000D01*
X41773600Y81151400D02*
X41773600Y82067400D01*
X41773600Y81151400D02*
X41950000Y80975000D01*
X42200000Y78175000D02*
X42200000Y78897800D01*
X41824400Y79273400D02*
X42200000Y78897800D01*
X41396200Y72675000D02*
X42450000Y72675000D01*
X42875000Y66100000D02*
X43928800Y66100000D01*
X40350000Y66375000D02*
X40350000Y66375000D01*
X40350000Y66375000D02*
X40600000Y66125000D01*
X91660600Y6200000D02*
X92300000Y6200000D01*
X86425000Y5075000D02*
X86425000Y5714400D01*
X26210600Y8975000D02*
X26850000Y8975000D01*
X7750000Y16410600D02*
X7750000Y17050000D01*
X24635600Y16900000D02*
X25275000Y16900000D01*
X73875000Y74575000D02*
X74300000Y74150000D01*
X74300000Y73300000D02*
X74300000Y74150000D01*
D49*
X94056200Y61493400D02*
X94100000Y61537200D01*
X94100000Y61537200D02*
X94100000Y62000000D01*
X92100400Y57826400D02*
X93273600Y57826400D01*
X93273600Y57826400D02*
X93300000Y57800000D01*
X94056200Y58377200D02*
X94577200Y58377200D01*
X94577200Y58377200D02*
X94600000Y58400000D01*
X94056200Y55405400D02*
X94594600Y55405400D01*
X94594600Y55405400D02*
X94600000Y55400000D01*
X92100400Y54826400D02*
X93477200Y54826400D01*
X93477200Y54826400D02*
X94056200Y55405400D01*
X94056200Y52408200D02*
X94591800Y52408200D01*
X94591800Y52408200D02*
X94600000Y52400000D01*
X92100400Y44822600D02*
X93455600Y44822600D01*
X93455600Y44822600D02*
X94056200Y45423200D01*
X94056200Y45423200D02*
X94576800Y45423200D01*
X92100400Y41825400D02*
X93726400Y41825400D01*
X93726400Y41825400D02*
X94056200Y41495600D01*
X94056200Y41495600D02*
X94795600Y41495600D01*
X93500000Y38100000D02*
X94048200Y38100000D01*
X94048200Y38100000D02*
X94056200Y38108000D01*
X79073600Y60326400D02*
X80226800Y60326400D01*
X79000000Y60400000D02*
X79073600Y60326400D01*
X78536800Y59326400D02*
X80226800Y59326400D01*
X78105000Y58894600D02*
X78536800Y59326400D01*
X77505400Y58894600D02*
X78105000Y58894600D01*
X77424400Y56024400D02*
X78105000Y56024400D01*
X78531000Y40301400D02*
X80226800Y40301400D01*
X78105000Y40727400D02*
X78531000Y40301400D01*
X37800000Y21000000D02*
X37800000Y21600000D01*
X39200000Y20800000D02*
X39200000Y21400000D01*
X40470200Y20040600D02*
X40470200Y20729800D01*
D53*
X69200000Y53000000D02*
X69600000Y52600000D01*
D49*
X80226800Y53326400D02*
X81401400Y53326400D01*
X81401400Y53326400D02*
X81450000Y53375000D01*
X43923400Y62898400D02*
X44678600Y62898400D01*
X43900000Y62875000D02*
X43923400Y62898400D01*
X78092840Y45852240D02*
X78105000Y45864400D01*
X77453780Y45852240D02*
X78092840Y45852240D01*
X80203200Y56350000D02*
X80226800Y56326400D01*
X78430600Y56350000D02*
X80203200Y56350000D01*
X78105000Y56024400D02*
X78430600Y56350000D01*
D53*
X67975000Y51650000D02*
X67975000Y53050000D01*
X67187500Y52262500D02*
X67422460Y52027540D01*
X67187500Y52262500D02*
X67975000Y53050000D01*
X65053170Y52702570D02*
X65053170Y53003180D01*
X65053170Y53003180D02*
X65475000Y53425000D01*
X65475000Y53425000D02*
X65475000Y54118000D01*
D49*
X78810800Y39310800D02*
X80226800Y39310800D01*
X79325590Y46321200D02*
X80226800Y46321200D01*
X79131670Y46127280D02*
X79325590Y46321200D01*
X78105000Y45864400D02*
X78367880Y46127280D01*
X78367880Y46127280D02*
X79131670Y46127280D01*
D54*
X84599400Y11125600D02*
X84599400Y11829800D01*
X81300000Y11150000D02*
X81300000Y11825000D01*
X86131400Y10168600D02*
X86131400Y10923400D01*
X89025000Y9400000D02*
X89050000Y9425000D01*
X89050000Y9425000D02*
X89650000Y9425000D01*
X87782400Y10617600D02*
X87782400Y10923400D01*
X87782400Y10617600D02*
X88100000Y10300000D01*
X89230200Y10644800D02*
X89230200Y10923400D01*
X89230200Y10644800D02*
X89600000Y10275000D01*
X90652600Y20110200D02*
X91905200Y20110200D01*
X91905200Y20110200D02*
X92202000Y19813400D01*
X92202000Y19813400D02*
X93163400Y19813400D01*
D52*
X88032000Y24968000D02*
X88933800Y24968000D01*
X89032000Y24032000D02*
X89032000Y24933800D01*
D54*
X83635400Y22116800D02*
X83635400Y23039600D01*
X79655400Y18619600D02*
X80391000Y18619600D01*
D50*
X80391000Y18619600D02*
X82127400Y18619600D01*
X82127400Y18619600D02*
X82135400Y18611600D01*
X80391000Y15597000D02*
X82132800Y15597000D01*
X82132800Y15597000D02*
X82135400Y15599600D01*
X79600000Y15597000D02*
X80391000Y15597000D01*
X81249600Y15099600D02*
X82135400Y15099600D01*
X81050000Y14900000D02*
X81249600Y15099600D01*
X73400000Y16700000D02*
X74225000Y16700000D01*
D49*
X12875000Y27375000D02*
X12875000Y28050000D01*
X13000000Y23050000D02*
X13000000Y23700000D01*
D50*
X12625000Y20450000D02*
X12625000Y21175000D01*
X26600000Y23800000D02*
X26600000Y24550000D01*
D49*
X51816000Y11799400D02*
X51816000Y12559000D01*
X36000000Y15000000D02*
X36000000Y15825000D01*
X19889200Y3689200D02*
X19889200Y4360800D01*
X19889200Y7697600D02*
X20750000Y7697600D01*
X21428400Y9153400D02*
X21500000Y9225000D01*
X20795600Y9153400D02*
X21428400Y9153400D01*
D50*
X18068600Y10906000D02*
X19567000Y10906000D01*
X19567000Y10906000D02*
X19889200Y11228200D01*
X19889200Y11228200D02*
X20796800Y11228200D01*
X22325000Y10525000D02*
X22325000Y11375000D01*
X18068600Y11896600D02*
X18971600Y11896600D01*
X18971600Y11896600D02*
X19411400Y12336400D01*
X19411400Y12336400D02*
X19889200Y12336400D01*
X19889200Y12336400D02*
X20686390Y12336400D01*
X8564000Y6886000D02*
X9551400Y6886000D01*
X13048600Y3565400D02*
X13048600Y5378000D01*
X13048600Y5378000D02*
X13056600Y5386000D01*
X13048600Y3376400D02*
X13048600Y3565400D01*
X13048600Y3376400D02*
X13575000Y2850000D01*
X16068600Y4631400D02*
X16068600Y5386000D01*
X16068600Y4631400D02*
X16579200Y4120800D01*
X16579200Y3590800D02*
X16579200Y4120800D01*
X16568600Y4906400D02*
X16568600Y5386000D01*
X16568600Y4906400D02*
X16975000Y4500000D01*
X16975000Y4500000D02*
X17225000Y4500000D01*
D49*
X16579200Y3590800D02*
X17170000Y3000000D01*
D50*
X11558000Y13903200D02*
X11558000Y14708000D01*
X11558000Y14708000D02*
X12032600Y15182600D01*
X12032600Y15182600D02*
X12032600Y15782800D01*
D49*
X12032600Y15782800D02*
X12717200Y15782800D01*
D50*
X70250000Y92500000D02*
X70750000Y92500000D01*
X70250000Y98250000D02*
X71250000Y98250000D01*
X70588800Y96338800D02*
X71502000Y96338800D01*
D49*
X71500000Y85250000D02*
X71500000Y86500000D01*
D55*
X76250000Y85000000D02*
X76250000Y86750000D01*
X75250000Y84000000D02*
X76250000Y85000000D01*
X71500000Y84000000D02*
X75250000Y84000000D01*
D49*
X27500000Y78100000D02*
X27500000Y78700000D01*
D50*
X30673000Y76827000D02*
X30911800Y76827000D01*
X30200000Y77300000D02*
X30673000Y76827000D01*
X23256400Y63593600D02*
X24003000Y63593600D01*
X23225000Y63625000D02*
X23256400Y63593600D01*
X14833600Y47769400D02*
X14833600Y48408600D01*
X51427000Y80797400D02*
X51975000Y81345400D01*
X51975000Y81345400D02*
X51975000Y81781640D01*
X51970900Y81785740D02*
X51975000Y81781640D01*
D49*
X56456200Y67894200D02*
X57444000Y67894200D01*
D50*
X57444000Y67894200D02*
X57453420Y67884780D01*
X68318000Y64744600D02*
X68719600Y64744600D01*
X68719600Y64744600D02*
X68875000Y64900000D01*
X67462400Y67886200D02*
X68111200Y67886200D01*
X22100000Y48375000D02*
X22150000Y48425000D01*
X22150000Y48425000D02*
X22150000Y49025000D01*
D49*
X21680000Y41545000D02*
X22882200Y41545000D01*
X19300000Y40400000D02*
X20125000Y40400000D01*
X39600000Y51675000D02*
X40125000Y51675000D01*
X30081800Y49123000D02*
X31823000Y49123000D01*
X49050000Y29475000D02*
X50000000Y29475000D01*
X53489600Y32522200D02*
X53489600Y34308200D01*
X53489600Y32522200D02*
X53583200Y32428600D01*
X53583200Y31816800D02*
X53583200Y32428600D01*
X53583200Y31816800D02*
X54152600Y31247400D01*
X54152600Y30147800D02*
X54152600Y31247400D01*
D54*
X53904000Y44900000D02*
X53904000Y44950800D01*
X52500000Y44382100D02*
X53017900Y44900000D01*
X53017900Y44900000D02*
X53904000Y44900000D01*
X52676800Y41598200D02*
X53275000Y41000000D01*
X52676800Y41598200D02*
X52676800Y43773200D01*
X52500000Y43950000D02*
X52676800Y43773200D01*
X52500000Y43950000D02*
X52500000Y44382100D01*
X93413200Y72110600D02*
X94239400Y72110600D01*
X90406400Y74000400D02*
X91325000Y74000400D01*
D53*
X48450000Y55000000D02*
X48450000Y56083200D01*
D54*
X44602400Y75861800D02*
X44602400Y76352400D01*
D53*
X42875000Y70675000D02*
X43928800Y70675000D01*
D54*
X36515300Y59100000D02*
X36591000Y59175700D01*
X35925000Y59100000D02*
X36515300Y59100000D01*
D53*
X40600000Y66125000D02*
X41200000Y66125000D01*
X42075000Y54475000D02*
X42100000Y54450000D01*
X42100000Y52675000D02*
X42100000Y54450000D01*
D50*
X33148200Y29648200D02*
X34352200Y29648200D01*
X32600000Y29100000D02*
X33148200Y29648200D01*
X42463400Y23378200D02*
X43703200Y23378200D01*
X43703200Y23378200D02*
X44550000Y24225000D01*
D49*
X65325000Y35125000D02*
X66001810Y35125000D01*
X66001810Y35125000D02*
X66038400Y35161600D01*
X79806800Y25434800D02*
X79806800Y29431800D01*
X79806800Y29431800D02*
X80125000Y29750000D01*
X40609190Y93840810D02*
X40609190Y96494600D01*
X40609190Y93840810D02*
X40950000Y93500000D01*
X40950000Y93500000D02*
X41500000Y93500000D01*
X69200000Y88759400D02*
X70190600Y88759400D01*
X69200000Y89419800D02*
X70144800Y89419800D01*
X69200000Y90075000D02*
X70125000Y90075000D01*
D54*
X14639800Y41460600D02*
X14867150Y41460600D01*
X14867150Y41460600D02*
X15900780Y40426970D01*
D49*
X79215600Y43324000D02*
X80226800Y43324000D01*
X78819800Y43719800D02*
X79215600Y43324000D01*
X77604200Y40727400D02*
X78105000Y40727400D01*
X77503780Y40626980D02*
X77604200Y40727400D01*
X43107600Y44067400D02*
X44385200Y44067400D01*
X42375000Y44800000D02*
X42375000Y45025000D01*
X42375000Y44800000D02*
X43107600Y44067400D01*
D53*
X69700010Y53025000D02*
X70800000Y53025000D01*
D50*
X18055000Y11375000D02*
X18068600Y11388600D01*
X16579200Y11375000D02*
X18055000Y11375000D01*
D53*
X66478240Y52027540D02*
X67422460Y52027540D01*
D54*
X81236800Y9638200D02*
X81432800Y9638200D01*
X80350000Y10525000D02*
X81236800Y9638200D01*
X83642600Y7936400D02*
X83828620Y7750380D01*
X83828620Y7750380D02*
X85104150Y7750380D01*
X21076030Y4638840D02*
X21076030Y4675230D01*
X21076030Y4638840D02*
X21307070Y4407800D01*
X21307070Y4407800D02*
X22236800Y4407800D01*
X23938600Y6617600D02*
X25047640Y6617600D01*
X25047640Y6617600D02*
X25051220Y6621190D01*
X25051220Y6621190D02*
X25051220Y6675330D01*
D50*
X88135400Y15286200D02*
X88138000Y15283600D01*
X88138000Y13599600D02*
X88138000Y15283600D01*
D54*
X84104100Y22085500D02*
X84135120Y22054490D01*
X84135120Y20567680D02*
X84135120Y22054490D01*
D50*
X9565400Y7400000D02*
X11125000Y7400000D01*
X82135400Y18103600D02*
X83546400Y18103600D01*
D49*
X60945800Y2054200D02*
X60945800Y3151000D01*
D50*
X60945800Y2054200D02*
X61000000Y2000000D01*
D49*
X65456200Y5500000D02*
X66000000Y5500000D01*
X61000000Y7615000D02*
X61000000Y8475000D01*
X59500000Y5500000D02*
X60125800Y5500000D01*
D50*
X60125800Y5500000D02*
X60265000Y5360800D01*
D51*
X55018000Y35943000D02*
X55018000Y37156650D01*
X54425000Y35350000D02*
X55018000Y35943000D01*
X50000000Y35350000D02*
X54425000Y35350000D01*
X55025000Y37425000D02*
X55550000Y37950000D01*
X49075000Y34425000D02*
X50000000Y35350000D01*
X55025000Y37163650D02*
X55025000Y37425000D01*
X55018000Y37156650D02*
X55025000Y37163650D01*
X48500000Y34425000D02*
X49075000Y34425000D01*
X45925000Y33475000D02*
X45925000Y33625000D01*
X45642600Y33907400D02*
X45925000Y33625000D01*
X44385200Y33907400D02*
X45642600Y33907400D01*
X55550000Y37950000D02*
X55550000Y40375000D01*
D50*
X34326800Y42797400D02*
X37827600Y42797400D01*
X37827600Y42797400D02*
X37982000Y42643000D01*
X37982000Y42621260D02*
X37982000Y42643000D01*
X46150000Y36000000D02*
X46150000Y37325000D01*
X44385200Y38987400D02*
X45112600Y38987400D01*
X45112600Y38987400D02*
X45725000Y38375000D01*
X45725000Y37750000D02*
X45725000Y38375000D01*
X45725000Y37750000D02*
X46150000Y37325000D01*
X47175000Y31953860D02*
X48002340Y31126520D01*
X47175000Y31953860D02*
X47175000Y34975000D01*
X46150000Y36000000D02*
X47175000Y34975000D01*
D51*
X43002600Y36447400D02*
X44385200Y36447400D01*
X42025000Y37425000D02*
X43002600Y36447400D01*
D50*
X61725000Y44875000D02*
X61875000Y44875000D01*
X61875000Y44875000D02*
X62475000Y44275000D01*
X61850000Y37250000D02*
X62475000Y37875000D01*
X62475000Y37875000D02*
X62475000Y44275000D01*
X45975000Y12175000D02*
X45975000Y14125000D01*
X41900000Y8100000D02*
X45975000Y12175000D01*
X41900000Y8075000D02*
X41900000Y8100000D01*
X47299530Y9725470D02*
X47352310Y9725470D01*
X46925000Y9350950D02*
X47299530Y9725470D01*
X46925000Y8700000D02*
X46925000Y9350950D01*
X44700000Y9000000D02*
X45800000Y10100000D01*
X44700000Y8752610D02*
X44700000Y9000000D01*
X44700000Y8752610D02*
X44727180Y8725430D01*
X43450000Y8750000D02*
X44625000Y9925000D01*
D51*
X53868400Y36543400D02*
X53925000Y36600000D01*
X48841400Y36543400D02*
X53868400Y36543400D01*
X53931000Y35756000D02*
X54125000Y35950000D01*
X48841400Y35756000D02*
X53931000Y35756000D01*
D50*
X50289200Y34308200D02*
X50325000Y34272400D01*
X50325000Y31554000D02*
X50427460Y31451530D01*
X50325000Y31554000D02*
X50325000Y34272400D01*
X50925000Y31474260D02*
X51076600Y31625860D01*
X50925000Y31000000D02*
X50925000Y31474260D01*
X51076600Y31625860D02*
X51076600Y34308200D01*
X51400000Y31150000D02*
X51889400Y31639400D01*
X51400000Y30803250D02*
X51400000Y31150000D01*
X51200000Y30603250D02*
X51400000Y30803250D01*
X51200000Y27925000D02*
X51200000Y30603250D01*
X51889400Y31639400D02*
X51889400Y34308200D01*
X51200000Y27925000D02*
X52725000Y26400000D01*
X52725000Y21200000D02*
X52725000Y26400000D01*
X56075000Y22150000D02*
X56075000Y31150000D01*
X54277000Y34075000D02*
X54277000Y34308200D01*
X54283200Y32941800D02*
X54283200Y34075000D01*
X54283200Y32941800D02*
X56075000Y31150000D01*
X56400000Y22775000D02*
X56400000Y31475000D01*
X55089800Y34075000D02*
X55089800Y34308200D01*
X55083200Y32791800D02*
X56400000Y31475000D01*
X55083200Y32791800D02*
X55083200Y34075000D01*
X56825000Y21925000D02*
X56825000Y22350000D01*
X56400000Y22775000D02*
X56825000Y22350000D01*
X56725000Y23175000D02*
X56725000Y32000000D01*
X55883200Y32841800D02*
X56725000Y32000000D01*
X55883200Y32841800D02*
X55883200Y34075000D01*
X56725000Y23175000D02*
X57300000Y22600000D01*
X57300000Y21400000D02*
X57300000Y22600000D01*
D51*
X55877200Y42791800D02*
X55877200Y43611370D01*
X55877200Y43611370D02*
X55983830Y43718000D01*
X55983830Y43718000D02*
X56174650Y43718000D01*
X56174650Y43718000D02*
X56190820Y43734170D01*
X56190820Y43734170D02*
X57765830Y43734170D01*
X57765830Y43734170D02*
X58175000Y43325000D01*
X54277000Y41723000D02*
X54277000Y42791800D01*
X56875000Y42400000D02*
X56875000Y42700000D01*
X54277000Y41723000D02*
X54425000Y41575000D01*
X54425000Y41575000D02*
X56050000Y41575000D01*
X56050000Y41575000D02*
X56875000Y42400000D01*
D50*
X53489600Y41560400D02*
X53489600Y42791800D01*
X53489600Y41560400D02*
X54402650Y40647350D01*
X54402650Y40626980D02*
X54402650Y40647350D01*
D51*
X53748330Y40493000D02*
X53752660Y40497330D01*
D50*
X51889400Y41385600D02*
X51889400Y42791800D01*
D51*
X51889400Y41385600D02*
X52782000Y40493000D01*
X52782000Y40493000D02*
X53748330Y40493000D01*
D50*
X50975000Y41000000D02*
X50975000Y42690200D01*
X50975000Y42690200D02*
X51076600Y42791800D01*
X47900200Y43875000D02*
X47902340Y43877140D01*
X50050000Y43875000D02*
X50289200Y43635800D01*
X50289200Y42791800D02*
X50289200Y43635800D01*
X47900200Y43875000D02*
X50050000Y43875000D01*
X48608200Y41350000D02*
X49804450Y41350000D01*
X49804450Y41350000D02*
X50152450Y41002000D01*
X48998000Y40400000D02*
X50650000Y40400000D01*
X48841400Y40556600D02*
X48998000Y40400000D01*
X53012500Y20862500D02*
X57512500Y20862500D01*
X52525000Y20375000D02*
X53012500Y20862500D01*
X43400000Y20375000D02*
X52525000Y20375000D01*
X41600000Y22175000D02*
X43400000Y20375000D01*
X57512500Y20862500D02*
X57775000Y21125000D01*
X57775000Y21125000D02*
X57775000Y27604210D01*
X56456000Y35756000D02*
X57325000Y35756000D01*
X56325000Y35625000D02*
X56456000Y35756000D01*
X56325000Y35375000D02*
X56325000Y35625000D01*
X56325000Y35375000D02*
X57250000Y34450000D01*
X57250000Y32171750D02*
X57250000Y34450000D01*
X57225000Y32146750D02*
X57250000Y32171750D01*
X57225000Y30875000D02*
X57225000Y32146750D01*
X57225000Y30875000D02*
X57775000Y30325000D01*
X57775000Y29821750D02*
X57775000Y30325000D01*
X57302820Y29349570D02*
X57775000Y29821750D01*
X57302820Y28076390D02*
X57302820Y29349570D01*
X57302820Y28076390D02*
X57775000Y27604210D01*
X30276480Y19475950D02*
X32650530Y21850000D01*
X32650530Y21850000D02*
X36925320Y21850000D01*
X36925320Y21850000D02*
X37250320Y22175000D01*
X37250320Y22175000D02*
X41600000Y22175000D01*
X56118400Y36543400D02*
X57325000Y36543400D01*
X56000000Y36425000D02*
X56118400Y36543400D01*
X55981200Y37356200D02*
X57325000Y37356200D01*
X55575000Y36950000D02*
X55981200Y37356200D01*
X55500000Y36950000D02*
X55575000Y36950000D01*
X54750000Y18475000D02*
X55475000Y19200000D01*
X46175000Y18475000D02*
X54750000Y18475000D01*
X44250000Y16550000D02*
X46175000Y18475000D01*
X57325000Y38143600D02*
X58381400Y38143600D01*
X58381400Y38143600D02*
X58750000Y37775000D01*
X58250000Y34350000D02*
X58750000Y34850000D01*
X58750000Y34850000D02*
X58750000Y37775000D01*
X58250000Y29475000D02*
X58250000Y34350000D01*
X58125000Y29350000D02*
X58250000Y29475000D01*
X57975000Y29350000D02*
X58125000Y29350000D01*
X57848140Y28551390D02*
X58725000Y29428250D01*
X57777820Y28551390D02*
X57848140Y28551390D01*
X57325000Y38956400D02*
X58868600Y38956400D01*
X58868600Y38956400D02*
X59150000Y38675000D01*
X59150000Y34525000D02*
X59150000Y38675000D01*
X58725000Y34100000D02*
X59150000Y34525000D01*
X58725000Y29428250D02*
X58725000Y34100000D01*
X64650000Y7560800D02*
X64650000Y8349970D01*
X64650000Y8349970D02*
X66900000Y10599970D01*
X66900000Y10599970D02*
X66900000Y27261600D01*
X66900000Y27261600D02*
X69175000Y29536600D01*
X69175000Y29536600D02*
X69175000Y32800000D01*
X86725800Y28625800D02*
X87847000Y28625800D01*
X80900000Y22800000D02*
X86725800Y28625800D01*
X78850000Y22800000D02*
X80900000Y22800000D01*
X76125000Y20075000D02*
X78850000Y22800000D01*
X76125000Y16750000D02*
X76125000Y20075000D01*
X46718600Y38143600D02*
X48841400Y38143600D01*
D49*
X46700000Y38125000D02*
X46718600Y38143600D01*
D50*
X48841400Y38143600D02*
X51106400Y38143600D01*
X51106400Y38143600D02*
X51925000Y37325000D01*
X51925000Y37300000D02*
X51925000Y37325000D01*
D49*
X41470200Y19370200D02*
X41470200Y20040600D01*
X41400000Y19300000D02*
X41470200Y19370200D01*
D50*
X64200000Y-11200000D02*
X64200000Y-10325000D01*
X64200000Y-10325000D02*
X64375000Y-10150000D01*
X51316000Y9849400D02*
X51316000Y10349400D01*
X51316000Y9849400D02*
X51591000Y9574400D01*
X51591000Y8309000D02*
X51591000Y9574400D01*
X51591000Y8309000D02*
X64375000Y-4475000D01*
X64375000Y-10150000D02*
X64375000Y-4475000D01*
X65000000Y-11200000D02*
X65000000Y-10325000D01*
X64825000Y-10150000D02*
X65000000Y-10325000D01*
X52041000Y9574400D02*
X52316000Y9849400D01*
X52316000Y9849400D02*
X52316000Y10349400D01*
X64825000Y-10150000D02*
X64825000Y-4288600D01*
X52041000Y8495400D02*
X52041000Y9574400D01*
X52041000Y8495400D02*
X64825000Y-4288600D01*
X56325000Y66925000D02*
X56450000Y66925000D01*
X55906200Y67343800D02*
X56325000Y66925000D01*
X55906200Y67343800D02*
X55906200Y68356200D01*
X55906200Y68356200D02*
X56100000Y68550000D01*
X76025000Y83250000D02*
X76050000Y83275000D01*
X56100000Y68550000D02*
X67175000Y68550000D01*
X67175000Y68550000D02*
X68200000Y69575000D01*
X68200000Y69575000D02*
X68200000Y70500000D01*
X68200000Y70500000D02*
X68662280Y70962280D01*
X68662280Y70962280D02*
X73362280Y70962280D01*
X73362280Y70962280D02*
X76025000Y73625000D01*
X76025000Y73625000D02*
X76025000Y83250000D01*
X90000000Y51300000D02*
X92074000Y51300000D01*
X92074000Y51300000D02*
X92100400Y51326400D01*
X90500000Y51900000D02*
X92026800Y51900000D01*
X92026800Y51900000D02*
X92100400Y51826400D01*
X92026800Y52400000D02*
X92100400Y52326400D01*
X90696750Y52375000D02*
X90721750Y52350000D01*
X90721750Y52350000D02*
X91976800Y52350000D01*
X89150000Y52350000D02*
X89175000Y52375000D01*
X89175000Y52375000D02*
X90696750Y52375000D01*
X91976800Y52350000D02*
X92026800Y52400000D01*
X84375000Y52575000D02*
X84625000Y52575000D01*
X84126400Y52326400D02*
X84375000Y52575000D01*
X78103810Y53446190D02*
X78103810Y54077640D01*
X78103810Y53446190D02*
X79223600Y52326400D01*
X79223600Y52326400D02*
X84126400Y52326400D01*
X78923600Y51826400D02*
X80226800Y51826400D01*
X77228770Y53521230D02*
X77228770Y53902630D01*
X77228770Y53521230D02*
X78923600Y51826400D01*
X81900000Y50200000D02*
X87800000Y50200000D01*
X81258900Y50841100D02*
X81900000Y50200000D01*
X81258900Y50841100D02*
X81258900Y51074900D01*
X81122990Y51210800D02*
X81258900Y51074900D01*
X80342400Y51210800D02*
X81122990Y51210800D01*
X80226800Y51326400D02*
X80342400Y51210800D01*
X78700000Y50900000D02*
X79126400Y51326400D01*
X79126400Y51326400D02*
X80226800Y51326400D01*
X87800000Y50200000D02*
X88504320Y50904320D01*
X88504320Y50904320D02*
X88504320Y50952490D01*
X78647510Y50952490D02*
X78700000Y50900000D01*
X78603840Y50952490D02*
X78647510Y50952490D01*
X78890390Y50290380D02*
X79426400Y50826400D01*
X78290380Y50290380D02*
X78890390Y50290380D01*
X79426400Y50826400D02*
X80226800Y50826400D01*
X78928190Y49808380D02*
X79446200Y50326400D01*
X77923270Y49808380D02*
X78928190Y49808380D01*
X79446200Y50326400D02*
X80226800Y50326400D01*
X77600000Y50131650D02*
X77600000Y50500000D01*
X77600000Y50131650D02*
X77923270Y49808380D01*
X79426400Y49826400D02*
X80226800Y49826400D01*
X79000000Y49400000D02*
X79426400Y49826400D01*
X77600000Y49400000D02*
X79000000Y49400000D01*
X76253790Y50746210D02*
X77600000Y49400000D01*
X76253790Y50746210D02*
X76253790Y50864570D01*
X80226800Y49318400D02*
X81781600Y49318400D01*
X82000000Y49100000D02*
X84900000Y49100000D01*
X81781600Y49318400D02*
X82000000Y49100000D01*
X89800350Y50818000D02*
X90199650Y50818000D01*
X90199650Y50818000D02*
X90231650Y50850000D01*
X90231650Y50850000D02*
X92076800Y50850000D01*
X92076800Y50850000D02*
X92100400Y50826400D01*
X88029320Y51110970D02*
X88029320Y51149240D01*
X88029320Y51149240D02*
X88307570Y51427490D01*
X88307570Y51427490D02*
X89190860Y51427490D01*
X87870840Y50952490D02*
X88029320Y51110970D01*
X82554030Y50952490D02*
X87870840Y50952490D01*
X89190860Y51427490D02*
X89800350Y50818000D01*
X90718400Y49318400D02*
X92100400Y49318400D01*
X90600000Y49200000D02*
X90718400Y49318400D01*
X81850000Y47225000D02*
X89325000Y47225000D01*
X89325000Y47225000D02*
X89800000Y47700000D01*
X80226800Y47819800D02*
X81255200Y47819800D01*
X81255200Y47819800D02*
X81850000Y47225000D01*
X90799820Y49899900D02*
X92026900Y49899900D01*
X92026900Y49899900D02*
X92100400Y49826400D01*
X92126800Y50300000D02*
X94300000Y50300000D01*
X92100400Y50326400D02*
X92126800Y50300000D01*
X90425000Y39775000D02*
X92056600Y39775000D01*
X92056600Y39775000D02*
X92100400Y39818800D01*
X90625000Y40875000D02*
X90690600Y40809400D01*
X90690600Y40809400D02*
X92100400Y40809400D01*
X91207600Y41317400D02*
X92100400Y41317400D01*
X90997970Y41527030D02*
X91207600Y41317400D01*
X90879430Y41527030D02*
X90997970Y41527030D01*
X92092400Y42300000D02*
X92100400Y42308000D01*
X90675000Y42300000D02*
X92092400Y42300000D01*
X90425000Y43000000D02*
X90675000Y43000000D01*
X90675000Y43000000D02*
X90859000Y42816000D01*
X90859000Y42816000D02*
X92100400Y42816000D01*
X92018800Y43725000D02*
X92100400Y43806600D01*
X90525000Y43725000D02*
X92018800Y43725000D01*
X89212300Y44314600D02*
X92100400Y44314600D01*
X88740690Y43843000D02*
X89212300Y44314600D01*
X83543350Y44050000D02*
X83750350Y43843000D01*
X83175000Y44050000D02*
X83543350Y44050000D01*
X83750350Y43843000D02*
X84546250Y43843000D01*
X84546250Y43843000D02*
X84653250Y43950000D01*
X84653250Y43950000D02*
X85046750Y43950000D01*
X85046750Y43950000D02*
X85153750Y43843000D01*
X85153750Y43843000D02*
X88740690Y43843000D01*
X89851250Y45305200D02*
X92100400Y45305200D01*
X89687050Y45469400D02*
X89851250Y45305200D01*
X89251740Y45469400D02*
X89687050Y45469400D01*
X88107340Y44325000D02*
X89251740Y45469400D01*
X83950000Y44325000D02*
X88107340Y44325000D01*
X80226800Y45305200D02*
X81419800Y45305200D01*
X81419800Y45305200D02*
X82700000Y44025000D01*
X82700000Y43853250D02*
X82700000Y44025000D01*
X82700000Y43853250D02*
X83078250Y43475000D01*
X83078250Y43475000D02*
X84850000Y43475000D01*
X77232550Y44314600D02*
X80226800Y44314600D01*
X76882400Y44664750D02*
X77232550Y44314600D01*
X89033650Y43500000D02*
X89054350Y43479300D01*
X80226800Y44314600D02*
X81735400Y44314600D01*
X81735400Y44314600D02*
X82468000Y43582000D01*
X82468000Y43575350D02*
X82468000Y43582000D01*
X82468000Y43575350D02*
X83201350Y42842000D01*
X83201350Y42842000D02*
X88375650Y42842000D01*
X89054350Y43475000D02*
X89054350Y43479300D01*
X76400000Y45475000D02*
X76882400Y44992600D01*
X76882400Y44664750D02*
X76882400Y44992600D01*
X70575000Y44325000D02*
X73825000Y44325000D01*
X73825000Y44325000D02*
X74975000Y45475000D01*
X74975000Y45475000D02*
X76400000Y45475000D01*
X69725000Y43475000D02*
X70575000Y44325000D01*
X69525000Y43475000D02*
X69725000Y43475000D01*
X88375650Y42842000D02*
X89033650Y43500000D01*
X80226800Y43806600D02*
X81547770Y43806600D01*
X81711360Y43513640D02*
X81711360Y43656990D01*
X81711360Y43513640D02*
X82925000Y42300000D01*
X89000000Y42300000D02*
X89600000Y42900000D01*
X82925000Y42300000D02*
X89000000Y42300000D01*
X80226800Y42816000D02*
X81184000Y42816000D01*
X81184000Y42816000D02*
X82400000Y41600000D01*
X82400000Y41600000D02*
X82750000Y41950000D01*
X82750000Y41950000D02*
X88384640Y41950000D01*
X88384640Y41950000D02*
X89182610Y41152030D01*
X89182610Y41152030D02*
X89802030Y41152030D01*
X89802030Y41152030D02*
X90025000Y41375000D01*
X90025000Y41375000D02*
X90025000Y41925000D01*
X76250000Y44700000D02*
X76250000Y44850000D01*
X76250000Y44700000D02*
X78642000Y42308000D01*
X81142000Y42308000D02*
X81325000Y42125000D01*
X78642000Y42308000D02*
X81142000Y42308000D01*
X81325000Y41900000D02*
X81325000Y42125000D01*
X81325000Y41900000D02*
X82575000Y40650000D01*
X82575000Y40650000D02*
X83375000Y40650000D01*
X67453420Y58884780D02*
X70365220Y58884780D01*
X80154800Y41245400D02*
X80226800Y41317400D01*
X70000600Y40874400D02*
X75260400Y40874400D01*
X83575000Y40025000D02*
X85000000Y41450000D01*
X72418000Y47099650D02*
X72418000Y49199650D01*
X80226800Y41317400D02*
X81282600Y41317400D01*
X82575000Y40025000D02*
X83575000Y40025000D01*
X81282600Y41317400D02*
X82575000Y40025000D01*
X69050000Y43731650D02*
X72418000Y47099650D01*
X69050000Y41825000D02*
X70000600Y40874400D01*
X69050000Y41825000D02*
X69050000Y43731650D01*
X72418000Y49199650D02*
X72675000Y49456650D01*
X72675000Y49456650D02*
X72675000Y56575000D01*
X70365220Y58884780D02*
X72675000Y56575000D01*
X76376350Y41245400D02*
X80154800Y41245400D01*
X75260400Y40874400D02*
X75631400Y41245400D01*
X75631400Y41245400D02*
X75923650Y41245400D01*
X75923650Y41245400D02*
X75953250Y41275000D01*
X75953250Y41275000D02*
X76346750Y41275000D01*
X76346750Y41275000D02*
X76376350Y41245400D01*
X71650000Y47025000D02*
X71650000Y56675000D01*
X70050000Y58275000D02*
X71650000Y56675000D01*
X67925000Y58275000D02*
X70050000Y58275000D01*
X67453420Y57884780D02*
X67534780Y57884780D01*
X67534780Y57884780D02*
X67925000Y58275000D01*
X81190840Y40750000D02*
X81750000Y40190840D01*
X80286200Y40750000D02*
X81190840Y40750000D01*
X80226800Y40809400D02*
X80286200Y40750000D01*
X81750000Y40100000D02*
X81750000Y40190840D01*
X81750000Y39150000D02*
X81750000Y40100000D01*
X81100000Y38500000D02*
X81750000Y39150000D01*
X68675000Y41500000D02*
X68675000Y44050000D01*
X68675000Y44050000D02*
X71650000Y47025000D01*
X70257600Y39917400D02*
X72304350Y39917400D01*
X72304350Y39917400D02*
X72310330Y39923370D01*
X72310330Y39923370D02*
X72376620Y39923370D01*
X68675000Y41500000D02*
X70257600Y39917400D01*
X72376620Y39923370D02*
X72628250Y40175000D01*
X76325000Y40175000D02*
X78000000Y38500000D01*
X72628250Y40175000D02*
X76325000Y40175000D01*
X78000000Y38500000D02*
X81100000Y38500000D01*
X77918800Y39818800D02*
X80226800Y39818800D01*
X64328170Y52402270D02*
X64475000Y52255440D01*
X64475000Y51325000D02*
X65653230Y50146770D01*
X65653230Y49396770D02*
X65653230Y50146770D01*
X65653230Y49396770D02*
X68350000Y46700000D01*
X64475000Y51325000D02*
X64475000Y52255440D01*
X68350000Y40950000D02*
X68350000Y46700000D01*
X68350000Y40950000D02*
X70500000Y38800000D01*
X70500000Y38800000D02*
X75525000Y38800000D01*
X77725000Y39625000D02*
X77918800Y39818800D01*
X75525000Y38800000D02*
X76900000Y37425000D01*
X65743650Y57175000D02*
X66453420Y57884780D01*
X64328170Y52402270D02*
X64328170Y56761310D01*
X64328170Y56761310D02*
X64741860Y57175000D01*
X64741860Y57175000D02*
X65743650Y57175000D01*
X76002740Y54772260D02*
X76200000Y54575000D01*
X71271750Y59425000D02*
X71650000Y59046750D01*
X67665400Y59425000D02*
X71271750Y59425000D01*
X71650000Y58978250D02*
X72053250Y58575000D01*
X71650000Y58978250D02*
X71650000Y59046750D01*
X65453430Y57884780D02*
X65781670Y57884780D01*
X65781670Y57884780D02*
X66256670Y58359780D01*
X66709780Y58359780D02*
X66978420Y58628420D01*
X66978420Y58628420D02*
X66978420Y59203420D01*
X66978420Y59203420D02*
X67184780Y59409770D01*
X67184780Y59409770D02*
X67650170Y59409770D01*
X67650170Y59409770D02*
X67665400Y59425000D01*
X66256670Y58359780D02*
X66709780Y58359780D01*
X90575000Y54450000D02*
X90900000Y54450000D01*
X90900000Y54450000D02*
X91023600Y54326400D01*
X91023600Y54326400D02*
X92100400Y54326400D01*
X72053250Y58575000D02*
X72425000Y58575000D01*
X72425000Y58575000D02*
X76002740Y54997270D01*
X76002740Y54772260D02*
X76002740Y54997270D01*
X90779650Y55326400D02*
X92100400Y55326400D01*
X85325000Y54425000D02*
X89878250Y54425000D01*
X89878250Y54425000D02*
X90779650Y55326400D01*
X84675000Y55075000D02*
X85325000Y54425000D01*
X84475000Y55075000D02*
X84675000Y55075000D01*
X92099000Y55825000D02*
X92100400Y55826400D01*
X90749260Y55825000D02*
X92099000Y55825000D01*
X90024260Y56550000D02*
X90749260Y55825000D01*
X84075000Y56550000D02*
X84285150Y56550000D01*
X84575000Y56260150D02*
X87235150Y56260150D01*
X87235150Y56260150D02*
X87525000Y56550000D01*
X84285150Y56550000D02*
X84575000Y56260150D01*
X87525000Y56550000D02*
X90024260Y56550000D01*
X92049000Y56775000D02*
X92100400Y56826400D01*
X90223520Y56775000D02*
X92049000Y56775000D01*
X90148520Y56850000D02*
X90223520Y56775000D01*
X84900000Y56850000D02*
X90148520Y56850000D01*
X84829140Y56779140D02*
X84900000Y56850000D01*
X84750000Y56858280D02*
X84754140Y56854140D01*
X84754140Y56752770D02*
X84754140Y56854140D01*
X84754140Y56854140D02*
X84829140Y56779140D01*
X67325000Y60400000D02*
X71650000Y60400000D01*
X67284780Y60359780D02*
X67325000Y60400000D01*
X67256670Y60359780D02*
X67284780Y60359780D01*
X66978420Y60081530D02*
X67256670Y60359780D01*
X66978420Y59738020D02*
X66978420Y60081530D01*
X66650170Y59409770D02*
X66978420Y59738020D01*
X66306670Y59409770D02*
X66650170Y59409770D01*
X65975000Y59078100D02*
X66306670Y59409770D01*
X65975000Y58625000D02*
X65975000Y59078100D01*
X64256670Y58359780D02*
X65709780Y58359780D01*
X63978420Y58081530D02*
X64256670Y58359780D01*
X63978420Y58053420D02*
X63978420Y58081530D01*
X63799880Y57874880D02*
X63978420Y58053420D01*
X63449880Y57874880D02*
X63799880Y57874880D01*
X90726400Y57326400D02*
X92100400Y57326400D01*
X90725000Y57325000D02*
X90726400Y57326400D01*
X65709780Y58359780D02*
X65975000Y58625000D01*
X71650000Y60400000D02*
X74625000Y57425000D01*
X74625000Y57425000D02*
X76250000Y57425000D01*
X58900000Y51925000D02*
X58900000Y57631180D01*
X58900000Y51925000D02*
X60750000Y50075000D01*
X64869670Y21769670D02*
X64900000Y21769670D01*
X58900000Y57631180D02*
X58928420Y57659600D01*
X58928420Y57659600D02*
X58928420Y59078420D01*
X58928420Y59078420D02*
X59209780Y59359780D01*
X59209780Y59359780D02*
X63928430Y59359780D01*
X63928430Y59359780D02*
X64453420Y59884770D01*
X90405860Y58326400D02*
X92100400Y58326400D01*
X90404410Y58327850D02*
X90405860Y58326400D01*
X75375000Y58925000D02*
X76400000Y58925000D01*
X60750000Y50075000D02*
X61350000Y50075000D01*
X61350000Y50075000D02*
X63750000Y47675000D01*
X72975000Y61325000D02*
X75375000Y58925000D01*
X69375000Y61325000D02*
X72975000Y61325000D01*
X63750000Y22889340D02*
X64869670Y21769670D01*
X63750000Y22889340D02*
X63750000Y47675000D01*
X59275000Y52425000D02*
X59875000Y51825000D01*
X60184780Y58359780D02*
X63684780Y58359780D01*
X59275000Y57034600D02*
X59928420Y57688030D01*
X59928420Y57688030D02*
X59928420Y58103420D01*
X59928420Y58103420D02*
X60184780Y58359780D01*
X63684780Y58359780D02*
X64209780Y58884780D01*
X64209780Y58884780D02*
X64453420Y58884780D01*
X89748150Y58826400D02*
X92100400Y58826400D01*
X89612750Y58691000D02*
X89748150Y58826400D01*
X85384000Y58691000D02*
X89612750Y58691000D01*
X84575000Y59500000D02*
X85384000Y58691000D01*
X59875000Y51825000D02*
X61200000Y51825000D01*
X61200000Y51825000D02*
X64150000Y48875000D01*
X64150000Y27775000D02*
X65375000Y26550000D01*
X64150000Y27775000D02*
X64150000Y41756400D01*
X64078150Y41828250D02*
X64150000Y41756400D01*
X64078150Y41828250D02*
X64078150Y42221750D01*
X64078150Y42221750D02*
X64150000Y42293600D01*
X64150000Y42293600D02*
X64150000Y48875000D01*
X65375000Y21572920D02*
X65375000Y26550000D01*
X64775000Y20975000D02*
X65094670Y21294670D01*
X65094670Y21294670D02*
X65096750Y21294670D01*
X65096750Y21294670D02*
X65375000Y21572920D01*
X59275000Y52425000D02*
X59275000Y57034600D01*
X58550000Y50600000D02*
X63325000Y45825000D01*
X58550000Y50600000D02*
X58550000Y56925000D01*
X57978420Y57496580D02*
X58550000Y56925000D01*
X58306670Y60409780D02*
X62650170Y60409780D01*
X57978420Y60081530D02*
X58306670Y60409780D01*
X90048600Y59826400D02*
X92100400Y59826400D01*
X89025000Y60850000D02*
X90048600Y59826400D01*
X87075000Y60850000D02*
X89025000Y60850000D01*
X86702950Y60477950D02*
X87075000Y60850000D01*
X84879140Y60477950D02*
X86702950Y60477950D01*
X64453420Y61834780D02*
X64453420Y61884780D01*
X63978420Y61359780D02*
X64453420Y61834780D01*
X63978420Y60738020D02*
X63978420Y61359780D01*
X63650170Y60409780D02*
X63978420Y60738020D01*
X63256670Y60409780D02*
X63650170Y60409780D01*
X63241450Y60425000D02*
X63256670Y60409780D01*
X62665400Y60425000D02*
X63241450Y60425000D01*
X62650170Y60409780D02*
X62665400Y60425000D01*
X57978420Y57496580D02*
X57978420Y60081530D01*
X63325000Y23600000D02*
X63325000Y45825000D01*
X62003030Y22278030D02*
X63325000Y23600000D01*
X62003030Y21576050D02*
X62003030Y22278030D01*
X75350000Y61525000D02*
X77048600Y59826400D01*
X74400000Y61525000D02*
X75350000Y61525000D01*
X74300000Y61425000D02*
X74400000Y61525000D01*
X82301400Y59826400D02*
X82375000Y59900000D01*
X80226800Y59826400D02*
X82301400Y59826400D01*
X57175000Y50978250D02*
X57175000Y52175000D01*
X77048600Y59826400D02*
X80226800Y59826400D01*
X57882410Y60409780D02*
X58357410Y60884780D01*
X58357410Y60884780D02*
X58453420Y60884780D01*
X57084770Y60409780D02*
X57882410Y60409780D01*
X56750000Y60075000D02*
X57084770Y60409780D01*
X56750000Y52600000D02*
X56750000Y60075000D01*
X56750000Y52600000D02*
X57175000Y52175000D01*
X57175000Y50978250D02*
X62875000Y45278250D01*
X61925000Y30100000D02*
X62875000Y31050000D01*
X62875000Y31050000D02*
X62875000Y45278250D01*
X61925000Y23600000D02*
X61925000Y30100000D01*
X56834780Y61359780D02*
X62834780Y61359780D01*
X62834780Y61359780D02*
X62978420Y61503420D01*
X56300000Y60825000D02*
X56834780Y61359780D01*
X54700000Y51150000D02*
X54700000Y56800000D01*
X64453420Y64871570D02*
X64453420Y64884770D01*
X63928420Y64346570D02*
X64453420Y64871570D01*
X63928420Y62688030D02*
X63928420Y64346570D01*
X63650170Y62409780D02*
X63928420Y62688030D01*
X63306670Y62409780D02*
X63650170Y62409780D01*
X62978420Y62081530D02*
X63306670Y62409780D01*
X62978420Y61503420D02*
X62978420Y62081530D01*
X56300000Y57625000D02*
X56300000Y60825000D01*
X55825000Y57150000D02*
X56300000Y57625000D01*
X55050000Y57150000D02*
X55825000Y57150000D01*
X54700000Y56800000D02*
X55050000Y57150000D01*
X60825000Y21075000D02*
X60825000Y21775000D01*
X60825000Y21775000D02*
X61075000Y22025000D01*
X83525000Y59175000D02*
X83525000Y62675000D01*
X83225000Y58875000D02*
X83525000Y59175000D01*
X80251800Y58851400D02*
X83225000Y58851400D01*
X54700000Y51150000D02*
X61375000Y44475000D01*
X61375000Y40196750D02*
X61375000Y44475000D01*
X61350000Y40171750D02*
X61375000Y40196750D01*
X61400000Y30550000D02*
X61400000Y32400000D01*
X61075000Y30225000D02*
X61400000Y30550000D01*
X61350000Y35350000D02*
X61350000Y40171750D01*
X61925000Y32925000D02*
X61925000Y34775000D01*
X61400000Y32400000D02*
X61925000Y32925000D01*
X61350000Y35350000D02*
X61925000Y34775000D01*
X61075000Y22025000D02*
X61075000Y24303250D01*
X61075000Y24896750D02*
X61075000Y30225000D01*
X60975000Y24796750D02*
X61075000Y24896750D01*
X60975000Y24403250D02*
X61075000Y24303250D01*
X60975000Y24403250D02*
X60975000Y24796750D01*
X60700000Y26875000D02*
X60700000Y31925000D01*
X60600000Y22400000D02*
X60600000Y26775000D01*
X60600000Y26775000D02*
X60700000Y26875000D01*
X60500000Y22300000D02*
X60600000Y22400000D01*
X83973600Y58326400D02*
X84100000Y58200000D01*
X80226800Y58326400D02*
X83973600Y58326400D01*
X76575000Y59400000D02*
X76596750Y59400000D01*
X76596750Y59400000D02*
X76875000Y59121750D01*
X76875000Y58675000D02*
X76875000Y59121750D01*
X76875000Y58675000D02*
X77180400Y58369600D01*
X77180400Y58369600D02*
X77620350Y58369600D01*
X77620350Y58369600D02*
X77645350Y58344600D01*
X80226800Y58326400D02*
X80226800Y58344600D01*
X54909100Y60348500D02*
X55445380Y60884780D01*
X54909100Y57692750D02*
X54909100Y60348500D01*
X54300000Y57083650D02*
X54909100Y57692750D01*
X54300000Y50750000D02*
X54300000Y57083650D01*
X77645350Y58344600D02*
X80226800Y58344600D01*
X74850000Y61125000D02*
X76575000Y59400000D01*
X60875000Y33875000D02*
X60875000Y44175000D01*
X54300000Y50750000D02*
X60875000Y44175000D01*
X60875000Y33875000D02*
X61000000Y33750000D01*
X61000000Y32225000D02*
X61000000Y33750000D01*
X60700000Y31925000D02*
X61000000Y32225000D01*
X60125000Y27721750D02*
X60125000Y31475000D01*
X60125000Y27721750D02*
X60300000Y27546750D01*
X60300000Y27153250D02*
X60300000Y27546750D01*
X60125000Y26978250D02*
X60300000Y27153250D01*
X60125000Y23425000D02*
X60125000Y26978250D01*
X59950000Y31650000D02*
X60125000Y31475000D01*
X90000000Y57750000D02*
X90000000Y57807000D01*
X89941000Y57691000D02*
X90000000Y57750000D01*
X89219250Y57691000D02*
X89941000Y57691000D01*
X80226800Y57326400D02*
X84201400Y57326400D01*
X52164500Y60414500D02*
X52968500Y60414500D01*
X52968500Y60414500D02*
X53443500Y60889500D01*
X52300000Y52025000D02*
X52300000Y55800000D01*
X51911900Y60161900D02*
X52164500Y60414500D01*
X51911900Y56188100D02*
X51911900Y60161900D01*
X51911900Y56188100D02*
X52300000Y55800000D01*
X89185250Y57725000D02*
X89219250Y57691000D01*
X84201400Y57326400D02*
X84600000Y57725000D01*
X84600000Y57725000D02*
X84600010Y57725010D01*
X84600010Y57725010D02*
X84750000Y57725010D01*
X84600000Y57725000D02*
X89185250Y57725000D01*
X84600000Y57725000D02*
X84750000Y57875000D01*
X84750000Y57875000D02*
X84750000Y58550000D01*
X84100000Y59200000D02*
X84750000Y58550000D01*
X84100000Y59200000D02*
X84100000Y62175000D01*
X52300000Y52025000D02*
X60425000Y43900000D01*
X60425000Y33875000D02*
X60425000Y43900000D01*
X59950000Y31650000D02*
X59950000Y33400000D01*
X59950000Y33400000D02*
X60425000Y33875000D01*
X84100000Y62175000D02*
X86250000Y64325000D01*
X86250000Y64325000D02*
X86400000Y64325000D01*
X80226800Y56826400D02*
X81473600Y56826400D01*
X81473600Y56826400D02*
X82225000Y56075000D01*
X78900000Y55800000D02*
X78926400Y55826400D01*
X78926400Y55826400D02*
X80226800Y55826400D01*
X80226800Y55325000D02*
X80226800Y55326400D01*
X78478850Y55549400D02*
X78703250Y55325000D01*
X77227650Y55549400D02*
X78478850Y55549400D01*
X77227050Y55550000D02*
X77227650Y55549400D01*
X78703250Y55325000D02*
X80226800Y55325000D01*
X76825000Y55550000D02*
X77227050Y55550000D01*
X84999340Y54326400D02*
X85200740Y54125000D01*
X78526800Y54326400D02*
X84999340Y54326400D01*
X76302740Y56027730D02*
X76428730Y56027730D01*
X76302740Y55197270D02*
X77122370Y54377630D01*
X77122370Y54377630D02*
X77732050Y54377630D01*
X77732050Y54377630D02*
X77907060Y54552640D01*
X77907060Y54552640D02*
X78300560Y54552640D01*
X78300560Y54552640D02*
X78526800Y54326400D01*
X85200740Y54125000D02*
X89475000Y54125000D01*
X89475000Y54125000D02*
X90100000Y53500000D01*
X90100000Y53450000D02*
X90100000Y53500000D01*
X76302740Y55197270D02*
X76302740Y56027730D01*
X93178800Y46803800D02*
X93675000Y47300000D01*
X92100400Y46803800D02*
X93178800Y46803800D01*
X90137400Y45987410D02*
X90137400Y46009160D01*
X89396550Y46750000D02*
X90137400Y46009160D01*
X80226800Y46750000D02*
X80226800Y46803800D01*
X78450000Y47802880D02*
X78450000Y47850000D01*
X78450000Y47802880D02*
X79449080Y46803800D01*
X79449080Y46803800D02*
X80226800Y46803800D01*
X80226800Y46750000D02*
X89396550Y46750000D01*
X92099000Y52825000D02*
X92100400Y52826400D01*
X89946750Y52825000D02*
X92099000Y52825000D01*
X89896750Y52875000D02*
X89946750Y52825000D01*
X89503250Y52875000D02*
X89896750Y52875000D01*
X89453250Y52825000D02*
X89503250Y52875000D01*
X85756760Y52825000D02*
X89453250Y52825000D01*
X85279160Y53302600D02*
X85756760Y52825000D01*
X78875000Y53350000D02*
X78875000Y53650000D01*
X78875000Y53350000D02*
X79398600Y52826400D01*
X79398600Y52826400D02*
X80226800Y52826400D01*
X58700000Y41800000D02*
X58700000Y41823870D01*
X58650000Y41850000D02*
X58775000Y41725000D01*
X50127450Y60889500D02*
X50446300Y60889500D01*
X49652450Y60414500D02*
X50127450Y60889500D01*
X49139500Y60414500D02*
X49652450Y60414500D01*
X48950000Y60225000D02*
X49139500Y60414500D01*
X48950000Y57225000D02*
X48950000Y60225000D01*
X48950000Y57225000D02*
X49450000Y56725000D01*
X49450000Y52875000D02*
X49450000Y56725000D01*
X58650000Y41850000D02*
X59100000Y42300000D01*
X59100000Y42300000D02*
X59100000Y43225000D01*
X49450000Y52875000D02*
X59100000Y43225000D01*
X59373380Y41150000D02*
X59546750Y41150000D01*
X58827870Y40604490D02*
X59373380Y41150000D01*
X58827870Y40551980D02*
X58827870Y40604490D01*
X49971300Y53128700D02*
X59975000Y43125000D01*
X49971300Y53128700D02*
X49971300Y60121300D01*
X49971300Y60121300D02*
X50214500Y60364500D01*
X50214500Y60364500D02*
X50911900Y60364500D01*
X50911900Y60364500D02*
X51436900Y60889500D01*
X59546750Y41150000D02*
X59975000Y41578250D01*
X59975000Y41578250D02*
X59975000Y43125000D01*
X61650410Y52799590D02*
X61650410Y53250000D01*
X64550000Y33546750D02*
X65675000Y32421750D01*
X65725000Y40550000D02*
X65725000Y48725000D01*
X64550000Y39375000D02*
X65725000Y40550000D01*
X64550000Y33546750D02*
X64550000Y39375000D01*
X61650410Y52799590D02*
X65725000Y48725000D01*
X65675000Y22175000D02*
X66350000Y21500000D01*
X65675000Y22175000D02*
X65675000Y32421750D01*
X64950000Y20225000D02*
X65625000Y20225000D01*
X65625000Y20225000D02*
X66350000Y20950000D01*
X66350000Y20950000D02*
X66350000Y21500000D01*
X80226800Y48810400D02*
X80226800Y48875000D01*
X72950000Y47350000D02*
X74475000Y48875000D01*
X74475000Y48875000D02*
X80226800Y48875000D01*
X80167290Y48242900D02*
X80226800Y48302400D01*
X88034450Y48197200D02*
X88054300Y48177350D01*
X77750000Y47925000D02*
X78150000Y48325000D01*
X79667900Y48325000D02*
X79750000Y48242900D01*
X78150000Y48325000D02*
X79667900Y48325000D01*
X79750000Y48242900D02*
X80167290Y48242900D01*
X80226800Y48302400D02*
X81444800Y48302400D01*
X81444800Y48302400D02*
X81550000Y48197200D01*
X81550000Y48197200D02*
X88034450Y48197200D01*
X76675000Y47950000D02*
X76900000Y47950000D01*
X76650000Y47925000D02*
X77750000Y47925000D01*
X82825000Y47700000D02*
X89128250Y47700000D01*
X89128250Y47700000D02*
X89603250Y48175000D01*
X89603250Y48175000D02*
X89996750Y48175000D01*
X89996750Y48175000D02*
X90321750Y47850000D01*
X90321750Y47850000D02*
X92070200Y47850000D01*
X92070200Y47850000D02*
X92100400Y47819800D01*
X92100400Y48810400D02*
X93885400Y48810400D01*
X93885400Y48810400D02*
X93925000Y48850000D01*
X90575000Y48525000D02*
X90650000Y48525000D01*
X90650000Y48525000D02*
X90872600Y48302400D01*
X90872600Y48302400D02*
X92100400Y48302400D01*
X92088600Y47300000D02*
X92100400Y47311800D01*
X90775000Y46775000D02*
X90775000Y46925000D01*
X90775000Y46925000D02*
X91150000Y47300000D01*
X91150000Y47300000D02*
X92088600Y47300000D01*
X48439700Y63889500D02*
X48439700Y64035300D01*
X48100000Y64375000D02*
X48439700Y64035300D01*
X46100000Y64375000D02*
X48100000Y64375000D01*
X45925000Y64200000D02*
X46100000Y64375000D01*
X45925000Y63525000D02*
X45925000Y64200000D01*
X45764500Y63364500D02*
X45925000Y63525000D01*
X43717750Y63364500D02*
X45764500Y63364500D01*
X43378250Y63025000D02*
X43717750Y63364500D01*
X37675000Y63025000D02*
X43378250Y63025000D01*
X37650000Y63050000D02*
X37675000Y63025000D01*
X33257600Y44067400D02*
X34326800Y44067400D01*
X33100000Y44225000D02*
X33257600Y44067400D01*
X35075000Y54100000D02*
X35075000Y61475000D01*
X35075000Y61475000D02*
X36650000Y63050000D01*
X33600000Y50403250D02*
X34450000Y49553250D01*
X33100000Y44225000D02*
X33100000Y45675000D01*
X33100000Y45675000D02*
X34450000Y47025000D01*
X34450000Y47025000D02*
X34450000Y49553250D01*
X33600000Y50403250D02*
X33600000Y52625000D01*
X33600000Y52625000D02*
X35075000Y54100000D01*
X37650000Y64560670D02*
X37650000Y64725000D01*
X37650000Y64725000D02*
X38500000Y65575000D01*
X38500000Y65575000D02*
X39300000Y65575000D01*
X39300000Y65575000D02*
X39985500Y64889500D01*
X39985500Y64889500D02*
X45442500Y64889500D01*
X36650000Y64560670D02*
X37150000Y64060670D01*
X37150000Y62575000D02*
X37150000Y64060670D01*
X35425000Y60850000D02*
X37150000Y62575000D01*
X42725000Y35175000D02*
X44382800Y35175000D01*
X44382800Y35175000D02*
X44385200Y35177400D01*
X41275000Y36625000D02*
X42725000Y35175000D01*
X35425000Y57749590D02*
X35425000Y60850000D01*
X35425000Y57749590D02*
X41275000Y51899590D01*
X41275000Y36625000D02*
X41275000Y51899590D01*
X44828000Y65275000D02*
X45442500Y65889500D01*
X40250000Y65275000D02*
X44828000Y65275000D01*
X39525000Y66000000D02*
X40250000Y65275000D01*
X37650000Y66000000D02*
X39525000Y66000000D01*
X34326800Y38987400D02*
X37362400Y38987400D01*
X32725000Y43700000D02*
X33000000Y43425000D01*
X34575000Y63375000D02*
X35675000Y64475000D01*
X35675000Y64475000D02*
X35700300Y64475000D01*
X35700300Y64475000D02*
X36650000Y65424690D01*
X36650000Y65424690D02*
X36650000Y66000000D01*
X33175000Y52675000D02*
X34575000Y54075000D01*
X34575000Y54075000D02*
X34575000Y63375000D01*
X33175000Y50375000D02*
X33175000Y52675000D01*
X33175000Y50375000D02*
X33925000Y49625000D01*
X32725000Y43700000D02*
X32725000Y45925000D01*
X32725000Y45925000D02*
X33925000Y47125000D01*
X33925000Y47125000D02*
X33925000Y49625000D01*
X37362400Y38987400D02*
X38750000Y40375000D01*
X36125000Y43425000D02*
X36172860Y43377140D01*
X36172860Y43377140D02*
X38247860Y43377140D01*
X38247860Y43377140D02*
X38750000Y42875000D01*
X33000000Y43425000D02*
X36125000Y43425000D01*
X38750000Y40375000D02*
X38750000Y42875000D01*
X37775000Y68875000D02*
X37775000Y69025000D01*
X54419520Y68875000D02*
X55441360Y69896840D01*
X37775000Y68875000D02*
X54419520Y68875000D01*
X32850000Y41800000D02*
X33122600Y41527400D01*
X33122600Y41527400D02*
X34326800Y41527400D01*
X32325000Y43475000D02*
X32325000Y47450000D01*
X32325000Y43475000D02*
X32850000Y42950000D01*
X32850000Y41800000D02*
X32850000Y42950000D01*
X32325000Y47450000D02*
X32951590Y48076590D01*
X32325000Y49875000D02*
X32325000Y52825000D01*
X32325000Y49875000D02*
X32951590Y49248410D01*
X32951590Y48076590D02*
X32951590Y49248410D01*
X34075000Y69025000D02*
X36775000Y69025000D01*
X32375000Y67325000D02*
X34075000Y69025000D01*
X32375000Y64200000D02*
X32375000Y67325000D01*
X32375000Y64200000D02*
X33425000Y63150000D01*
X33425000Y55900000D02*
X33425000Y63150000D01*
X32125000Y53025000D02*
X32325000Y52825000D01*
X32125000Y53025000D02*
X32125000Y54600000D01*
X32125000Y54600000D02*
X33425000Y55900000D01*
D49*
X84500000Y-6500000D02*
X84500000Y-5300000D01*
X78275000Y925000D02*
X84500000Y-5300000D01*
X78275000Y925000D02*
X78275000Y4000000D01*
X72725000Y-16500000D02*
X73025000Y-16800000D01*
X73025000Y-16800000D02*
X74000000Y-16800000D01*
D50*
X55917100Y72369700D02*
X57448700Y73901300D01*
X55100700Y72369700D02*
X55917100Y72369700D01*
X54948600Y72217600D02*
X55100700Y72369700D01*
X54948600Y71737450D02*
X54948600Y72217600D01*
X54626150Y71415000D02*
X54948600Y71737450D01*
X39910000Y71415000D02*
X54626150Y71415000D01*
X39750000Y71575000D02*
X39910000Y71415000D01*
X33775000Y69450000D02*
X36100000Y69450000D01*
X24075000Y45800300D02*
X24499690Y46225000D01*
X24075000Y44850000D02*
X24075000Y45800300D01*
X24075000Y44850000D02*
X25325000Y43600000D01*
X25325000Y42050000D02*
X25325000Y43600000D01*
X23250000Y39975000D02*
X25325000Y42050000D01*
X23250000Y27800000D02*
X23250000Y39975000D01*
X36100000Y69450000D02*
X36325000Y69675000D01*
X36325000Y69675000D02*
X37850000Y69675000D01*
X37850000Y69675000D02*
X39750000Y71575000D01*
X24499690Y46225000D02*
X25650000Y46225000D01*
X25650000Y46225000D02*
X27415200Y47990200D01*
X22200000Y26750000D02*
X23250000Y27800000D01*
X22100000Y26750000D02*
X22200000Y26750000D01*
X78275000Y3925000D02*
X78275000Y4000000D01*
X29225000Y63450000D02*
X29225000Y64900000D01*
X29225000Y64900000D02*
X33775000Y69450000D01*
X27415200Y47990200D02*
X27415200Y53340200D01*
X27415200Y53340200D02*
X27825000Y53750000D01*
X27825000Y53750000D02*
X30550000Y53750000D01*
X30550000Y53750000D02*
X32125000Y55325000D01*
X32125000Y55325000D02*
X32125000Y60550000D01*
X29225000Y63450000D02*
X32125000Y60550000D01*
X37621750Y71575000D02*
X38750000Y71575000D01*
X35879750Y69833000D02*
X37621750Y71575000D01*
X33533000Y69833000D02*
X35879750Y69833000D01*
X26225000Y49275000D02*
X26825000Y48675000D01*
X26825000Y48675000D02*
X26900000Y48675000D01*
X45775000Y34500000D02*
X46425000Y33850000D01*
X39400000Y45425000D02*
X40900000Y43925000D01*
X40900000Y36200000D02*
X40900000Y43925000D01*
X40900000Y36200000D02*
X42600000Y34500000D01*
X42600000Y34500000D02*
X45775000Y34500000D01*
X46425000Y23250000D02*
X46425000Y33850000D01*
X46425000Y23250000D02*
X48775000Y20900000D01*
X48775000Y20900000D02*
X50250000Y20900000D01*
X26225000Y49275000D02*
X26225000Y53350000D01*
X28775000Y63175000D02*
X28775000Y65075000D01*
X28775000Y65075000D02*
X33533000Y69833000D01*
X26225000Y53350000D02*
X27100000Y54225000D01*
X27100000Y54225000D02*
X30375000Y54225000D01*
X30375000Y54225000D02*
X31650000Y55500000D01*
X31650000Y55500000D02*
X31650000Y60300000D01*
X28775000Y63175000D02*
X31650000Y60300000D01*
X70450000Y99125000D02*
X70825000Y99500000D01*
X70825000Y99500000D02*
X71250000Y99500000D01*
X65453430Y62884780D02*
X65928430Y63359780D01*
X65928430Y63359780D02*
X69109780Y63359780D01*
X69109780Y63359780D02*
X69225000Y63475000D01*
X46525000Y38793200D02*
X46525000Y51250310D01*
X46125000Y38393200D02*
X46525000Y38793200D01*
X49952460Y30272540D02*
X50800000Y29425000D01*
X49952460Y30272540D02*
X49952460Y31648290D01*
X50025000Y31720820D02*
X50025000Y32900000D01*
X49952460Y31648290D02*
X50025000Y31720820D01*
X48803250Y33450000D02*
X49475000Y33450000D01*
X47449100Y58561250D02*
X47449100Y58889500D01*
X46974100Y58086250D02*
X47449100Y58561250D01*
X46974100Y57414500D02*
X46974100Y58086250D01*
X46125000Y37850000D02*
X46350000Y37625000D01*
X46350000Y37625000D02*
X47275000Y37625000D01*
X47275000Y37625000D02*
X47575000Y37325000D01*
X46125000Y37850000D02*
X46125000Y38393200D01*
X50800000Y27825000D02*
X50800000Y29425000D01*
X50800000Y27825000D02*
X51725000Y26900000D01*
X51725000Y23103250D02*
X51725000Y26900000D01*
X51725000Y23103250D02*
X51975000Y22853250D01*
X51975000Y20750000D02*
X51975000Y22853250D01*
X49475000Y33450000D02*
X50025000Y32900000D01*
X47575000Y34678250D02*
X47575000Y37325000D01*
X47575000Y34678250D02*
X48803250Y33450000D01*
X46525000Y51250310D02*
X47455200Y52180510D01*
X47455200Y52180510D02*
X47455200Y56933400D01*
X46974100Y57414500D02*
X47455200Y56933400D01*
X73150000Y68825000D02*
X73150000Y68850300D01*
X73150000Y68850300D02*
X74924700Y70625000D01*
X72375000Y68050000D02*
X73150000Y68825000D01*
X71853250Y68050000D02*
X72375000Y68050000D01*
X71409770Y67606520D02*
X71853250Y68050000D01*
X71409770Y66809780D02*
X71409770Y67606520D01*
X74924700Y70625000D02*
X81207400Y70625000D01*
X81207400Y70625000D02*
X83709000Y73126600D01*
D49*
X84709000Y71729600D02*
X84709000Y73126600D01*
X84709000Y73126600D02*
X88130200Y73126600D01*
X88130200Y73126600D02*
X88206400Y73050400D01*
X90406400Y72100400D02*
X92403000Y72100400D01*
X92403000Y72100400D02*
X92413200Y72110600D01*
D50*
X88175000Y66575000D02*
X90406400Y68806400D01*
X90406400Y68806400D02*
X90406400Y72100400D01*
X94810200Y63347600D02*
X94814800Y63352200D01*
X94814800Y63352200D02*
X95952200Y63352200D01*
X92839330Y64560670D02*
X93597130Y64560670D01*
X91775000Y65625000D02*
X92839330Y64560670D01*
X82925000Y65625000D02*
X91775000Y65625000D01*
X93597130Y64560670D02*
X94810200Y63347600D01*
X71775000Y65350000D02*
X82650000Y65350000D01*
X82650000Y65350000D02*
X82925000Y65625000D01*
X95400000Y69675000D02*
X95400000Y72400000D01*
X94835600Y69110600D02*
X95400000Y69675000D01*
X94835600Y68402200D02*
X94835600Y69110600D01*
X94835600Y68402200D02*
X94836000Y68401800D01*
X94836000Y68401800D02*
X96152200Y68401800D01*
X83925000Y74850000D02*
X92950000Y74850000D01*
X92950000Y74850000D02*
X95400000Y72400000D01*
X68475000Y68975000D02*
X68917250Y68975000D01*
X68917250Y68975000D02*
X69478250Y68414000D01*
X69478250Y68414000D02*
X72164000Y68414000D01*
X72164000Y68414000D02*
X75050000Y71300000D01*
X75050000Y71300000D02*
X80375000Y71300000D01*
X80375000Y71300000D02*
X83925000Y74850000D01*
X89625000Y67000000D02*
X95950000Y67000000D01*
X88650000Y66025000D02*
X89625000Y67000000D01*
X72000000Y67525000D02*
X72050000Y67575000D01*
X72000000Y66250000D02*
X72000000Y67525000D01*
X72000000Y66250000D02*
X72525000Y65725000D01*
X72525000Y65725000D02*
X82175000Y65725000D01*
X82175000Y65725000D02*
X82475000Y66025000D01*
X82475000Y66025000D02*
X88650000Y66025000D01*
X96024400Y65862200D02*
X96052200Y65834400D01*
X94810200Y65862200D02*
X96024400Y65862200D01*
X56540220Y62884780D02*
X57453420Y62884780D01*
X56060500Y63364500D02*
X56540220Y62884780D01*
X45739500Y61364500D02*
X45958100Y61583100D01*
X45958100Y61583100D02*
X45958100Y62086250D01*
X45958100Y62086250D02*
X46286350Y62414500D01*
X46286350Y62414500D02*
X46629850Y62414500D01*
X46629850Y62414500D02*
X46974100Y62758750D01*
X46974100Y62758750D02*
X46974100Y63086250D01*
X46974100Y63086250D02*
X47252350Y63364500D01*
X47252350Y63364500D02*
X56060500Y63364500D01*
X43407600Y60407600D02*
X44364500Y61364500D01*
X44364500Y61364500D02*
X45739500Y61364500D01*
X37591000Y60407600D02*
X43407600Y60407600D01*
X58125170Y62884780D02*
X58453420Y62884780D01*
X57650170Y62409780D02*
X58125170Y62884780D01*
X52301420Y62409780D02*
X57650170Y62409780D01*
X51911900Y62020250D02*
X52301420Y62409780D01*
X51911900Y61516100D02*
X51911900Y62020250D01*
X51770600Y61374800D02*
X51911900Y61516100D01*
X50134200Y61374800D02*
X51770600Y61374800D01*
X49971300Y61537700D02*
X50134200Y61374800D01*
X49971300Y61537700D02*
X49971300Y62045650D01*
X49652450Y62364500D02*
X49971300Y62045650D01*
X47252350Y62364500D02*
X49652450Y62364500D01*
X46908100Y62020250D02*
X47252350Y62364500D01*
X46908100Y60692750D02*
X46908100Y62020250D01*
X46629850Y60414500D02*
X46908100Y60692750D01*
X45295750Y60414500D02*
X46629850Y60414500D01*
X44967500Y60086250D02*
X45295750Y60414500D01*
X44967500Y60017500D02*
X44967500Y60086250D01*
X44675000Y59725000D02*
X44967500Y60017500D01*
X39475000Y59725000D02*
X44675000Y59725000D01*
X38925700Y59175700D02*
X39475000Y59725000D01*
X37591000Y59175700D02*
X38925700Y59175700D01*
X37625000Y67875000D02*
X37787500Y67712500D01*
X37900000Y67475000D02*
X38825000Y67475000D01*
X37725000Y67650000D02*
X37900000Y67475000D01*
X44927200Y67200000D02*
X45130400Y67403200D01*
X39100000Y67200000D02*
X44927200Y67200000D01*
X55101130Y66884780D02*
X55445380Y66884780D01*
X54630850Y66414500D02*
X55101130Y66884780D01*
X47252350Y66414500D02*
X54630850Y66414500D01*
X46908100Y66758750D02*
X47252350Y66414500D01*
X46908100Y66758750D02*
X46908100Y67261900D01*
X46766800Y67403200D02*
X46908100Y67261900D01*
X45130400Y67403200D02*
X46766800Y67403200D01*
X38825000Y67475000D02*
X39100000Y67200000D01*
X35700000Y67650000D02*
X36725000Y67650000D01*
X35700000Y67125000D02*
X35700000Y67650000D01*
X34900000Y66325000D02*
X35700000Y67125000D01*
X33475000Y66325000D02*
X34900000Y66325000D01*
X32925000Y65775000D02*
X33475000Y66325000D01*
X33200000Y53275000D02*
X33200310Y53275000D01*
X32700000Y52775000D02*
X33200000Y53275000D01*
X32700000Y50125000D02*
X32700000Y52775000D01*
X32700000Y50125000D02*
X33400000Y49425000D01*
X32900000Y47275000D02*
X33400000Y47775000D01*
X33400000Y47775000D02*
X33400000Y49425000D01*
X33200310Y53275000D02*
X34100000Y54174690D01*
X32925000Y64550000D02*
X32925000Y65775000D01*
X32925000Y64550000D02*
X34100000Y63375000D01*
X34100000Y54174690D02*
X34100000Y63375000D01*
D51*
X42463400Y27188200D02*
X43663200Y27188200D01*
X43663200Y27188200D02*
X44250000Y27775000D01*
X44250000Y27775000D02*
X44250000Y29075000D01*
X43850000Y29475000D02*
X44250000Y29075000D01*
X43025000Y29475000D02*
X43850000Y29475000D01*
X34326800Y35177400D02*
X37322600Y35177400D01*
X42922400Y42797400D02*
X44385200Y42797400D01*
X42025000Y41900000D02*
X42922400Y42797400D01*
X37322600Y35177400D02*
X38275000Y34225000D01*
X38275000Y34225000D02*
X43025000Y29475000D01*
X42463400Y25918200D02*
X43193200Y25918200D01*
X43193200Y25918200D02*
X44700000Y27425000D01*
X44700000Y27425000D02*
X44700000Y29500000D01*
X43650000Y30550000D02*
X44700000Y29500000D01*
D50*
X42727400Y41527400D02*
X44385200Y41527400D01*
X41850000Y40650000D02*
X42727400Y41527400D01*
D51*
X34326800Y36447400D02*
X36902600Y36447400D01*
X36902600Y36447400D02*
X38600000Y34750000D01*
X38600000Y34600000D02*
X38600000Y34750000D01*
X38600000Y34600000D02*
X39275000Y33925000D01*
X39275000Y33925000D02*
X42650000Y30550000D01*
X42650000Y30550000D02*
X43650000Y30550000D01*
D50*
X43232600Y37717400D02*
X44385200Y37717400D01*
X42850000Y38100000D02*
X43232600Y37717400D01*
X42850000Y38100000D02*
X42850000Y38800000D01*
X42500000Y39150000D02*
X42850000Y38800000D01*
D51*
X34326800Y40257400D02*
X35842600Y40257400D01*
X35842600Y40257400D02*
X36000000Y40100000D01*
D50*
X44385200Y37717400D02*
X45257600Y37717400D01*
X45257600Y37717400D02*
X45800000Y37175000D01*
X45800000Y35675000D02*
X45800000Y37175000D01*
X46762500Y23837500D02*
X46762500Y34712500D01*
X46762500Y23837500D02*
X47221800Y23378200D01*
X47221800Y23378200D02*
X48610200Y23378200D01*
X45800000Y35675000D02*
X46762500Y34712500D01*
D51*
X48593000Y28532000D02*
X48593000Y31768000D01*
X48593000Y31768000D02*
X49475000Y32650000D01*
X34326800Y37717400D02*
X37442400Y37717400D01*
X37442400Y37717400D02*
X39200000Y39475000D01*
X39200000Y39475000D02*
X39525000Y39475000D01*
X42575000Y40175000D02*
X42657400Y40257400D01*
X42657400Y40257400D02*
X44385200Y40257400D01*
X48610200Y24648200D02*
X50223200Y24648200D01*
X50223200Y24648200D02*
X50775000Y25200000D01*
X49550000Y28075000D02*
X50775000Y26850000D01*
X50775000Y25200000D02*
X50775000Y26850000D01*
X48593000Y28532000D02*
X49050000Y28075000D01*
X49050000Y28075000D02*
X49550000Y28075000D01*
D50*
X35151800Y24648200D02*
X42463400Y24648200D01*
X33225000Y26575000D02*
X35151800Y24648200D01*
X26525000Y26575000D02*
X33225000Y26575000D01*
X26475000Y26525000D02*
X26525000Y26575000D01*
X13000000Y24700000D02*
X14745000Y24700000D01*
X14745000Y24700000D02*
X16980000Y26935000D01*
D53*
X44000000Y72678800D02*
X44000000Y73725000D01*
X51100000Y83056600D02*
X51100000Y84125000D01*
X47929800Y83056600D02*
X51100000Y83056600D01*
X51100000Y85725000D02*
X51100000Y86825000D01*
X57769000Y55102690D02*
X57769000Y56225000D01*
X41400000Y70025000D02*
X41400000Y70678800D01*
X41400000Y70025000D02*
X41825000Y69600000D01*
X40350000Y68100000D02*
X41427400Y68100000D01*
X42850000Y68100000D02*
X43916600Y68100000D01*
X42075600Y57509690D02*
X42075600Y58934690D01*
X43600000Y57675000D02*
X43600000Y58924980D01*
X43600000Y57675000D02*
X44675000Y56600000D01*
X57750000Y52750000D02*
X57750000Y53797200D01*
X60121800Y56125000D02*
X61225000Y56125000D01*
X75250000Y67125000D02*
X75250000Y68550000D01*
X73875000Y67125000D02*
X73875000Y68550000D01*
X74850000Y67375000D02*
X76275000Y67375000D01*
X69425000Y67675000D02*
X70485000Y67675000D01*
X77900000Y68825000D02*
X79325000Y68825000D01*
X78900000Y66600000D02*
X78900000Y68025000D01*
X80500000Y66575000D02*
X80500000Y68000000D01*
X80350000Y68475000D02*
X80350000Y69900000D01*
X69265800Y69975000D02*
X70375000Y69975000D01*
X60900000Y81559400D02*
X60900000Y82650000D01*
X58302400Y81450000D02*
X59300000Y81450000D01*
X58302400Y84025000D02*
X59275000Y84025000D01*
X57475000Y91400000D02*
X57475000Y92825000D01*
X58800000Y91400000D02*
X58800000Y92825000D01*
X58400000Y91775000D02*
X59825000Y91775000D01*
X58425000Y90200000D02*
X59850000Y90200000D01*
X57425000Y89175000D02*
X57425000Y90600000D01*
X58850000Y89150000D02*
X58850000Y90575000D01*
X73825000Y66950000D02*
X74175000Y67300000D01*
X72725000Y66950000D02*
X73825000Y66950000D01*
X71678800Y70025000D02*
X71732220Y70078420D01*
X71732220Y70078420D02*
X72753550Y70078420D01*
D50*
X15068600Y13903200D02*
X15068600Y14881400D01*
X15050000Y14900000D02*
X15068600Y14881400D01*
X36825000Y41400000D02*
X38050000Y41400000D01*
X36300000Y40875000D02*
X36825000Y41400000D01*
X24575000Y38700000D02*
X25700000Y39825000D01*
X25700000Y39825000D02*
X31275000Y39825000D01*
X31275000Y39825000D02*
X32325000Y40875000D01*
X32325000Y40875000D02*
X36300000Y40875000D01*
X14568600Y17018600D02*
X15275000Y17725000D01*
X14568600Y13903200D02*
X14568600Y17018600D01*
X25812500Y45437500D02*
X27350000Y46975000D01*
X15275000Y17725000D02*
X15825000Y17725000D01*
X15825000Y17725000D02*
X17650000Y19550000D01*
X17650000Y19550000D02*
X17650000Y21200000D01*
X23800000Y27350000D02*
X23800000Y39762500D01*
X23800000Y39762500D02*
X25812500Y41775000D01*
X17650000Y21200000D02*
X23800000Y27350000D01*
X25812500Y41775000D02*
X25812500Y45437500D01*
X27350000Y46975000D02*
X30499190Y46975000D01*
X30499190Y46975000D02*
X32476580Y48952390D01*
X85400000Y19775000D02*
X88575400Y16599600D01*
X88575400Y16599600D02*
X90652600Y16599600D01*
X86225000Y20075000D02*
X89200400Y17099600D01*
X89200400Y17099600D02*
X90652600Y17099600D01*
X84600000Y19575000D02*
X84600000Y20050000D01*
X84600000Y19575000D02*
X88075400Y16099600D01*
X88075400Y16099600D02*
X90652600Y16099600D01*
X80600000Y6400000D02*
X84875000Y6400000D01*
X89721630Y4900000D02*
X93100000Y4900000D01*
X87496630Y7125000D02*
X89721630Y4900000D01*
X85600000Y7125000D02*
X87496630Y7125000D01*
X93100000Y4900000D02*
X94775000Y6575000D01*
X84875000Y6400000D02*
X85600000Y7125000D01*
X80075000Y6925000D02*
X80600000Y6400000D01*
X80075000Y6925000D02*
X80075000Y9425000D01*
X78247800Y11252200D02*
X80075000Y9425000D01*
X77444590Y11252200D02*
X78247800Y11252200D01*
X92116470Y15950000D02*
X93875000Y15950000D01*
X93875000Y15950000D02*
X94775000Y15050000D01*
X94775000Y6575000D02*
X94775000Y15050000D01*
X90435400Y15599600D02*
X90435400Y15656800D01*
X90435400Y15656800D02*
X91823260Y15656800D01*
X91823260Y15656800D02*
X92116470Y15950000D01*
X92116470Y15950000D02*
X92116470Y16596930D01*
X92108400Y16605000D02*
X92116470Y16596930D01*
X93108400Y16605000D02*
X93108400Y17433400D01*
X90652600Y15099600D02*
X92076200Y15099600D01*
X92076200Y15099600D02*
X92108400Y15131800D01*
X90600000Y14525000D02*
X91991980Y14525000D01*
X91991980Y14525000D02*
X92108400Y14641420D01*
X92108400Y14641420D02*
X92108400Y15131800D01*
X93108400Y13633200D02*
X93108400Y15131800D01*
X93108400Y15131800D02*
X93793200Y15131800D01*
X93793200Y15131800D02*
X93800000Y15125000D01*
X89154000Y11999600D02*
X89154000Y13599600D01*
X89154000Y11999600D02*
X89230200Y11923400D01*
D49*
X89230200Y11923400D02*
X91078800Y11923400D01*
D50*
X91078800Y11923400D02*
X91186000Y11816200D01*
D52*
X91186000Y11816200D02*
X93218000Y11816200D01*
D50*
X90652600Y20618200D02*
X92006800Y20618200D01*
X92006800Y20618200D02*
X92202000Y20813400D01*
X92250000Y20861400D02*
X92250000Y21500000D01*
X92202000Y20813400D02*
X92250000Y20861400D01*
D52*
X93218000Y11816200D02*
X93218000Y12718000D01*
X93066200Y11782000D02*
X93968000Y11782000D01*
X91066200Y25032000D02*
X91968000Y25032000D01*
X91032000Y24032000D02*
X91032000Y24933800D01*
D50*
X83006000Y23844000D02*
X83675600Y23844000D01*
D49*
X80391000Y19619600D02*
X82118000Y19619600D01*
D50*
X82118000Y19619600D02*
X82135400Y19602200D01*
D49*
X79725000Y19619600D02*
X80391000Y19619600D01*
D50*
X80391000Y16597000D02*
X80828000Y16597000D01*
X80828000Y16597000D02*
X81325400Y16099600D01*
X81325400Y16099600D02*
X82135400Y16099600D01*
X79578000Y16597000D02*
X80391000Y16597000D01*
D49*
X79174840Y19619600D02*
X79725000Y19619600D01*
D50*
X79171560Y19622870D02*
X79174840Y19619600D01*
D55*
X89929840Y7175000D02*
X92125000Y7175000D01*
X89038040Y8066800D02*
X89929840Y7175000D01*
X86419000Y8066800D02*
X89038040Y8066800D01*
D50*
X85754800Y12300000D02*
X86131400Y11923400D01*
X85000000Y12300000D02*
X85754800Y12300000D01*
X84635400Y12664600D02*
X85000000Y12300000D01*
X84635400Y12664600D02*
X84635400Y13799600D01*
X86048400Y11923400D02*
X86131400Y11923400D01*
X85300000Y11175000D02*
X86048400Y11923400D01*
X85300000Y9185800D02*
X85300000Y11175000D01*
X85300000Y9185800D02*
X86419000Y8066800D01*
D55*
X92125000Y7175000D02*
X93218000Y8268000D01*
X93218000Y8268000D02*
X93218000Y10116200D01*
D50*
X87147400Y12558400D02*
X87147400Y13599600D01*
X87147400Y12558400D02*
X87782400Y11923400D01*
X87782400Y11923400D02*
X87951600Y11923400D01*
X87951600Y11923400D02*
X88500000Y11375000D01*
X88500000Y11375000D02*
X89975000Y11375000D01*
X89975000Y11375000D02*
X91186000Y10164000D01*
X91186000Y10116200D02*
X91186000Y10164000D01*
D55*
X91186000Y8207000D02*
X91186000Y10116200D01*
D50*
X67759650Y11000000D02*
X68987730Y11000000D01*
X68987730Y11000000D02*
X69113400Y10874330D01*
X69113400Y10349400D02*
X69113400Y10874330D01*
D49*
X82335400Y19099600D02*
X84215040Y19099600D01*
X84215040Y19099600D02*
X84229700Y19084940D01*
X72364590Y15605840D02*
X77173070Y15605840D01*
X67759650Y5790340D02*
X67759650Y11000000D01*
X67759650Y11000000D02*
X67759650Y13834650D01*
X67759650Y5790340D02*
X83400000Y-9850000D01*
X83400000Y-11200000D02*
X83400000Y-9850000D01*
X67759650Y13834650D02*
X69530840Y15605840D01*
D50*
X72364590Y16664590D02*
X72400000Y16700000D01*
D49*
X72364590Y13792200D02*
X72364590Y15605840D01*
X72364590Y15605840D02*
X72364590Y16664590D01*
X69530840Y15605840D02*
X72364590Y15605840D01*
D50*
X86062500Y12637500D02*
X86250000Y12450000D01*
X85635400Y12739600D02*
X85635400Y13799600D01*
X85737500Y12637500D02*
X86062500Y12637500D01*
X85635400Y12739600D02*
X85737500Y12637500D01*
X86250000Y12450000D02*
X86525000Y12450000D01*
X86525000Y12450000D02*
X86900000Y12075000D01*
X86900000Y10525000D02*
X88025000Y9400000D01*
X86900000Y10525000D02*
X86900000Y12075000D01*
X18068600Y8886000D02*
X19528200Y8886000D01*
X19528200Y8886000D02*
X19795600Y9153400D01*
X84635400Y22116800D02*
X84635400Y23803800D01*
X84635400Y23803800D02*
X84675600Y23844000D01*
X7621000Y7875400D02*
X9540800Y7875400D01*
X9540800Y7875400D02*
X9551400Y7886000D01*
X15568600Y13686000D02*
X15568600Y13903200D01*
X15568600Y12468600D02*
X15568600Y13686000D01*
X15550000Y12450000D02*
X15568600Y12468600D01*
X37150000Y39600000D02*
X38100000Y40550000D01*
X33250000Y39600000D02*
X37150000Y39600000D01*
X32900000Y39950000D02*
X33250000Y39600000D01*
X32225000Y39950000D02*
X32900000Y39950000D01*
X31400000Y39125000D02*
X32225000Y39950000D01*
X26425000Y39125000D02*
X31400000Y39125000D01*
X25275000Y37975000D02*
X26425000Y39125000D01*
X17425000Y13425000D02*
X18000000Y14000000D01*
X16068600Y12556400D02*
X16068600Y13686000D01*
X16068600Y12556400D02*
X16175000Y12450000D01*
X16068600Y13686000D02*
X16068600Y14681400D01*
X15495000Y15255000D02*
X16068600Y14681400D01*
X15495000Y15255000D02*
X15495000Y15740000D01*
X43586390Y11061400D02*
X43586390Y11252200D01*
X41925000Y9400000D02*
X43586390Y11061400D01*
X37125000Y9400000D02*
X41925000Y9400000D01*
X28623800Y17901200D02*
X37125000Y9400000D01*
X22076200Y17901200D02*
X28623800Y17901200D01*
X20850000Y16675000D02*
X22076200Y17901200D01*
X20850000Y14425000D02*
X20850000Y16675000D01*
X20425000Y14000000D02*
X20850000Y14425000D01*
X18000000Y14000000D02*
X20425000Y14000000D01*
X16073790Y17325000D02*
X17998790Y19250000D01*
X17998790Y19250000D02*
X17998790Y20825460D01*
X31805140Y38276890D02*
X37301890Y38276890D01*
X17998790Y20825460D02*
X26300000Y29126670D01*
X26300000Y29126670D02*
X26300000Y32771750D01*
X26300000Y32771750D02*
X31805140Y38276890D01*
X37301890Y38276890D02*
X39225000Y40200000D01*
X15495000Y16740000D02*
X15495000Y17133960D01*
X15495000Y17133960D02*
X15686040Y17325000D01*
X15686040Y17325000D02*
X16073790Y17325000D01*
X42175000Y12380810D02*
X43586390Y13792200D01*
X42175000Y10325000D02*
X42175000Y12380810D01*
X41700000Y9850000D02*
X42175000Y10325000D01*
X37300000Y9850000D02*
X41700000Y9850000D01*
X16752300Y15327300D02*
X16752300Y15740000D01*
X16568600Y13903200D02*
X16568600Y15143600D01*
X16568600Y15143600D02*
X16752300Y15327300D01*
X28875000Y18275000D02*
X37300000Y9850000D01*
X21575000Y18275000D02*
X28875000Y18275000D01*
X16752300Y15740000D02*
X16765000Y15740000D01*
X16765000Y15740000D02*
X17262500Y16237500D01*
X17262500Y16237500D02*
X19537500Y16237500D01*
X19537500Y16237500D02*
X21575000Y18275000D01*
X16752300Y16740000D02*
X18009600Y16740000D01*
X18025000Y16755400D02*
X18025000Y17650000D01*
X18009600Y16740000D02*
X18025000Y16755400D01*
X18068600Y12404600D02*
X18654600Y12404600D01*
X19889200Y13336400D02*
X20638600Y13336400D01*
X11050000Y13903200D02*
X11050000Y15765400D01*
X11032600Y15782800D02*
X11050000Y15765400D01*
D49*
X6571600Y14071600D02*
X7773400Y14071600D01*
X7773400Y13176600D02*
X7773400Y14071600D01*
X7621000Y6204000D02*
X7621000Y6875400D01*
X12066000Y3582800D02*
X12066000Y5386000D01*
X12048600Y3565400D02*
X12066000Y3582800D01*
X19069200Y14919200D02*
X19902800Y14919200D01*
X27351200Y16572600D02*
X27351200Y17426200D01*
X14940800Y3590800D02*
X15579200Y3590800D01*
D50*
X15579200Y3590800D02*
X15579200Y5375400D01*
X15568600Y5386000D02*
X15579200Y5375400D01*
D49*
X26450000Y16400000D02*
X26622600Y16572600D01*
X26622600Y16572600D02*
X27351200Y16572600D01*
D50*
X18654600Y12404600D02*
X19054560Y12804560D01*
X19054560Y12804560D02*
X19342610Y12804560D01*
X19874440Y13336400D02*
X19889200Y13336400D01*
X19342610Y12804560D02*
X19874440Y13336400D01*
D49*
X7773400Y14071600D02*
X9321400Y14071600D01*
X9321400Y14071600D02*
X11032600Y15782800D01*
X12048600Y3565400D02*
X12500000Y3114000D01*
X12500000Y2800000D02*
X12500000Y3114000D01*
X12516240Y2253300D02*
X12516240Y2783760D01*
D50*
X12500000Y2800000D02*
X12516240Y2783760D01*
X80459200Y22290800D02*
X81500000Y21250000D01*
X81500000Y20700000D02*
X81500000Y21250000D01*
X81500000Y20700000D02*
X81581800Y20618200D01*
X81581800Y20618200D02*
X82135400Y20618200D01*
X9297400Y3684400D02*
X9384400Y3684400D01*
X9384400Y3684400D02*
X10225000Y4525000D01*
X10225000Y4525000D02*
X10875000Y4525000D01*
X10875000Y4525000D02*
X11050000Y4700000D01*
X11050000Y4700000D02*
X11050000Y5386000D01*
X80459200Y20897600D02*
X81250000Y20106800D01*
X81250000Y20106800D02*
X82132000Y20106800D01*
X82132000Y20106800D02*
X82135400Y20110200D01*
X10719800Y3684400D02*
X10759400Y3684400D01*
X10759400Y3684400D02*
X11558000Y4483000D01*
X11558000Y4483000D02*
X11558000Y5386000D01*
X18068600Y7886000D02*
X18861000Y7886000D01*
X18861000Y7886000D02*
X19325000Y8350000D01*
X19325000Y8350000D02*
X21425000Y8350000D01*
X21425000Y8350000D02*
X22325000Y9250000D01*
D49*
X22325000Y9525000D02*
X23300000Y9525000D01*
X23300000Y9525000D02*
X24665000Y10890000D01*
X24665000Y10890000D02*
X25807400Y10890000D01*
D50*
X22325000Y9250000D02*
X22325000Y9525000D01*
D49*
X25807400Y10890000D02*
X25807400Y13328800D01*
X25807400Y13328800D02*
X27351200Y14872600D01*
D50*
X18068600Y10398000D02*
X19719400Y10398000D01*
X19719400Y10398000D02*
X19889200Y10228200D01*
D49*
X19889200Y10228200D02*
X21128200Y10228200D01*
X21128200Y10228200D02*
X21602800Y10702800D01*
X21602800Y10702800D02*
X21602800Y14919200D01*
X21602800Y14919200D02*
X24172400Y14919200D01*
X24172400Y14919200D02*
X24207200Y14884400D01*
X36825000Y4800000D02*
X39450000Y7425000D01*
X27160800Y4800000D02*
X36825000Y4800000D01*
X25185800Y2825000D02*
X27160800Y4800000D01*
D50*
X12548600Y5386000D02*
X12548600Y5586000D01*
D54*
X12568600Y5586000D02*
X12568600Y6743600D01*
X12568600Y6743600D02*
X13025000Y7200000D01*
D49*
X17512500Y5687500D02*
X17950000Y5250000D01*
D50*
X51816000Y10349400D02*
X51816000Y11125000D01*
D49*
X17950000Y3475000D02*
X17950000Y5250000D01*
X17950000Y3475000D02*
X18600000Y2825000D01*
X39450000Y7425000D02*
X44250000Y7425000D01*
X44250000Y7425000D02*
X47525000Y10700000D01*
X47525000Y10700000D02*
X50650000Y10700000D01*
D50*
X50650000Y10700000D02*
X51075000Y11125000D01*
X51075000Y11125000D02*
X51816000Y11125000D01*
D54*
X13025000Y7200000D02*
X13600000Y7200000D01*
D49*
X36000000Y14000000D02*
X38298590Y14000000D01*
X38298590Y14000000D02*
X38506390Y13792200D01*
X18600000Y2825000D02*
X25185800Y2825000D01*
X50650000Y7625000D02*
X50650000Y10700000D01*
X50650000Y7625000D02*
X63400000Y-5125000D01*
X63400000Y-11200000D02*
X63400000Y-5125000D01*
X27838600Y52907600D02*
X30056400Y52907600D01*
X30056400Y52907600D02*
X30081800Y52933000D01*
D51*
X31825000Y52450000D02*
X31825000Y52500000D01*
X31392000Y52933000D02*
X31825000Y52500000D01*
X30081800Y52933000D02*
X31392000Y52933000D01*
D50*
X30081800Y51663000D02*
X31750000Y51625000D01*
X30119800Y51625000D02*
X31750000Y51625000D01*
X30081800Y51663000D02*
X30119800Y51625000D01*
D49*
X36228600Y49123000D02*
X38050000Y49123000D01*
D51*
X36046600Y50575000D02*
X36228600Y50393000D01*
X33950000Y50575000D02*
X33975000Y50600000D01*
X33975000Y50600000D02*
X34075000Y50600000D01*
X33950000Y50575000D02*
X36046600Y50575000D01*
D50*
X58600000Y39550000D02*
X58950000Y39550000D01*
X58400000Y39750000D02*
X58600000Y39550000D01*
X57558200Y39750000D02*
X58400000Y39750000D01*
X69575000Y25506600D02*
X69646800Y25434800D01*
X69575000Y25506600D02*
X69575000Y27000000D01*
X58950000Y39550000D02*
X59575000Y38925000D01*
X59575000Y34350000D02*
X59575000Y38925000D01*
X59100000Y33875000D02*
X59575000Y34350000D01*
X58275000Y28225000D02*
X59100000Y29050000D01*
X58275000Y28129350D02*
X58275000Y28225000D01*
X59100000Y29050000D02*
X59100000Y33875000D01*
X87325000Y29900000D02*
X90981600Y29900000D01*
X90981600Y29900000D02*
X91675800Y30594210D01*
X91675800Y30594210D02*
X91675800Y31674200D01*
X90928250Y32421750D02*
X91675800Y31674200D01*
X90090630Y32421750D02*
X90928250Y32421750D01*
X88806580Y33705800D02*
X90090630Y32421750D01*
X87847000Y33705800D02*
X88806580Y33705800D01*
X84796540Y33705800D02*
X87847000Y33705800D01*
X84160740Y33070000D02*
X84796540Y33705800D01*
X80625000Y23200000D02*
X87325000Y29900000D01*
X74925000Y19475000D02*
X78650000Y23200000D01*
X78650000Y23200000D02*
X80625000Y23200000D01*
X73069670Y19475000D02*
X74925000Y19475000D01*
X70525000Y16930330D02*
X73069670Y19475000D01*
X70525000Y16775000D02*
X70525000Y16930330D01*
X78536800Y35493200D02*
X78536800Y36711800D01*
X79203000Y37378000D02*
X87847000Y37378000D01*
X78536800Y36711800D02*
X79203000Y37378000D01*
X48841400Y38956400D02*
X51118600Y38956400D01*
X51118600Y38956400D02*
X52775000Y37300000D01*
X80175000Y24025000D02*
X86075000Y29925000D01*
X77000000Y24025000D02*
X80175000Y24025000D01*
X76650000Y23675000D02*
X77000000Y24025000D01*
X74925000Y23675000D02*
X76650000Y23675000D01*
X74726800Y23873200D02*
X74925000Y23675000D01*
X86075000Y29925000D02*
X86075000Y31375000D01*
X74726800Y25434800D02*
X74726800Y26823200D01*
X74300000Y27250000D02*
X74726800Y26823200D01*
X72050000Y27250000D02*
X74300000Y27250000D01*
X71525000Y26725000D02*
X72050000Y27250000D01*
X74726800Y23873200D02*
X74726800Y25434800D01*
X86075000Y31375000D02*
X87025000Y32325000D01*
X87025000Y32325000D02*
X89227800Y32325000D01*
X89227800Y32325000D02*
X90387000Y31165800D01*
X48841400Y39743800D02*
X51231200Y39743800D01*
X51231200Y39743800D02*
X53700000Y37275000D01*
X69175000Y17575000D02*
X71525000Y19925000D01*
X71525000Y19925000D02*
X71525000Y26725000D01*
X74450000Y21675000D02*
X75750000Y21675000D01*
X72186800Y23938200D02*
X74450000Y21675000D01*
X72186800Y23938200D02*
X72186800Y25434800D01*
X77709400Y23634400D02*
X80315600Y23634400D01*
X75750000Y21675000D02*
X77709400Y23634400D01*
X77200000Y20100000D02*
X77250000Y20050000D01*
X77250000Y16700000D02*
X77250000Y20050000D01*
X80315600Y23634400D02*
X87847000Y31165800D01*
X48841400Y37356200D02*
X50968800Y37356200D01*
X50968800Y37356200D02*
X51050000Y37275000D01*
X59125000Y40050000D02*
X60000000Y39175000D01*
X58626400Y40050000D02*
X59125000Y40050000D01*
X58126400Y40550000D02*
X58626400Y40050000D01*
X57325000Y40556600D02*
X57558200Y40556600D01*
X57558200Y40550000D02*
X58126400Y40550000D01*
X59800000Y27375000D02*
X59800000Y31075740D01*
X59800000Y27375000D02*
X59825000Y27350000D01*
X59400000Y31475740D02*
X59800000Y31075740D01*
X60000000Y34200000D02*
X60000000Y39175000D01*
X59400000Y31475740D02*
X59400000Y33600000D01*
X59400000Y33600000D02*
X60000000Y34200000D01*
X68376800Y25434800D02*
X68376800Y26976800D01*
X68376800Y26976800D02*
X69425000Y28025000D01*
X69675000Y32150000D02*
X69675000Y33775000D01*
X69675000Y32150000D02*
X70300000Y31525000D01*
X70300000Y20875000D02*
X70300000Y31525000D01*
X55493000Y41268000D02*
X57325000Y41268000D01*
X54877660Y40377580D02*
X54877660Y40652660D01*
X54877660Y40652660D02*
X55493000Y41268000D01*
X57325000Y41268000D02*
X57325000Y41344000D01*
X69675000Y33775000D02*
X69675000Y35465000D01*
X69646800Y35493200D02*
X69675000Y35465000D01*
X54527660Y36951800D02*
X54527660Y40027580D01*
X54527660Y40027580D02*
X54877660Y40377580D01*
X70971750Y33625000D02*
X78536800Y26059950D01*
X78536800Y25434800D02*
X78536800Y26059950D01*
X70925000Y33625000D02*
X70971750Y33625000D01*
D49*
X70916800Y33633200D02*
X70925000Y33625000D01*
D50*
X70916800Y33633200D02*
X70916800Y35493200D01*
X66453420Y60884780D02*
X66781670Y60884780D01*
X66781670Y60884780D02*
X67256670Y61359780D01*
X67256670Y61359780D02*
X68588020Y61359780D01*
X90286970Y61359780D02*
X93346630Y61359780D01*
X93346630Y61359780D02*
X93663000Y61043400D01*
X93663000Y61043400D02*
X94449400Y61043400D01*
X94449400Y61043400D02*
X94456000Y61050000D01*
X94456000Y61050000D02*
X95125000Y61050000D01*
X95125000Y61050000D02*
X95975000Y60200000D01*
X95975000Y38250000D02*
X95975000Y60200000D01*
X94325000Y36600000D02*
X95975000Y38250000D01*
X82700000Y36600000D02*
X94325000Y36600000D01*
X80300000Y34200000D02*
X82700000Y36600000D01*
X79900000Y34200000D02*
X80300000Y34200000D01*
X79806800Y34293200D02*
X79900000Y34200000D01*
X79806800Y34293200D02*
X79806800Y35493200D01*
X68588020Y61359780D02*
X69203250Y61975000D01*
X69203250Y61975000D02*
X82153250Y61975000D01*
X82153250Y61975000D02*
X84978250Y64800000D01*
X84978250Y64800000D02*
X86846750Y64800000D01*
X86846750Y64800000D02*
X90286970Y61359780D01*
X70775000Y27225000D02*
X70916800Y27083200D01*
X70916800Y25434800D02*
X70916800Y27083200D01*
X74725000Y33925000D02*
X74725000Y35493200D01*
X75625300Y62325000D02*
X75625310Y62325000D01*
X91500000Y62500000D02*
X94625000Y62500000D01*
X94625000Y62500000D02*
X96550000Y60575000D01*
X96550000Y38075000D02*
X96550000Y60575000D01*
X94450000Y35975000D02*
X96550000Y38075000D01*
X83100000Y35975000D02*
X94450000Y35975000D01*
X80150000Y33025000D02*
X83100000Y35975000D01*
X77775000Y33025000D02*
X80150000Y33025000D01*
X77266800Y33533200D02*
X77775000Y33025000D01*
X77266800Y33533200D02*
X77266800Y35493200D01*
X65453430Y61884780D02*
X65928430Y62359780D01*
X65928430Y62359780D02*
X67650170Y62359780D01*
X67650170Y62359780D02*
X67684950Y62325000D01*
X67684950Y62325000D02*
X75625300Y62325000D01*
X88850000Y65150000D02*
X91500000Y62500000D01*
X75625310Y62325000D02*
X81725000Y62325000D01*
X81725000Y62325000D02*
X84550000Y65150000D01*
X84550000Y65150000D02*
X88850000Y65150000D01*
D54*
X72186800Y34363200D02*
X72186800Y35493200D01*
X72186800Y34363200D02*
X73225000Y33325000D01*
X75475000Y27050000D02*
X75600000Y26925000D01*
X75600000Y26925000D02*
X76950000Y26925000D01*
X76950000Y26925000D02*
X77266800Y26608200D01*
X77266800Y25434800D02*
X77266800Y26608200D01*
D50*
X73456800Y23906800D02*
X73456800Y25434800D01*
X73456800Y23906800D02*
X73538600Y23825000D01*
X75600000Y33625000D02*
X76050000Y34075000D01*
X76050000Y34075000D02*
X76050000Y35440000D01*
X75996800Y35493200D02*
X76050000Y35440000D01*
X73456800Y36681800D02*
X73950000Y37175000D01*
X73456800Y35493200D02*
X73456800Y36681800D01*
X75996800Y24175000D02*
X75996800Y25434800D01*
D49*
X71820800Y90075000D02*
X72797190Y90075000D01*
X72797190Y90075000D02*
X73272190Y90550000D01*
X73272190Y90550000D02*
X73950000Y90550000D01*
X73950000Y90550000D02*
X74500000Y90000000D01*
X71820800Y90725000D02*
X72603130Y90725000D01*
X72603130Y90725000D02*
X72750000Y90871870D01*
X71750000Y92500000D02*
X72607400Y92500000D01*
X72607400Y92500000D02*
X72750000Y92357400D01*
X72750000Y90871870D02*
X72750000Y92357400D01*
X22882200Y45355000D02*
X22882200Y46592800D01*
X22100000Y47375000D02*
X22882200Y46592800D01*
X19275000Y46819200D02*
X19644200Y46819200D01*
X19644200Y46819200D02*
X20200000Y47375000D01*
X20200000Y47375000D02*
X22100000Y47375000D01*
X19275000Y41425000D02*
X19275000Y44400000D01*
X19275000Y41425000D02*
X19300000Y41400000D01*
X19590000Y44085000D02*
X22882200Y44085000D01*
X19275000Y44400000D02*
X19590000Y44085000D01*
D50*
X19125000Y6125000D02*
X19889200Y5360800D01*
X19125000Y6125000D02*
X19125000Y6575000D01*
X18814000Y6886000D02*
X19125000Y6575000D01*
X18068600Y6886000D02*
X18814000Y6886000D01*
X19889200Y5360800D02*
X22985600Y5360800D01*
X22985600Y5360800D02*
X23938600Y4407800D01*
X19969200Y6617600D02*
X22236800Y6617600D01*
X19889200Y6697600D02*
X19969200Y6617600D01*
X18068600Y7386000D02*
X19200800Y7386000D01*
X19200800Y7386000D02*
X19889200Y6697600D01*
X82135600Y11829800D02*
X82450000Y12144200D01*
X82450000Y8800000D02*
X82450000Y12144200D01*
X81586400Y7936400D02*
X82450000Y8800000D01*
X81432800Y7936400D02*
X81586400Y7936400D01*
X83635400Y12985400D02*
X83635400Y13599600D01*
X82450000Y12144200D02*
X82864200Y12558400D01*
X82864200Y12558400D02*
X83208400Y12558400D01*
X83208400Y12558400D02*
X83635400Y12985400D01*
X84125000Y13589200D02*
X84135400Y13599600D01*
X84125000Y12850000D02*
X84125000Y13589200D01*
X83599400Y12324400D02*
X84125000Y12850000D01*
X83599400Y11829800D02*
X83599400Y12324400D01*
X83599400Y11829800D02*
X83642600Y11786600D01*
X83642600Y9638200D02*
X83642600Y11786600D01*
D49*
X32750000Y58650000D02*
X32750000Y60777200D01*
X29802200Y63725000D02*
X32750000Y60777200D01*
X27940200Y50393000D02*
X30081800Y50393000D01*
X65916800Y91744800D02*
X67244800Y91744800D01*
X67244800Y91744800D02*
X69750000Y94250000D01*
X69750000Y94250000D02*
X72202000Y94250000D01*
D50*
X45500000Y-15185800D02*
X45514200Y-15200000D01*
X45500000Y-15185800D02*
X45500000Y-14250000D01*
X41500000Y-15185800D02*
X41514190Y-15200000D01*
X41500000Y-15185800D02*
X41500000Y-14250000D01*
X39500000Y-15185800D02*
X39514190Y-15200000D01*
X39500000Y-15185800D02*
X39500000Y-14250000D01*
X43500000Y-15185800D02*
X43514200Y-15200000D01*
X43500000Y-15185800D02*
X43500000Y-14250000D01*
X34250000Y-15100000D02*
X34350000Y-15200000D01*
X34250000Y-15100000D02*
X34250000Y-14250000D01*
X30255000Y-15105000D02*
X30350000Y-15200000D01*
X30255000Y-15105000D02*
X30255000Y-14250000D01*
X28250000Y-15100000D02*
X28350000Y-15200000D01*
X28250000Y-15100000D02*
X28250000Y-14250000D01*
X32250000Y-15100000D02*
X32350000Y-15200000D01*
X32250000Y-15100000D02*
X32250000Y-14250000D01*
D49*
X77290800Y4530990D02*
X79000000Y6240190D01*
X77290800Y783600D02*
X77290800Y4530990D01*
X77290800Y783600D02*
X83500000Y-5425600D01*
X83500000Y-6500000D02*
X83500000Y-5425600D01*
X79000000Y6240190D02*
X79000000Y6875000D01*
X72750000Y-15000000D02*
X72950000Y-15200000D01*
X72950000Y-15200000D02*
X74000000Y-15200000D01*
D50*
X52000000Y-15150000D02*
X52050000Y-15200000D01*
X52000000Y-15150000D02*
X52000000Y-14250000D01*
X56000000Y-15150000D02*
X56050000Y-15200000D01*
X56000000Y-15150000D02*
X56000000Y-14250000D01*
X54000000Y-15150010D02*
X54050000Y-15200000D01*
X54000000Y-15150010D02*
X54000000Y-14250000D01*
X50000000Y-15150000D02*
X50050000Y-15200000D01*
X50000000Y-15150000D02*
X50000000Y-14250000D01*
D49*
X85500000Y-6500000D02*
X85500000Y-5195970D01*
X81207400Y-903370D02*
X85500000Y-5195970D01*
X81207400Y-903370D02*
X81207400Y3707630D01*
X82299770Y4800000D02*
X82900000Y4800000D01*
X81207400Y3707630D02*
X82299770Y4800000D01*
X77259810Y-15200000D02*
X77496220Y-14963590D01*
X76132250Y-15200000D02*
X77259810Y-15200000D01*
X86500000Y-6500000D02*
X86500000Y-5100000D01*
X82200000Y-800000D02*
X86500000Y-5100000D01*
X82200000Y-800000D02*
X82200000Y3150000D01*
X77165690Y-16800000D02*
X77496220Y-16469460D01*
X76132250Y-16800000D02*
X77165690Y-16800000D01*
D50*
X16839800Y37539800D02*
X16839800Y42410600D01*
X16825000Y37525000D02*
X16839800Y37539800D01*
D49*
X72250000Y98250000D02*
X72250000Y99500000D01*
X72250000Y99500000D02*
X72250000Y99500000D01*
X72367800Y97745950D02*
X72367800Y98132200D01*
X72367800Y97745950D02*
X73402000Y96711750D01*
X73402000Y96338800D02*
X73402000Y96711750D01*
X27500000Y79700000D02*
X27500000Y80830800D01*
X27500000Y80830800D02*
X27500000Y80900000D01*
X26204800Y80830800D02*
X27500000Y80830800D01*
X24250000Y80750000D02*
X25124000Y80750000D01*
X25124000Y80750000D02*
X25204800Y80830800D01*
D51*
X32985400Y22385400D02*
X36220400Y22385400D01*
X32950000Y22350000D02*
X32985400Y22385400D01*
D50*
X44700000Y61850000D02*
X45442500Y62592500D01*
X45442500Y62592500D02*
X45442500Y62889500D01*
X26600000Y20427810D02*
X26600000Y22800000D01*
X26593790Y20421600D02*
X26600000Y20427810D01*
X27525000Y32525000D02*
X32000000Y37000000D01*
X27353250Y32525000D02*
X27525000Y32525000D01*
X26775000Y31946750D02*
X27353250Y32525000D01*
X25775000Y23625000D02*
X26600000Y22800000D01*
X25775000Y23625000D02*
X25775000Y27900000D01*
X25775000Y27900000D02*
X26775000Y28900000D01*
X26775000Y28900000D02*
X26775000Y31946750D01*
X10498200Y47279000D02*
X10498200Y50165000D01*
X10498200Y47279000D02*
X10507800Y47269400D01*
X10498200Y50165000D02*
X10498200Y52700000D01*
X10507800Y45339860D02*
X10507800Y47269400D01*
X10507800Y45339860D02*
X11057000Y44790660D01*
X11057000Y44551600D02*
X11057000Y44790660D01*
X32975000Y73865200D02*
X32975000Y75625000D01*
X32975000Y73865200D02*
X33916800Y72923400D01*
X33917000Y70358000D02*
X33917000Y72923200D01*
X33916800Y72923400D02*
X33917000Y72923200D01*
X23430920Y62075000D02*
X23436600Y62069330D01*
X23430920Y62075000D02*
X24675000Y62075000D01*
X24675000Y62075000D02*
X32958000Y70358000D01*
X32958000Y70358000D02*
X33917000Y70358000D01*
X13610600Y43360600D02*
X14639800Y43360600D01*
X12971200Y42656600D02*
X13610600Y43296000D01*
X13610600Y43296000D02*
X13610600Y43360600D01*
D49*
X73500000Y86500000D02*
X73500000Y87222190D01*
X73500000Y87222190D02*
X74050000Y87772180D01*
X74050000Y87772180D02*
X74050000Y88227810D01*
X73727820Y88550000D02*
X74050000Y88227810D01*
X73700000Y88550000D02*
X73727820Y88550000D01*
X73490600Y88759400D02*
X73700000Y88550000D01*
X72320800Y88759400D02*
X73490600Y88759400D01*
X70500000Y88000000D02*
X71259400Y88759400D01*
X71259400Y88759400D02*
X71820800Y88759400D01*
X24700000Y84700000D02*
X27500000Y81900000D01*
D50*
X31716800Y73873400D02*
X31716800Y74491800D01*
X31716800Y74491800D02*
X31975000Y74750000D01*
X31975000Y74750000D02*
X31975000Y75625000D01*
X31600000Y73100000D02*
X31600000Y73756600D01*
X31600000Y73756600D02*
X31716800Y73873400D01*
X30911800Y75827000D02*
X31113800Y75625000D01*
X31113800Y75625000D02*
X31975000Y75625000D01*
X22080400Y62600800D02*
X23995800Y62600800D01*
X23995800Y62600800D02*
X24003000Y62593600D01*
X22054600Y62575000D02*
X22080400Y62600800D01*
X20750000Y62575000D02*
X22054600Y62575000D01*
X17798600Y62575000D02*
X20750000Y62575000D01*
X17780000Y62593600D02*
X17798600Y62575000D01*
X12875000Y44551600D02*
X12875000Y46152200D01*
X12707800Y46319400D02*
X12875000Y46152200D01*
X12707800Y46319400D02*
X14383600Y46319400D01*
X14383600Y46319400D02*
X14833600Y46769400D01*
X12057000Y44551600D02*
X12875000Y44551600D01*
X12875000Y44551600D02*
X13698400Y44551600D01*
D49*
X28292400Y44085000D02*
X30173800Y44085000D01*
X30173800Y44085000D02*
X30183200Y44094400D01*
D50*
X26825000Y44225000D02*
X28152400Y44225000D01*
X28152400Y44225000D02*
X28292400Y44085000D01*
D49*
X28292400Y42815000D02*
X30167200Y42815000D01*
X30167200Y42815000D02*
X30183200Y42799000D01*
D50*
X26950000Y42800000D02*
X28277400Y42800000D01*
X28277400Y42800000D02*
X28292400Y42815000D01*
X30682800Y41503200D02*
X30808600Y41629000D01*
X26801310Y41552030D02*
X26850130Y41503200D01*
X26850130Y41503200D02*
X30682800Y41503200D01*
X42400000Y31500000D02*
X42450000Y31500000D01*
X42450000Y31500000D02*
X43587400Y32637400D01*
X43587400Y32637400D02*
X44385200Y32637400D01*
X12900000Y33325000D02*
X18210000Y33325000D01*
X18210000Y33325000D02*
X19520000Y32015000D01*
X30932400Y33907400D02*
X34326800Y33907400D01*
X27700000Y30675000D02*
X30932400Y33907400D01*
X12875000Y29050000D02*
X14720200Y29050000D01*
X14720200Y29050000D02*
X15570200Y28200000D01*
X15570200Y28200000D02*
X18245000Y28200000D01*
X18245000Y28200000D02*
X19520000Y29475000D01*
X53275000Y19125000D02*
X54075000Y19925000D01*
X59700000Y19925000D02*
X60125000Y19500000D01*
X54075000Y19925000D02*
X59700000Y19925000D01*
X42875000Y18850000D02*
X49250000Y18850000D01*
X49250000Y18850000D02*
X49525000Y19125000D01*
X49525000Y19125000D02*
X53275000Y19125000D01*
X32246750Y18425000D02*
X42450000Y18425000D01*
X42450000Y18425000D02*
X42875000Y18850000D01*
X18973790Y19826210D02*
X18973790Y20421600D01*
X18973790Y19826210D02*
X20225000Y18575000D01*
X20225000Y18575000D02*
X32096750Y18575000D01*
X32096750Y18575000D02*
X32246750Y18425000D01*
X49050000Y19175000D02*
X49675000Y19800000D01*
X42500000Y19175000D02*
X49050000Y19175000D01*
X52903250Y20300000D02*
X60850000Y20300000D01*
X49675000Y19800000D02*
X52403250Y19800000D01*
X52403250Y19800000D02*
X52903250Y20300000D01*
X60850000Y20300000D02*
X61450000Y20900000D01*
X37903250Y18825000D02*
X42150000Y18825000D01*
X42150000Y18825000D02*
X42500000Y19175000D01*
X61450000Y20900000D02*
X61450000Y24600000D01*
X37728250Y19000000D02*
X37903250Y18825000D01*
X24600000Y19000000D02*
X37728250Y19000000D01*
X24053790Y19546200D02*
X24053790Y20421600D01*
X24053790Y19546200D02*
X24600000Y19000000D01*
X86135400Y13599600D02*
X86135400Y14403200D01*
X73929590Y12817200D02*
X74904590Y13792200D01*
X68888400Y13561400D02*
X69302010Y13975000D01*
X69302010Y13975000D02*
X70136400Y13975000D01*
X68888400Y13183350D02*
X68888400Y13561400D01*
X68613400Y12908350D02*
X68888400Y13183350D01*
X70136400Y13975000D02*
X71294200Y12817200D01*
X71294200Y12817200D02*
X73929590Y12817200D01*
X68613400Y11799400D02*
X68613400Y12908350D01*
X85575000Y15200000D02*
X85829640Y15200000D01*
X85829640Y15200000D02*
X86135400Y14894240D01*
X86135400Y13799600D02*
X86135400Y14894240D01*
X86118200Y15618200D02*
X86635400Y15101000D01*
X86635400Y13799600D02*
X86635400Y15101000D01*
X73806790Y12350000D02*
X74904590Y11252200D01*
X71125000Y12350000D02*
X73806790Y12350000D01*
X69488400Y13525000D02*
X69950000Y13525000D01*
X69338400Y13183350D02*
X69613400Y12908350D01*
X69338400Y13375000D02*
X69488400Y13525000D01*
X69338400Y13183350D02*
X69338400Y13375000D01*
X69950000Y13525000D02*
X71125000Y12350000D01*
X69613400Y11799400D02*
X69613400Y12908350D01*
X16375000Y9250000D02*
X16511000Y9386000D01*
X16511000Y9386000D02*
X18068600Y9386000D01*
X41046390Y13792200D02*
X42554190Y15300000D01*
X51316000Y11799400D02*
X51316000Y13159000D01*
X49175000Y15300000D02*
X51316000Y13159000D01*
X42554190Y15300000D02*
X49175000Y15300000D01*
X16375000Y10050000D02*
X16535000Y9890000D01*
X16535000Y9890000D02*
X18068600Y9890000D01*
X39825000Y12473590D02*
X39825000Y14225000D01*
X39825000Y12473590D02*
X41046390Y11252200D01*
X39825000Y14225000D02*
X41375000Y15775000D01*
X41375000Y15775000D02*
X49336390Y15775000D01*
X52316000Y11799400D02*
X52316000Y12795400D01*
X49336390Y15775000D02*
X52316000Y12795400D01*
D49*
X83900000Y4800000D02*
X83900000Y5235400D01*
X83210390Y5925000D02*
X83900000Y5235400D01*
X82797720Y5925000D02*
X83210390Y5925000D01*
D50*
X34917000Y70358000D02*
X36309000Y71750000D01*
X36309000Y71750000D02*
X37125000Y71750000D01*
X17780000Y63593600D02*
X19837600Y63593600D01*
X19837600Y63593600D02*
X19880400Y63550800D01*
X11498200Y50165000D02*
X12090000Y50165000D01*
X13425000Y40450000D02*
X13425000Y41202800D01*
X12971200Y41656600D02*
X13425000Y41202800D01*
X9425000Y44575000D02*
X9425000Y45425000D01*
X35175000Y73700000D02*
X37125000Y71750000D01*
X34100000Y73700000D02*
X35175000Y73700000D01*
X33500000Y74300000D02*
X34100000Y73700000D01*
X12971200Y41656600D02*
X13564600Y42250000D01*
X13564600Y42250000D02*
X15250000Y42250000D01*
X9425000Y44575000D02*
X9923400Y44076600D01*
X9923400Y44076600D02*
X15323400Y44076600D01*
X15250000Y42250000D02*
X15600000Y42600000D01*
X15600000Y42600000D02*
X15600000Y43800000D01*
X15323400Y44076600D02*
X15600000Y43800000D01*
X32575000Y78100000D02*
X33500000Y77175000D01*
X33500000Y74300000D02*
X33500000Y77175000D01*
D55*
X10625000Y32525000D02*
X10625000Y33600000D01*
D53*
X68550000Y55850000D02*
X68550000Y57175000D01*
X43750000Y86100000D02*
X43750000Y87525000D01*
X44899990Y86475070D02*
X45125000Y86700080D01*
D49*
X53443500Y57063900D02*
X53509800Y56997600D01*
X53443500Y57063900D02*
X53443500Y57889500D01*
D54*
X44678600Y63898400D02*
X45433600Y63898400D01*
D50*
X45433600Y63898400D02*
X45442500Y63889500D01*
D53*
X41500000Y64075000D02*
X42595800Y64075000D01*
X53300000Y53725000D02*
X53300000Y54914800D01*
D52*
X62088990Y54960990D02*
X62870980Y55742980D01*
D53*
X71275000Y77225000D02*
X72700000Y77225000D01*
D52*
X69265800Y77943200D02*
X69493200Y77943200D01*
D53*
X73550000Y77600000D02*
X74075000Y77600000D01*
X74075000Y77600000D02*
X74875000Y76800000D01*
X64175000Y81475000D02*
X65116200Y81475000D01*
X64950000Y85500000D02*
X64950000Y86925000D01*
X64025000Y84325000D02*
X65450000Y84325000D01*
X43700000Y86475070D02*
X44899990Y86475070D01*
X43800000Y80975000D02*
X43800000Y82067400D01*
X43825000Y78175000D02*
X43825000Y79273400D01*
D52*
X41600000Y75825000D02*
X41716800Y75825000D01*
X41716800Y75825000D02*
X42621200Y74920600D01*
D53*
X69265800Y75850000D02*
X70050000Y75850000D01*
X70050000Y75850000D02*
X70400000Y75500000D01*
D49*
X94056200Y60493400D02*
X94593400Y60493400D01*
D54*
X94593400Y60493400D02*
X94600000Y60500000D01*
X92100400Y59326400D02*
X94005400Y59326400D01*
X94005400Y59326400D02*
X94056200Y59377200D01*
X94056200Y59377200D02*
X94600000Y59377200D01*
X92100400Y56326400D02*
X93977200Y56326400D01*
X93977200Y56326400D02*
X94056200Y56405400D01*
D49*
X94056200Y56405400D02*
X94694600Y56405400D01*
X94694600Y56405400D02*
X94700000Y56400000D01*
X92100400Y53326400D02*
X93974400Y53326400D01*
X93974400Y53326400D02*
X94056200Y53408200D01*
X94056200Y53408200D02*
X94591800Y53408200D01*
X94591800Y53408200D02*
X94600000Y53400000D01*
X92100400Y46321200D02*
X93954200Y46321200D01*
X93954200Y46321200D02*
X94056200Y46423200D01*
X94056200Y46423200D02*
X94576800Y46423200D01*
X94576800Y46423200D02*
X94600000Y46400000D01*
X92100400Y40301400D02*
X93862000Y40301400D01*
X93862000Y40301400D02*
X94056200Y40495600D01*
X94056200Y40495600D02*
X94695600Y40495600D01*
X92100400Y39310800D02*
X93853400Y39310800D01*
X93853400Y39310800D02*
X94056200Y39108000D01*
X94056200Y39108000D02*
X94692000Y39108000D01*
X78173200Y57826400D02*
X80226800Y57826400D01*
X78105000Y57894600D02*
X78173200Y57826400D01*
X77405400Y57894600D02*
X78105000Y57894600D01*
X77375600Y55024400D02*
X78105000Y55024400D01*
X78146800Y44822600D02*
X80226800Y44822600D01*
X78105000Y44864400D02*
X78146800Y44822600D01*
X78203000Y41825400D02*
X80226800Y41825400D01*
X78105000Y41727400D02*
X78203000Y41825400D01*
X37955600Y19444400D02*
X37955600Y20040600D01*
X37955600Y19444400D02*
X38000000Y19400000D01*
X38700000Y19300000D02*
X39200000Y19800000D01*
D53*
X46425000Y54550000D02*
X46425000Y56083200D01*
D52*
X62870980Y55742980D02*
X63246000Y55742980D01*
D49*
X78092790Y44852190D02*
X78105000Y44864400D01*
X77453780Y44852190D02*
X78092790Y44852190D01*
X78105000Y55024400D02*
X78201760Y54927640D01*
X78201760Y54927640D02*
X78455890Y54927640D01*
X78455890Y54927640D02*
X78557130Y54826400D01*
X78557130Y54826400D02*
X80226800Y54826400D01*
D53*
X65455800Y56100000D02*
X66600000Y56100000D01*
D49*
X91291800Y13633200D02*
X92108400Y13633200D01*
X12850000Y32275000D02*
X12900000Y32325000D01*
X12850000Y31750000D02*
X12850000Y32275000D01*
D50*
X13625000Y20450000D02*
X16405400Y20450000D01*
X16405400Y20450000D02*
X16433790Y20421600D01*
X18009600Y15059600D02*
X18009600Y15740000D01*
D49*
X50427000Y79915000D02*
X50427000Y80797400D01*
X50427000Y79915000D02*
X50446300Y79895700D01*
X67313250Y64744600D02*
X67318000Y64744600D01*
X66453420Y63884770D02*
X67313250Y64744600D01*
X31183200Y44094400D02*
X31327600Y43950000D01*
X31321800Y40978200D02*
X31528200Y40978200D01*
X31528200Y40978200D02*
X31808600Y41258600D01*
X31808600Y41258600D02*
X31808600Y41629000D01*
X36228600Y51663000D02*
X38588000Y51663000D01*
X38588000Y51663000D02*
X38600000Y51675000D01*
X38600000Y51675000D02*
X38600000Y52075000D01*
X37742000Y52933000D02*
X38600000Y52075000D01*
X36228600Y52933000D02*
X37742000Y52933000D01*
X38600000Y51175000D02*
X38600000Y51675000D01*
X38400000Y50975000D02*
X38600000Y51175000D01*
X38075000Y50975000D02*
X38400000Y50975000D01*
X26838600Y52211400D02*
X26838600Y52907600D01*
X26940200Y49734800D02*
X26940200Y50393000D01*
X42025000Y28825000D02*
X42025000Y29475000D01*
X47811800Y27188200D02*
X48610200Y27188200D01*
X93052200Y68402200D02*
X93835600Y68402200D01*
X93052200Y65827200D02*
X93835600Y65827200D01*
X93127200Y63327200D02*
X93810200Y63327200D01*
X79000000Y7875000D02*
X79000000Y8300000D01*
X79000000Y8300000D02*
X79400000Y8700000D01*
X83704080Y71724690D02*
X83709000Y71729600D01*
X83704080Y71053470D02*
X83704080Y71724690D01*
X44552170Y60702170D02*
X44700000Y60850000D01*
X44552170Y60377950D02*
X44552170Y60702170D01*
D53*
X39000000Y64825000D02*
X39782200Y64042800D01*
X39782200Y64042800D02*
X40150000Y64042800D01*
D49*
X36591000Y60407600D02*
X36591000Y60841000D01*
X36591000Y60841000D02*
X36975000Y61225000D01*
D50*
X44632500Y74891900D02*
X45442500Y74891900D01*
X44602400Y74861800D02*
X44632500Y74891900D01*
X34150000Y67650000D02*
X34700000Y67650000D01*
D49*
X31327600Y43950000D02*
X31352600Y43975000D01*
X31352600Y43975000D02*
X31850000Y43975000D01*
X32051000Y42799000D02*
X32175000Y42675000D01*
X31183200Y42799000D02*
X32051000Y42799000D01*
X31701890Y38751890D02*
X31726550Y38751890D01*
X34326800Y32637400D02*
X34352200Y32612000D01*
X48050000Y29475000D02*
X48050000Y30175000D01*
X48610200Y25918200D02*
X49468200Y25918200D01*
X49468200Y25918200D02*
X50225000Y26675000D01*
X35473200Y30648200D02*
X36150000Y31325000D01*
X34352200Y30648200D02*
X35473200Y30648200D01*
X31475000Y30475000D02*
X31875000Y30875000D01*
X31875000Y30875000D02*
X34352200Y30875000D01*
X34352200Y30648200D02*
X34352200Y30875000D01*
X34326800Y32637400D02*
X35637600Y32637400D01*
X35637600Y32637400D02*
X36150000Y32125000D01*
X36150000Y31325000D02*
X36150000Y32125000D01*
X47375000Y27625000D02*
X47811800Y27188200D01*
X47375000Y27625000D02*
X47375000Y28800000D01*
X47375000Y28800000D02*
X48050000Y29475000D01*
X42500000Y93500000D02*
X43149190Y94149200D01*
X43149190Y94149200D02*
X43149190Y96494600D01*
X28292400Y45355000D02*
X29595000Y45355000D01*
X29595000Y45355000D02*
X29600000Y45350000D01*
X77572600Y41727400D02*
X78105000Y41727400D01*
D52*
X69493200Y77943200D02*
X69725000Y78175000D01*
X69725000Y78175000D02*
X70450000Y78175000D01*
D54*
X92100400Y60326400D02*
X93889200Y60326400D01*
X93889200Y60326400D02*
X94056200Y60493400D01*
D49*
X77290800Y79318610D02*
X77290800Y86090800D01*
X76950000Y78977820D02*
X77290800Y79318610D01*
X76950000Y78200000D02*
X76950000Y78977820D01*
X76950000Y78200000D02*
X77048600Y78101400D01*
X77048600Y76920600D02*
X77048600Y78101400D01*
X80695800Y77736600D02*
X80695800Y80725000D01*
X80695800Y77736600D02*
X81207400Y77225000D01*
D53*
X69625000Y56300000D02*
X69625000Y57250000D01*
X69625000Y56124990D02*
X70600000Y56124990D01*
M02*
