G04 #@! TF.GenerationSoftware,KiCad,Pcbnew,5.0.0-rc2-dev-unknown-9f5316e~63~ubuntu17.10.1*
G04 #@! TF.CreationDate,2018-04-23T17:13:08+02:00*
G04 #@! TF.ProjectId,Cryptech Alpha,437279707465636820416C7068612E6B,rev?*
G04 #@! TF.SameCoordinates,Original*
G04 #@! TF.FileFunction,Copper,L3,Inr,Mixed*
G04 #@! TF.FilePolarity,Positive*
%FSLAX46Y46*%
G04 Gerber Fmt 4.6, Leading zero omitted, Abs format (unit mm)*
G04 Created by KiCad (PCBNEW 5.0.0-rc2-dev-unknown-9f5316e~63~ubuntu17.10.1) date Mon Apr 23 17:13:08 2018*
%MOMM*%
%LPD*%
G01*
G04 APERTURE LIST*
%ADD10C,1.500000*%
%ADD11R,1.500000X1.500000*%
%ADD12C,1.016000*%
%ADD13O,2.000000X4.500000*%
%ADD14O,4.500000X2.000000*%
%ADD15C,0.500000*%
%ADD16C,1.000000*%
%ADD17C,0.600000*%
%ADD18C,0.300000*%
%ADD19C,0.150000*%
%ADD20C,0.200000*%
%ADD21C,0.164000*%
G04 APERTURE END LIST*
D10*
X36580000Y-6000000D03*
X54360000Y-6000000D03*
X51820000Y-6000000D03*
X49280000Y-6000000D03*
X46740000Y-6000000D03*
X44200000Y-6000000D03*
X41660000Y-6000000D03*
X39120000Y-6000000D03*
X34040000Y-6000000D03*
D11*
X31500000Y-6000000D03*
X84160740Y30530000D03*
D10*
X84160740Y33070000D03*
D12*
X67209800Y-13884000D03*
X62800000Y-13884000D03*
X82800000Y-13884000D03*
X87209800Y-13884000D03*
D10*
X29133790Y20421600D03*
X26593790Y20421600D03*
X24053790Y20421600D03*
X21513790Y20421600D03*
X18973790Y20421600D03*
D11*
X16433790Y20421600D03*
X38506390Y11252200D03*
D10*
X38506390Y13792200D03*
X41046390Y11252200D03*
X41046390Y13792200D03*
X43586390Y11252200D03*
X43586390Y13792200D03*
X77444590Y13792200D03*
X77444590Y11252200D03*
X74904590Y13792200D03*
X74904590Y11252200D03*
X72364590Y13792200D03*
D11*
X72364590Y11252200D03*
D13*
X24800000Y-7800000D03*
D14*
X20000000Y-10600000D03*
X20000000Y-4800000D03*
D10*
X65916800Y91744800D03*
D11*
X63376800Y91744800D03*
X87847000Y33705800D03*
D10*
X90387000Y33705800D03*
X87847000Y31165800D03*
X90387000Y31165800D03*
X87847000Y28625800D03*
X90387000Y28625800D03*
X91219330Y-1500000D03*
X88679330Y-1500000D03*
D11*
X86139330Y-1500000D03*
X16980000Y32015000D03*
D10*
X19520000Y32015000D03*
X16980000Y29475000D03*
X19520000Y29475000D03*
X16980000Y26935000D03*
X19520000Y26935000D03*
X49190000Y1300000D03*
D11*
X31410000Y1300000D03*
D10*
X33950000Y1300000D03*
X36490000Y1300000D03*
X39030000Y1300000D03*
X41570000Y1300000D03*
X44110000Y1300000D03*
X46650000Y1300000D03*
X50692990Y96494600D03*
X50692990Y99034600D03*
X53232990Y96494600D03*
X53232990Y99034600D03*
X55772990Y96494600D03*
X55772990Y99034600D03*
X58312990Y96494600D03*
X58312990Y99034600D03*
X60852990Y96494600D03*
X60852990Y99034600D03*
X63392990Y96494600D03*
X63392990Y99034600D03*
X65932990Y96494600D03*
X65932990Y99034600D03*
X68472990Y96494600D03*
D11*
X68472990Y99034600D03*
X45689190Y99034600D03*
D10*
X45689190Y96494600D03*
X43149190Y99034600D03*
X43149190Y96494600D03*
X40609190Y99034600D03*
X40609190Y96494600D03*
X38069190Y99034600D03*
X38069190Y96494600D03*
X35529190Y99034600D03*
X35529190Y96494600D03*
X32989190Y99034600D03*
X32989190Y96494600D03*
X30449190Y99034600D03*
X30449190Y96494600D03*
X27909190Y99034600D03*
X27909190Y96494600D03*
D15*
X84500000Y-6500000D03*
X72725000Y-16500000D03*
X83500000Y-6500000D03*
X72750000Y-15000000D03*
X85500000Y-6500000D03*
X77496220Y-14963590D03*
X86500000Y-6500000D03*
X77496220Y-16469460D03*
X66000000Y5500000D03*
D16*
X60660000Y-14963590D03*
X80500000Y-9536420D03*
X89500000Y-15000000D03*
X89487400Y-9500000D03*
X80660000Y-15067780D03*
X69488400Y-15000000D03*
X69488400Y-9000000D03*
X60500000Y-9413610D03*
X85000000Y-8000000D03*
X66500000Y-9000000D03*
X35750000Y-16750000D03*
X57500000Y-16800000D03*
X48750000Y-16750000D03*
X47000000Y-16750000D03*
X37982000Y-16750000D03*
X27000000Y-16800000D03*
D15*
X30530800Y-9000000D03*
X30750000Y-1500000D03*
X8250000Y2654120D03*
X11772170Y2692730D03*
D16*
X43593770Y52492120D03*
D15*
X84554130Y15100740D03*
X87550000Y15025000D03*
X88679330Y15000730D03*
X89125000Y19525000D03*
X12100590Y12500610D03*
X16700000Y8425000D03*
X13550000Y4400000D03*
X11125000Y7400000D03*
X88993380Y2527420D03*
X87997700Y2527420D03*
X86998520Y2477410D03*
X86000000Y2477410D03*
X53950000Y44200000D03*
X54627670Y44227160D03*
X58700000Y41823870D03*
X58827870Y40551980D03*
X47427310Y41402020D03*
X95952200Y63352200D03*
X96152200Y68401800D03*
X95952200Y67001800D03*
X96052200Y65834400D03*
X15550000Y12450000D03*
X17425000Y13425000D03*
X16275000Y12325000D03*
X13600000Y7175000D03*
X17512500Y5687500D03*
X45500000Y-14250000D03*
X41500000Y-14250000D03*
X39500000Y-14250000D03*
X43500000Y-14250000D03*
X34250000Y-14250000D03*
X30255000Y-14250000D03*
X28250000Y-14250000D03*
X32250000Y-14250000D03*
X52000000Y-14250000D03*
X56000000Y-14250000D03*
X54000000Y-14250000D03*
X50000000Y-14250000D03*
D16*
X8000000Y88514570D03*
X9500000Y88494600D03*
X9500000Y87000000D03*
X8000000Y87019970D03*
X8000000Y91439570D03*
X9500000Y91419600D03*
X9500000Y89925000D03*
X8000000Y89944970D03*
X8000000Y94439570D03*
X9500000Y94419600D03*
X9500000Y92925000D03*
X8000000Y92944970D03*
X8000000Y95944970D03*
X9500000Y95925000D03*
X9500000Y97419600D03*
X8000000Y97439570D03*
D15*
X85575000Y15200000D03*
X86229210Y15700770D03*
X50446300Y77889100D03*
X48440000Y69888100D03*
X47449000Y69888100D03*
X46433100Y69888100D03*
X58453420Y69892820D03*
X54434100Y69888100D03*
X54434100Y67889500D03*
X54434100Y66889500D03*
X54434100Y70904100D03*
X53443500Y69888100D03*
X59453420Y67884780D03*
X53443500Y66889500D03*
X53443500Y70904100D03*
X52452900Y69888100D03*
X53443500Y71894700D03*
X53443500Y65889500D03*
X54434100Y72885300D03*
X52452900Y71894700D03*
X53443500Y72885300D03*
X52452900Y65889500D03*
X53443500Y64889500D03*
X51436900Y69888100D03*
X51436900Y67889500D03*
X51436900Y70904100D03*
X54434100Y73901300D03*
X52452900Y72885300D03*
X53443500Y63889500D03*
X51436900Y65889500D03*
X50446300Y67889500D03*
X62453420Y69892820D03*
X62453420Y67884780D03*
X52452900Y63889500D03*
X50446300Y66889500D03*
X58448700Y74891900D03*
X50446300Y70904100D03*
X54434100Y74891900D03*
X52452900Y73901300D03*
X62448700Y70904100D03*
X51436900Y64889500D03*
X50446300Y71894700D03*
X50446300Y65889500D03*
X59448700Y74891900D03*
X62448700Y71894700D03*
X62453420Y65884780D03*
X51436900Y63889500D03*
X51436900Y73901300D03*
X49455700Y67889500D03*
X50446300Y72885300D03*
X52452900Y62889500D03*
X50446300Y64889500D03*
X60448700Y74891900D03*
X63453420Y69892820D03*
X62453420Y64884770D03*
X58448700Y75882500D03*
X49455700Y70904100D03*
X58453420Y61884780D03*
X63453420Y66884780D03*
X54434100Y61889500D03*
X53443500Y61889500D03*
X63448700Y71894700D03*
X63453420Y65884780D03*
X61448700Y74891900D03*
X61453430Y62884780D03*
X62453420Y63884770D03*
X50446300Y73901300D03*
X51436900Y62889500D03*
X49455700Y72885300D03*
X49455700Y64889500D03*
X60448700Y75882500D03*
X52452900Y61889500D03*
X63448700Y72885300D03*
X64453420Y69892820D03*
X57448700Y76898500D03*
X64453420Y66884780D03*
X64448700Y70904100D03*
X48439700Y66889500D03*
X58448700Y76898500D03*
X48439700Y70904100D03*
X50446300Y62889500D03*
X62448700Y74891900D03*
X62453420Y62884780D03*
X49455700Y63889500D03*
X49455700Y73901300D03*
X51436900Y75882500D03*
X64448700Y71894700D03*
X59453420Y60884780D03*
X64453420Y65884780D03*
X63453420Y63884770D03*
X48439700Y71894700D03*
X48439700Y65889500D03*
X59448700Y76898500D03*
X52452900Y60889500D03*
X64448700Y72885300D03*
X48439700Y72885300D03*
X48439700Y64889500D03*
X49455700Y74891900D03*
X49455700Y62889500D03*
X62448700Y75882500D03*
X57448700Y77889100D03*
X65453430Y69892820D03*
X65453430Y67884780D03*
X47449100Y66889500D03*
X65453430Y66884780D03*
X65448700Y70904100D03*
X61453430Y60884780D03*
X64453420Y63884770D03*
X61448700Y76898500D03*
X64448700Y73901300D03*
X47449100Y71894700D03*
X47449100Y65889500D03*
X59448700Y77889100D03*
X59453420Y59884770D03*
X49455700Y75882500D03*
X47449100Y72885300D03*
X60448700Y77889100D03*
X65448700Y72885300D03*
X60453420Y59884770D03*
X65453430Y64884770D03*
X64448700Y74891900D03*
X62453420Y60884780D03*
X48439700Y74891900D03*
X62448700Y76898500D03*
X66453420Y67884780D03*
X46433100Y67889500D03*
X57448700Y78905100D03*
X47449100Y63889500D03*
X61448700Y77889100D03*
X47449100Y73901300D03*
X58453420Y58884780D03*
X66453420Y66884780D03*
X66448700Y70904100D03*
X65453430Y63884770D03*
X65448700Y73901300D03*
X58448700Y78905100D03*
X46433100Y70904100D03*
X66448700Y71894700D03*
X66453420Y65884780D03*
X46433100Y71894700D03*
X59448700Y78905100D03*
X48439700Y75882500D03*
X63453420Y60884780D03*
X63448700Y76898500D03*
X47449100Y74891900D03*
X66448700Y72885300D03*
X65448700Y74891900D03*
X66453420Y64884770D03*
X60448700Y78905100D03*
X67453420Y69892820D03*
X45442500Y67889500D03*
X66448700Y73901300D03*
X46433100Y63889500D03*
X61448700Y78905100D03*
X46433100Y73901300D03*
X58448700Y79895700D03*
X45442500Y70904100D03*
X67448700Y70904100D03*
X64453420Y60884780D03*
X65448700Y75882500D03*
X63448700Y77889100D03*
X45442500Y71894700D03*
X67448700Y71894700D03*
X67453420Y65884780D03*
X46433100Y74891900D03*
X50446300Y78905100D03*
X46433100Y62889500D03*
X62448700Y78905100D03*
X45442500Y72885300D03*
X60448700Y79895700D03*
X64448700Y77889100D03*
X47449100Y76898500D03*
X48439700Y77889100D03*
X45442500Y73901300D03*
X67448700Y73901300D03*
X66448700Y75882500D03*
X46433100Y75882500D03*
X63448700Y78905100D03*
X67448700Y74891900D03*
X62448700Y79895700D03*
X66448700Y76898500D03*
X46433100Y60889500D03*
X64448700Y78905100D03*
X46433100Y76898500D03*
X45442500Y75882500D03*
X67448700Y75882500D03*
X45442500Y61889500D03*
X66448700Y77889100D03*
X66453420Y59884770D03*
X64448700Y79895700D03*
X45442500Y76898500D03*
X67448700Y76898500D03*
X66448700Y78905100D03*
X45442500Y78905100D03*
X67448700Y78905100D03*
X67448700Y79895700D03*
X51475000Y76875000D03*
X52450000Y76875000D03*
X63453420Y62884780D03*
X75850000Y28075000D03*
X47025000Y36050000D03*
X37750000Y23375000D03*
X24585000Y42815000D03*
X76675000Y31975000D03*
X56100000Y44900000D03*
D16*
X52125000Y28150000D03*
D15*
X65350000Y33525000D03*
X71425000Y37075000D03*
X70500000Y91250000D03*
X92207800Y84632800D03*
X79450000Y21550000D03*
X69113400Y12736600D03*
X51436900Y77889100D03*
D16*
X46125000Y85949990D03*
X40950000Y87500000D03*
X47175000Y87350000D03*
X48700000Y87325000D03*
D15*
X55450100Y75882500D03*
X57448700Y75882500D03*
X72202200Y58097800D03*
X52550000Y56400000D03*
D16*
X55225000Y30175000D03*
D15*
X57453420Y67884780D03*
X58453420Y67884780D03*
X57448700Y70904100D03*
X58453420Y66884780D03*
X55450100Y71894700D03*
X59453420Y69892820D03*
X57453420Y65884780D03*
X58448700Y71894700D03*
X59453420Y66884780D03*
X54434100Y65889500D03*
X59448700Y70904100D03*
X52452900Y67889500D03*
X57448700Y72885300D03*
X55445380Y64884770D03*
X60453420Y69892820D03*
X59453420Y65884780D03*
X52452900Y70904100D03*
X58453420Y64884770D03*
X60453420Y66884780D03*
X59448700Y72885300D03*
X60448700Y71894700D03*
X57453420Y63884770D03*
X61453430Y67884780D03*
X55450100Y73901300D03*
X61448700Y70904100D03*
X51436900Y66889500D03*
X58448700Y73901300D03*
X60453420Y64884770D03*
X59453420Y63884770D03*
X61453430Y65884780D03*
X53443500Y73901300D03*
X59448700Y73901300D03*
X57448700Y74891900D03*
X61448700Y72885300D03*
X62453420Y66884780D03*
X60448700Y73901300D03*
X53443500Y62889500D03*
X61453430Y63884770D03*
X61448700Y73901300D03*
X49455700Y69888100D03*
X57453420Y61884780D03*
X63453420Y67884780D03*
X49455700Y66889500D03*
X63448700Y70904100D03*
X49455700Y71894700D03*
X59448700Y75882500D03*
X59453420Y61884780D03*
X50446300Y63889500D03*
X62448700Y73901300D03*
X60453420Y61884780D03*
X55450100Y76898500D03*
X48439700Y67889500D03*
X54434100Y76898500D03*
X50446300Y74891900D03*
X61448700Y75882500D03*
X61453430Y61884780D03*
X63448700Y73901300D03*
X60453420Y60884780D03*
X60448700Y76898500D03*
X55450100Y77889100D03*
X50446300Y61889500D03*
X63448700Y74891900D03*
X58448700Y77889100D03*
X65453430Y65884780D03*
X63448700Y75882500D03*
X47449100Y64889500D03*
X52452900Y59889500D03*
X64453420Y62884780D03*
X55445380Y58884780D03*
X66453420Y69892820D03*
X55450100Y78905100D03*
X49455700Y60889500D03*
X64448700Y75882500D03*
X48439700Y61889500D03*
X62448700Y77889100D03*
X46433100Y72885300D03*
X45442500Y69888100D03*
X57448700Y79895700D03*
X64448700Y76898500D03*
X48439700Y76898500D03*
X47449100Y75882500D03*
X63453420Y59884770D03*
X59453420Y57884780D03*
X59448700Y79895700D03*
X67448700Y72885300D03*
X48439700Y59889500D03*
X65448700Y76898500D03*
X61448700Y79895700D03*
X49455700Y58889500D03*
X46433100Y61889500D03*
X65448700Y77889100D03*
X48439700Y78905100D03*
X67453420Y61884780D03*
X63448700Y79895700D03*
X65448700Y78905100D03*
X66453420Y58884780D03*
X65448700Y79895700D03*
X45442500Y58889500D03*
X66448700Y79895700D03*
X46431200Y78909800D03*
X56413400Y79959200D03*
D16*
X7250000Y82000000D03*
X8250000Y82000000D03*
X9250000Y82000000D03*
X10250000Y82000000D03*
X11250000Y82000000D03*
X12250000Y82000000D03*
X13250000Y82000000D03*
X14250000Y82000000D03*
X15250000Y82000000D03*
X16250000Y82000000D03*
X17250000Y82000000D03*
X18250000Y82000000D03*
X18250000Y80750000D03*
X17250000Y80750000D03*
X16250000Y80750000D03*
X15250000Y80750000D03*
X14250000Y80750000D03*
X13250000Y80750000D03*
X12250000Y80750000D03*
X11250000Y80750000D03*
X10250000Y80750000D03*
X9250000Y80750000D03*
X8250000Y80750000D03*
X7250000Y80750000D03*
X18250000Y79500000D03*
X17250000Y79500000D03*
X16250000Y79500000D03*
X15250000Y79500000D03*
X14250000Y79500000D03*
X13250000Y79500000D03*
X12250000Y79500000D03*
X11250000Y79500000D03*
X10250000Y79500000D03*
X9250000Y79500000D03*
X8250000Y79500000D03*
X7250000Y79500000D03*
X18250000Y78250000D03*
X17250000Y78250000D03*
X16250000Y78250000D03*
X15250000Y78250000D03*
X14250000Y78250000D03*
X13250000Y78250000D03*
X12250000Y78250000D03*
X11250000Y78250000D03*
X10250000Y78250000D03*
X9250000Y78250000D03*
X8250000Y78250000D03*
X7250000Y78250000D03*
X18250000Y77000000D03*
X17250000Y77000000D03*
X16250000Y77000000D03*
X15250000Y77000000D03*
X14250000Y77000000D03*
X13250000Y77000000D03*
X12250000Y77000000D03*
X11250000Y77000000D03*
X10250000Y77000000D03*
X9250000Y77000000D03*
X8250000Y77000000D03*
X7250000Y77000000D03*
X18250000Y75750000D03*
X17250000Y75750000D03*
X16250000Y75750000D03*
X15250000Y75750000D03*
X14250000Y75750000D03*
X13250000Y75750000D03*
X12250000Y75750000D03*
X11250000Y75750000D03*
X10250000Y75750000D03*
X9250000Y75750000D03*
X8250000Y75750000D03*
X7250000Y75750000D03*
X18250000Y74500000D03*
X17250000Y74500000D03*
X16250000Y74500000D03*
X15250000Y74500000D03*
X14250000Y74500000D03*
X13250000Y74500000D03*
X12250000Y74500000D03*
X11250000Y74500000D03*
X10250000Y74500000D03*
X9250000Y74500000D03*
X8250000Y74500000D03*
X7250000Y74500000D03*
X39025000Y62075000D03*
X41475000Y62025000D03*
X41050000Y54450000D03*
X51300000Y53800000D03*
X55700000Y52700000D03*
X55775000Y55075000D03*
X67950000Y51650000D03*
X69750040Y51650000D03*
X70500000Y64675000D03*
X72750000Y64300000D03*
X76325000Y64300000D03*
X73825000Y63050000D03*
X75325000Y63050000D03*
X70375000Y71950000D03*
X72750000Y72025000D03*
X80400000Y73050000D03*
X78975000Y73025000D03*
X77925000Y74700000D03*
X81450000Y74625000D03*
X70350000Y73825000D03*
X74825000Y74525000D03*
X69275000Y80925000D03*
X68125000Y81450000D03*
X62875000Y82675000D03*
X55350000Y81525000D03*
X55325000Y84000000D03*
X62200000Y86850000D03*
X61000000Y85575000D03*
X54025000Y85750000D03*
X54025000Y83050000D03*
X49725000Y86075000D03*
X52300000Y89200000D03*
X50925000Y89175000D03*
X50925000Y92800000D03*
X52300000Y92775000D03*
X49925000Y91725000D03*
X49950000Y90275000D03*
X39525000Y86450000D03*
X42075010Y80975000D03*
X42200000Y78175000D03*
X42450000Y72675000D03*
X42875000Y66100000D03*
X40350000Y66375000D03*
X38775000Y76600000D03*
X39900000Y76600000D03*
X40375000Y79200000D03*
X38775000Y72825000D03*
X39825000Y72800000D03*
X38750000Y75425000D03*
X39875000Y75375000D03*
X24275000Y99850000D03*
X24275000Y98350000D03*
X24275000Y94850000D03*
X24275000Y93350000D03*
X24275000Y89850000D03*
X24275000Y88250000D03*
X5150000Y53724980D03*
X5100000Y54900000D03*
X6400000Y56700000D03*
X7700000Y56700000D03*
X7800000Y58900000D03*
X6500000Y58900000D03*
X5100000Y61600000D03*
X5100000Y60300000D03*
X12100000Y67900000D03*
X12100000Y66500000D03*
X13800000Y69600000D03*
X32900000Y54000000D03*
X36500000Y54200000D03*
X24800000Y51400000D03*
X24800000Y49900000D03*
X24800000Y47000000D03*
X24800000Y45500000D03*
X7200000Y40150000D03*
X7200000Y42100000D03*
X4150000Y40150000D03*
X4100000Y42100000D03*
X29750000Y24450000D03*
X92300000Y6200000D03*
X86425000Y5075000D03*
X74850000Y8475000D03*
X48275000Y8500000D03*
X26850000Y8975000D03*
X7750000Y17050000D03*
X25275000Y16900000D03*
X43549990Y51350000D03*
X74300000Y73300000D03*
D15*
X94100000Y62000000D03*
X93300000Y57800000D03*
X94600000Y58400000D03*
X94600000Y55400000D03*
X94600000Y52400000D03*
X94676800Y45423200D03*
X94795600Y41495600D03*
X93500000Y38100000D03*
X79000000Y60400000D03*
X77505400Y58894600D03*
X77424400Y56024400D03*
X73556800Y61456800D03*
X72128800Y52128800D03*
X60934600Y50865400D03*
X56588800Y51511200D03*
X50147600Y50052400D03*
X39717600Y50082400D03*
X31235800Y44935800D03*
X29821800Y41978200D03*
X29550000Y38550000D03*
X29417600Y36717600D03*
X27207800Y33007800D03*
X27550000Y32050000D03*
X31123000Y31377000D03*
X32700000Y39300000D03*
X39200000Y21400000D03*
X37800000Y21600000D03*
X40470200Y20729800D03*
D16*
X48450000Y13350000D03*
D15*
X55186200Y15313800D03*
X62400000Y15951200D03*
X67529000Y21971000D03*
X68584000Y23684000D03*
X67792600Y23007400D03*
X66156600Y30243400D03*
X66038400Y35161600D03*
X66285400Y41114600D03*
X65042800Y88442800D03*
X87923600Y60326400D03*
X89416000Y59166000D03*
X89454200Y56045800D03*
X88423600Y53326400D03*
X89487400Y45987400D03*
X89398000Y40648000D03*
X88439200Y39310800D03*
X48439700Y57889500D03*
D16*
X63200000Y52650000D03*
X60100000Y52800000D03*
D15*
X72150000Y55375000D03*
X58000000Y50825000D03*
X81450000Y53375000D03*
X72007600Y41392400D03*
X87800000Y43324000D03*
X43900000Y62875000D03*
X77453780Y45852240D03*
D16*
X66478240Y52027540D03*
X65053170Y52702570D03*
D15*
X72157800Y45042200D03*
X72117400Y38182600D03*
X78810800Y39310800D03*
X84599400Y11125600D03*
X81300000Y11150000D03*
X86131400Y10168600D03*
X89525000Y9425000D03*
X88100000Y10300000D03*
X89600000Y10275000D03*
X93163400Y19813400D03*
X88032000Y24968000D03*
X89032000Y24032000D03*
X83635400Y23039600D03*
X79655400Y18619600D03*
X83546400Y18103600D03*
X79600000Y15597000D03*
X81050000Y14900000D03*
X74225000Y16700000D03*
X12875000Y27375000D03*
X13000000Y23050000D03*
X12625000Y21175000D03*
X26600000Y24550000D03*
X51816000Y12559000D03*
X36000000Y15825000D03*
X19889200Y3689200D03*
X20750000Y7697600D03*
X21500000Y9225000D03*
X20625000Y11228200D03*
X22325000Y11375000D03*
X20686390Y12336400D03*
X8564000Y6886000D03*
X13575000Y2850000D03*
X53725000Y11975000D03*
X17225000Y4500000D03*
X17170000Y3000000D03*
X12717200Y15782800D03*
X73500000Y95250000D03*
X73500000Y90000000D03*
X73500000Y88000000D03*
X73500000Y82750000D03*
X77500000Y78750000D03*
X82250000Y78750000D03*
X85000000Y78750000D03*
X90000000Y78750000D03*
X94000000Y82750000D03*
X93954600Y92647600D03*
X90000000Y99250000D03*
X85000000Y99250000D03*
X82500000Y99250000D03*
X77500000Y99250000D03*
X76500000Y96250000D03*
X80000000Y96250000D03*
X83250000Y96250000D03*
X76500000Y93500000D03*
X80000000Y93500000D03*
X83250000Y93500000D03*
X76500000Y90750000D03*
X80000000Y90750000D03*
X76500000Y81500000D03*
X87000000Y83250000D03*
X92000000Y81250000D03*
X92250000Y96250000D03*
X94000000Y95250000D03*
X94000000Y90000000D03*
X94000000Y88000000D03*
X87000000Y96250000D03*
X70250000Y92500000D03*
X70250000Y98250000D03*
X70750000Y96338800D03*
X71500000Y85250000D03*
X71500000Y84000000D03*
X27200000Y84700000D03*
X27500000Y78100000D03*
X26831200Y71831200D03*
X28194000Y71431000D03*
X26050000Y74900000D03*
D16*
X25525000Y79000000D03*
X31525000Y82500000D03*
X32000000Y94000000D03*
X37000000Y94000000D03*
X44250000Y94000000D03*
D15*
X35375000Y81625000D03*
X30169400Y76344400D03*
X31580600Y76344400D03*
X30200000Y77300000D03*
X23225000Y63625000D03*
X23617800Y65082200D03*
X14833600Y48408600D03*
X14475000Y40625000D03*
X16217800Y41232200D03*
X32350000Y77375000D03*
X51970900Y81785740D03*
X53467000Y79925800D03*
X52451000Y74887200D03*
X51460400Y71890000D03*
X45448600Y66878200D03*
X68875000Y64900000D03*
X22150000Y48850000D03*
X21680000Y41545000D03*
X20125000Y40400000D03*
X40125000Y51675000D03*
X31823000Y49123000D03*
X50000000Y29475000D03*
X53275000Y40975000D03*
X76725000Y29075000D03*
X94239400Y72110600D03*
X91325000Y74000000D03*
D16*
X48450000Y55000000D03*
D15*
X44602400Y76352400D03*
D16*
X42875000Y70675000D03*
D15*
X68300000Y67775000D03*
D16*
X35400000Y65200000D03*
X31500000Y65200000D03*
X34100000Y65200000D03*
X31550000Y63475000D03*
X70800000Y53025000D03*
D15*
X35925000Y59100000D03*
D16*
X34425000Y52400000D03*
X42100000Y52675000D03*
D15*
X32600000Y29100000D03*
X44550000Y24225000D03*
X80125000Y29750000D03*
X82346800Y32003200D03*
X68264800Y30810200D03*
X71100000Y31975000D03*
X71625000Y29750000D03*
X73050000Y29800000D03*
D16*
X43725000Y76800000D03*
D15*
X70225000Y88750000D03*
X70144800Y89419800D03*
X70125000Y90075000D03*
X70225000Y82350000D03*
X15900780Y40426970D03*
D16*
X24617800Y82092800D03*
D15*
X67550000Y35675000D03*
X77503780Y40626980D03*
X78850000Y43750000D03*
X37875000Y16575000D03*
X42375000Y45025000D03*
X10850000Y35875000D03*
X16579200Y11375000D03*
X80350000Y10525000D03*
X85104150Y7750380D03*
X21076030Y4675230D03*
X25051220Y6675330D03*
X88135400Y15286200D03*
X84135120Y20567680D03*
D17*
X11745800Y41747200D03*
X11745800Y42347200D03*
X11745800Y42947200D03*
X11145800Y42947200D03*
X11145800Y42347200D03*
X11145800Y41747200D03*
X9945800Y41747200D03*
X9945800Y42347200D03*
X9945800Y42947200D03*
X10545800Y42947190D03*
X10545800Y42347190D03*
X10545800Y41747200D03*
X35758400Y75905600D03*
X35758400Y75305610D03*
X35758400Y74705610D03*
X36358400Y74705600D03*
X36358400Y75305600D03*
X36358400Y75905600D03*
X35158400Y75905600D03*
X35158400Y75305600D03*
X35158400Y74705600D03*
X34558400Y74705600D03*
X34558400Y75305600D03*
X34558400Y75905600D03*
X23509200Y54455200D03*
X23509200Y55055200D03*
X23509200Y55655200D03*
X22909200Y55655200D03*
X22909200Y55055200D03*
X22909200Y54455200D03*
X24109200Y54455210D03*
X24109200Y55055200D03*
X24109200Y55655200D03*
X24709200Y55655200D03*
X24709200Y55055200D03*
X24709200Y54455200D03*
X23509200Y56255200D03*
X23509200Y56855200D03*
X23509200Y57455200D03*
X22909200Y57455200D03*
X22909200Y56855200D03*
X22909200Y56255200D03*
X24109200Y56255210D03*
X24109200Y56855200D03*
X24109200Y57455200D03*
X24709200Y57455200D03*
X24709200Y56855200D03*
X24709200Y56255200D03*
X29234200Y59830200D03*
X29234200Y60430200D03*
X28634200Y60430200D03*
X28634200Y59830200D03*
X29834200Y59830200D03*
X29834200Y60430200D03*
X30434200Y60430200D03*
X30434200Y59830200D03*
X24709200Y58055210D03*
X24709200Y58655200D03*
X24709200Y59255200D03*
X24109200Y59255200D03*
X24109200Y58655200D03*
X24109200Y58055210D03*
X22909200Y58055210D03*
X22909200Y58655200D03*
X22909200Y59255200D03*
X23509200Y59255200D03*
X23509200Y58655200D03*
X23509200Y58055200D03*
D15*
X61000000Y8475000D03*
X61000000Y2000000D03*
X59500000Y5500000D03*
X48500000Y34425000D03*
X55550000Y40375000D03*
X45925000Y33475000D03*
X37982000Y42621260D03*
X66313640Y44843000D03*
X46000000Y41875000D03*
X67250000Y41600000D03*
X48002340Y31126520D03*
X64800000Y44350000D03*
X61975000Y35600000D03*
X61725000Y44875000D03*
X42025000Y37425000D03*
X61850000Y37250000D03*
X45975000Y14125000D03*
X41900000Y8075000D03*
X47352310Y9725470D03*
X46925000Y8700000D03*
X45800000Y10100000D03*
X44727180Y8725430D03*
X43450000Y8750000D03*
X44625000Y9925000D03*
X53925000Y36600000D03*
X54125000Y35950000D03*
X50427460Y31451530D03*
X50925000Y31000000D03*
X52675000Y21200000D03*
X56050000Y22150000D03*
X56825000Y21925000D03*
X57300000Y21400000D03*
X58175000Y43325000D03*
X56875000Y42700000D03*
X54402650Y40626980D03*
X53752660Y40497330D03*
X47449100Y78905100D03*
X50975000Y41000000D03*
X39025000Y43400000D03*
X47449100Y79895700D03*
X38126860Y43852140D03*
X47902340Y43877140D03*
X49455700Y79895700D03*
X39575000Y42900000D03*
X50152450Y41002000D03*
X48439700Y79895700D03*
X50650000Y40400000D03*
X39650000Y42225000D03*
X24000000Y9200000D03*
X30276480Y19475950D03*
X38650000Y25150000D03*
X45925000Y31650000D03*
X30026470Y9425460D03*
X56000000Y36425000D03*
X37800000Y25325000D03*
X45900000Y32375000D03*
X29238280Y9450000D03*
X55500000Y36950000D03*
X55452710Y19425950D03*
X44250000Y16550000D03*
X57975000Y29350000D03*
X26876310Y8025390D03*
X69175000Y32800000D03*
X57777820Y28551390D03*
X76125000Y16750000D03*
X51925000Y37300000D03*
X41400000Y19300000D03*
X48439700Y60889500D03*
X76050000Y83275000D03*
X56450000Y66925000D03*
X50446300Y59889500D03*
X90000000Y51300000D03*
X35400000Y27300000D03*
X72900000Y49000000D03*
X51436900Y57889500D03*
X90500000Y51900000D03*
X76700000Y51800000D03*
X39300000Y28500000D03*
X51436900Y58889500D03*
X76100000Y52300000D03*
X38500000Y28900000D03*
X89150000Y52350000D03*
X84625000Y52575000D03*
X51436900Y59889500D03*
X78103810Y54077640D03*
X32800000Y30200000D03*
X50446300Y57889500D03*
X38100000Y31400000D03*
X82654030Y52852580D03*
X77228770Y53902630D03*
X54434100Y58889500D03*
X39600000Y29500000D03*
X88504320Y50952490D03*
X78603840Y50952490D03*
X78290380Y50290380D03*
X90200000Y50300000D03*
X54434100Y57889500D03*
X45700000Y45900000D03*
X47900000Y49700000D03*
X52452900Y58889500D03*
X77600000Y50500000D03*
X88225000Y49875000D03*
X47000000Y48500000D03*
X52452900Y57889500D03*
X89300000Y49500000D03*
X76253790Y50864570D03*
X47499900Y48999900D03*
X54434100Y59889500D03*
X84925000Y49125000D03*
X81825000Y49075000D03*
X48000000Y48500000D03*
X53443500Y58889500D03*
X82554030Y50952490D03*
X69275000Y48425000D03*
X90600000Y49200000D03*
X53443500Y59889500D03*
X42925000Y45600000D03*
X77425000Y48400000D03*
X58453420Y57884780D03*
X89800000Y47700000D03*
X81850000Y47225000D03*
X61450000Y34300000D03*
X66453420Y61884780D03*
X64625000Y32800000D03*
X76700000Y49500000D03*
X55445380Y57884780D03*
X90799820Y49899900D03*
X60450000Y32950000D03*
X60453420Y57884780D03*
X94300000Y50300000D03*
X78903850Y46677280D03*
X61975000Y31828260D03*
X59453420Y58884780D03*
X61900000Y42300000D03*
X60453420Y58884780D03*
X62000000Y41600000D03*
X61453430Y59884770D03*
X64553150Y42025000D03*
X46433100Y57889500D03*
X35600000Y20400000D03*
X45442500Y57889500D03*
X35600000Y21100000D03*
X36800000Y21300000D03*
X47449100Y57889500D03*
X46433100Y59889500D03*
X35500000Y22900000D03*
X45442500Y59889500D03*
X32700000Y19800000D03*
X48900000Y19800000D03*
X49455700Y57889500D03*
X48439700Y58889500D03*
X48100000Y19650000D03*
X57453420Y60884780D03*
X59350000Y41625000D03*
X61453430Y57884780D03*
X61825000Y39975000D03*
X90425000Y39775000D03*
X77100000Y40075000D03*
X62375000Y57875000D03*
X76150000Y40800000D03*
X65675000Y39200000D03*
X90625000Y40875000D03*
X90879430Y41527030D03*
X67453420Y62884780D03*
X76400000Y41900000D03*
X59475000Y26725000D03*
X66453420Y62884780D03*
X90675000Y42300000D03*
X71675000Y39275000D03*
X58900000Y26050000D03*
X57453420Y57884780D03*
X90425000Y43000000D03*
X76953760Y43102100D03*
X55975000Y44200000D03*
X57440220Y58884780D03*
X53025000Y44200000D03*
X90525000Y43725000D03*
X76325000Y43875000D03*
X57453420Y59884770D03*
X50377460Y45877240D03*
X83175000Y44050000D03*
X55445380Y59884770D03*
X52150000Y48900000D03*
X83950000Y44325000D03*
X49455700Y59889500D03*
X51875000Y45950000D03*
X84850000Y43475000D03*
X46433100Y58889500D03*
X52300000Y44900000D03*
X89054350Y43475000D03*
X69525000Y43475000D03*
X47449100Y60889500D03*
X52975000Y45400000D03*
X81711360Y43656990D03*
X89600000Y42900000D03*
X52452900Y66889500D03*
X90025000Y41925000D03*
X82400000Y41600000D03*
X47449100Y62889500D03*
X76250000Y44850000D03*
X83375000Y40650000D03*
X67453420Y58884780D03*
X85000000Y41450000D03*
X67025000Y44750000D03*
X67453420Y57884780D03*
X81750000Y40100000D03*
X66453420Y57884780D03*
X90500000Y38900000D03*
X77725000Y39625000D03*
X76900000Y37425000D03*
X65453430Y57884780D03*
X90575000Y54450000D03*
X76200000Y54575000D03*
X65453430Y59884770D03*
X84475000Y55075000D03*
X66900000Y50025000D03*
X65453430Y58884780D03*
X84075000Y56550000D03*
X66128230Y49652420D03*
X63453420Y58884780D03*
X84754140Y56752770D03*
X67353290Y54652670D03*
X90725000Y57325000D03*
X63449880Y57874880D03*
X76250000Y57425000D03*
X66875000Y53375000D03*
X76400000Y58925000D03*
X64900000Y21769670D03*
X90404410Y58327850D03*
X64453420Y59884770D03*
X69375000Y61325000D03*
X64775000Y20975000D03*
X84575000Y59500000D03*
X71175000Y58850000D03*
X64453420Y58884780D03*
X84879140Y60477950D03*
X64453420Y61884780D03*
X62003030Y21576050D03*
X82375000Y59900000D03*
X88600000Y60075000D03*
X74300000Y61425000D03*
X58453420Y60884780D03*
X61925000Y23600000D03*
X83225000Y58875000D03*
X60825000Y21075000D03*
X64453420Y64884770D03*
X83525000Y62675000D03*
X60500000Y22300000D03*
X84100000Y58200000D03*
X74875000Y61050000D03*
X55445380Y60884780D03*
X90000000Y57807000D03*
X60125000Y23425000D03*
X53443500Y60889500D03*
X84750000Y57725010D03*
X86400000Y64325000D03*
X47449100Y61889500D03*
X82175000Y56100000D03*
X84350000Y69125000D03*
X32068820Y16075000D03*
X49455700Y61889500D03*
X78900000Y55800000D03*
X88450000Y64375000D03*
X31728800Y16775000D03*
X31175000Y23525000D03*
X46433100Y64889500D03*
X76875000Y55525000D03*
X87900000Y55425000D03*
X76428730Y56027730D03*
X30050000Y23275000D03*
X46433100Y65889500D03*
X90100000Y53450000D03*
X93675000Y47300000D03*
X76471760Y46265120D03*
X52200000Y23550000D03*
X90137400Y45987410D03*
X78450000Y47850000D03*
X53725000Y23550000D03*
X85279160Y53302600D03*
X69700000Y38825000D03*
X53700000Y25400000D03*
X78875000Y53650000D03*
X89325000Y53450000D03*
X53900000Y26100000D03*
X63453420Y61884780D03*
X57200000Y30075000D03*
X50446300Y60889500D03*
X51436900Y60889500D03*
X62453420Y59884770D03*
X66575000Y54675000D03*
X57700000Y31950000D03*
X66175000Y38200000D03*
X62453420Y58884780D03*
X61653010Y53252600D03*
X64950000Y20225000D03*
X66725000Y39050000D03*
X72950000Y47350000D03*
X42150000Y38425000D03*
X64875000Y27800000D03*
X53350000Y21800000D03*
X88054300Y48177350D03*
X76900000Y47950000D03*
X71950000Y43425000D03*
X82825000Y47700000D03*
X67225000Y39650000D03*
X51377510Y21301040D03*
X93885400Y48810400D03*
X78300000Y37325000D03*
X54350000Y24800000D03*
X38975000Y36175000D03*
X38125000Y37650000D03*
X49750000Y22375000D03*
X70228430Y42252060D03*
X76228260Y48175000D03*
X90575000Y48525000D03*
X44625000Y45775000D03*
X73450000Y46875000D03*
X90775000Y46775000D03*
X48439700Y63889500D03*
X25800000Y31300000D03*
X25775000Y29575000D03*
X45442500Y64889500D03*
X45442500Y65889500D03*
X55441360Y69896840D03*
X57448700Y73901300D03*
X22100000Y26750000D03*
X78275000Y4000000D03*
X50250000Y20900000D03*
X26900000Y48675000D03*
X39400000Y45425000D03*
X49455700Y78905100D03*
X70450000Y99125000D03*
X50446300Y76898500D03*
X65400000Y82800000D03*
X53443500Y75882500D03*
X54434100Y75882500D03*
X55448200Y79959200D03*
X54457600Y79959200D03*
X54434100Y77889100D03*
X54434100Y78905100D03*
X52452900Y79895700D03*
X52452900Y78905100D03*
X51436900Y79895700D03*
X52452900Y77889100D03*
X51436900Y78905100D03*
X53443500Y76898500D03*
X49455700Y77889100D03*
X46433100Y79895700D03*
X47449100Y77889100D03*
X45442500Y77889100D03*
X65453430Y62884780D03*
X69225000Y63425000D03*
X67453420Y63884770D03*
X45442500Y60889500D03*
X49075000Y42875000D03*
X77950000Y8400000D03*
X47449100Y58889500D03*
X51900000Y20850000D03*
X77975000Y7550000D03*
X55445380Y62884780D03*
X71409770Y66809780D03*
X88175000Y66575000D03*
X53443500Y74891900D03*
X65024990Y37656640D03*
X51436900Y74891900D03*
X61850000Y36375000D03*
X50446300Y75882500D03*
X52950000Y19675000D03*
X53443500Y77889100D03*
X52450000Y16375000D03*
X55445380Y61884780D03*
X71775000Y65350000D03*
X54434100Y64889500D03*
X68475000Y68975000D03*
X54434100Y62889500D03*
X72050000Y67575000D03*
X54434100Y63889500D03*
X69675000Y68889000D03*
X57453420Y62884780D03*
X58453420Y62884780D03*
X59453420Y62884780D03*
X55445380Y66884780D03*
X32900000Y47275000D03*
X42025000Y41900000D03*
X38275000Y34225000D03*
X41850000Y40650000D03*
X39275000Y33925000D03*
X42500000Y39150000D03*
X36000000Y40100000D03*
X39525000Y39475000D03*
X42575000Y40175000D03*
X49475000Y32650000D03*
X26475000Y26525000D03*
X55450100Y70904100D03*
X58448700Y70904100D03*
X55445380Y65884780D03*
X55450100Y72885300D03*
X57453420Y64884770D03*
X55424700Y67889500D03*
D16*
X47250000Y81625000D03*
X48650000Y81625000D03*
X46075000Y83150000D03*
X44000000Y73725000D03*
X51100000Y84125000D03*
X51100000Y86825000D03*
X46025000Y81650000D03*
X57802820Y55102690D03*
D15*
X57453420Y69892820D03*
X57453420Y66884780D03*
X57448700Y71894700D03*
X58453420Y65884780D03*
X60453420Y67884780D03*
X59448700Y71894700D03*
X58448700Y72885300D03*
X60448700Y70904100D03*
X59453420Y64884770D03*
X60453420Y65884780D03*
X61453430Y69892820D03*
X58453420Y63884770D03*
X61453430Y66884780D03*
X60448700Y72885300D03*
X61448700Y71894700D03*
X60453420Y63884770D03*
X61453430Y64884770D03*
D16*
X41825000Y69600000D03*
X40350000Y68100000D03*
X42800000Y68100000D03*
X43600000Y58924980D03*
X44675000Y56600000D03*
X57750000Y52725000D03*
X61225000Y56125000D03*
X75250000Y68550000D03*
X73875000Y68550000D03*
X76275000Y67375000D03*
X69425000Y67675000D03*
X77900000Y68825000D03*
X78900000Y66600000D03*
X80500000Y66575000D03*
X80350000Y69900000D03*
X70375000Y69975000D03*
X60900000Y82650000D03*
X59300000Y81450000D03*
X59275000Y84025000D03*
X57475000Y92825000D03*
X58800000Y92825000D03*
X59825000Y91775000D03*
X59850000Y90200000D03*
X57425000Y89175000D03*
X58850000Y89150000D03*
X72725000Y66950000D03*
X42050000Y58924980D03*
X72753550Y70078420D03*
D15*
X15050000Y14900000D03*
X38050000Y41400000D03*
X24575000Y38700000D03*
X32476580Y48952390D03*
X85400000Y19775000D03*
X86225000Y20075000D03*
X84600000Y20050000D03*
X93108400Y17433400D03*
X64653150Y26376290D03*
X90600000Y14525000D03*
X93800000Y15125000D03*
X64279110Y25785200D03*
X92250000Y21500000D03*
X93218000Y12718000D03*
X93968000Y11782000D03*
X91968000Y25032000D03*
X91032000Y24032000D03*
X83006000Y23844000D03*
X79725000Y19619600D03*
X79578000Y16597000D03*
X30000000Y5675000D03*
X32000000Y5625000D03*
X79171560Y19622870D03*
X84229700Y19084940D03*
X77173070Y15605840D03*
X38100000Y40550000D03*
X25275000Y37975000D03*
X39225000Y40200000D03*
X18025000Y17650000D03*
X6571600Y14071600D03*
X7773400Y13176600D03*
X7621000Y6204000D03*
X12500000Y2800000D03*
X19069200Y14919200D03*
X27351200Y17426200D03*
X14940800Y3590800D03*
X26450000Y16400000D03*
X20638600Y13336400D03*
X39550000Y4800000D03*
X12516240Y2253300D03*
D16*
X39425000Y7402400D03*
D15*
X31825000Y52450000D03*
X31750000Y51625000D03*
X38050000Y49123000D03*
X34075000Y50600000D03*
X69575000Y27000000D03*
X58275000Y28129350D03*
X70525000Y16775000D03*
X87847000Y37378000D03*
X52775000Y37300000D03*
X53700000Y37275000D03*
X69175000Y17575000D03*
X75750000Y21675000D03*
X77200000Y20100000D03*
X77250000Y16700000D03*
X51050000Y37275000D03*
X69425000Y28025000D03*
X59825000Y27350000D03*
X70300000Y20875000D03*
X54527660Y36951800D03*
X69675000Y33775000D03*
X70925000Y33625000D03*
X66453420Y60884780D03*
X67453420Y59884770D03*
X70775000Y27225000D03*
X67453420Y60884780D03*
X74725000Y33925000D03*
X65453430Y61884780D03*
X73225000Y33325000D03*
X75475000Y27050000D03*
X73538600Y23825000D03*
X75600000Y33625000D03*
X73950000Y37175000D03*
X75996800Y24175000D03*
X29802200Y63725000D03*
X32750000Y58650000D03*
X16825000Y37525000D03*
X82200000Y3150000D03*
X24250000Y80750000D03*
X32975000Y22325000D03*
X45442500Y62889500D03*
X32000000Y37000000D03*
X30300000Y73075000D03*
X10498200Y52700000D03*
X23436600Y62069330D03*
X13610600Y43360600D03*
X70500000Y88000000D03*
X24700000Y84700000D03*
X31600000Y73100000D03*
X20750000Y62575000D03*
X13698400Y44551600D03*
X26825000Y44225000D03*
X26950000Y42800000D03*
X26801310Y41552030D03*
X42400000Y31500000D03*
X27700000Y30675000D03*
X60125000Y19500000D03*
X61450000Y24600000D03*
X16375000Y9250000D03*
X16375000Y10050000D03*
X82797720Y5925000D03*
X13950000Y9950000D03*
X37125000Y71750000D03*
X18675000Y63625000D03*
X20450000Y64900000D03*
X12090000Y50165000D03*
X13425000Y40450000D03*
X9425000Y45425000D03*
X32575000Y78100000D03*
D16*
X43750000Y87525000D03*
X45125000Y86700080D03*
D15*
X50446300Y79895700D03*
D16*
X62075000Y55075000D03*
D15*
X53443500Y67889500D03*
X54434100Y71894700D03*
X55445380Y63884770D03*
X52452900Y64889500D03*
X50446300Y69888100D03*
X55450100Y74891900D03*
X51436900Y72885300D03*
X62448700Y72885300D03*
X60453420Y62884780D03*
X49455700Y65889500D03*
X52452900Y75882500D03*
X63453420Y64884770D03*
X64453420Y67884780D03*
X51436900Y61889500D03*
X62453420Y61884780D03*
X47449100Y70904100D03*
X58453420Y59884770D03*
X48439700Y73901300D03*
X65448700Y71894700D03*
X48439700Y62889500D03*
X46433100Y66889500D03*
X53443500Y78905100D03*
X49455700Y76898500D03*
X61453430Y58884780D03*
X66453420Y63884770D03*
X67453420Y66884780D03*
X53443500Y57889500D03*
X50446300Y58889500D03*
X66448700Y74891900D03*
X65453430Y60884780D03*
X45442500Y63889500D03*
X45442500Y74891900D03*
X47449100Y59889500D03*
X46433100Y77889100D03*
X64453420Y57884780D03*
X67448700Y77889100D03*
D16*
X41500000Y64075000D03*
X53300000Y53725000D03*
X68550000Y57175000D03*
X66600000Y56100000D03*
X71275000Y77225000D03*
X74875000Y76800000D03*
X64175000Y81475000D03*
X64950000Y86925000D03*
X64025000Y84325000D03*
X43800000Y80975000D03*
X43825000Y78175000D03*
X41600000Y75825000D03*
X9625000Y34575000D03*
X10575000Y33600000D03*
X10625000Y32525000D03*
X9650000Y31725000D03*
X29725000Y28700000D03*
X47650000Y51350000D03*
X70400000Y75500000D03*
D15*
X94600000Y60500000D03*
X94600000Y59377200D03*
X94700000Y56400000D03*
X94600000Y53400000D03*
X94600000Y46400000D03*
X94695600Y40495600D03*
X94692000Y39108000D03*
X77405400Y57894600D03*
X77375600Y55024400D03*
X72202200Y59097800D03*
X72300000Y60500000D03*
X72200000Y56200000D03*
X72128800Y53128800D03*
X51147600Y50052400D03*
X31335800Y45635800D03*
X31321800Y40978200D03*
X29721800Y40978200D03*
X31223000Y32377000D03*
X38000000Y19400000D03*
X38700000Y19300000D03*
D16*
X47050000Y13350000D03*
D15*
X54186200Y15286200D03*
X60841000Y15341000D03*
X66156600Y29243400D03*
X66061600Y36161600D03*
X66285400Y40114600D03*
X68080000Y87820000D03*
X66700400Y89099600D03*
X89416000Y58166000D03*
X89454200Y55045800D03*
X89487400Y44987400D03*
D16*
X70600000Y56124990D03*
X69625000Y57250000D03*
X46425000Y54550000D03*
D15*
X54434100Y60889500D03*
X57975000Y49025000D03*
X61675000Y48950000D03*
X38717600Y50082400D03*
X72107600Y40392400D03*
X72825000Y39700000D03*
X77453780Y44852190D03*
X89379360Y41627030D03*
X72042200Y46042200D03*
X91291800Y13633200D03*
X12850000Y31750000D03*
X18009600Y15059600D03*
X80695800Y80725000D03*
X47455200Y67894200D03*
X38075000Y50975000D03*
X26838600Y52211400D03*
X26940200Y49734800D03*
X42025000Y28825000D03*
X93052200Y68402200D03*
X93052200Y65827200D03*
X93127200Y63327200D03*
X79400000Y8700000D03*
X83704080Y71053470D03*
X44552170Y60377950D03*
D16*
X39000000Y64825000D03*
D15*
X36975000Y61225000D03*
X34150000Y67650000D03*
X31850000Y43975000D03*
X32175000Y42675000D03*
X31726550Y38751890D03*
X31500000Y30500000D03*
X48050000Y30175000D03*
X50225000Y26675000D03*
X29595000Y45355000D03*
X65800000Y21275000D03*
X77572600Y41727400D03*
X77290800Y86090800D03*
D16*
X70450000Y78175000D03*
D15*
X77048600Y76920600D03*
X81207400Y77225000D03*
D18*
X56100000Y44900000D02*
X56100000Y44955420D01*
D19*
X75850000Y28075000D02*
X75850000Y31150000D01*
X75850000Y31150000D02*
X76675000Y31975000D01*
D20*
X85104150Y7733250D02*
X85104150Y7750380D01*
D21*
X47550000Y33475000D02*
X48500000Y34425000D01*
X45925000Y33475000D02*
X47550000Y33475000D01*
D19*
X66250000Y44825000D02*
X66275000Y44825000D01*
X66250000Y44825000D02*
X66268000Y44843000D01*
X66268000Y44843000D02*
X66313640Y44843000D01*
X66275000Y44825000D02*
X67253280Y43846720D01*
X67253280Y41600000D02*
X67253280Y43846720D01*
X64800000Y43975000D02*
X64800000Y44350000D01*
X64800000Y43975000D02*
X65575000Y43200000D01*
X65575000Y41650000D02*
X65575000Y43200000D01*
X62875000Y38950000D02*
X65575000Y41650000D01*
X62875000Y36500000D02*
X62875000Y38950000D01*
X62150000Y35775000D02*
X62875000Y36500000D01*
X89005640Y2500000D02*
X90005640Y3500000D01*
X90005640Y3500000D02*
X94494200Y3500000D01*
X94494200Y3500000D02*
X96000000Y5005810D01*
X96000000Y5005810D02*
X96000000Y15572290D01*
X92993690Y18578600D02*
X96000000Y15572290D01*
X83349650Y18578600D02*
X92993690Y18578600D01*
X82915650Y18144600D02*
X83349650Y18578600D01*
X75667900Y18144600D02*
X82915650Y18144600D01*
X56425000Y23900000D02*
X61425000Y23900000D01*
X52675000Y21200000D02*
X53725000Y21200000D01*
X53725000Y21200000D02*
X56425000Y23900000D01*
X66887500Y26925000D02*
X75667900Y18144600D01*
X61425000Y23900000D02*
X64450000Y26925000D01*
X64450000Y26925000D02*
X66887500Y26925000D01*
X88000000Y2500000D02*
X89500000Y4000000D01*
X89500000Y4000000D02*
X93973040Y4000000D01*
X93973040Y4000000D02*
X95473040Y5500000D01*
X95473040Y5500000D02*
X95473040Y12572610D01*
X91869890Y16175770D02*
X95473040Y12572610D01*
X86032460Y16175770D02*
X91869890Y16175770D01*
X85956690Y16100000D02*
X86032460Y16175770D01*
X56450000Y22550000D02*
X58275000Y22550000D01*
X56050000Y22150000D02*
X56450000Y22550000D01*
X58275000Y22550000D02*
X64725000Y16100000D01*
X64725000Y16100000D02*
X85956690Y16100000D01*
X87000000Y2494870D02*
X89005130Y4500000D01*
X89005130Y4500000D02*
X93545100Y4500000D01*
X93545100Y4500000D02*
X95000000Y5954900D01*
X89800000Y15250000D02*
X91836000Y15250000D01*
X95000000Y5954900D02*
X95000000Y12086000D01*
X91836000Y15250000D02*
X95000000Y12086000D01*
X88800000Y14250000D02*
X89800000Y15250000D01*
X80125000Y14250000D02*
X88800000Y14250000D01*
X79253000Y15122000D02*
X80125000Y14250000D01*
X56825000Y21925000D02*
X57750000Y21925000D01*
X57750000Y21925000D02*
X59700000Y19975000D01*
X59700000Y19975000D02*
X60321750Y19975000D01*
X60321750Y19975000D02*
X65174750Y15122000D01*
X65174750Y15122000D02*
X79253000Y15122000D01*
X86000000Y2477410D02*
X88522590Y5000000D01*
X92936160Y5000000D02*
X94500000Y6563840D01*
X88522590Y5000000D02*
X92936160Y5000000D01*
X94500000Y6563840D02*
X94500000Y10225390D01*
X92482400Y12243000D02*
X94500000Y10225390D01*
X74568600Y12243000D02*
X92482400Y12243000D01*
X67503250Y13675000D02*
X68916650Y12261600D01*
X57300000Y20379450D02*
X64004450Y13675000D01*
X57300000Y20379450D02*
X57300000Y21400000D01*
X64004450Y13675000D02*
X67503250Y13675000D01*
X74550000Y12261600D02*
X74568600Y12243000D01*
X68916650Y12261600D02*
X74550000Y12261600D01*
X30026470Y9425460D02*
X30026470Y9548540D01*
D21*
X47957700Y58716450D02*
X47957700Y59089150D01*
X47957700Y59089150D02*
X48276050Y59407500D01*
X44081730Y58371500D02*
X47612750Y58371500D01*
X47612750Y58371500D02*
X47957700Y58716450D01*
X48276050Y59407500D02*
X49657500Y59407500D01*
X49657500Y59407500D02*
X50139500Y59889500D01*
X50139500Y59889500D02*
X50446300Y59889500D01*
X76482010Y51318000D02*
X76899650Y51318000D01*
X76418110Y51381900D02*
X76482010Y51318000D01*
X88252180Y51382000D02*
X88304670Y51434490D01*
X82301890Y51382000D02*
X82354380Y51434490D01*
X82354380Y51434490D02*
X82753680Y51434490D01*
X82753680Y51434490D02*
X82806160Y51382000D01*
X82806160Y51382000D02*
X88252180Y51382000D01*
X78803480Y51434490D02*
X78855970Y51382000D01*
X78855970Y51382000D02*
X82301890Y51382000D01*
X77016140Y51434490D02*
X78803480Y51434490D01*
X88304670Y51434490D02*
X89865510Y51434490D01*
X76899650Y51318000D02*
X77016140Y51434490D01*
X89865510Y51434490D02*
X90000000Y51300000D01*
X43903200Y58192980D02*
X44081730Y58371500D01*
X34275000Y47225000D02*
X35157000Y48107010D01*
X34275000Y28425000D02*
X34275000Y47225000D01*
X34275000Y28425000D02*
X35400000Y27300000D01*
X72900000Y49000000D02*
X73250000Y49000000D01*
X73250000Y49000000D02*
X75631900Y51381900D01*
X75631900Y51381900D02*
X76418110Y51381900D01*
X35157000Y51046810D02*
X42303170Y58192980D01*
X42303170Y58192980D02*
X43903200Y58192980D01*
X35157000Y48107010D02*
X35157000Y51046810D01*
X76721000Y51779000D02*
X84954710Y51779000D01*
X76700000Y51800000D02*
X76721000Y51779000D01*
X84975710Y51800000D02*
X90400000Y51800000D01*
X84954710Y51779000D02*
X84975710Y51800000D01*
X46110200Y48235200D02*
X46110200Y51629270D01*
X90400000Y51800000D02*
X90500000Y51900000D01*
X51400000Y57852600D02*
X51436900Y57889500D01*
X39000000Y28800000D02*
X39300000Y28500000D01*
X39000000Y28800000D02*
X39000000Y29975000D01*
X39000000Y29975000D02*
X45175000Y36150000D01*
X45175000Y36150000D02*
X45175000Y47300000D01*
X45175000Y47300000D02*
X46110200Y48235200D01*
X46110200Y51629270D02*
X48748940Y54268000D01*
X51400000Y56914790D02*
X51400000Y57852600D01*
X48748940Y54268000D02*
X48753200Y54268000D01*
X48753200Y54268000D02*
X51400000Y56914790D01*
X84824650Y52093000D02*
X85031650Y52300000D01*
X84425350Y52093000D02*
X84824650Y52093000D01*
X84218350Y52300000D02*
X84425350Y52093000D01*
X76100000Y52300000D02*
X84218350Y52300000D01*
X38500000Y28900000D02*
X38500000Y30900000D01*
X49825000Y55900000D02*
X50954900Y57029900D01*
X45562500Y48662500D02*
X45562500Y51862500D01*
X38500000Y30900000D02*
X43975000Y36375000D01*
X43975000Y36375000D02*
X43975000Y47075000D01*
X43975000Y47075000D02*
X45562500Y48662500D01*
X85031650Y52300000D02*
X89150000Y52300000D01*
X51436900Y58561900D02*
X51436900Y58889500D01*
X50954900Y58089150D02*
X51237250Y58371500D01*
X51237250Y58371500D02*
X51246500Y58371500D01*
X51246500Y58371500D02*
X51436900Y58561900D01*
X50954900Y57029900D02*
X50954900Y58089150D01*
X45562500Y51862500D02*
X47718000Y54018000D01*
X48314790Y55900000D02*
X49825000Y55900000D01*
X47718000Y55303210D02*
X48314790Y55900000D01*
X47718000Y54018000D02*
X47718000Y55303210D01*
X50954900Y60371500D02*
X51436900Y59889500D01*
X32218000Y39100350D02*
X32218000Y39499650D01*
X32218000Y39100350D02*
X32800000Y38518350D01*
X32800000Y30200000D02*
X32800000Y38518350D01*
X45253500Y60371500D02*
X50954900Y60371500D01*
X44725000Y60900000D02*
X45253500Y60371500D01*
X32218000Y39499650D02*
X32657000Y39938650D01*
X32657000Y39938650D02*
X32657000Y45750000D01*
X32989190Y52939200D02*
X40950000Y60900000D01*
X32989190Y48489200D02*
X32989190Y52939200D01*
X32350000Y47850000D02*
X32989190Y48489200D01*
X40950000Y60900000D02*
X44725000Y60900000D01*
X32350000Y46057000D02*
X32657000Y45750000D01*
X32350000Y46057000D02*
X32350000Y47850000D01*
X50446300Y57296300D02*
X50446300Y57889500D01*
X47975000Y56275000D02*
X49425000Y56275000D01*
X49425000Y56275000D02*
X50446300Y57296300D01*
X45150000Y49650000D02*
X45150000Y52150000D01*
X43500000Y48000000D02*
X45150000Y49650000D01*
X43500000Y36800000D02*
X43500000Y48000000D01*
X38100000Y31400000D02*
X43500000Y36800000D01*
X45150000Y52150000D02*
X47300000Y54300000D01*
X47300000Y55600000D02*
X47975000Y56275000D01*
X47300000Y54300000D02*
X47300000Y55600000D01*
X77228770Y53902630D02*
X78331400Y52800000D01*
X78331400Y52800000D02*
X82654030Y52800000D01*
X46945310Y45120310D02*
X54100000Y52275000D01*
X46945310Y36845310D02*
X46945310Y45120310D01*
X54434100Y58889500D02*
X54963370Y58360230D01*
X54963370Y56463380D02*
X54963370Y58360230D01*
X54100000Y52275000D02*
X54100000Y55600000D01*
X54100000Y55600000D02*
X54963370Y56463380D01*
X39600000Y29500000D02*
X46945310Y36845310D01*
X89175000Y50300000D02*
X90200000Y50300000D01*
X78290380Y50290380D02*
X78450000Y50450000D01*
X78450000Y50450000D02*
X89025000Y50450000D01*
X89025000Y50450000D02*
X89175000Y50300000D01*
X54434100Y56534100D02*
X54434100Y57889500D01*
X52450000Y54550000D02*
X54434100Y56534100D01*
X50665600Y49888750D02*
X50665600Y50252050D01*
X50665600Y50252050D02*
X52450000Y52036450D01*
X52450000Y52036450D02*
X52450000Y54550000D01*
X45700000Y45900000D02*
X46676850Y45900000D01*
X46676850Y45900000D02*
X50665600Y49888750D01*
X52452900Y58571150D02*
X52961500Y58062550D01*
X52961500Y57689850D02*
X52961500Y58062550D01*
X52961500Y57689850D02*
X53075000Y57576350D01*
X52452900Y58571150D02*
X52452900Y58889500D01*
X77600000Y50299120D02*
X77600000Y50500000D01*
X52606650Y55775000D02*
X53075000Y56243350D01*
X53075000Y56243350D02*
X53075000Y57576350D01*
X47900000Y49700000D02*
X48962500Y50762500D01*
X78090740Y49808380D02*
X78490030Y49808380D01*
X77600000Y50299120D02*
X78090740Y49808380D01*
X78490030Y49808380D02*
X78781650Y50100000D01*
X78781650Y50100000D02*
X88175000Y50100000D01*
X88175000Y50100000D02*
X88225000Y50050000D01*
X88225000Y49875000D02*
X88225000Y50050000D01*
X48962500Y50762500D02*
X48962500Y52987500D01*
X48962500Y52987500D02*
X51750000Y55775000D01*
X51750000Y55775000D02*
X52606650Y55775000D01*
X47000000Y48500000D02*
X47000000Y49600000D01*
X47000000Y49600000D02*
X48575000Y51175000D01*
X76253790Y50864570D02*
X76435430Y50864570D01*
X48575000Y51175000D02*
X48575000Y53106650D01*
X52452900Y56984550D02*
X52452900Y57889500D01*
X48575000Y53106650D02*
X52452900Y56984550D01*
X87811350Y49607000D02*
X88025350Y49393000D01*
X88025350Y49393000D02*
X89193000Y49393000D01*
X89193000Y49393000D02*
X89300000Y49500000D01*
X81655730Y49607000D02*
X87811350Y49607000D01*
X78000000Y49300000D02*
X81348730Y49300000D01*
X81348730Y49300000D02*
X81655730Y49607000D01*
X76435430Y50864570D02*
X78000000Y49300000D01*
X53925500Y59325500D02*
X54434100Y59834100D01*
X54434100Y59834100D02*
X54434100Y59889500D01*
X47499900Y48999900D02*
X47881550Y48999900D01*
X51839790Y55375000D02*
X52775000Y55375000D01*
X52775000Y55375000D02*
X53925500Y56525500D01*
X53925500Y56525500D02*
X53925500Y59325500D01*
X47881550Y48999900D02*
X49350000Y50468350D01*
X49350000Y50468350D02*
X49350000Y52885210D01*
X49350000Y52885210D02*
X51839790Y55375000D01*
X46686000Y49286000D02*
X46686000Y51761000D01*
X47518000Y48018000D02*
X48000000Y48500000D01*
X46800350Y48018000D02*
X47518000Y48018000D01*
X51970900Y59089150D02*
X52281750Y59400000D01*
X53410500Y58889500D02*
X53443500Y58889500D01*
X46500000Y48318350D02*
X46800350Y48018000D01*
X46500000Y48318350D02*
X46500000Y49100000D01*
X46500000Y49100000D02*
X46686000Y49286000D01*
X52281750Y59400000D02*
X52900000Y59400000D01*
X52900000Y59400000D02*
X53410500Y58889500D01*
X51970900Y57041630D02*
X51970900Y59089150D01*
X46686000Y51761000D02*
X48879000Y53954000D01*
X48879000Y53954000D02*
X48883270Y53954000D01*
X48883270Y53954000D02*
X51970900Y57041630D01*
X52933000Y60400000D02*
X53443500Y59889500D01*
X52281750Y60400000D02*
X52933000Y60400000D01*
X51970900Y60089150D02*
X52281750Y60400000D01*
X51970900Y59741850D02*
X51970900Y60089150D01*
X51636550Y59407500D02*
X51970900Y59741850D01*
X49075000Y56700000D02*
X49950000Y57575000D01*
X47539790Y56700000D02*
X49075000Y56700000D01*
X42925000Y48225000D02*
X44750000Y50050000D01*
X42925000Y45600000D02*
X42925000Y48225000D01*
X81225000Y48425000D02*
X81371000Y48279000D01*
X77425000Y48400000D02*
X77450000Y48425000D01*
X77450000Y48425000D02*
X81225000Y48425000D01*
X85654000Y48279000D02*
X86050000Y48675000D01*
X81371000Y48279000D02*
X85654000Y48279000D01*
X90225000Y49200000D02*
X90600000Y49200000D01*
X89700000Y48675000D02*
X90225000Y49200000D01*
X86050000Y48675000D02*
X89700000Y48675000D01*
X51273250Y59407500D02*
X51636550Y59407500D01*
X50954900Y59089150D02*
X51273250Y59407500D01*
X50621500Y58371500D02*
X50954900Y58704900D01*
X50246650Y58371500D02*
X50621500Y58371500D01*
X49950150Y58075000D02*
X50246650Y58371500D01*
X49950000Y58075000D02*
X49950150Y58075000D01*
X50954900Y58704900D02*
X50954900Y59089150D01*
X49950000Y57575000D02*
X49950000Y58075000D01*
X44750000Y50050000D02*
X44750000Y53910210D01*
X44750000Y53910210D02*
X47539790Y56700000D01*
X58453420Y57581780D02*
X59650000Y56385210D01*
X58453420Y57581780D02*
X58453420Y57884780D01*
X59350000Y53200000D02*
X59650000Y53500000D01*
X59650000Y53500000D02*
X59650000Y56385210D01*
X59350000Y43000000D02*
X59350000Y53200000D01*
X59350000Y43000000D02*
X59925000Y42425000D01*
X59925000Y35825000D02*
X59925000Y42425000D01*
X59925000Y35825000D02*
X61450000Y34300000D01*
X69675000Y62400000D02*
X72825000Y59250000D01*
X66453420Y61884780D02*
X66453420Y61953420D01*
X66453420Y61953420D02*
X66900000Y62400000D01*
X70350000Y48325000D02*
X70350000Y50025000D01*
X70350000Y50025000D02*
X71700000Y51375000D01*
X68325000Y46300000D02*
X70350000Y48325000D01*
X65375000Y32800000D02*
X68325000Y35750000D01*
X64625000Y32800000D02*
X65375000Y32800000D01*
X68325000Y35750000D02*
X68325000Y46300000D01*
X71700000Y51375000D02*
X72150000Y51375000D01*
X72150000Y51375000D02*
X72825000Y52050000D01*
X72825000Y52050000D02*
X72825000Y59250000D01*
X66900000Y62400000D02*
X69675000Y62400000D01*
X76700000Y49500000D02*
X77314000Y49500000D01*
X55277370Y57716780D02*
X55445380Y57884780D01*
X90800000Y49800000D02*
X90800000Y49899720D01*
X90799820Y49899900D02*
X90800000Y49899720D01*
X49875000Y43525000D02*
X49875000Y47306650D01*
X49875000Y43525000D02*
X60450000Y32950000D01*
X90300000Y49800000D02*
X90800000Y49800000D01*
X89500000Y49000000D02*
X90300000Y49800000D01*
X85650000Y49000000D02*
X89500000Y49000000D01*
X55277370Y56227380D02*
X55277370Y57716780D01*
X81625350Y48593000D02*
X85243000Y48593000D01*
X85243000Y48593000D02*
X85650000Y49000000D01*
X77914000Y48900000D02*
X81318350Y48900000D01*
X77314000Y49500000D02*
X77914000Y48900000D01*
X81318350Y48900000D02*
X81625350Y48593000D01*
X49875000Y47306650D02*
X54525000Y51956650D01*
X54525000Y51956650D02*
X54525000Y55475000D01*
X54525000Y55475000D02*
X55277370Y56227380D01*
X63075000Y41618000D02*
X63075000Y51500000D01*
X60825000Y56925000D02*
X61600000Y56925000D01*
X60453420Y57296570D02*
X60825000Y56925000D01*
X60453420Y57296570D02*
X60453420Y57884780D01*
X62471000Y52104000D02*
X63075000Y51500000D01*
X62471000Y53621000D02*
X62825000Y53975000D01*
X62471000Y52104000D02*
X62471000Y52343790D01*
X62468000Y52346790D02*
X62471000Y52343790D01*
X62468000Y52346790D02*
X62468000Y52953200D01*
X62468000Y52953200D02*
X62471000Y52956210D01*
X62471000Y52956210D02*
X62471000Y53621000D01*
X62128200Y31828260D02*
X62250000Y31950060D01*
X61975000Y31828260D02*
X61999940Y31828260D01*
X61999940Y31828260D02*
X62128200Y31828260D01*
X78903850Y46677280D02*
X85752280Y46677280D01*
X85752280Y46677280D02*
X86075000Y47000000D01*
X62575000Y41118000D02*
X63075000Y41618000D01*
X61993000Y41118000D02*
X62575000Y41118000D01*
X61999940Y31700000D02*
X61999940Y31828260D01*
X61999940Y31700000D02*
X62128200Y31828260D01*
X60725000Y39850000D02*
X61993000Y41118000D01*
X60725000Y35706650D02*
X61999940Y34431710D01*
X61999940Y31828260D02*
X61999940Y34431710D01*
X60725000Y35706650D02*
X60725000Y39850000D01*
X86075000Y47000000D02*
X90075000Y47000000D01*
X90075000Y47000000D02*
X93375000Y50300000D01*
X93375000Y50300000D02*
X94300000Y50300000D01*
X61600000Y56925000D02*
X62825000Y55700000D01*
X62825000Y53975000D02*
X62825000Y55700000D01*
X60300000Y43900000D02*
X60300000Y51300000D01*
X58950000Y57675000D02*
X60075000Y56550000D01*
X58950000Y57675000D02*
X58950000Y58400000D01*
X58950000Y58400000D02*
X59434780Y58884780D01*
X59434780Y58884780D02*
X59453420Y58884780D01*
X60075000Y55300000D02*
X60075000Y56550000D01*
X60832000Y51832000D02*
X60832000Y54543000D01*
X60300000Y51300000D02*
X60832000Y51832000D01*
X60075000Y55300000D02*
X60832000Y54543000D01*
X60300000Y43900000D02*
X61900000Y42300000D01*
X62600000Y42200000D02*
X62600000Y42675000D01*
X62157000Y43118000D02*
X62600000Y42675000D01*
X59971420Y57275000D02*
X59971420Y58402780D01*
X60475000Y55425000D02*
X60475000Y56771430D01*
X59971420Y57275000D02*
X60475000Y56771430D01*
X59971420Y58402780D02*
X60453420Y58884780D01*
X60475000Y55425000D02*
X62157000Y53743000D01*
X62154000Y52216730D02*
X62157000Y52213730D01*
X62154000Y52216730D02*
X62154000Y53083260D01*
X62154000Y53083260D02*
X62157000Y53086270D01*
X62157000Y53086270D02*
X62157000Y53743000D01*
X62000000Y41600000D02*
X62600000Y42200000D01*
X62157000Y43118000D02*
X62157000Y44625350D01*
X62157000Y44625350D02*
X62207000Y44675350D01*
X62207000Y44675350D02*
X62207000Y45074650D01*
X62157000Y45124650D02*
X62207000Y45074650D01*
X62157000Y45124650D02*
X62157000Y52213730D01*
X61175000Y57325000D02*
X61724290Y57325000D01*
X63575000Y43625000D02*
X63575000Y51750000D01*
X60971420Y57528570D02*
X60971420Y59402770D01*
X60971420Y59402770D02*
X61453430Y59884770D01*
X60971420Y57528570D02*
X61175000Y57325000D01*
X63575000Y43625000D02*
X64528150Y42671850D01*
X64528150Y42025000D02*
X64528150Y42671850D01*
X61724290Y57325000D02*
X63200000Y55849290D01*
X63200000Y53925000D02*
X63200000Y55849290D01*
X63575000Y51750000D02*
X64007170Y52182170D01*
X64007170Y52182170D02*
X64007170Y53117830D01*
X63200000Y53925000D02*
X64007170Y53117830D01*
X45875600Y57332000D02*
X46433100Y57889500D01*
X35600000Y20400000D02*
X36100000Y20900000D01*
X36100000Y20900000D02*
X36100000Y21800000D01*
X36100000Y21800000D02*
X36600000Y22300000D01*
X36600000Y22300000D02*
X36600000Y27700000D01*
X36050000Y28250000D02*
X36600000Y27700000D01*
X36050000Y28250000D02*
X36050000Y38987500D01*
X36050000Y38987500D02*
X36737500Y39675000D01*
X36737500Y51172700D02*
X42896800Y57332000D01*
X36737500Y39675000D02*
X36737500Y51172700D01*
X42896800Y57332000D02*
X45875600Y57332000D01*
X44589500Y57889500D02*
X45442500Y57889500D01*
X44400000Y57700000D02*
X44589500Y57889500D01*
X35600000Y21100000D02*
X35600000Y22100000D01*
X35600000Y22100000D02*
X36000000Y22500000D01*
X36000000Y22500000D02*
X36000000Y27550000D01*
X34750000Y28800000D02*
X36000000Y27550000D01*
X34750000Y39675000D02*
X36233490Y41158490D01*
X34750000Y28800000D02*
X34750000Y39675000D01*
X36233490Y41158490D02*
X36233490Y51333490D01*
X36233490Y51333490D02*
X42600000Y57700000D01*
X42600000Y57700000D02*
X44400000Y57700000D01*
X47139500Y57889500D02*
X47449100Y57889500D01*
X36800000Y21300000D02*
X36800000Y21700000D01*
X36800000Y21700000D02*
X37200000Y22100000D01*
X36550000Y28625000D02*
X37200000Y27975000D01*
X37200000Y22100000D02*
X37200000Y27975000D01*
X44371790Y55868000D02*
X45117990Y55868000D01*
X45117990Y55868000D02*
X47139500Y57889500D01*
X44364790Y55875000D02*
X44371790Y55868000D01*
X36550000Y38800000D02*
X37237500Y39487500D01*
X36550000Y28625000D02*
X36550000Y38800000D01*
X37237500Y39487500D02*
X37237500Y44149890D01*
X37237500Y44149890D02*
X39199600Y46111990D01*
X39199600Y46111990D02*
X39199600Y51535760D01*
X39199600Y51535760D02*
X43538840Y55875000D01*
X43538840Y55875000D02*
X44364790Y55875000D01*
X46124150Y59889500D02*
X46433100Y59889500D01*
X45642150Y59407500D02*
X46124150Y59889500D01*
X44192500Y59407500D02*
X45642150Y59407500D01*
X43900000Y59700000D02*
X44192500Y59407500D01*
X33875000Y24525000D02*
X35500000Y22900000D01*
X33875000Y24525000D02*
X33875000Y47634950D01*
X33875000Y47634950D02*
X34558400Y48318350D01*
X34558400Y51223200D02*
X40614290Y57279090D01*
X40614290Y57279090D02*
X40614290Y58764290D01*
X40614290Y58764290D02*
X41550000Y59700000D01*
X41550000Y59700000D02*
X43900000Y59700000D01*
X34558400Y48318350D02*
X34558400Y51223200D01*
X43850000Y60300000D02*
X44260500Y59889500D01*
X44260500Y59889500D02*
X45442500Y59889500D01*
X32700000Y19800000D02*
X33482000Y20582000D01*
X33482000Y52584600D02*
X41197400Y60300000D01*
X41197400Y60300000D02*
X43850000Y60300000D01*
X33482000Y20582000D02*
X33482000Y52584600D01*
X48325000Y20375000D02*
X48900000Y19800000D01*
X48659700Y57093500D02*
X49455700Y57889500D01*
X45325000Y55000000D02*
X47418500Y57093500D01*
X47418500Y57093500D02*
X48659700Y57093500D01*
X46343350Y20375000D02*
X48325000Y20375000D01*
X37500000Y29218350D02*
X46343350Y20375000D01*
X37500000Y29218350D02*
X37500000Y38025000D01*
X37500000Y38025000D02*
X38250000Y38775000D01*
X38250000Y38775000D02*
X39725000Y38775000D01*
X39725000Y38775000D02*
X40607000Y39657000D01*
X40607000Y39657000D02*
X40607000Y41282010D01*
X41781740Y51056740D02*
X42861760Y52136760D01*
X41781740Y42456750D02*
X41781740Y51056740D01*
X40607000Y41282010D02*
X41781740Y42456750D01*
X42861760Y52136760D02*
X42861760Y53353010D01*
X42861760Y53353010D02*
X44508760Y55000000D01*
X44508760Y55000000D02*
X45325000Y55000000D01*
X47648750Y57407500D02*
X47931100Y57689850D01*
X48439700Y58571150D02*
X48439700Y58889500D01*
X47931100Y58062550D02*
X48439700Y58571150D01*
X47931100Y57689850D02*
X47931100Y58062550D01*
X37025000Y28900000D02*
X46275000Y19650000D01*
X45250000Y55475000D02*
X47182500Y57407500D01*
X47182500Y57407500D02*
X47648750Y57407500D01*
X37025000Y38250000D02*
X38582000Y39807000D01*
X37025000Y28900000D02*
X37025000Y38250000D01*
X46275000Y19650000D02*
X48100000Y19650000D01*
X38582000Y39807000D02*
X38582000Y40285240D01*
X38582000Y40285240D02*
X39414760Y41118000D01*
X39414760Y41118000D02*
X39725000Y41118000D01*
X40894160Y52662250D02*
X43706910Y55475000D01*
X43706910Y55475000D02*
X45250000Y55475000D01*
X40894160Y42287160D02*
X40894160Y52662250D01*
X39725000Y41118000D02*
X40894160Y42287160D01*
X57950000Y57200000D02*
X59014000Y56136000D01*
X59014000Y53939000D02*
X59014000Y56136000D01*
X58925000Y53850000D02*
X59014000Y53939000D01*
X57453420Y60884780D02*
X57950000Y60388200D01*
X57950000Y57200000D02*
X57950000Y60388200D01*
X58925000Y42700000D02*
X59400000Y42225000D01*
X58925000Y42700000D02*
X58925000Y53850000D01*
X59400000Y41675000D02*
X59400000Y42225000D01*
X59350000Y41625000D02*
X59400000Y41675000D01*
X64300000Y43700000D02*
X64300000Y51250000D01*
X64300000Y43700000D02*
X65100000Y42900000D01*
X61825000Y39975000D02*
X63300000Y39975000D01*
X63300000Y39975000D02*
X65100000Y41775000D01*
X65100000Y41775000D02*
X65100000Y42900000D01*
X81450000Y38825000D02*
X89475000Y38825000D01*
X89475000Y38825000D02*
X90425000Y39775000D01*
X61453430Y57884780D02*
X61608570Y57884780D01*
X61608570Y57884780D02*
X63514000Y55979350D01*
X63514000Y55011000D02*
X63514000Y55979350D01*
X64300000Y51250000D02*
X64321170Y51271170D01*
X63514000Y55011000D02*
X64321170Y54203830D01*
X64321170Y51271170D02*
X64321170Y54203830D01*
X77100000Y40075000D02*
X77132000Y40107000D01*
X77132000Y40107000D02*
X80168000Y40107000D01*
X80168000Y40107000D02*
X81450000Y38825000D01*
X66100000Y41630940D02*
X66100000Y43575000D01*
X65675000Y41205940D02*
X66100000Y41630940D01*
X76150000Y40800000D02*
X76818350Y40800000D01*
X65675000Y39200000D02*
X65675000Y41205940D01*
X89856800Y40106800D02*
X90625000Y40875000D01*
X85593200Y40106800D02*
X89856800Y40106800D01*
X64950000Y51534500D02*
X65785180Y52369680D01*
X84582000Y41118000D02*
X85593200Y40106800D01*
X83161350Y41118000D02*
X83175350Y41132000D01*
X83175350Y41132000D02*
X83574650Y41132000D01*
X83574650Y41132000D02*
X83588650Y41118000D01*
X83588650Y41118000D02*
X84582000Y41118000D01*
X65337500Y44337500D02*
X65337500Y48712500D01*
X64950000Y49100000D02*
X65337500Y48712500D01*
X65337500Y44337500D02*
X66100000Y43575000D01*
X64950000Y49100000D02*
X64950000Y51534500D01*
X62375000Y57875000D02*
X63875000Y56375000D01*
X63875000Y55400000D02*
X63875000Y56375000D01*
X63875000Y55400000D02*
X65785180Y53489820D01*
X65785180Y52369680D02*
X65785180Y53489820D01*
X76818350Y40800000D02*
X77136350Y41118000D01*
X77136350Y41118000D02*
X83161350Y41118000D01*
X70596870Y62884780D02*
X73200000Y60281650D01*
X67453420Y62884780D02*
X70596870Y62884780D01*
X90877410Y41525000D02*
X90879430Y41527030D01*
X76400000Y41900000D02*
X76875000Y41900000D01*
X89018350Y40950000D02*
X89198350Y41130000D01*
X89198350Y41130000D02*
X90080000Y41130000D01*
X90080000Y41130000D02*
X90475000Y41525000D01*
X90475000Y41525000D02*
X90877410Y41525000D01*
X86875000Y40950000D02*
X89018350Y40950000D01*
X70875000Y43800000D02*
X70875000Y49812500D01*
X70875000Y49812500D02*
X71962500Y50900000D01*
X68725000Y41650000D02*
X70875000Y43800000D01*
X59475000Y26725000D02*
X59881650Y26725000D01*
X59881650Y26725000D02*
X68725000Y35568350D01*
X68725000Y35568350D02*
X68725000Y41650000D01*
X71962500Y50900000D02*
X72325000Y50900000D01*
X72325000Y50900000D02*
X73200000Y51775000D01*
X73200000Y51775000D02*
X73200000Y60281650D01*
X85615600Y42209400D02*
X86875000Y40950000D01*
X76875000Y41900000D02*
X77184400Y42209400D01*
X77184400Y42209400D02*
X77865600Y42209400D01*
X77865600Y42209400D02*
X78050000Y42025000D01*
X78050000Y42025000D02*
X82025000Y42025000D01*
X82025000Y42025000D02*
X82209400Y42209400D01*
X82209400Y42209400D02*
X85615600Y42209400D01*
X70658220Y63366780D02*
X73675000Y60350000D01*
X89718350Y42300000D02*
X89825350Y42407000D01*
X89825350Y42407000D02*
X90224650Y42407000D01*
X90224650Y42407000D02*
X90331650Y42300000D01*
X90331650Y42300000D02*
X90675000Y42300000D01*
X86100000Y42300000D02*
X89718350Y42300000D01*
X85779900Y42620100D02*
X86100000Y42300000D01*
X66453420Y62884780D02*
X66684780Y62884780D01*
X66684780Y62884780D02*
X67166780Y63366780D01*
X71675000Y39275000D02*
X71718350Y39275000D01*
X71275000Y49500000D02*
X72275000Y50500000D01*
X69218000Y40311000D02*
X71275000Y42368000D01*
X71275000Y42368000D02*
X71275000Y49500000D01*
X67166780Y63366780D02*
X67991780Y63366780D01*
X70232160Y63366780D02*
X70658220Y63366780D01*
X68582000Y63957000D02*
X69641940Y63957000D01*
X67991780Y63366780D02*
X68582000Y63957000D01*
X69641940Y63957000D02*
X70232160Y63366780D01*
X58900000Y26050000D02*
X59925000Y26050000D01*
X71718350Y39275000D02*
X75063450Y42620100D01*
X59925000Y26050000D02*
X69218000Y35343000D01*
X69218000Y35343000D02*
X69218000Y40311000D01*
X72275000Y50500000D02*
X72550000Y50500000D01*
X72550000Y50500000D02*
X73675000Y51625000D01*
X73675000Y51625000D02*
X73675000Y60350000D01*
X78004900Y42620100D02*
X78250000Y42375000D01*
X78250000Y42375000D02*
X81904900Y42375000D01*
X81904900Y42375000D02*
X82150000Y42620100D01*
X75063450Y42620100D02*
X78004900Y42620100D01*
X82150000Y42620100D02*
X85779900Y42620100D01*
X57453420Y56721580D02*
X57453420Y57884780D01*
X84541250Y43102100D02*
X84650350Y42993000D01*
X58482000Y54282000D02*
X58675000Y54475000D01*
X58675000Y54475000D02*
X58675000Y55500000D01*
X57453420Y56721580D02*
X58675000Y55500000D01*
X89468000Y43957000D02*
X90425000Y43000000D01*
X87751350Y43957000D02*
X89468000Y43957000D01*
X55975000Y44200000D02*
X56300000Y44200000D01*
X84650350Y42993000D02*
X86787350Y42993000D01*
X86787350Y42993000D02*
X87751350Y43957000D01*
X56300000Y44200000D02*
X58482000Y46382000D01*
X58482000Y46382000D02*
X58482000Y54282000D01*
X76953760Y43102100D02*
X78097900Y43102100D01*
X78097900Y43102100D02*
X78425000Y42775000D01*
X78425000Y42775000D02*
X81650000Y42775000D01*
X81650000Y42775000D02*
X81977100Y43102100D01*
X81977100Y43102100D02*
X84541250Y43102100D01*
X76325000Y43875000D02*
X76343000Y43875000D01*
X76343000Y43875000D02*
X76825000Y44357000D01*
X76825000Y44357000D02*
X81907000Y44357000D01*
X56925000Y58369550D02*
X57440220Y58884780D01*
X89230060Y44425000D02*
X89825000Y44425000D01*
X89825000Y44425000D02*
X90525000Y43725000D01*
X81907000Y44357000D02*
X82425000Y44875000D01*
X82425000Y44875000D02*
X88780060Y44875000D01*
X88780060Y44875000D02*
X89230060Y44425000D01*
X56925000Y51856650D02*
X57070800Y51710850D01*
X56925000Y51856650D02*
X56925000Y58369550D01*
X53025000Y44200000D02*
X57070800Y48245800D01*
X57070800Y48245800D02*
X57070800Y51710850D01*
X56507000Y58938350D02*
X57453420Y59884770D01*
X55800000Y51575000D02*
X56507000Y52282000D01*
X55800000Y51299780D02*
X55800000Y51575000D01*
X56507000Y52282000D02*
X56507000Y58938350D01*
X50377460Y45877240D02*
X55800000Y51299780D01*
X55675000Y57347620D02*
X55927380Y57600000D01*
X55927380Y57600000D02*
X55927380Y59402770D01*
X55445380Y59884770D02*
X55927380Y59402770D01*
X55675000Y56055940D02*
X55675000Y57347620D01*
X52150000Y48900000D02*
X54950000Y51700000D01*
X54950000Y51700000D02*
X54950000Y55330940D01*
X54950000Y55330940D02*
X55675000Y56055940D01*
X75375000Y60700000D02*
X75375000Y61632790D01*
X74150000Y59475000D02*
X75375000Y60700000D01*
X74593000Y62414800D02*
X75375000Y61632790D01*
X55245730Y67366780D02*
X55971420Y67366780D01*
X54963370Y67084430D02*
X55245730Y67366780D01*
X47758050Y60889500D02*
X48276050Y61407500D01*
X49655350Y61407500D02*
X49964300Y61716450D01*
X48276050Y61407500D02*
X49655350Y61407500D01*
X49964300Y61716450D02*
X49964300Y62089150D01*
X49964300Y62089150D02*
X50282650Y62407500D01*
X50282650Y62407500D02*
X50645950Y62407500D01*
X50645950Y62407500D02*
X50954900Y62716450D01*
X50954900Y62716450D02*
X50954900Y63089150D01*
X50954900Y63089150D02*
X51273250Y63407500D01*
X51273250Y63407500D02*
X51636550Y63407500D01*
X51636550Y63407500D02*
X51970900Y63741850D01*
X51970900Y63741850D02*
X51970900Y64089150D01*
X51970900Y64089150D02*
X52289250Y64407500D01*
X52289250Y64407500D02*
X52652550Y64407500D01*
X52652550Y64407500D02*
X52961500Y64716450D01*
X52961500Y64716450D02*
X52961500Y65089150D01*
X52961500Y65089150D02*
X53279850Y65407500D01*
X53279850Y65407500D02*
X53643150Y65407500D01*
X53643150Y65407500D02*
X53952100Y65716450D01*
X53952100Y65716450D02*
X53952100Y66089150D01*
X53952100Y66089150D02*
X54270450Y66407500D01*
X54270450Y66407500D02*
X54633750Y66407500D01*
X54633750Y66407500D02*
X54963370Y66737130D01*
X54963370Y66737130D02*
X54963370Y67084430D01*
X47449100Y60889500D02*
X47758050Y60889500D01*
X76524650Y43393000D02*
X76788650Y43657000D01*
X71725000Y47199290D02*
X75531290Y43393000D01*
X71725000Y47199290D02*
X71725000Y49350000D01*
X75531290Y43393000D02*
X76524650Y43393000D01*
X71725000Y49350000D02*
X72525000Y50150000D01*
X70050000Y69200000D02*
X71900000Y69200000D01*
X71900000Y69200000D02*
X72829000Y68271000D01*
X72829000Y68116730D02*
X72829000Y68271000D01*
X72829000Y68116730D02*
X73964790Y66980940D01*
X73964790Y66980940D02*
X73994060Y66980940D01*
X73994060Y66980940D02*
X74593000Y66382000D01*
X74593000Y62414800D02*
X74593000Y66382000D01*
X55971420Y67366780D02*
X58004650Y69400000D01*
X58004650Y69400000D02*
X68018350Y69400000D01*
X68018350Y69400000D02*
X68125350Y69507000D01*
X68125350Y69507000D02*
X69743000Y69507000D01*
X69743000Y69507000D02*
X70050000Y69200000D01*
X72525000Y50150000D02*
X73000000Y50150000D01*
X73000000Y50150000D02*
X74150000Y51300000D01*
X74150000Y51300000D02*
X74150000Y59475000D01*
X76788650Y43657000D02*
X78093000Y43657000D01*
X78093000Y43657000D02*
X78600000Y43150000D01*
X78600000Y43150000D02*
X81204370Y43150000D01*
X81204370Y43150000D02*
X81711360Y43656990D01*
X81711360Y43657000D02*
X81718000Y43657000D01*
X50277930Y65402770D02*
X50641220Y65402770D01*
X52961500Y67716450D02*
X52961500Y68089150D01*
X52652550Y67407500D02*
X52961500Y67716450D01*
X52289250Y67407500D02*
X52652550Y67407500D01*
X51970900Y67089150D02*
X52289250Y67407500D01*
X51970900Y66741850D02*
X51970900Y67089150D01*
X51636550Y66407500D02*
X51970900Y66741850D01*
X51273250Y66407500D02*
X51636550Y66407500D01*
X50954900Y66089150D02*
X51273250Y66407500D01*
X50954900Y65716450D02*
X50954900Y66089150D01*
X50641220Y65402770D02*
X50954900Y65716450D01*
X47449100Y62889500D02*
X47967100Y63407500D01*
X47967100Y63407500D02*
X48639350Y63407500D01*
X48639350Y63407500D02*
X48921700Y63689850D01*
X48921700Y63689850D02*
X48921700Y64037150D01*
X48921700Y64037150D02*
X49292050Y64407500D01*
X49292050Y64407500D02*
X49655350Y64407500D01*
X49655350Y64407500D02*
X49937700Y64689850D01*
X49937700Y64689850D02*
X49937700Y65062550D01*
X49937700Y65062550D02*
X50277930Y65402770D01*
X72418000Y47157000D02*
X72418000Y49318000D01*
X72418000Y47157000D02*
X74675000Y44900000D01*
X74675000Y44900000D02*
X76250000Y44900000D01*
X72418000Y49318000D02*
X72900000Y49800000D01*
X53847350Y68975000D02*
X55400000Y68975000D01*
X56847100Y70422100D02*
X59648350Y70422100D01*
X59648350Y70422100D02*
X59651250Y70425000D01*
X59651250Y70425000D02*
X60246150Y70425000D01*
X60246150Y70425000D02*
X60249050Y70422100D01*
X60249050Y70422100D02*
X69786890Y70422100D01*
X69786890Y70422100D02*
X70071790Y70707000D01*
X70071790Y70707000D02*
X71068000Y70707000D01*
X52961500Y68089150D02*
X53847350Y68975000D01*
X55400000Y68975000D02*
X56847100Y70422100D01*
X71068000Y70707000D02*
X73143000Y68632000D01*
X75100000Y64325000D02*
X75100000Y66350000D01*
X73143000Y68246790D02*
X73571800Y67817990D01*
X73571800Y67817990D02*
X73632000Y67817990D01*
X73632000Y67817990D02*
X75100000Y66350000D01*
X73143000Y68246790D02*
X73143000Y68632000D01*
X72900000Y49800000D02*
X73400000Y49800000D01*
X73400000Y49800000D02*
X74575000Y50975000D01*
X74575000Y50975000D02*
X74575000Y59325000D01*
X74575000Y59325000D02*
X76175000Y60925000D01*
X76175000Y60925000D02*
X76175000Y63250000D01*
X75100000Y64325000D02*
X76175000Y63250000D01*
X67025000Y44750000D02*
X67175000Y44900000D01*
X67175000Y44900000D02*
X67175000Y48250000D01*
X67175000Y48250000D02*
X69018030Y50093030D01*
X69018030Y50093030D02*
X69293030Y50093030D01*
X69293030Y50093030D02*
X70625000Y51425000D01*
X70625000Y51425000D02*
X70625000Y52025000D01*
X69925000Y52725000D02*
X70625000Y52025000D01*
X69925000Y52725000D02*
X69925000Y54025000D01*
X69925000Y54025000D02*
X71332000Y55432000D01*
X67453420Y58884780D02*
X67488200Y58850000D01*
X67488200Y58850000D02*
X69275000Y58850000D01*
X69275000Y58850000D02*
X71332000Y56793000D01*
X71332000Y55432000D02*
X71332000Y56793000D01*
X89800000Y38200000D02*
X90500000Y38900000D01*
X76900000Y38800000D02*
X77725000Y39625000D01*
X76900000Y37425000D02*
X76900000Y38800000D01*
X77725000Y38875000D02*
X77725000Y39625000D01*
X77725000Y38875000D02*
X78400000Y38200000D01*
X78400000Y38200000D02*
X89800000Y38200000D01*
X76200000Y54575000D02*
X76232600Y54542400D01*
X76232600Y54542400D02*
X77886920Y54542400D01*
X77886920Y54542400D02*
X77904160Y54559640D01*
X77904160Y54559640D02*
X78647010Y54559640D01*
X78647010Y54559640D02*
X78756650Y54450000D01*
X78756650Y54450000D02*
X90575000Y54450000D01*
X66971420Y57553580D02*
X66971420Y59048430D01*
X66617080Y59402770D02*
X66971420Y59048430D01*
X66253770Y59402770D02*
X66617080Y59402770D01*
X65771770Y59884770D02*
X66253770Y59402770D01*
X65453430Y59884770D02*
X65771770Y59884770D01*
X66900000Y50025000D02*
X68050000Y50025000D01*
X68050000Y50025000D02*
X69000000Y50975000D01*
X69000000Y50975000D02*
X69000000Y52175000D01*
X69000000Y52175000D02*
X69300000Y52475000D01*
X66971420Y57553580D02*
X69300000Y55225000D01*
X69300000Y52475000D02*
X69300000Y55225000D01*
X65975000Y57425000D02*
X65975000Y57677970D01*
X65971420Y57681550D02*
X65975000Y57677970D01*
X65971420Y57681550D02*
X65971420Y58366780D01*
X65453430Y58884780D02*
X65971420Y58366780D01*
X65975000Y57425000D02*
X66300000Y57100000D01*
X66300000Y57100000D02*
X66850000Y57100000D01*
X66850000Y57100000D02*
X68682000Y55268000D01*
X68682000Y51232000D02*
X68682000Y55268000D01*
X68125000Y50675000D02*
X68682000Y51232000D01*
X66603220Y50675000D02*
X68125000Y50675000D01*
X66128230Y50200000D02*
X66603220Y50675000D01*
X66128230Y49652420D02*
X66128230Y50200000D01*
X65868000Y55757010D02*
X65868000Y56757000D01*
X64971420Y57653580D02*
X65868000Y56757000D01*
X64971420Y57653580D02*
X64971420Y58178580D01*
X64750000Y58400000D02*
X64971420Y58178580D01*
X63453420Y58884780D02*
X63765220Y58884780D01*
X63765220Y58884780D02*
X64250000Y58400000D01*
X64250000Y58400000D02*
X64750000Y58400000D01*
X66739950Y55266000D02*
X67353290Y54652670D01*
X65868000Y55757010D02*
X66359000Y55266000D01*
X66359000Y55266000D02*
X66739950Y55266000D01*
X76250000Y57425000D02*
X76350000Y57325000D01*
X90643000Y57243000D02*
X90725000Y57325000D01*
X86257000Y57875000D02*
X88768000Y57875000D01*
X88768000Y57875000D02*
X89400000Y57243000D01*
X89400000Y57243000D02*
X90643000Y57243000D01*
X82356650Y57325000D02*
X83713650Y58682000D01*
X83713650Y58682000D02*
X85449990Y58682000D01*
X85449990Y58682000D02*
X86257000Y57875000D01*
X76350000Y57325000D02*
X82356650Y57325000D01*
X64375000Y55525000D02*
X66100000Y53800000D01*
X64375000Y55525000D02*
X64375000Y56700000D01*
X63399870Y57675130D02*
X64375000Y56700000D01*
X66100000Y53800000D02*
X66450000Y53800000D01*
X66450000Y53800000D02*
X66875000Y53375000D01*
X82581650Y59425000D02*
X83968350Y59425000D01*
X82574650Y59418000D02*
X82581650Y59425000D01*
X82175350Y59418000D02*
X82574650Y59418000D01*
X82168350Y59425000D02*
X82175350Y59418000D01*
X90404410Y58327850D02*
X90404410Y58404410D01*
X90404410Y58404410D02*
X90450000Y58450000D01*
X90250000Y58650000D02*
X90450000Y58450000D01*
X88375000Y58650000D02*
X90250000Y58650000D01*
X88007000Y59018000D02*
X88375000Y58650000D01*
X84375350Y59018000D02*
X88007000Y59018000D01*
X83968350Y59425000D02*
X84375350Y59018000D01*
X76400000Y58925000D02*
X76900000Y59425000D01*
X76900000Y59425000D02*
X82168350Y59425000D01*
X70375000Y58850000D02*
X71175000Y58850000D01*
X68850000Y60375000D02*
X70375000Y58850000D01*
X65200000Y60375000D02*
X68850000Y60375000D01*
X64971420Y60146430D02*
X65200000Y60375000D01*
X64971420Y59402780D02*
X64971420Y60146430D01*
X64453420Y58884780D02*
X64971420Y59402780D01*
X88353850Y60075000D02*
X88600000Y60075000D01*
X88123250Y59844400D02*
X88353850Y60075000D01*
X87723950Y59844400D02*
X88123250Y59844400D01*
X87586350Y59982000D02*
X87723950Y59844400D01*
X82457000Y59982000D02*
X87586350Y59982000D01*
X82375000Y59900000D02*
X82457000Y59982000D01*
X73786200Y61938800D02*
X74300000Y61425000D01*
X73357150Y61938800D02*
X73786200Y61938800D01*
X73343350Y61925000D02*
X73357150Y61938800D01*
X72675000Y61925000D02*
X73343350Y61925000D01*
X70657000Y63943000D02*
X72675000Y61925000D01*
X58453420Y60884780D02*
X58771770Y60884780D01*
X58771770Y60884780D02*
X59253780Y60402770D01*
X59253780Y60402770D02*
X59653070Y60402770D01*
X59653070Y60402770D02*
X59971420Y60721130D01*
X59971420Y60721130D02*
X59971420Y61084420D01*
X59971420Y61084420D02*
X60289780Y61402780D01*
X60289780Y61402780D02*
X62653070Y61402780D01*
X62653070Y61402780D02*
X62935420Y61685130D01*
X62935420Y61685130D02*
X62935420Y62048430D01*
X62935420Y62048430D02*
X63289770Y62402780D01*
X63289770Y62402780D02*
X65653070Y62402780D01*
X65653070Y62402780D02*
X65971420Y62721120D01*
X65971420Y62721120D02*
X65971420Y63084430D01*
X65971420Y63084430D02*
X66253770Y63366780D01*
X66253770Y63366780D02*
X66617080Y63366780D01*
X66617080Y63366780D02*
X66971420Y63721120D01*
X66971420Y64084420D02*
X67253770Y64366770D01*
X66971420Y63721120D02*
X66971420Y64084420D01*
X67253770Y64366770D02*
X69676220Y64366770D01*
X69676220Y64366770D02*
X70100000Y63943000D01*
X70100000Y63943000D02*
X70657000Y63943000D01*
X74850000Y61075000D02*
X74850000Y61650000D01*
X74182000Y62318000D02*
X74850000Y61650000D01*
X73107000Y62318000D02*
X74182000Y62318000D01*
X71550000Y63875000D02*
X73107000Y62318000D01*
X56734770Y60884780D02*
X57252770Y61402780D01*
X55445380Y60884780D02*
X56734770Y60884780D01*
X69875000Y65402770D02*
X69879230Y65407000D01*
X70843000Y65407000D02*
X71550000Y64700000D01*
X69879230Y65407000D02*
X70843000Y65407000D01*
X71550000Y63875000D02*
X71550000Y64700000D01*
X57252770Y61402780D02*
X59653070Y61402780D01*
X59653070Y61402780D02*
X59935420Y61685130D01*
X59935420Y61685130D02*
X59935420Y62048430D01*
X59935420Y62048430D02*
X60253780Y62366780D01*
X60253780Y62366780D02*
X62617070Y62366780D01*
X62617070Y62366780D02*
X62971420Y62721130D01*
X62971420Y62721130D02*
X62971420Y63084430D01*
X62971420Y63084430D02*
X63289770Y63402770D01*
X63289770Y63402770D02*
X64653070Y63402770D01*
X64653070Y63402770D02*
X64971420Y63721120D01*
X64971420Y63721120D02*
X64971420Y64084420D01*
X64971420Y64084420D02*
X65253780Y64366770D01*
X65253780Y64366770D02*
X66641770Y64366770D01*
X67000000Y64725000D02*
X67997220Y64725000D01*
X67997220Y64725000D02*
X68675000Y65402770D01*
X66641770Y64366770D02*
X67000000Y64725000D01*
X68675000Y65402770D02*
X69875000Y65402770D01*
X46931100Y61371500D02*
X47449100Y61889500D01*
X30753800Y36289200D02*
X32100000Y34943000D01*
X45046500Y61293000D02*
X45125000Y61371500D01*
X45125000Y61371500D02*
X46931100Y61371500D01*
X84350000Y69125000D02*
X84600000Y69125000D01*
X82175000Y56100000D02*
X82325000Y55950000D01*
X82325000Y55950000D02*
X88813800Y55950000D01*
X88813800Y55950000D02*
X89200000Y55563800D01*
X89200000Y55563800D02*
X90363800Y55563800D01*
X90363800Y55563800D02*
X91725000Y56925000D01*
X91725000Y56925000D02*
X91725000Y62000000D01*
X84600000Y69125000D02*
X91725000Y62000000D01*
X32068820Y16075000D02*
X32382000Y16388180D01*
X32100000Y17466580D02*
X32100000Y34943000D01*
X32100000Y17466580D02*
X32382000Y17184580D01*
X32382000Y16388180D02*
X32382000Y17184580D01*
X34219600Y55475000D02*
X40037600Y61293000D01*
X30753800Y47500150D02*
X31213330Y47959680D01*
X40037600Y61293000D02*
X45046500Y61293000D01*
X30753800Y36289200D02*
X30753800Y47500150D01*
X31213330Y47959680D02*
X31213330Y53383840D01*
X31213330Y53383840D02*
X33304480Y55475000D01*
X33304480Y55475000D02*
X34219600Y55475000D01*
X43243350Y62850000D02*
X43700350Y62393000D01*
X43700350Y62393000D02*
X48952200Y62393000D01*
X48952200Y62393000D02*
X49455700Y61889500D01*
X78900000Y55800000D02*
X80050000Y55800000D01*
X80050000Y55800000D02*
X80900000Y56650000D01*
X89250000Y56843000D02*
X90924650Y56843000D01*
X80900000Y56650000D02*
X82750000Y56650000D01*
X82750000Y56650000D02*
X83343010Y57243000D01*
X83343010Y57243000D02*
X88850000Y57243000D01*
X30275000Y41749750D02*
X30303800Y41778550D01*
X30303800Y41778550D02*
X30303800Y42177850D01*
X30275000Y42206650D02*
X30303800Y42177850D01*
X30275000Y30850000D02*
X30275000Y41749750D01*
X30275000Y30850000D02*
X31700000Y29425000D01*
X88450000Y64325000D02*
X88450000Y64375000D01*
X88850000Y57243000D02*
X89250000Y56843000D01*
X90924650Y56843000D02*
X91300000Y57218350D01*
X91300000Y57218350D02*
X91300000Y61475000D01*
X88450000Y64325000D02*
X91300000Y61475000D01*
X31700000Y16803800D02*
X31728800Y16775000D01*
X31700000Y16803800D02*
X31700000Y29425000D01*
X40887400Y62850000D02*
X43243350Y62850000D01*
X34061800Y56024400D02*
X40887400Y62850000D01*
X32925720Y56024400D02*
X34061800Y56024400D01*
X30626320Y53725000D02*
X32925720Y56024400D01*
X30626320Y48134810D02*
X30626320Y53725000D01*
X30275000Y47783490D02*
X30626320Y48134810D01*
X30275000Y42206650D02*
X30275000Y47783490D01*
X53243850Y70370100D02*
X53591150Y70370100D01*
X52961500Y70087750D02*
X53243850Y70370100D01*
X52961500Y69715050D02*
X52961500Y70087750D01*
X52652550Y69406100D02*
X52961500Y69715050D01*
X52271850Y69406100D02*
X52652550Y69406100D01*
X50954900Y68089150D02*
X52271850Y69406100D01*
X50954900Y67716450D02*
X50954900Y68089150D01*
X50645950Y67407500D02*
X50954900Y67716450D01*
X50282650Y67407500D02*
X50645950Y67407500D01*
X49964300Y67089150D02*
X50282650Y67407500D01*
X49964300Y66716450D02*
X49964300Y67089150D01*
X49655350Y66407500D02*
X49964300Y66716450D01*
X49292050Y66407500D02*
X49655350Y66407500D01*
X48973700Y66089150D02*
X49292050Y66407500D01*
X48973700Y65741850D02*
X48973700Y66089150D01*
X41803210Y63343000D02*
X41867710Y63407500D01*
X41867710Y63407500D02*
X45642150Y63407500D01*
X45642150Y63407500D02*
X45924500Y63689850D01*
X45924500Y63689850D02*
X45924500Y64380900D01*
X45924500Y64380900D02*
X46433100Y64889500D01*
X48603350Y65371500D02*
X48973700Y65741850D01*
X76875000Y55525000D02*
X77925000Y55525000D01*
X77925000Y55525000D02*
X78132000Y55318000D01*
X78132000Y55318000D02*
X84036350Y55318000D01*
X84036350Y55318000D02*
X84275350Y55557000D01*
X53952100Y70731050D02*
X53952100Y71103750D01*
X53952100Y71103750D02*
X54261050Y71412700D01*
X54261050Y71412700D02*
X69877090Y71412700D01*
X69877090Y71412700D02*
X70071790Y71218000D01*
X53591150Y70370100D02*
X53952100Y70731050D01*
X46433100Y64889500D02*
X46485100Y64889500D01*
X46485100Y64889500D02*
X46967100Y65371500D01*
X46967100Y65371500D02*
X48603350Y65371500D01*
X70071790Y71218000D02*
X73617210Y71218000D01*
X29850000Y30000000D02*
X29850000Y35444060D01*
X28935600Y36358460D02*
X29850000Y35444060D01*
X29850000Y30000000D02*
X31175000Y28675000D01*
X31175000Y23525000D02*
X31175000Y28675000D01*
X84275350Y55557000D02*
X87768000Y55557000D01*
X87768000Y55557000D02*
X87900000Y55425000D01*
X75850000Y55525000D02*
X76875000Y55525000D01*
X75200000Y56175000D02*
X75850000Y55525000D01*
X75200000Y56175000D02*
X75200000Y59200000D01*
X75200000Y59200000D02*
X77075000Y61075000D01*
X77075000Y61075000D02*
X77075000Y67760200D01*
X73617210Y71218000D02*
X77075000Y67760200D01*
X39612250Y63343000D02*
X41803210Y63343000D01*
X38293000Y62378210D02*
X38721800Y62807000D01*
X38721800Y62807000D02*
X39076260Y62807000D01*
X39076260Y62807000D02*
X39612250Y63343000D01*
X28935600Y52792250D02*
X36886350Y60743000D01*
X36886350Y60743000D02*
X37174650Y60743000D01*
X37174650Y60743000D02*
X38293000Y61861350D01*
X38293000Y61861350D02*
X38293000Y62378210D01*
X28935600Y36358460D02*
X28935600Y52792250D01*
X76428730Y56027730D02*
X76475000Y56074010D01*
X76475000Y56074010D02*
X76475000Y56075000D01*
X76400000Y56150000D02*
X76475000Y56075000D01*
X76000000Y56150000D02*
X76400000Y56150000D01*
X75650000Y56500000D02*
X76000000Y56150000D01*
X75650000Y56500000D02*
X75650000Y59000000D01*
X52934900Y70704450D02*
X52934900Y71077150D01*
X52600550Y70370100D02*
X52934900Y70704450D01*
X52253250Y70370100D02*
X52600550Y70370100D01*
X51970900Y70087750D02*
X52253250Y70370100D01*
X51970900Y69740450D02*
X51970900Y70087750D01*
X51636550Y69406100D02*
X51970900Y69740450D01*
X51281250Y69406100D02*
X51636550Y69406100D01*
X49964300Y68089150D02*
X51281250Y69406100D01*
X49964300Y67716450D02*
X49964300Y68089150D01*
X49655350Y67407500D02*
X49964300Y67716450D01*
X49292050Y67407500D02*
X49655350Y67407500D01*
X48973700Y67089150D02*
X49292050Y67407500D01*
X48973700Y66741850D02*
X48973700Y67089150D01*
X48639350Y66407500D02*
X48973700Y66741850D01*
X47285450Y66407500D02*
X48639350Y66407500D01*
X46767450Y65889500D02*
X47285450Y66407500D01*
X46433100Y65889500D02*
X46767450Y65889500D01*
X45943600Y65400000D02*
X46433100Y65889500D01*
X43600000Y65400000D02*
X45943600Y65400000D01*
X43007000Y64807000D02*
X43600000Y65400000D01*
X40917210Y64807000D02*
X43007000Y64807000D01*
X40060210Y63950000D02*
X40917210Y64807000D01*
X29600000Y23275000D02*
X30050000Y23275000D01*
X52934900Y71077150D02*
X53270450Y71412700D01*
X53270450Y71412700D02*
X53643150Y71412700D01*
X53643150Y71412700D02*
X53925500Y71695050D01*
X53925500Y71695050D02*
X53925500Y72067750D01*
X53925500Y72067750D02*
X54234450Y72376700D01*
X54234450Y72376700D02*
X69766490Y72376700D01*
X69766490Y72376700D02*
X70146790Y72757000D01*
X70146790Y72757000D02*
X73268000Y72757000D01*
X73268000Y72757000D02*
X74825000Y71200000D01*
X74825000Y70625000D02*
X74825000Y71200000D01*
X28800000Y24075000D02*
X29600000Y23275000D01*
X28500000Y36000000D02*
X29275000Y35225000D01*
X29275000Y29675000D02*
X29275000Y35225000D01*
X28800000Y29200000D02*
X29275000Y29675000D01*
X28800000Y24075000D02*
X28800000Y29200000D01*
X75650000Y59000000D02*
X77575000Y60925000D01*
X77575000Y60925000D02*
X77575000Y67875000D01*
X74825000Y70625000D02*
X77575000Y67875000D01*
X28500000Y36000000D02*
X28500000Y53627820D01*
X28500000Y53627820D02*
X38822180Y63950000D01*
X38822180Y63950000D02*
X40060210Y63950000D01*
X91880400Y45505400D02*
X93675000Y47300000D01*
X78737950Y45505400D02*
X91880400Y45505400D01*
X77909110Y46334240D02*
X78737950Y45505400D01*
X76540880Y46334240D02*
X77909110Y46334240D01*
X76471760Y46265120D02*
X76540880Y46334240D01*
X69700000Y35125000D02*
X69700000Y38825000D01*
X53700000Y25400000D02*
X59975000Y25400000D01*
X59975000Y25400000D02*
X69700000Y35125000D01*
X78875000Y53650000D02*
X79082000Y53857000D01*
X88918000Y53857000D02*
X89325000Y53450000D01*
X79082000Y53857000D02*
X88918000Y53857000D01*
X63453420Y61884780D02*
X63771770Y61884780D01*
X63771770Y61884780D02*
X64253780Y61402780D01*
X65900000Y37125000D02*
X66900000Y37125000D01*
X71646800Y55560450D02*
X71675000Y55588650D01*
X67800000Y48075000D02*
X71646800Y51921800D01*
X71646800Y51921800D02*
X71646800Y55560450D01*
X66900000Y37125000D02*
X67800000Y38025000D01*
X67800000Y38025000D02*
X67800000Y48075000D01*
X57200000Y30075000D02*
X61825000Y30075000D01*
X61825000Y30075000D02*
X64143000Y32393000D01*
X71675000Y55588650D02*
X71675000Y59225000D01*
X71350000Y59550000D02*
X71675000Y59225000D01*
X64253780Y61402780D02*
X68522230Y61402780D01*
X68522230Y61402780D02*
X70375000Y59550000D01*
X70375000Y59550000D02*
X71350000Y59550000D01*
X64143000Y32393000D02*
X64143000Y35368000D01*
X64143000Y35368000D02*
X65900000Y37125000D01*
X62453420Y59796580D02*
X62453420Y59884770D01*
X62453420Y59796580D02*
X62971420Y59278580D01*
X62971420Y58656550D02*
X62971420Y59278580D01*
X62971420Y58656550D02*
X63271090Y58356880D01*
X63271090Y58356880D02*
X63718120Y58356880D01*
X63718120Y58356880D02*
X63971420Y58103580D01*
X63971420Y57685130D02*
X63971420Y58103580D01*
X63971420Y57685130D02*
X64253780Y57402780D01*
X64253780Y57402780D02*
X64297220Y57402780D01*
X64297220Y57402780D02*
X64775000Y56925000D01*
X66575000Y54675000D02*
X67725000Y53525000D01*
X67725000Y52725000D02*
X67725000Y53525000D01*
X67210250Y52210250D02*
X67725000Y52725000D01*
X67210250Y51614090D02*
X67210250Y52210250D01*
X66671160Y51075000D02*
X67210250Y51614090D01*
X66100000Y51075000D02*
X66671160Y51075000D01*
X65450000Y50425000D02*
X66100000Y51075000D01*
X66767400Y39874050D02*
X66767400Y43707600D01*
X66175000Y38200000D02*
X66175000Y39281650D01*
X66175000Y39281650D02*
X66767400Y39874050D01*
X65750000Y44725000D02*
X65750000Y49075000D01*
X65450000Y49375000D02*
X65750000Y49075000D01*
X65750000Y44725000D02*
X66767400Y43707600D01*
X65450000Y49375000D02*
X65450000Y50425000D01*
X64775000Y55925000D02*
X64775000Y56925000D01*
X64775000Y55925000D02*
X66025000Y54675000D01*
X66025000Y54675000D02*
X66575000Y54675000D01*
X53350000Y21800000D02*
X53375000Y21800000D01*
X53375000Y21800000D02*
X55925000Y24350000D01*
X55925000Y24350000D02*
X60325000Y24350000D01*
X60325000Y24350000D02*
X63775000Y27800000D01*
X63775000Y27800000D02*
X64875000Y27800000D01*
X67225000Y38150000D02*
X67225000Y39650000D01*
X66700000Y37625000D02*
X67225000Y38150000D01*
X65675000Y37625000D02*
X66700000Y37625000D01*
X61532000Y30557000D02*
X63450000Y32475000D01*
X57000350Y30557000D02*
X61532000Y30557000D01*
X56718000Y30274650D02*
X57000350Y30557000D01*
X56718000Y30218000D02*
X56718000Y30274650D01*
X53025000Y26525000D02*
X56718000Y30218000D01*
X53025000Y22925000D02*
X53025000Y26525000D01*
X51377510Y21301040D02*
X51401040Y21301040D01*
X51401040Y21301040D02*
X53025000Y22925000D01*
X63450000Y35400000D02*
X65675000Y37625000D01*
X63450000Y32475000D02*
X63450000Y35400000D01*
X77481650Y37325000D02*
X78300000Y37325000D01*
X77099650Y36943000D02*
X77481650Y37325000D01*
X38975000Y36175000D02*
X38975000Y36800000D01*
X38125000Y37650000D02*
X38975000Y36800000D01*
X54350000Y24800000D02*
X54364000Y24786000D01*
X54364000Y24786000D02*
X59986000Y24786000D01*
X72925000Y37725000D02*
X75693000Y37725000D01*
X75693000Y37725000D02*
X76475000Y36943000D01*
X59986000Y24786000D02*
X72925000Y37725000D01*
X76475000Y36943000D02*
X77099650Y36943000D01*
X76228260Y47721740D02*
X76228260Y48175000D01*
X76228260Y47721740D02*
X76582000Y47368000D01*
X76582000Y47368000D02*
X81311350Y47368000D01*
X81311350Y47368000D02*
X81650350Y47707000D01*
X81650350Y47707000D02*
X82136350Y47707000D01*
X82136350Y47707000D02*
X82625350Y47218000D01*
X82625350Y47218000D02*
X83024650Y47218000D01*
X83024650Y47218000D02*
X83306650Y47500000D01*
X83306650Y47500000D02*
X88900000Y47500000D01*
X88900000Y47500000D02*
X89750000Y48350000D01*
X89750000Y48350000D02*
X90400000Y48350000D01*
X90400000Y48350000D02*
X90575000Y48525000D01*
X73450000Y46875000D02*
X77975000Y46875000D01*
X90575000Y46575000D02*
X90775000Y46775000D01*
X86600000Y46575000D02*
X90575000Y46575000D01*
X78750000Y46100000D02*
X86125000Y46100000D01*
X77975000Y46875000D02*
X78750000Y46100000D01*
X86125000Y46100000D02*
X86600000Y46575000D01*
X21089400Y31300000D02*
X25800000Y31300000D01*
D19*
X16980000Y32015000D02*
X18377740Y30617260D01*
X18377740Y30617260D02*
X20406660Y30617260D01*
X20406660Y30617260D02*
X21089400Y31300000D01*
X16980000Y29475000D02*
X18255000Y28200000D01*
X18255000Y28200000D02*
X24400000Y28200000D01*
D21*
X24400000Y28200000D02*
X25775000Y29575000D01*
D19*
X57985220Y4705900D02*
X77569100Y4705900D01*
X55691120Y7000000D02*
X57985220Y4705900D01*
X41586000Y7000000D02*
X55691120Y7000000D01*
X38872600Y9713390D02*
X41586000Y7000000D01*
X34311610Y9713390D02*
X38872600Y9713390D01*
X77569100Y4705900D02*
X78275000Y4000000D01*
X25350000Y18675000D02*
X25350000Y23500000D01*
X22100000Y26750000D02*
X25350000Y23500000D01*
X25350000Y18675000D02*
X34311610Y9713390D01*
D21*
X64907010Y81035650D02*
X64907010Y82307010D01*
X64907010Y82307010D02*
X65400000Y82800000D01*
X59930700Y75055550D02*
X60249050Y75373900D01*
X59621750Y74383300D02*
X59930700Y74692250D01*
X59930700Y74692250D02*
X59930700Y75055550D01*
X60249050Y75373900D02*
X60621750Y75373900D01*
X60621750Y75373900D02*
X60930700Y75682850D01*
X60930700Y75682850D02*
X60930700Y76046150D01*
X60930700Y76046150D02*
X61249050Y76364500D01*
X61249050Y76364500D02*
X61596350Y76364500D01*
X61596350Y76364500D02*
X61930700Y76698850D01*
X61930700Y76698850D02*
X61930700Y77062150D01*
X61930700Y77062150D02*
X62249050Y77380500D01*
X62249050Y77380500D02*
X62621750Y77380500D01*
X62621750Y77380500D02*
X62930700Y77689450D01*
X62930700Y77689450D02*
X62930700Y78052750D01*
X62930700Y78052750D02*
X63249050Y78371100D01*
X63249050Y78371100D02*
X63596350Y78371100D01*
X63596350Y78371100D02*
X63930700Y78705450D01*
X63930700Y78705450D02*
X63930700Y80059350D01*
X63930700Y80059350D02*
X64907010Y81035650D01*
X53624500Y75400500D02*
X53925500Y75099500D01*
X53925500Y74674500D02*
X54216700Y74383300D01*
X53925500Y74674500D02*
X53925500Y75099500D01*
X54216700Y74383300D02*
X59621750Y74383300D01*
X50954900Y75682850D02*
X51237250Y75400500D01*
X51237250Y75400500D02*
X53624500Y75400500D01*
X50446300Y76898500D02*
X50954900Y76389900D01*
X50954900Y75682850D02*
X50954900Y76389900D01*
X60852990Y99034600D02*
X61975000Y97912600D01*
X61975000Y88089000D02*
X61975000Y97912600D01*
X61468000Y87582000D02*
X61975000Y88089000D01*
X61468000Y86546790D02*
X61468000Y87582000D01*
X61468000Y86546790D02*
X61975000Y86039790D01*
X61975000Y82275000D02*
X61975000Y86039790D01*
X59930700Y80230700D02*
X61975000Y82275000D01*
X59930700Y79696050D02*
X59930700Y80230700D01*
X59648350Y79413700D02*
X59930700Y79696050D01*
X59275650Y79413700D02*
X59648350Y79413700D01*
X58930700Y79068750D02*
X59275650Y79413700D01*
X58930700Y78705450D02*
X58930700Y79068750D01*
X58648350Y78423100D02*
X58930700Y78705450D01*
X58301050Y78423100D02*
X58648350Y78423100D01*
X57930700Y78052750D02*
X58301050Y78423100D01*
X57930700Y77689450D02*
X57930700Y78052750D01*
X57648350Y77407100D02*
X57930700Y77689450D01*
X57275650Y77407100D02*
X57648350Y77407100D01*
X55932100Y76063550D02*
X57275650Y77407100D01*
X55932100Y75682850D02*
X55932100Y76063550D01*
X55649750Y75400500D02*
X55932100Y75682850D01*
X54234450Y75400500D02*
X55649750Y75400500D01*
X53752450Y75882500D02*
X54234450Y75400500D01*
X53443500Y75882500D02*
X53752450Y75882500D01*
X60168000Y81282790D02*
X60168000Y86207000D01*
X59589350Y80718000D02*
X59603200Y80718000D01*
X58930700Y79696050D02*
X58930700Y80059350D01*
X58275650Y79413700D02*
X58648350Y79413700D01*
X57930700Y78705450D02*
X57930700Y79068750D01*
X57301050Y78423100D02*
X57648350Y78423100D01*
X55932100Y76698850D02*
X55932100Y77054150D01*
X60852990Y86892000D02*
X60852990Y96494600D01*
X60168000Y86207000D02*
X60852990Y86892000D01*
X59603200Y80718000D02*
X60168000Y81282790D01*
X58930700Y80059350D02*
X59589350Y80718000D01*
X58648350Y79413700D02*
X58930700Y79696050D01*
X57930700Y79068750D02*
X58275650Y79413700D01*
X57648350Y78423100D02*
X57930700Y78705450D01*
X55932100Y77054150D02*
X57301050Y78423100D01*
X55649750Y76416500D02*
X55932100Y76698850D01*
X54968100Y76416500D02*
X55649750Y76416500D01*
X54434100Y75882500D02*
X54968100Y76416500D01*
X56650000Y93500000D02*
X58075000Y94925000D01*
X56650000Y81789790D02*
X56650000Y93500000D01*
X55448200Y80587990D02*
X56650000Y81789790D01*
X58312990Y99034600D02*
X59625000Y97722600D01*
X59625000Y95750000D02*
X59625000Y97722600D01*
X58800000Y94925000D02*
X59625000Y95750000D01*
X58075000Y94925000D02*
X58800000Y94925000D01*
X55448200Y79959200D02*
X55448200Y80587990D01*
X56175000Y94356610D02*
X58312990Y96494600D01*
X54618000Y80119600D02*
X54618000Y81850000D01*
X56175000Y83407000D02*
X56175000Y94356610D01*
X54618000Y81850000D02*
X56175000Y83407000D01*
X54457600Y79959200D02*
X54618000Y80119600D01*
X53243850Y78423100D02*
X53873500Y78423100D01*
X52934900Y78732050D02*
X53243850Y78423100D01*
X52934900Y78732050D02*
X52934900Y88799690D01*
X53873500Y78423100D02*
X54407500Y77889100D01*
X54407500Y77889100D02*
X54434100Y77889100D01*
X52250990Y98052600D02*
X53232990Y99034600D01*
X52250990Y96087840D02*
X52250990Y98052600D01*
X52250990Y96087840D02*
X53032000Y95306830D01*
X53032000Y88896800D02*
X53032000Y95306830D01*
X52934900Y88799690D02*
X53032000Y88896800D01*
X53952100Y79375000D02*
X54422000Y78905100D01*
X53952100Y79375000D02*
X53952100Y82087690D01*
X54422000Y78905100D02*
X54434100Y78905100D01*
X53232990Y96494600D02*
X53825000Y95902590D01*
X53825000Y87014000D02*
X53825000Y95902590D01*
X53293000Y86482000D02*
X53825000Y87014000D01*
X53293000Y82746790D02*
X53293000Y86482000D01*
X53293000Y82746790D02*
X53952100Y82087690D01*
X52452900Y79895700D02*
X52452900Y86611900D01*
X50692990Y99034600D02*
X51675000Y98052600D01*
X51675000Y95014000D02*
X51675000Y98052600D01*
X50193000Y93532000D02*
X51675000Y95014000D01*
X50193000Y92496790D02*
X50193000Y93532000D01*
X50193000Y92496790D02*
X50682010Y92007790D01*
X50682010Y89971800D02*
X50682010Y92007790D01*
X50193000Y89482790D02*
X50682010Y89971800D01*
X50193000Y88871800D02*
X50193000Y89482790D01*
X50193000Y88871800D02*
X52452900Y86611900D01*
X52452900Y78905100D02*
X52452900Y79172100D01*
X51918900Y79706100D02*
X52452900Y79172100D01*
X51918900Y79706100D02*
X51918900Y81156100D01*
X50368000Y82707000D02*
X51918900Y81156100D01*
X50368000Y85682790D02*
X50457000Y85771790D01*
X50457000Y85771790D02*
X50457000Y86378200D01*
X50368000Y86467210D02*
X50457000Y86378200D01*
X50368000Y86467210D02*
X50368000Y86752740D01*
X49193000Y87927740D02*
X50368000Y86752740D01*
X50368000Y82707000D02*
X50368000Y85682790D01*
X49193000Y87927740D02*
X49193000Y94994610D01*
X49193000Y94994610D02*
X50692990Y96494600D01*
X47968000Y84482000D02*
X47968000Y87747040D01*
X47968000Y84482000D02*
X51436900Y81013100D01*
X51436900Y79895700D02*
X51436900Y81013100D01*
X38069190Y99034600D02*
X39627190Y97476600D01*
X39627190Y96087840D02*
X39627190Y97476600D01*
X39627190Y96087840D02*
X47968000Y87747040D01*
X47654000Y84351940D02*
X47654000Y85835790D01*
X47654000Y84351940D02*
X50954900Y81051040D01*
X50954900Y79696050D02*
X50954900Y81051040D01*
X51237250Y79413700D02*
X51609950Y79413700D01*
X51609950Y79413700D02*
X51970900Y79052750D01*
X51970900Y78705450D02*
X51970900Y79052750D01*
X51970900Y78705450D02*
X52452900Y78223450D01*
X52452900Y77889100D02*
X52452900Y78223450D01*
X46443000Y87046790D02*
X47654000Y85835790D01*
X38069190Y96494600D02*
X46443000Y88120800D01*
X46443000Y87046790D02*
X46443000Y88120800D01*
X50954900Y79696050D02*
X51237250Y79413700D01*
X36800000Y95975000D02*
X36800000Y97763790D01*
X36800000Y95975000D02*
X44482000Y88293000D01*
X44482000Y87221790D02*
X44482000Y88293000D01*
X44393000Y87132790D02*
X44482000Y87221790D01*
X44393000Y86396870D02*
X44393000Y87132790D01*
X44393000Y86396870D02*
X45571880Y85217990D01*
X45571880Y85217990D02*
X46092220Y85217990D01*
X46092220Y85217990D02*
X49964300Y81345910D01*
X49964300Y79696050D02*
X49964300Y81345910D01*
X51301790Y78905100D02*
X51436900Y78905100D01*
X49964300Y79696050D02*
X50246650Y79413700D01*
X50246650Y79413700D02*
X50793190Y79413700D01*
X50793190Y79413700D02*
X51301790Y78905100D01*
X35529190Y99034600D02*
X36800000Y97763790D01*
X40257000Y86342990D02*
X40257000Y87118000D01*
X35529190Y91845810D02*
X40257000Y87118000D01*
X48662500Y80412500D02*
X48973700Y80101300D01*
X40257000Y86342990D02*
X46187500Y80412500D01*
X46187500Y80412500D02*
X48662500Y80412500D01*
X48973700Y79696050D02*
X48973700Y80101300D01*
X48973700Y79696050D02*
X49256050Y79413700D01*
X49256050Y79413700D02*
X49628750Y79413700D01*
X49628750Y79413700D02*
X49964300Y79078150D01*
X49964300Y78705450D02*
X49964300Y79078150D01*
X49964300Y78705450D02*
X50246650Y78423100D01*
X50246650Y78423100D02*
X51584550Y78423100D01*
X51584550Y78423100D02*
X51970900Y78036750D01*
X51970900Y77689450D02*
X51970900Y78036750D01*
X51970900Y77689450D02*
X52253250Y77407100D01*
X52253250Y77407100D02*
X52934900Y77407100D01*
X52934900Y77407100D02*
X53443500Y76898500D01*
X35529190Y91845810D02*
X35529190Y96494600D01*
X48973700Y78371100D02*
X49455700Y77889100D01*
X48292050Y78371100D02*
X48973700Y78371100D01*
X46083200Y79391800D02*
X46630850Y79391800D01*
X45425000Y80050000D02*
X46083200Y79391800D01*
X46635550Y79387100D02*
X47648750Y79387100D01*
X46630850Y79391800D02*
X46635550Y79387100D01*
X47931100Y78732050D02*
X48292050Y78371100D01*
X47931100Y78732050D02*
X47931100Y79104750D01*
X47648750Y79387100D02*
X47931100Y79104750D01*
X29400000Y97600000D02*
X30449190Y98649190D01*
X30449190Y98649190D02*
X30449190Y99034600D01*
X29400000Y92500000D02*
X29400000Y97600000D01*
X29400000Y92500000D02*
X41850000Y80050000D01*
X41850000Y80050000D02*
X45425000Y80050000D01*
X46154300Y79895700D02*
X46433100Y79895700D01*
X44237500Y81812500D02*
X46154300Y79895700D01*
X30449190Y94050810D02*
X30449190Y96494600D01*
X30449190Y94050810D02*
X42687500Y81812500D01*
X42687500Y81812500D02*
X44237500Y81812500D01*
X41175000Y79625000D02*
X45404250Y79625000D01*
X28891200Y91908800D02*
X41175000Y79625000D01*
X28891200Y91908800D02*
X28891200Y96901360D01*
X45924500Y78734850D02*
X45924500Y79104750D01*
X45404250Y79625000D02*
X45924500Y79104750D01*
X27909190Y97883360D02*
X27909190Y99034600D01*
X27909190Y97883360D02*
X28891200Y96901360D01*
X45924500Y78734850D02*
X46288250Y78371100D01*
X46288250Y78371100D02*
X46632750Y78371100D01*
X46632750Y78371100D02*
X47114750Y77889100D01*
X47114750Y77889100D02*
X47449100Y77889100D01*
X27909190Y90540800D02*
X39982000Y78468000D01*
X39982000Y78468000D02*
X40678200Y78468000D01*
X40678200Y78468000D02*
X41117210Y78907000D01*
X41117210Y78907000D02*
X44128200Y78907000D01*
X27909190Y90540800D02*
X27909190Y96494600D01*
X44960500Y78371100D02*
X45442500Y77889100D01*
X44664110Y78371100D02*
X44960500Y78371100D01*
X44128200Y78907000D02*
X44664110Y78371100D01*
D19*
X48950000Y34646750D02*
X48950000Y42750000D01*
X48950000Y34646750D02*
X48975000Y34621750D01*
X48975000Y34228250D02*
X48975000Y34621750D01*
X48950000Y34203250D02*
X48975000Y34228250D01*
X48950000Y27225000D02*
X48950000Y34203250D01*
X53146750Y20150000D02*
X65546750Y7750000D01*
X50750000Y21050000D02*
X51650000Y20150000D01*
X50750000Y21050000D02*
X50750000Y25425000D01*
X51650000Y20150000D02*
X53146750Y20150000D01*
X48950000Y42750000D02*
X49075000Y42875000D01*
X48950000Y27225000D02*
X50750000Y25425000D01*
X65546750Y7750000D02*
X76900000Y7750000D01*
X76900000Y7750000D02*
X77550000Y8400000D01*
X77550000Y8400000D02*
X77950000Y8400000D01*
X51900000Y20850000D02*
X52303250Y20850000D01*
X52303250Y20850000D02*
X52578250Y20575000D01*
X52578250Y20575000D02*
X53575000Y20575000D01*
X53575000Y20575000D02*
X64950000Y9200000D01*
X77975000Y7550000D02*
X78350000Y7550000D01*
X78350000Y7550000D02*
X78750000Y7950000D01*
X64950000Y9200000D02*
X78250000Y9200000D01*
X78250000Y9200000D02*
X78750000Y8700000D01*
X78750000Y7950000D02*
X78750000Y8700000D01*
X55445380Y62884780D02*
X56970370Y64409770D01*
X56970370Y64409770D02*
X57650170Y64409770D01*
X57650170Y64409770D02*
X57928420Y64688020D01*
X57928420Y64688020D02*
X57928420Y65031530D01*
X57928420Y65031530D02*
X58306670Y65409780D01*
X58306670Y65409780D02*
X58650170Y65409780D01*
X58650170Y65409780D02*
X58928420Y65688020D01*
X58928420Y65688020D02*
X58928420Y66031530D01*
X58928420Y66031530D02*
X59306670Y66409780D01*
X59306670Y66409780D02*
X71209770Y66409780D01*
X71209770Y66409780D02*
X71459770Y66659780D01*
X49930700Y75366900D02*
X50446300Y75882500D01*
X49258950Y75366900D02*
X49930700Y75366900D01*
X48980700Y75088650D02*
X49258950Y75366900D01*
X48980700Y74761150D02*
X48980700Y75088650D01*
X48595850Y74376300D02*
X48980700Y74761150D01*
X48242950Y74376300D02*
X48595850Y74376300D01*
X47964700Y74098050D02*
X48242950Y74376300D01*
X47964700Y73745150D02*
X47964700Y74098050D01*
X47579850Y73360300D02*
X47964700Y73745150D01*
X47252350Y73360300D02*
X47579850Y73360300D01*
X46974100Y73082050D02*
X47252350Y73360300D01*
X46974100Y72754550D02*
X46974100Y73082050D01*
X46589250Y72369700D02*
X46974100Y72754550D01*
X46236350Y72369700D02*
X46589250Y72369700D01*
X45917500Y72050850D02*
X46236350Y72369700D01*
X45917500Y70707350D02*
X45917500Y72050850D01*
X45639250Y70429100D02*
X45917500Y70707350D01*
X45311750Y70429100D02*
X45639250Y70429100D01*
X43525000Y68642350D02*
X45311750Y70429100D01*
X43525000Y67799700D02*
X43525000Y68642350D01*
X41375300Y65650000D02*
X43525000Y67799700D01*
X49300000Y16025000D02*
X52950000Y19675000D01*
X28100000Y23100000D02*
X30775000Y20425000D01*
X27950000Y35750000D02*
X28675000Y35025000D01*
X28675000Y29725000D02*
X28675000Y35025000D01*
X28100000Y29150000D02*
X28675000Y29725000D01*
X28100000Y23100000D02*
X28100000Y29150000D01*
X30775000Y16414140D02*
X30775000Y20425000D01*
X30775000Y16414140D02*
X31839140Y15350000D01*
X31839140Y15350000D02*
X36791690Y15350000D01*
X36791690Y15350000D02*
X37466690Y16025000D01*
X37466690Y16025000D02*
X49300000Y16025000D01*
X27950000Y35750000D02*
X27950000Y54915520D01*
X27950000Y54915520D02*
X38684480Y65650000D01*
X38684480Y65650000D02*
X41375300Y65650000D01*
X49930700Y76701750D02*
X49930700Y77155700D01*
X49930700Y77155700D02*
X50148500Y77373500D01*
X53443500Y77889100D02*
X53959100Y77373500D01*
X53959100Y76584100D02*
X53959100Y77373500D01*
X53732500Y76357500D02*
X53959100Y76584100D01*
X53246750Y76357500D02*
X53732500Y76357500D01*
X53204250Y76400000D02*
X53246750Y76357500D01*
X52253250Y76400000D02*
X53204250Y76400000D01*
X51950000Y76703250D02*
X52253250Y76400000D01*
X51950000Y76703250D02*
X51950000Y77071750D01*
X51648250Y77373500D02*
X51950000Y77071750D01*
X50148500Y77373500D02*
X51648250Y77373500D01*
X49652450Y76423500D02*
X49930700Y76701750D01*
X49324950Y76423500D02*
X49652450Y76423500D01*
X48914700Y76013250D02*
X49324950Y76423500D01*
X48914700Y75685750D02*
X48914700Y76013250D01*
X48636450Y75407500D02*
X48914700Y75685750D01*
X48283550Y75407500D02*
X48636450Y75407500D01*
X47924100Y75048050D02*
X48283550Y75407500D01*
X47924100Y74695150D02*
X47924100Y75048050D01*
X47645850Y74416900D02*
X47924100Y74695150D01*
X47292950Y74416900D02*
X47645850Y74416900D01*
X46908100Y74032050D02*
X47292950Y74416900D01*
X46908100Y73704550D02*
X46908100Y74032050D01*
X46629850Y73426300D02*
X46908100Y73704550D01*
X46302350Y73426300D02*
X46629850Y73426300D01*
X45917500Y73041450D02*
X46302350Y73426300D01*
X45917500Y72688550D02*
X45917500Y73041450D01*
X45639250Y72410300D02*
X45917500Y72688550D01*
X45286350Y72410300D02*
X45639250Y72410300D01*
X43600010Y70723960D02*
X45286350Y72410300D01*
X43600010Y70324700D02*
X43600010Y70723960D01*
X40650300Y67375000D02*
X43600010Y70324700D01*
X28275000Y30350000D02*
X28275000Y34325000D01*
X27200000Y22550000D02*
X27200000Y29275000D01*
X27200000Y22550000D02*
X27800000Y21950000D01*
X27200000Y29275000D02*
X28275000Y30350000D01*
X27800000Y18578170D02*
X27800000Y21950000D01*
X27800000Y18578170D02*
X31422100Y14956070D01*
X31422100Y14956070D02*
X51031070Y14956070D01*
X51031070Y14956070D02*
X52450000Y16375000D01*
X27425000Y55104060D02*
X39695940Y67375000D01*
X39695940Y67375000D02*
X40650300Y67375000D01*
X27425000Y35175000D02*
X27425000Y55104060D01*
X27425000Y35175000D02*
X28275000Y34325000D01*
X58458800Y-3931140D02*
X91568860Y-3931140D01*
X51527660Y3000000D02*
X58458800Y-3931140D01*
X35650000Y3000000D02*
X51527660Y3000000D01*
X97000000Y1500000D02*
X97000000Y62300000D01*
X91568860Y-3931140D02*
X97000000Y1500000D01*
X33950000Y1300000D02*
X35650000Y3000000D01*
X95952200Y63347800D02*
X97000000Y62300000D01*
X95952200Y63347800D02*
X95952200Y63352200D01*
X71775000Y65350000D02*
X71775000Y65425000D01*
X71259160Y65425000D02*
X71775000Y65425000D01*
X55445380Y61884780D02*
X56781670Y61884780D01*
X56781670Y61884780D02*
X57256670Y62359780D01*
X57256670Y62359780D02*
X59609780Y62359780D01*
X59609780Y62359780D02*
X59978420Y62728420D01*
X59978420Y62728420D02*
X59978420Y63081530D01*
X59978420Y63081530D02*
X60306670Y63409770D01*
X60306670Y63409770D02*
X62650170Y63409770D01*
X62650170Y63409770D02*
X62978420Y63738020D01*
X62978420Y63738020D02*
X62978420Y64081530D01*
X62978420Y64081530D02*
X63256670Y64359770D01*
X63256670Y64359770D02*
X64600180Y64359770D01*
X64600180Y64359770D02*
X64978420Y64738020D01*
X64978420Y64738020D02*
X64978420Y65081530D01*
X64978420Y65081530D02*
X65256670Y65359780D01*
X65256670Y65359780D02*
X67800000Y65359780D01*
X67800000Y65359780D02*
X68265220Y65825000D01*
X68265220Y65825000D02*
X70859160Y65825000D01*
X70859160Y65825000D02*
X71259160Y65425000D01*
X56996770Y-5514080D02*
X92942910Y-5514080D01*
X51982690Y-500000D02*
X56996770Y-5514080D01*
X40830000Y-500000D02*
X51982690Y-500000D01*
X39030000Y1300000D02*
X40830000Y-500000D01*
X92942910Y-5514080D02*
X98500000Y43010D01*
X98500000Y43010D02*
X98500000Y66054000D01*
X96152200Y68401800D02*
X98500000Y66054000D01*
X54434100Y64889500D02*
X54609100Y65064500D01*
X54609100Y65064500D02*
X54609100Y65392750D01*
X54609100Y65392750D02*
X54909100Y65692750D01*
X54909100Y65692750D02*
X54909100Y66020250D01*
X54909100Y66020250D02*
X55248620Y66359780D01*
X55248620Y66359780D02*
X55642130Y66359780D01*
X55642130Y66359780D02*
X55732350Y66450000D01*
X55732350Y66450000D02*
X56646750Y66450000D01*
X56646750Y66450000D02*
X56978420Y66781670D01*
X56978420Y66781670D02*
X56978420Y67081530D01*
X56978420Y67081530D02*
X57306670Y67409780D01*
X57306670Y67409780D02*
X57650170Y67409780D01*
X57650170Y67409780D02*
X57978420Y67738030D01*
X57978420Y67738030D02*
X57978420Y68081530D01*
X57978420Y68081530D02*
X58256670Y68359780D01*
X58256670Y68359780D02*
X58309780Y68359780D01*
X58309780Y68359780D02*
X58625000Y68675000D01*
X58625000Y68675000D02*
X68075000Y68675000D01*
X68075000Y68675000D02*
X68300000Y68900000D01*
X57484910Y-5000000D02*
X92500000Y-5000000D01*
X52484910Y0D02*
X57484910Y-5000000D01*
X42870000Y0D02*
X52484910Y0D01*
X41570000Y1300000D02*
X42870000Y0D01*
X98000000Y500000D02*
X98000000Y64954000D01*
X92500000Y-5000000D02*
X98000000Y500000D01*
X95952200Y67001800D02*
X98000000Y64954000D01*
X54434100Y62889500D02*
X54970380Y63425780D01*
X54970380Y63425780D02*
X54970380Y64081530D01*
X54970380Y64081530D02*
X55248620Y64359770D01*
X55248620Y64359770D02*
X55904370Y64359770D01*
X55904370Y64359770D02*
X56954370Y65409780D01*
X56954370Y65409780D02*
X57650170Y65409780D01*
X57650170Y65409780D02*
X57928420Y65688020D01*
X57928420Y65688020D02*
X57928420Y66031530D01*
X57928420Y66031530D02*
X58306670Y66409780D01*
X58306670Y66409780D02*
X58650170Y66409780D01*
X58650170Y66409780D02*
X58928420Y66688030D01*
X58928420Y66688030D02*
X58928420Y67078430D01*
X58928420Y67078430D02*
X59259770Y67409780D01*
X59259770Y67409780D02*
X67965220Y67409780D01*
X67965220Y67409780D02*
X68425000Y66950000D01*
X68425000Y66950000D02*
X70878240Y66950000D01*
X70878240Y66950000D02*
X71213020Y67284780D01*
X71213020Y67284780D02*
X71759780Y67284780D01*
X71759780Y67284780D02*
X72050000Y67575000D01*
X58013450Y-4500000D02*
X92000000Y-4500000D01*
X51013440Y2500000D02*
X58013450Y-4500000D01*
X37690000Y2500000D02*
X51013440Y2500000D01*
X97500000Y1000000D02*
X97500000Y64386600D01*
X92000000Y-4500000D02*
X97500000Y1000000D01*
X36490000Y1300000D02*
X37690000Y2500000D01*
X96052200Y65834400D02*
X97500000Y64386600D01*
X54434100Y63889500D02*
X54670380Y64125770D01*
X54670380Y64125770D02*
X54670380Y64454020D01*
X54670380Y64454020D02*
X54909100Y64692750D01*
X54909100Y64692750D02*
X54909100Y65020250D01*
X54909100Y65020250D02*
X55248620Y65359780D01*
X57615400Y66375000D02*
X57978420Y66738030D01*
X57978420Y66738030D02*
X57978420Y67081530D01*
X57978420Y67081530D02*
X58256670Y67359780D01*
X58256670Y67359780D02*
X58734770Y67359780D01*
X58734770Y67359780D02*
X58978420Y67603430D01*
X58978420Y67603430D02*
X58978420Y68081530D01*
X55248620Y65359780D02*
X56184780Y65359780D01*
X56184780Y65359780D02*
X57200000Y66375000D01*
X57200000Y66375000D02*
X57615400Y66375000D01*
X58978420Y68081530D02*
X59271900Y68375000D01*
X67625000Y68375000D02*
X67675000Y68325000D01*
X67675000Y68325000D02*
X69049690Y68325000D01*
X69613690Y68889000D02*
X69675000Y68889000D01*
X59271900Y68375000D02*
X67625000Y68375000D01*
X69049690Y68325000D02*
X69613690Y68889000D01*
D21*
X38275000Y34225000D02*
X41100000Y37050000D01*
X41100000Y37050000D02*
X41100000Y40975000D01*
X41100000Y40975000D02*
X42025000Y41900000D01*
D19*
X39275000Y33925000D02*
X39316160Y33925000D01*
X39316160Y33925000D02*
X41525000Y36133840D01*
X41525000Y36133840D02*
X41525000Y40325000D01*
X41525000Y40325000D02*
X41850000Y40650000D01*
X25500000Y27500000D02*
X26475000Y26525000D01*
X18115000Y25800000D02*
X20175000Y25800000D01*
X20175000Y25800000D02*
X21875000Y27500000D01*
X21875000Y27500000D02*
X25500000Y27500000D01*
X16980000Y26935000D02*
X18115000Y25800000D01*
X93016800Y17525000D02*
X93108400Y17433400D01*
X75475000Y17525000D02*
X93016800Y17525000D01*
X64653150Y26376290D02*
X66623710Y26376290D01*
X66623710Y26376290D02*
X75475000Y17525000D01*
X77444590Y13792200D02*
X89867200Y13792200D01*
X89867200Y13792200D02*
X90600000Y14525000D01*
X67595850Y22532400D02*
X67792600Y22532400D01*
X67792600Y22532400D02*
X73100000Y17225000D01*
X73100000Y17225000D02*
X91700000Y17225000D01*
X91700000Y17225000D02*
X93800000Y15125000D01*
X64279110Y25785200D02*
X64343050Y25785200D01*
X64343050Y25785200D02*
X67595850Y22532400D01*
X73538600Y23825000D02*
X75000000Y25286400D01*
X75000000Y25286400D02*
X75000000Y33025000D01*
X75000000Y33025000D02*
X75600000Y33625000D01*
X76350000Y24175000D02*
X77350000Y25175000D01*
X75996800Y24175000D02*
X76350000Y24175000D01*
X73950000Y37175000D02*
X77350000Y33775000D01*
X77350000Y25175000D02*
X77350000Y33775000D01*
X57163600Y3880700D02*
X76936440Y3880700D01*
X54746190Y6298100D02*
X57163600Y3880700D01*
X31201900Y6298100D02*
X54746190Y6298100D01*
X17808270Y19691730D02*
X31201900Y6298100D01*
X77667140Y3150000D02*
X82200000Y3150000D01*
X76936440Y3880700D02*
X77667140Y3150000D01*
X16825000Y36650000D02*
X16825000Y37525000D01*
X15025000Y34850000D02*
X16825000Y36650000D01*
X15025000Y23950000D02*
X17808270Y21166730D01*
X15025000Y23950000D02*
X15025000Y34850000D01*
X17808270Y19691730D02*
X17808270Y21166730D01*
X19520000Y29475000D02*
X20675000Y29475000D01*
X20675000Y29475000D02*
X21875000Y30675000D01*
X21875000Y30675000D02*
X27700000Y30675000D01*
M02*
