G04 #@! TF.GenerationSoftware,KiCad,Pcbnew,5.0.0-rc2-dev-unknown-9f5316e~63~ubuntu17.10.1*
G04 #@! TF.CreationDate,2018-04-23T17:13:08+02:00*
G04 #@! TF.ProjectId,Cryptech Alpha,437279707465636820416C7068612E6B,rev?*
G04 #@! TF.SameCoordinates,Original*
G04 #@! TF.FileFunction,Copper,L5,Inr,Plane*
G04 #@! TF.FilePolarity,Positive*
%FSLAX46Y46*%
G04 Gerber Fmt 4.6, Leading zero omitted, Abs format (unit mm)*
G04 Created by KiCad (PCBNEW 5.0.0-rc2-dev-unknown-9f5316e~63~ubuntu17.10.1) date Mon Apr 23 17:13:08 2018*
%MOMM*%
%LPD*%
G01*
G04 APERTURE LIST*
%ADD10C,1.500000*%
%ADD11R,1.500000X1.500000*%
%ADD12C,1.016000*%
%ADD13O,2.000000X4.500000*%
%ADD14O,4.500000X2.000000*%
%ADD15C,0.500000*%
%ADD16C,1.000000*%
%ADD17C,0.600000*%
G04 APERTURE END LIST*
D10*
X36580000Y-6000000D03*
X54360000Y-6000000D03*
X51820000Y-6000000D03*
X49280000Y-6000000D03*
X46740000Y-6000000D03*
X44200000Y-6000000D03*
X41660000Y-6000000D03*
X39120000Y-6000000D03*
X34040000Y-6000000D03*
D11*
X31500000Y-6000000D03*
X84160740Y30530000D03*
D10*
X84160740Y33070000D03*
D12*
X67209800Y-13884000D03*
X62800000Y-13884000D03*
X82800000Y-13884000D03*
X87209800Y-13884000D03*
D10*
X29133790Y20421600D03*
X26593790Y20421600D03*
X24053790Y20421600D03*
X21513790Y20421600D03*
X18973790Y20421600D03*
D11*
X16433790Y20421600D03*
X38506390Y11252200D03*
D10*
X38506390Y13792200D03*
X41046390Y11252200D03*
X41046390Y13792200D03*
X43586390Y11252200D03*
X43586390Y13792200D03*
X77444590Y13792200D03*
X77444590Y11252200D03*
X74904590Y13792200D03*
X74904590Y11252200D03*
X72364590Y13792200D03*
D11*
X72364590Y11252200D03*
D13*
X24800000Y-7800000D03*
D14*
X20000000Y-10600000D03*
X20000000Y-4800000D03*
D10*
X65916800Y91744800D03*
D11*
X63376800Y91744800D03*
X87847000Y33705800D03*
D10*
X90387000Y33705800D03*
X87847000Y31165800D03*
X90387000Y31165800D03*
X87847000Y28625800D03*
X90387000Y28625800D03*
X91219330Y-1500000D03*
X88679330Y-1500000D03*
D11*
X86139330Y-1500000D03*
X16980000Y32015000D03*
D10*
X19520000Y32015000D03*
X16980000Y29475000D03*
X19520000Y29475000D03*
X16980000Y26935000D03*
X19520000Y26935000D03*
X49190000Y1300000D03*
D11*
X31410000Y1300000D03*
D10*
X33950000Y1300000D03*
X36490000Y1300000D03*
X39030000Y1300000D03*
X41570000Y1300000D03*
X44110000Y1300000D03*
X46650000Y1300000D03*
X50692990Y96494600D03*
X50692990Y99034600D03*
X53232990Y96494600D03*
X53232990Y99034600D03*
X55772990Y96494600D03*
X55772990Y99034600D03*
X58312990Y96494600D03*
X58312990Y99034600D03*
X60852990Y96494600D03*
X60852990Y99034600D03*
X63392990Y96494600D03*
X63392990Y99034600D03*
X65932990Y96494600D03*
X65932990Y99034600D03*
X68472990Y96494600D03*
D11*
X68472990Y99034600D03*
X45689190Y99034600D03*
D10*
X45689190Y96494600D03*
X43149190Y99034600D03*
X43149190Y96494600D03*
X40609190Y99034600D03*
X40609190Y96494600D03*
X38069190Y99034600D03*
X38069190Y96494600D03*
X35529190Y99034600D03*
X35529190Y96494600D03*
X32989190Y99034600D03*
X32989190Y96494600D03*
X30449190Y99034600D03*
X30449190Y96494600D03*
X27909190Y99034600D03*
X27909190Y96494600D03*
D15*
X84500000Y-6500000D03*
X72725000Y-16500000D03*
X83500000Y-6500000D03*
X72750000Y-15000000D03*
X85500000Y-6500000D03*
X77496220Y-14963590D03*
X86500000Y-6500000D03*
X77496220Y-16469460D03*
X66000000Y5500000D03*
D16*
X60660000Y-14963590D03*
X80500000Y-9536420D03*
X89500000Y-15000000D03*
X89487400Y-9500000D03*
X80660000Y-15067780D03*
X69488400Y-15000000D03*
X69488400Y-9000000D03*
X60500000Y-9413610D03*
X85000000Y-8000000D03*
X66500000Y-9000000D03*
X35750000Y-16750000D03*
X57500000Y-16800000D03*
X48750000Y-16750000D03*
X47000000Y-16750000D03*
X37982000Y-16750000D03*
X27000000Y-16800000D03*
D15*
X30530800Y-9000000D03*
X30750000Y-1500000D03*
X8250000Y2654120D03*
X11772170Y2692730D03*
D16*
X43593770Y52492120D03*
D15*
X84554130Y15100740D03*
X87550000Y15025000D03*
X88679330Y15000730D03*
X89125000Y19525000D03*
X12100590Y12500610D03*
X16700000Y8425000D03*
X13550000Y4400000D03*
X11125000Y7400000D03*
X88993380Y2527420D03*
X87997700Y2527420D03*
X86998520Y2477410D03*
X86000000Y2477410D03*
X53950000Y44200000D03*
X54627670Y44227160D03*
X58700000Y41823870D03*
X58827870Y40551980D03*
X47427310Y41402020D03*
X95952200Y63352200D03*
X96152200Y68401800D03*
X95952200Y67001800D03*
X96052200Y65834400D03*
X15550000Y12450000D03*
X17425000Y13425000D03*
X16275000Y12325000D03*
X13600000Y7175000D03*
X17512500Y5687500D03*
X45500000Y-14250000D03*
X41500000Y-14250000D03*
X39500000Y-14250000D03*
X43500000Y-14250000D03*
X34250000Y-14250000D03*
X30255000Y-14250000D03*
X28250000Y-14250000D03*
X32250000Y-14250000D03*
X52000000Y-14250000D03*
X56000000Y-14250000D03*
X54000000Y-14250000D03*
X50000000Y-14250000D03*
D16*
X8000000Y88514570D03*
X9500000Y88494600D03*
X9500000Y87000000D03*
X8000000Y87019970D03*
X8000000Y91439570D03*
X9500000Y91419600D03*
X9500000Y89925000D03*
X8000000Y89944970D03*
X8000000Y94439570D03*
X9500000Y94419600D03*
X9500000Y92925000D03*
X8000000Y92944970D03*
X8000000Y95944970D03*
X9500000Y95925000D03*
X9500000Y97419600D03*
X8000000Y97439570D03*
D15*
X85575000Y15200000D03*
X86229210Y15700770D03*
X50446300Y77889100D03*
X48440000Y69888100D03*
X47449000Y69888100D03*
X46433100Y69888100D03*
X58453420Y69892820D03*
X54434100Y69888100D03*
X54434100Y67889500D03*
X54434100Y66889500D03*
X54434100Y70904100D03*
X53443500Y69888100D03*
X59453420Y67884780D03*
X53443500Y66889500D03*
X53443500Y70904100D03*
X52452900Y69888100D03*
X53443500Y71894700D03*
X53443500Y65889500D03*
X54434100Y72885300D03*
X52452900Y71894700D03*
X53443500Y72885300D03*
X52452900Y65889500D03*
X53443500Y64889500D03*
X51436900Y69888100D03*
X51436900Y67889500D03*
X51436900Y70904100D03*
X54434100Y73901300D03*
X52452900Y72885300D03*
X53443500Y63889500D03*
X51436900Y65889500D03*
X50446300Y67889500D03*
X62453420Y69892820D03*
X62453420Y67884780D03*
X52452900Y63889500D03*
X50446300Y66889500D03*
X58448700Y74891900D03*
X50446300Y70904100D03*
X54434100Y74891900D03*
X52452900Y73901300D03*
X62448700Y70904100D03*
X51436900Y64889500D03*
X50446300Y71894700D03*
X50446300Y65889500D03*
X59448700Y74891900D03*
X62448700Y71894700D03*
X62453420Y65884780D03*
X51436900Y63889500D03*
X51436900Y73901300D03*
X49455700Y67889500D03*
X50446300Y72885300D03*
X52452900Y62889500D03*
X50446300Y64889500D03*
X60448700Y74891900D03*
X63453420Y69892820D03*
X62453420Y64884770D03*
X58448700Y75882500D03*
X49455700Y70904100D03*
X58453420Y61884780D03*
X63453420Y66884780D03*
X54434100Y61889500D03*
X53443500Y61889500D03*
X63448700Y71894700D03*
X63453420Y65884780D03*
X61448700Y74891900D03*
X61453430Y62884780D03*
X62453420Y63884770D03*
X50446300Y73901300D03*
X51436900Y62889500D03*
X49455700Y72885300D03*
X49455700Y64889500D03*
X60448700Y75882500D03*
X52452900Y61889500D03*
X63448700Y72885300D03*
X64453420Y69892820D03*
X57448700Y76898500D03*
X64453420Y66884780D03*
X64448700Y70904100D03*
X48439700Y66889500D03*
X58448700Y76898500D03*
X48439700Y70904100D03*
X50446300Y62889500D03*
X62448700Y74891900D03*
X62453420Y62884780D03*
X49455700Y63889500D03*
X49455700Y73901300D03*
X51436900Y75882500D03*
X64448700Y71894700D03*
X59453420Y60884780D03*
X64453420Y65884780D03*
X63453420Y63884770D03*
X48439700Y71894700D03*
X48439700Y65889500D03*
X59448700Y76898500D03*
X52452900Y60889500D03*
X64448700Y72885300D03*
X48439700Y72885300D03*
X48439700Y64889500D03*
X49455700Y74891900D03*
X49455700Y62889500D03*
X62448700Y75882500D03*
X57448700Y77889100D03*
X65453430Y69892820D03*
X65453430Y67884780D03*
X47449100Y66889500D03*
X65453430Y66884780D03*
X65448700Y70904100D03*
X61453430Y60884780D03*
X64453420Y63884770D03*
X61448700Y76898500D03*
X64448700Y73901300D03*
X47449100Y71894700D03*
X47449100Y65889500D03*
X59448700Y77889100D03*
X59453420Y59884770D03*
X49455700Y75882500D03*
X47449100Y72885300D03*
X60448700Y77889100D03*
X65448700Y72885300D03*
X60453420Y59884770D03*
X65453430Y64884770D03*
X64448700Y74891900D03*
X62453420Y60884780D03*
X48439700Y74891900D03*
X62448700Y76898500D03*
X66453420Y67884780D03*
X46433100Y67889500D03*
X57448700Y78905100D03*
X47449100Y63889500D03*
X61448700Y77889100D03*
X47449100Y73901300D03*
X58453420Y58884780D03*
X66453420Y66884780D03*
X66448700Y70904100D03*
X65453430Y63884770D03*
X65448700Y73901300D03*
X58448700Y78905100D03*
X46433100Y70904100D03*
X66448700Y71894700D03*
X66453420Y65884780D03*
X46433100Y71894700D03*
X59448700Y78905100D03*
X48439700Y75882500D03*
X63453420Y60884780D03*
X63448700Y76898500D03*
X47449100Y74891900D03*
X66448700Y72885300D03*
X65448700Y74891900D03*
X66453420Y64884770D03*
X60448700Y78905100D03*
X67453420Y69892820D03*
X45442500Y67889500D03*
X66448700Y73901300D03*
X46433100Y63889500D03*
X61448700Y78905100D03*
X46433100Y73901300D03*
X58448700Y79895700D03*
X45442500Y70904100D03*
X67448700Y70904100D03*
X64453420Y60884780D03*
X65448700Y75882500D03*
X63448700Y77889100D03*
X45442500Y71894700D03*
X67448700Y71894700D03*
X67453420Y65884780D03*
X46433100Y74891900D03*
X50446300Y78905100D03*
X46433100Y62889500D03*
X62448700Y78905100D03*
X45442500Y72885300D03*
X60448700Y79895700D03*
X64448700Y77889100D03*
X47449100Y76898500D03*
X48439700Y77889100D03*
X45442500Y73901300D03*
X67448700Y73901300D03*
X66448700Y75882500D03*
X46433100Y75882500D03*
X63448700Y78905100D03*
X67448700Y74891900D03*
X62448700Y79895700D03*
X66448700Y76898500D03*
X46433100Y60889500D03*
X64448700Y78905100D03*
X46433100Y76898500D03*
X45442500Y75882500D03*
X67448700Y75882500D03*
X45442500Y61889500D03*
X66448700Y77889100D03*
X66453420Y59884770D03*
X64448700Y79895700D03*
X45442500Y76898500D03*
X67448700Y76898500D03*
X66448700Y78905100D03*
X45442500Y78905100D03*
X67448700Y78905100D03*
X67448700Y79895700D03*
X51475000Y76875000D03*
X52450000Y76875000D03*
X63453420Y62884780D03*
X75850000Y28075000D03*
X47025000Y36050000D03*
X37750000Y23375000D03*
X24585000Y42815000D03*
X76675000Y31975000D03*
X56100000Y44900000D03*
D16*
X52125000Y28150000D03*
D15*
X65350000Y33525000D03*
X71425000Y37075000D03*
X70500000Y91250000D03*
X92207800Y84632800D03*
X79450000Y21550000D03*
X69113400Y12736600D03*
X51436900Y77889100D03*
D16*
X46125000Y85949990D03*
X40950000Y87500000D03*
X47175000Y87350000D03*
X48700000Y87325000D03*
D15*
X55450100Y75882500D03*
X57448700Y75882500D03*
X72202200Y58097800D03*
X52550000Y56400000D03*
D16*
X55225000Y30175000D03*
D15*
X57453420Y67884780D03*
X58453420Y67884780D03*
X57448700Y70904100D03*
X58453420Y66884780D03*
X55450100Y71894700D03*
X59453420Y69892820D03*
X57453420Y65884780D03*
X58448700Y71894700D03*
X59453420Y66884780D03*
X54434100Y65889500D03*
X59448700Y70904100D03*
X52452900Y67889500D03*
X57448700Y72885300D03*
X55445380Y64884770D03*
X60453420Y69892820D03*
X59453420Y65884780D03*
X52452900Y70904100D03*
X58453420Y64884770D03*
X60453420Y66884780D03*
X59448700Y72885300D03*
X60448700Y71894700D03*
X57453420Y63884770D03*
X61453430Y67884780D03*
X55450100Y73901300D03*
X61448700Y70904100D03*
X51436900Y66889500D03*
X58448700Y73901300D03*
X60453420Y64884770D03*
X59453420Y63884770D03*
X61453430Y65884780D03*
X53443500Y73901300D03*
X59448700Y73901300D03*
X57448700Y74891900D03*
X61448700Y72885300D03*
X62453420Y66884780D03*
X60448700Y73901300D03*
X53443500Y62889500D03*
X61453430Y63884770D03*
X61448700Y73901300D03*
X49455700Y69888100D03*
X57453420Y61884780D03*
X63453420Y67884780D03*
X49455700Y66889500D03*
X63448700Y70904100D03*
X49455700Y71894700D03*
X59448700Y75882500D03*
X59453420Y61884780D03*
X50446300Y63889500D03*
X62448700Y73901300D03*
X60453420Y61884780D03*
X55450100Y76898500D03*
X48439700Y67889500D03*
X54434100Y76898500D03*
X50446300Y74891900D03*
X61448700Y75882500D03*
X61453430Y61884780D03*
X63448700Y73901300D03*
X60453420Y60884780D03*
X60448700Y76898500D03*
X55450100Y77889100D03*
X50446300Y61889500D03*
X63448700Y74891900D03*
X58448700Y77889100D03*
X65453430Y65884780D03*
X63448700Y75882500D03*
X47449100Y64889500D03*
X52452900Y59889500D03*
X64453420Y62884780D03*
X55445380Y58884780D03*
X66453420Y69892820D03*
X55450100Y78905100D03*
X49455700Y60889500D03*
X64448700Y75882500D03*
X48439700Y61889500D03*
X62448700Y77889100D03*
X46433100Y72885300D03*
X45442500Y69888100D03*
X57448700Y79895700D03*
X64448700Y76898500D03*
X48439700Y76898500D03*
X47449100Y75882500D03*
X63453420Y59884770D03*
X59453420Y57884780D03*
X59448700Y79895700D03*
X67448700Y72885300D03*
X48439700Y59889500D03*
X65448700Y76898500D03*
X61448700Y79895700D03*
X49455700Y58889500D03*
X46433100Y61889500D03*
X65448700Y77889100D03*
X48439700Y78905100D03*
X67453420Y61884780D03*
X63448700Y79895700D03*
X65448700Y78905100D03*
X66453420Y58884780D03*
X65448700Y79895700D03*
X45442500Y58889500D03*
X66448700Y79895700D03*
X46431200Y78909800D03*
X56413400Y79959200D03*
D16*
X7250000Y82000000D03*
X8250000Y82000000D03*
X9250000Y82000000D03*
X10250000Y82000000D03*
X11250000Y82000000D03*
X12250000Y82000000D03*
X13250000Y82000000D03*
X14250000Y82000000D03*
X15250000Y82000000D03*
X16250000Y82000000D03*
X17250000Y82000000D03*
X18250000Y82000000D03*
X18250000Y80750000D03*
X17250000Y80750000D03*
X16250000Y80750000D03*
X15250000Y80750000D03*
X14250000Y80750000D03*
X13250000Y80750000D03*
X12250000Y80750000D03*
X11250000Y80750000D03*
X10250000Y80750000D03*
X9250000Y80750000D03*
X8250000Y80750000D03*
X7250000Y80750000D03*
X18250000Y79500000D03*
X17250000Y79500000D03*
X16250000Y79500000D03*
X15250000Y79500000D03*
X14250000Y79500000D03*
X13250000Y79500000D03*
X12250000Y79500000D03*
X11250000Y79500000D03*
X10250000Y79500000D03*
X9250000Y79500000D03*
X8250000Y79500000D03*
X7250000Y79500000D03*
X18250000Y78250000D03*
X17250000Y78250000D03*
X16250000Y78250000D03*
X15250000Y78250000D03*
X14250000Y78250000D03*
X13250000Y78250000D03*
X12250000Y78250000D03*
X11250000Y78250000D03*
X10250000Y78250000D03*
X9250000Y78250000D03*
X8250000Y78250000D03*
X7250000Y78250000D03*
X18250000Y77000000D03*
X17250000Y77000000D03*
X16250000Y77000000D03*
X15250000Y77000000D03*
X14250000Y77000000D03*
X13250000Y77000000D03*
X12250000Y77000000D03*
X11250000Y77000000D03*
X10250000Y77000000D03*
X9250000Y77000000D03*
X8250000Y77000000D03*
X7250000Y77000000D03*
X18250000Y75750000D03*
X17250000Y75750000D03*
X16250000Y75750000D03*
X15250000Y75750000D03*
X14250000Y75750000D03*
X13250000Y75750000D03*
X12250000Y75750000D03*
X11250000Y75750000D03*
X10250000Y75750000D03*
X9250000Y75750000D03*
X8250000Y75750000D03*
X7250000Y75750000D03*
X18250000Y74500000D03*
X17250000Y74500000D03*
X16250000Y74500000D03*
X15250000Y74500000D03*
X14250000Y74500000D03*
X13250000Y74500000D03*
X12250000Y74500000D03*
X11250000Y74500000D03*
X10250000Y74500000D03*
X9250000Y74500000D03*
X8250000Y74500000D03*
X7250000Y74500000D03*
X39025000Y62075000D03*
X41475000Y62025000D03*
X41050000Y54450000D03*
X51300000Y53800000D03*
X55700000Y52700000D03*
X55775000Y55075000D03*
X67950000Y51650000D03*
X69750040Y51650000D03*
X70500000Y64675000D03*
X72750000Y64300000D03*
X76325000Y64300000D03*
X73825000Y63050000D03*
X75325000Y63050000D03*
X70375000Y71950000D03*
X72750000Y72025000D03*
X80400000Y73050000D03*
X78975000Y73025000D03*
X77925000Y74700000D03*
X81450000Y74625000D03*
X70350000Y73825000D03*
X74825000Y74525000D03*
X69275000Y80925000D03*
X68125000Y81450000D03*
X62875000Y82675000D03*
X55350000Y81525000D03*
X55325000Y84000000D03*
X62200000Y86850000D03*
X61000000Y85575000D03*
X54025000Y85750000D03*
X54025000Y83050000D03*
X49725000Y86075000D03*
X52300000Y89200000D03*
X50925000Y89175000D03*
X50925000Y92800000D03*
X52300000Y92775000D03*
X49925000Y91725000D03*
X49950000Y90275000D03*
X39525000Y86450000D03*
X42075010Y80975000D03*
X42200000Y78175000D03*
X42450000Y72675000D03*
X42875000Y66100000D03*
X40350000Y66375000D03*
X38775000Y76600000D03*
X39900000Y76600000D03*
X40375000Y79200000D03*
X38775000Y72825000D03*
X39825000Y72800000D03*
X38750000Y75425000D03*
X39875000Y75375000D03*
X24275000Y99850000D03*
X24275000Y98350000D03*
X24275000Y94850000D03*
X24275000Y93350000D03*
X24275000Y89850000D03*
X24275000Y88250000D03*
X5150000Y53724980D03*
X5100000Y54900000D03*
X6400000Y56700000D03*
X7700000Y56700000D03*
X7800000Y58900000D03*
X6500000Y58900000D03*
X5100000Y61600000D03*
X5100000Y60300000D03*
X12100000Y67900000D03*
X12100000Y66500000D03*
X13800000Y69600000D03*
X32900000Y54000000D03*
X36500000Y54200000D03*
X24800000Y51400000D03*
X24800000Y49900000D03*
X24800000Y47000000D03*
X24800000Y45500000D03*
X7200000Y40150000D03*
X7200000Y42100000D03*
X4150000Y40150000D03*
X4100000Y42100000D03*
X29750000Y24450000D03*
X92300000Y6200000D03*
X86425000Y5075000D03*
X74850000Y8475000D03*
X48275000Y8500000D03*
X26850000Y8975000D03*
X7750000Y17050000D03*
X25275000Y16900000D03*
X43549990Y51350000D03*
X74300000Y73300000D03*
D15*
X94100000Y62000000D03*
X93300000Y57800000D03*
X94600000Y58400000D03*
X94600000Y55400000D03*
X94600000Y52400000D03*
X94676800Y45423200D03*
X94795600Y41495600D03*
X93500000Y38100000D03*
X79000000Y60400000D03*
X77505400Y58894600D03*
X77424400Y56024400D03*
X73556800Y61456800D03*
X72128800Y52128800D03*
X60934600Y50865400D03*
X56588800Y51511200D03*
X50147600Y50052400D03*
X39717600Y50082400D03*
X31235800Y44935800D03*
X29821800Y41978200D03*
X29550000Y38550000D03*
X29417600Y36717600D03*
X27207800Y33007800D03*
X27550000Y32050000D03*
X31123000Y31377000D03*
X32700000Y39300000D03*
X39200000Y21400000D03*
X37800000Y21600000D03*
X40470200Y20729800D03*
D16*
X48450000Y13350000D03*
D15*
X55186200Y15313800D03*
X62400000Y15951200D03*
X67529000Y21971000D03*
X68584000Y23684000D03*
X67792600Y23007400D03*
X66156600Y30243400D03*
X66038400Y35161600D03*
X66285400Y41114600D03*
X65042800Y88442800D03*
X87923600Y60326400D03*
X89416000Y59166000D03*
X89454200Y56045800D03*
X88423600Y53326400D03*
X89487400Y45987400D03*
X89398000Y40648000D03*
X88439200Y39310800D03*
X48439700Y57889500D03*
D16*
X63200000Y52650000D03*
X60100000Y52800000D03*
D15*
X72150000Y55375000D03*
X58000000Y50825000D03*
X81450000Y53375000D03*
X72007600Y41392400D03*
X87800000Y43324000D03*
X43900000Y62875000D03*
X77453780Y45852240D03*
D16*
X66478240Y52027540D03*
X65053170Y52702570D03*
D15*
X72157800Y45042200D03*
X72117400Y38182600D03*
X78810800Y39310800D03*
X84599400Y11125600D03*
X81300000Y11150000D03*
X86131400Y10168600D03*
X89525000Y9425000D03*
X88100000Y10300000D03*
X89600000Y10275000D03*
X93163400Y19813400D03*
X88032000Y24968000D03*
X89032000Y24032000D03*
X83635400Y23039600D03*
X79655400Y18619600D03*
X83546400Y18103600D03*
X79600000Y15597000D03*
X81050000Y14900000D03*
X74225000Y16700000D03*
X12875000Y27375000D03*
X13000000Y23050000D03*
X12625000Y21175000D03*
X26600000Y24550000D03*
X51816000Y12559000D03*
X36000000Y15825000D03*
X19889200Y3689200D03*
X20750000Y7697600D03*
X21500000Y9225000D03*
X20625000Y11228200D03*
X22325000Y11375000D03*
X20686390Y12336400D03*
X8564000Y6886000D03*
X13575000Y2850000D03*
X53725000Y11975000D03*
X17225000Y4500000D03*
X17170000Y3000000D03*
X12717200Y15782800D03*
X73500000Y95250000D03*
X73500000Y90000000D03*
X73500000Y88000000D03*
X73500000Y82750000D03*
X77500000Y78750000D03*
X82250000Y78750000D03*
X85000000Y78750000D03*
X90000000Y78750000D03*
X94000000Y82750000D03*
X93954600Y92647600D03*
X90000000Y99250000D03*
X85000000Y99250000D03*
X82500000Y99250000D03*
X77500000Y99250000D03*
X76500000Y96250000D03*
X80000000Y96250000D03*
X83250000Y96250000D03*
X76500000Y93500000D03*
X80000000Y93500000D03*
X83250000Y93500000D03*
X76500000Y90750000D03*
X80000000Y90750000D03*
X76500000Y81500000D03*
X87000000Y83250000D03*
X92000000Y81250000D03*
X92250000Y96250000D03*
X94000000Y95250000D03*
X94000000Y90000000D03*
X94000000Y88000000D03*
X87000000Y96250000D03*
X70250000Y92500000D03*
X70250000Y98250000D03*
X70750000Y96338800D03*
X71500000Y85250000D03*
X71500000Y84000000D03*
X27200000Y84700000D03*
X27500000Y78100000D03*
X26831200Y71831200D03*
X28194000Y71431000D03*
X26050000Y74900000D03*
D16*
X25525000Y79000000D03*
X31525000Y82500000D03*
X32000000Y94000000D03*
X37000000Y94000000D03*
X44250000Y94000000D03*
D15*
X35375000Y81625000D03*
X30169400Y76344400D03*
X31580600Y76344400D03*
X30200000Y77300000D03*
X23225000Y63625000D03*
X23617800Y65082200D03*
X14833600Y48408600D03*
X14475000Y40625000D03*
X16217800Y41232200D03*
X32350000Y77375000D03*
X51970900Y81785740D03*
X53467000Y79925800D03*
X52451000Y74887200D03*
X51460400Y71890000D03*
X45448600Y66878200D03*
X68875000Y64900000D03*
X22150000Y48850000D03*
X21680000Y41545000D03*
X20125000Y40400000D03*
X40125000Y51675000D03*
X31823000Y49123000D03*
X50000000Y29475000D03*
X53275000Y40975000D03*
X76725000Y29075000D03*
X94239400Y72110600D03*
X91325000Y74000000D03*
D16*
X48450000Y55000000D03*
D15*
X44602400Y76352400D03*
D16*
X42875000Y70675000D03*
D15*
X68300000Y67775000D03*
D16*
X35400000Y65200000D03*
X31500000Y65200000D03*
X34100000Y65200000D03*
X31550000Y63475000D03*
X70800000Y53025000D03*
D15*
X35925000Y59100000D03*
D16*
X34425000Y52400000D03*
X42100000Y52675000D03*
D15*
X32600000Y29100000D03*
X44550000Y24225000D03*
X80125000Y29750000D03*
X82346800Y32003200D03*
X68264800Y30810200D03*
X71100000Y31975000D03*
X71625000Y29750000D03*
X73050000Y29800000D03*
D16*
X43725000Y76800000D03*
D15*
X70225000Y88750000D03*
X70144800Y89419800D03*
X70125000Y90075000D03*
X70225000Y82350000D03*
X15900780Y40426970D03*
D16*
X24617800Y82092800D03*
D15*
X67550000Y35675000D03*
X77503780Y40626980D03*
X78850000Y43750000D03*
X37875000Y16575000D03*
X42375000Y45025000D03*
X10850000Y35875000D03*
X16579200Y11375000D03*
X80350000Y10525000D03*
X85104150Y7750380D03*
X21076030Y4675230D03*
X25051220Y6675330D03*
X88135400Y15286200D03*
X84135120Y20567680D03*
D17*
X11745800Y41747200D03*
X11745800Y42347200D03*
X11745800Y42947200D03*
X11145800Y42947200D03*
X11145800Y42347200D03*
X11145800Y41747200D03*
X9945800Y41747200D03*
X9945800Y42347200D03*
X9945800Y42947200D03*
X10545800Y42947190D03*
X10545800Y42347190D03*
X10545800Y41747200D03*
X35758400Y75905600D03*
X35758400Y75305610D03*
X35758400Y74705610D03*
X36358400Y74705600D03*
X36358400Y75305600D03*
X36358400Y75905600D03*
X35158400Y75905600D03*
X35158400Y75305600D03*
X35158400Y74705600D03*
X34558400Y74705600D03*
X34558400Y75305600D03*
X34558400Y75905600D03*
X23509200Y54455200D03*
X23509200Y55055200D03*
X23509200Y55655200D03*
X22909200Y55655200D03*
X22909200Y55055200D03*
X22909200Y54455200D03*
X24109200Y54455210D03*
X24109200Y55055200D03*
X24109200Y55655200D03*
X24709200Y55655200D03*
X24709200Y55055200D03*
X24709200Y54455200D03*
X23509200Y56255200D03*
X23509200Y56855200D03*
X23509200Y57455200D03*
X22909200Y57455200D03*
X22909200Y56855200D03*
X22909200Y56255200D03*
X24109200Y56255210D03*
X24109200Y56855200D03*
X24109200Y57455200D03*
X24709200Y57455200D03*
X24709200Y56855200D03*
X24709200Y56255200D03*
X29234200Y59830200D03*
X29234200Y60430200D03*
X28634200Y60430200D03*
X28634200Y59830200D03*
X29834200Y59830200D03*
X29834200Y60430200D03*
X30434200Y60430200D03*
X30434200Y59830200D03*
X24709200Y58055210D03*
X24709200Y58655200D03*
X24709200Y59255200D03*
X24109200Y59255200D03*
X24109200Y58655200D03*
X24109200Y58055210D03*
X22909200Y58055210D03*
X22909200Y58655200D03*
X22909200Y59255200D03*
X23509200Y59255200D03*
X23509200Y58655200D03*
X23509200Y58055200D03*
D15*
X61000000Y8475000D03*
X61000000Y2000000D03*
X59500000Y5500000D03*
X48500000Y34425000D03*
X55550000Y40375000D03*
X45925000Y33475000D03*
X37982000Y42621260D03*
X66313640Y44843000D03*
X46000000Y41875000D03*
X67250000Y41600000D03*
X48002340Y31126520D03*
X64800000Y44350000D03*
X61975000Y35600000D03*
X61725000Y44875000D03*
X42025000Y37425000D03*
X61850000Y37250000D03*
X45975000Y14125000D03*
X41900000Y8075000D03*
X47352310Y9725470D03*
X46925000Y8700000D03*
X45800000Y10100000D03*
X44727180Y8725430D03*
X43450000Y8750000D03*
X44625000Y9925000D03*
X53925000Y36600000D03*
X54125000Y35950000D03*
X50427460Y31451530D03*
X50925000Y31000000D03*
X52675000Y21200000D03*
X56050000Y22150000D03*
X56825000Y21925000D03*
X57300000Y21400000D03*
X58175000Y43325000D03*
X56875000Y42700000D03*
X54402650Y40626980D03*
X53752660Y40497330D03*
X47449100Y78905100D03*
X50975000Y41000000D03*
X39025000Y43400000D03*
X47449100Y79895700D03*
X38126860Y43852140D03*
X47902340Y43877140D03*
X49455700Y79895700D03*
X39575000Y42900000D03*
X50152450Y41002000D03*
X48439700Y79895700D03*
X50650000Y40400000D03*
X39650000Y42225000D03*
X24000000Y9200000D03*
X30276480Y19475950D03*
X38650000Y25150000D03*
X45925000Y31650000D03*
X30026470Y9425460D03*
X56000000Y36425000D03*
X37800000Y25325000D03*
X45900000Y32375000D03*
X29238280Y9450000D03*
X55500000Y36950000D03*
X55452710Y19425950D03*
X44250000Y16550000D03*
X57975000Y29350000D03*
X26876310Y8025390D03*
X69175000Y32800000D03*
X57777820Y28551390D03*
X76125000Y16750000D03*
X51925000Y37300000D03*
X41400000Y19300000D03*
X48439700Y60889500D03*
X76050000Y83275000D03*
X56450000Y66925000D03*
X50446300Y59889500D03*
X90000000Y51300000D03*
X35400000Y27300000D03*
X72900000Y49000000D03*
X51436900Y57889500D03*
X90500000Y51900000D03*
X76700000Y51800000D03*
X39300000Y28500000D03*
X51436900Y58889500D03*
X76100000Y52300000D03*
X38500000Y28900000D03*
X89150000Y52350000D03*
X84625000Y52575000D03*
X51436900Y59889500D03*
X78103810Y54077640D03*
X32800000Y30200000D03*
X50446300Y57889500D03*
X38100000Y31400000D03*
X82654030Y52852580D03*
X77228770Y53902630D03*
X54434100Y58889500D03*
X39600000Y29500000D03*
X88504320Y50952490D03*
X78603840Y50952490D03*
X78290380Y50290380D03*
X90200000Y50300000D03*
X54434100Y57889500D03*
X45700000Y45900000D03*
X47900000Y49700000D03*
X52452900Y58889500D03*
X77600000Y50500000D03*
X88225000Y49875000D03*
X47000000Y48500000D03*
X52452900Y57889500D03*
X89300000Y49500000D03*
X76253790Y50864570D03*
X47499900Y48999900D03*
X54434100Y59889500D03*
X84925000Y49125000D03*
X81825000Y49075000D03*
X48000000Y48500000D03*
X53443500Y58889500D03*
X82554030Y50952490D03*
X69275000Y48425000D03*
X90600000Y49200000D03*
X53443500Y59889500D03*
X42925000Y45600000D03*
X77425000Y48400000D03*
X58453420Y57884780D03*
X89800000Y47700000D03*
X81850000Y47225000D03*
X61450000Y34300000D03*
X66453420Y61884780D03*
X64625000Y32800000D03*
X76700000Y49500000D03*
X55445380Y57884780D03*
X90799820Y49899900D03*
X60450000Y32950000D03*
X60453420Y57884780D03*
X94300000Y50300000D03*
X78903850Y46677280D03*
X61975000Y31828260D03*
X59453420Y58884780D03*
X61900000Y42300000D03*
X60453420Y58884780D03*
X62000000Y41600000D03*
X61453430Y59884770D03*
X64553150Y42025000D03*
X46433100Y57889500D03*
X35600000Y20400000D03*
X45442500Y57889500D03*
X35600000Y21100000D03*
X36800000Y21300000D03*
X47449100Y57889500D03*
X46433100Y59889500D03*
X35500000Y22900000D03*
X45442500Y59889500D03*
X32700000Y19800000D03*
X48900000Y19800000D03*
X49455700Y57889500D03*
X48439700Y58889500D03*
X48100000Y19650000D03*
X57453420Y60884780D03*
X59350000Y41625000D03*
X61453430Y57884780D03*
X61825000Y39975000D03*
X90425000Y39775000D03*
X77100000Y40075000D03*
X62375000Y57875000D03*
X76150000Y40800000D03*
X65675000Y39200000D03*
X90625000Y40875000D03*
X90879430Y41527030D03*
X67453420Y62884780D03*
X76400000Y41900000D03*
X59475000Y26725000D03*
X66453420Y62884780D03*
X90675000Y42300000D03*
X71675000Y39275000D03*
X58900000Y26050000D03*
X57453420Y57884780D03*
X90425000Y43000000D03*
X76953760Y43102100D03*
X55975000Y44200000D03*
X57440220Y58884780D03*
X53025000Y44200000D03*
X90525000Y43725000D03*
X76325000Y43875000D03*
X57453420Y59884770D03*
X50377460Y45877240D03*
X83175000Y44050000D03*
X55445380Y59884770D03*
X52150000Y48900000D03*
X83950000Y44325000D03*
X49455700Y59889500D03*
X51875000Y45950000D03*
X84850000Y43475000D03*
X46433100Y58889500D03*
X52300000Y44900000D03*
X89054350Y43475000D03*
X69525000Y43475000D03*
X47449100Y60889500D03*
X52975000Y45400000D03*
X81711360Y43656990D03*
X89600000Y42900000D03*
X52452900Y66889500D03*
X90025000Y41925000D03*
X82400000Y41600000D03*
X47449100Y62889500D03*
X76250000Y44850000D03*
X83375000Y40650000D03*
X67453420Y58884780D03*
X85000000Y41450000D03*
X67025000Y44750000D03*
X67453420Y57884780D03*
X81750000Y40100000D03*
X66453420Y57884780D03*
X90500000Y38900000D03*
X77725000Y39625000D03*
X76900000Y37425000D03*
X65453430Y57884780D03*
X90575000Y54450000D03*
X76200000Y54575000D03*
X65453430Y59884770D03*
X84475000Y55075000D03*
X66900000Y50025000D03*
X65453430Y58884780D03*
X84075000Y56550000D03*
X66128230Y49652420D03*
X63453420Y58884780D03*
X84754140Y56752770D03*
X67353290Y54652670D03*
X90725000Y57325000D03*
X63449880Y57874880D03*
X76250000Y57425000D03*
X66875000Y53375000D03*
X76400000Y58925000D03*
X64900000Y21769670D03*
X90404410Y58327850D03*
X64453420Y59884770D03*
X69375000Y61325000D03*
X64775000Y20975000D03*
X84575000Y59500000D03*
X71175000Y58850000D03*
X64453420Y58884780D03*
X84879140Y60477950D03*
X64453420Y61884780D03*
X62003030Y21576050D03*
X82375000Y59900000D03*
X88600000Y60075000D03*
X74300000Y61425000D03*
X58453420Y60884780D03*
X61925000Y23600000D03*
X83225000Y58875000D03*
X60825000Y21075000D03*
X64453420Y64884770D03*
X83525000Y62675000D03*
X60500000Y22300000D03*
X84100000Y58200000D03*
X74875000Y61050000D03*
X55445380Y60884780D03*
X90000000Y57807000D03*
X60125000Y23425000D03*
X53443500Y60889500D03*
X84750000Y57725010D03*
X86400000Y64325000D03*
X47449100Y61889500D03*
X82175000Y56100000D03*
X84350000Y69125000D03*
X32068820Y16075000D03*
X49455700Y61889500D03*
X78900000Y55800000D03*
X88450000Y64375000D03*
X31728800Y16775000D03*
X31175000Y23525000D03*
X46433100Y64889500D03*
X76875000Y55525000D03*
X87900000Y55425000D03*
X76428730Y56027730D03*
X30050000Y23275000D03*
X46433100Y65889500D03*
X90100000Y53450000D03*
X93675000Y47300000D03*
X76471760Y46265120D03*
X52200000Y23550000D03*
X90137400Y45987410D03*
X78450000Y47850000D03*
X53725000Y23550000D03*
X85279160Y53302600D03*
X69700000Y38825000D03*
X53700000Y25400000D03*
X78875000Y53650000D03*
X89325000Y53450000D03*
X53900000Y26100000D03*
X63453420Y61884780D03*
X57200000Y30075000D03*
X50446300Y60889500D03*
X51436900Y60889500D03*
X62453420Y59884770D03*
X66575000Y54675000D03*
X57700000Y31950000D03*
X66175000Y38200000D03*
X62453420Y58884780D03*
X61653010Y53252600D03*
X64950000Y20225000D03*
X66725000Y39050000D03*
X72950000Y47350000D03*
X42150000Y38425000D03*
X64875000Y27800000D03*
X53350000Y21800000D03*
X88054300Y48177350D03*
X76900000Y47950000D03*
X71950000Y43425000D03*
X82825000Y47700000D03*
X67225000Y39650000D03*
X51377510Y21301040D03*
X93885400Y48810400D03*
X78300000Y37325000D03*
X54350000Y24800000D03*
X38975000Y36175000D03*
X38125000Y37650000D03*
X49750000Y22375000D03*
X70228430Y42252060D03*
X76228260Y48175000D03*
X90575000Y48525000D03*
X44625000Y45775000D03*
X73450000Y46875000D03*
X90775000Y46775000D03*
X48439700Y63889500D03*
X25800000Y31300000D03*
X25775000Y29575000D03*
X45442500Y64889500D03*
X45442500Y65889500D03*
X55441360Y69896840D03*
X57448700Y73901300D03*
X22100000Y26750000D03*
X78275000Y4000000D03*
X50250000Y20900000D03*
X26900000Y48675000D03*
X39400000Y45425000D03*
X49455700Y78905100D03*
X70450000Y99125000D03*
X50446300Y76898500D03*
X65400000Y82800000D03*
X53443500Y75882500D03*
X54434100Y75882500D03*
X55448200Y79959200D03*
X54457600Y79959200D03*
X54434100Y77889100D03*
X54434100Y78905100D03*
X52452900Y79895700D03*
X52452900Y78905100D03*
X51436900Y79895700D03*
X52452900Y77889100D03*
X51436900Y78905100D03*
X53443500Y76898500D03*
X49455700Y77889100D03*
X46433100Y79895700D03*
X47449100Y77889100D03*
X45442500Y77889100D03*
X65453430Y62884780D03*
X69225000Y63425000D03*
X67453420Y63884770D03*
X45442500Y60889500D03*
X49075000Y42875000D03*
X77950000Y8400000D03*
X47449100Y58889500D03*
X51900000Y20850000D03*
X77975000Y7550000D03*
X55445380Y62884780D03*
X71409770Y66809780D03*
X88175000Y66575000D03*
X53443500Y74891900D03*
X65024990Y37656640D03*
X51436900Y74891900D03*
X61850000Y36375000D03*
X50446300Y75882500D03*
X52950000Y19675000D03*
X53443500Y77889100D03*
X52450000Y16375000D03*
X55445380Y61884780D03*
X71775000Y65350000D03*
X54434100Y64889500D03*
X68475000Y68975000D03*
X54434100Y62889500D03*
X72050000Y67575000D03*
X54434100Y63889500D03*
X69675000Y68889000D03*
X57453420Y62884780D03*
X58453420Y62884780D03*
X59453420Y62884780D03*
X55445380Y66884780D03*
X32900000Y47275000D03*
X42025000Y41900000D03*
X38275000Y34225000D03*
X41850000Y40650000D03*
X39275000Y33925000D03*
X42500000Y39150000D03*
X36000000Y40100000D03*
X39525000Y39475000D03*
X42575000Y40175000D03*
X49475000Y32650000D03*
X26475000Y26525000D03*
X55450100Y70904100D03*
X58448700Y70904100D03*
X55445380Y65884780D03*
X55450100Y72885300D03*
X57453420Y64884770D03*
X55424700Y67889500D03*
D16*
X47250000Y81625000D03*
X48650000Y81625000D03*
X46075000Y83150000D03*
X44000000Y73725000D03*
X51100000Y84125000D03*
X51100000Y86825000D03*
X46025000Y81650000D03*
X57802820Y55102690D03*
D15*
X57453420Y69892820D03*
X57453420Y66884780D03*
X57448700Y71894700D03*
X58453420Y65884780D03*
X60453420Y67884780D03*
X59448700Y71894700D03*
X58448700Y72885300D03*
X60448700Y70904100D03*
X59453420Y64884770D03*
X60453420Y65884780D03*
X61453430Y69892820D03*
X58453420Y63884770D03*
X61453430Y66884780D03*
X60448700Y72885300D03*
X61448700Y71894700D03*
X60453420Y63884770D03*
X61453430Y64884770D03*
D16*
X41825000Y69600000D03*
X40350000Y68100000D03*
X42800000Y68100000D03*
X43600000Y58924980D03*
X44675000Y56600000D03*
X57750000Y52725000D03*
X61225000Y56125000D03*
X75250000Y68550000D03*
X73875000Y68550000D03*
X76275000Y67375000D03*
X69425000Y67675000D03*
X77900000Y68825000D03*
X78900000Y66600000D03*
X80500000Y66575000D03*
X80350000Y69900000D03*
X70375000Y69975000D03*
X60900000Y82650000D03*
X59300000Y81450000D03*
X59275000Y84025000D03*
X57475000Y92825000D03*
X58800000Y92825000D03*
X59825000Y91775000D03*
X59850000Y90200000D03*
X57425000Y89175000D03*
X58850000Y89150000D03*
X72725000Y66950000D03*
X42050000Y58924980D03*
X72753550Y70078420D03*
D15*
X15050000Y14900000D03*
X38050000Y41400000D03*
X24575000Y38700000D03*
X32476580Y48952390D03*
X85400000Y19775000D03*
X86225000Y20075000D03*
X84600000Y20050000D03*
X93108400Y17433400D03*
X64653150Y26376290D03*
X90600000Y14525000D03*
X93800000Y15125000D03*
X64279110Y25785200D03*
X92250000Y21500000D03*
X93218000Y12718000D03*
X93968000Y11782000D03*
X91968000Y25032000D03*
X91032000Y24032000D03*
X83006000Y23844000D03*
X79725000Y19619600D03*
X79578000Y16597000D03*
X30000000Y5675000D03*
X32000000Y5625000D03*
X79171560Y19622870D03*
X84229700Y19084940D03*
X77173070Y15605840D03*
X38100000Y40550000D03*
X25275000Y37975000D03*
X39225000Y40200000D03*
X18025000Y17650000D03*
X6571600Y14071600D03*
X7773400Y13176600D03*
X7621000Y6204000D03*
X12500000Y2800000D03*
X19069200Y14919200D03*
X27351200Y17426200D03*
X14940800Y3590800D03*
X26450000Y16400000D03*
X20638600Y13336400D03*
X39550000Y4800000D03*
X12516240Y2253300D03*
D16*
X39425000Y7402400D03*
D15*
X31825000Y52450000D03*
X31750000Y51625000D03*
X38050000Y49123000D03*
X34075000Y50600000D03*
X69575000Y27000000D03*
X58275000Y28129350D03*
X70525000Y16775000D03*
X87847000Y37378000D03*
X52775000Y37300000D03*
X53700000Y37275000D03*
X69175000Y17575000D03*
X75750000Y21675000D03*
X77200000Y20100000D03*
X77250000Y16700000D03*
X51050000Y37275000D03*
X69425000Y28025000D03*
X59825000Y27350000D03*
X70300000Y20875000D03*
X54527660Y36951800D03*
X69675000Y33775000D03*
X70925000Y33625000D03*
X66453420Y60884780D03*
X67453420Y59884770D03*
X70775000Y27225000D03*
X67453420Y60884780D03*
X74725000Y33925000D03*
X65453430Y61884780D03*
X73225000Y33325000D03*
X75475000Y27050000D03*
X73538600Y23825000D03*
X75600000Y33625000D03*
X73950000Y37175000D03*
X75996800Y24175000D03*
X29802200Y63725000D03*
X32750000Y58650000D03*
X16825000Y37525000D03*
X82200000Y3150000D03*
X24250000Y80750000D03*
X32975000Y22325000D03*
X45442500Y62889500D03*
X32000000Y37000000D03*
X30300000Y73075000D03*
X10498200Y52700000D03*
X23436600Y62069330D03*
X13610600Y43360600D03*
X70500000Y88000000D03*
X24700000Y84700000D03*
X31600000Y73100000D03*
X20750000Y62575000D03*
X13698400Y44551600D03*
X26825000Y44225000D03*
X26950000Y42800000D03*
X26801310Y41552030D03*
X42400000Y31500000D03*
X27700000Y30675000D03*
X60125000Y19500000D03*
X61450000Y24600000D03*
X16375000Y9250000D03*
X16375000Y10050000D03*
X82797720Y5925000D03*
X13950000Y9950000D03*
X37125000Y71750000D03*
X18675000Y63625000D03*
X20450000Y64900000D03*
X12090000Y50165000D03*
X13425000Y40450000D03*
X9425000Y45425000D03*
X32575000Y78100000D03*
D16*
X43750000Y87525000D03*
X45125000Y86700080D03*
D15*
X50446300Y79895700D03*
D16*
X62075000Y55075000D03*
D15*
X53443500Y67889500D03*
X54434100Y71894700D03*
X55445380Y63884770D03*
X52452900Y64889500D03*
X50446300Y69888100D03*
X55450100Y74891900D03*
X51436900Y72885300D03*
X62448700Y72885300D03*
X60453420Y62884780D03*
X49455700Y65889500D03*
X52452900Y75882500D03*
X63453420Y64884770D03*
X64453420Y67884780D03*
X51436900Y61889500D03*
X62453420Y61884780D03*
X47449100Y70904100D03*
X58453420Y59884770D03*
X48439700Y73901300D03*
X65448700Y71894700D03*
X48439700Y62889500D03*
X46433100Y66889500D03*
X53443500Y78905100D03*
X49455700Y76898500D03*
X61453430Y58884780D03*
X66453420Y63884770D03*
X67453420Y66884780D03*
X53443500Y57889500D03*
X50446300Y58889500D03*
X66448700Y74891900D03*
X65453430Y60884780D03*
X45442500Y63889500D03*
X45442500Y74891900D03*
X47449100Y59889500D03*
X46433100Y77889100D03*
X64453420Y57884780D03*
X67448700Y77889100D03*
D16*
X41500000Y64075000D03*
X53300000Y53725000D03*
X68550000Y57175000D03*
X66600000Y56100000D03*
X71275000Y77225000D03*
X74875000Y76800000D03*
X64175000Y81475000D03*
X64950000Y86925000D03*
X64025000Y84325000D03*
X43800000Y80975000D03*
X43825000Y78175000D03*
X41600000Y75825000D03*
X9625000Y34575000D03*
X10575000Y33600000D03*
X10625000Y32525000D03*
X9650000Y31725000D03*
X29725000Y28700000D03*
X47650000Y51350000D03*
X70400000Y75500000D03*
D15*
X94600000Y60500000D03*
X94600000Y59377200D03*
X94700000Y56400000D03*
X94600000Y53400000D03*
X94600000Y46400000D03*
X94695600Y40495600D03*
X94692000Y39108000D03*
X77405400Y57894600D03*
X77375600Y55024400D03*
X72202200Y59097800D03*
X72300000Y60500000D03*
X72200000Y56200000D03*
X72128800Y53128800D03*
X51147600Y50052400D03*
X31335800Y45635800D03*
X31321800Y40978200D03*
X29721800Y40978200D03*
X31223000Y32377000D03*
X38000000Y19400000D03*
X38700000Y19300000D03*
D16*
X47050000Y13350000D03*
D15*
X54186200Y15286200D03*
X60841000Y15341000D03*
X66156600Y29243400D03*
X66061600Y36161600D03*
X66285400Y40114600D03*
X68080000Y87820000D03*
X66700400Y89099600D03*
X89416000Y58166000D03*
X89454200Y55045800D03*
X89487400Y44987400D03*
D16*
X70600000Y56124990D03*
X69625000Y57250000D03*
X46425000Y54550000D03*
D15*
X54434100Y60889500D03*
X57975000Y49025000D03*
X61675000Y48950000D03*
X38717600Y50082400D03*
X72107600Y40392400D03*
X72825000Y39700000D03*
X77453780Y44852190D03*
X89379360Y41627030D03*
X72042200Y46042200D03*
X91291800Y13633200D03*
X12850000Y31750000D03*
X18009600Y15059600D03*
X80695800Y80725000D03*
X47455200Y67894200D03*
X38075000Y50975000D03*
X26838600Y52211400D03*
X26940200Y49734800D03*
X42025000Y28825000D03*
X93052200Y68402200D03*
X93052200Y65827200D03*
X93127200Y63327200D03*
X79400000Y8700000D03*
X83704080Y71053470D03*
X44552170Y60377950D03*
D16*
X39000000Y64825000D03*
D15*
X36975000Y61225000D03*
X34150000Y67650000D03*
X31850000Y43975000D03*
X32175000Y42675000D03*
X31726550Y38751890D03*
X31500000Y30500000D03*
X48050000Y30175000D03*
X50225000Y26675000D03*
X29595000Y45355000D03*
X65800000Y21275000D03*
X77572600Y41727400D03*
X77290800Y86090800D03*
D16*
X70450000Y78175000D03*
D15*
X77048600Y76920600D03*
X81207400Y77225000D03*
M02*
