G04 #@! TF.GenerationSoftware,KiCad,Pcbnew,5.0.0-rc2-dev-unknown-9f5316e~63~ubuntu17.10.1*
G04 #@! TF.CreationDate,2018-04-23T17:13:08+02:00*
G04 #@! TF.ProjectId,Cryptech Alpha,437279707465636820416C7068612E6B,rev?*
G04 #@! TF.SameCoordinates,Original*
G04 #@! TF.FileFunction,Copper,L6,Inr,Mixed*
G04 #@! TF.FilePolarity,Positive*
%FSLAX46Y46*%
G04 Gerber Fmt 4.6, Leading zero omitted, Abs format (unit mm)*
G04 Created by KiCad (PCBNEW 5.0.0-rc2-dev-unknown-9f5316e~63~ubuntu17.10.1) date Mon Apr 23 17:13:08 2018*
%MOMM*%
%LPD*%
G01*
G04 APERTURE LIST*
%ADD10C,1.500000*%
%ADD11R,1.500000X1.500000*%
%ADD12C,1.016000*%
%ADD13O,2.000000X4.500000*%
%ADD14O,4.500000X2.000000*%
%ADD15C,0.500000*%
%ADD16C,1.000000*%
%ADD17C,0.600000*%
%ADD18C,0.150000*%
%ADD19C,0.164000*%
%ADD20C,0.300000*%
%ADD21C,0.200000*%
G04 APERTURE END LIST*
D10*
X36580000Y-6000000D03*
X54360000Y-6000000D03*
X51820000Y-6000000D03*
X49280000Y-6000000D03*
X46740000Y-6000000D03*
X44200000Y-6000000D03*
X41660000Y-6000000D03*
X39120000Y-6000000D03*
X34040000Y-6000000D03*
D11*
X31500000Y-6000000D03*
X84160740Y30530000D03*
D10*
X84160740Y33070000D03*
D12*
X67209800Y-13884000D03*
X62800000Y-13884000D03*
X82800000Y-13884000D03*
X87209800Y-13884000D03*
D10*
X29133790Y20421600D03*
X26593790Y20421600D03*
X24053790Y20421600D03*
X21513790Y20421600D03*
X18973790Y20421600D03*
D11*
X16433790Y20421600D03*
X38506390Y11252200D03*
D10*
X38506390Y13792200D03*
X41046390Y11252200D03*
X41046390Y13792200D03*
X43586390Y11252200D03*
X43586390Y13792200D03*
X77444590Y13792200D03*
X77444590Y11252200D03*
X74904590Y13792200D03*
X74904590Y11252200D03*
X72364590Y13792200D03*
D11*
X72364590Y11252200D03*
D13*
X24800000Y-7800000D03*
D14*
X20000000Y-10600000D03*
X20000000Y-4800000D03*
D10*
X65916800Y91744800D03*
D11*
X63376800Y91744800D03*
X87847000Y33705800D03*
D10*
X90387000Y33705800D03*
X87847000Y31165800D03*
X90387000Y31165800D03*
X87847000Y28625800D03*
X90387000Y28625800D03*
X91219330Y-1500000D03*
X88679330Y-1500000D03*
D11*
X86139330Y-1500000D03*
X16980000Y32015000D03*
D10*
X19520000Y32015000D03*
X16980000Y29475000D03*
X19520000Y29475000D03*
X16980000Y26935000D03*
X19520000Y26935000D03*
X49190000Y1300000D03*
D11*
X31410000Y1300000D03*
D10*
X33950000Y1300000D03*
X36490000Y1300000D03*
X39030000Y1300000D03*
X41570000Y1300000D03*
X44110000Y1300000D03*
X46650000Y1300000D03*
X50692990Y96494600D03*
X50692990Y99034600D03*
X53232990Y96494600D03*
X53232990Y99034600D03*
X55772990Y96494600D03*
X55772990Y99034600D03*
X58312990Y96494600D03*
X58312990Y99034600D03*
X60852990Y96494600D03*
X60852990Y99034600D03*
X63392990Y96494600D03*
X63392990Y99034600D03*
X65932990Y96494600D03*
X65932990Y99034600D03*
X68472990Y96494600D03*
D11*
X68472990Y99034600D03*
X45689190Y99034600D03*
D10*
X45689190Y96494600D03*
X43149190Y99034600D03*
X43149190Y96494600D03*
X40609190Y99034600D03*
X40609190Y96494600D03*
X38069190Y99034600D03*
X38069190Y96494600D03*
X35529190Y99034600D03*
X35529190Y96494600D03*
X32989190Y99034600D03*
X32989190Y96494600D03*
X30449190Y99034600D03*
X30449190Y96494600D03*
X27909190Y99034600D03*
X27909190Y96494600D03*
D15*
X84500000Y-6500000D03*
X72725000Y-16500000D03*
X83500000Y-6500000D03*
X72750000Y-15000000D03*
X85500000Y-6500000D03*
X77496220Y-14963590D03*
X86500000Y-6500000D03*
X77496220Y-16469460D03*
X66000000Y5500000D03*
D16*
X60660000Y-14963590D03*
X80500000Y-9536420D03*
X89500000Y-15000000D03*
X89487400Y-9500000D03*
X80660000Y-15067780D03*
X69488400Y-15000000D03*
X69488400Y-9000000D03*
X60500000Y-9413610D03*
X85000000Y-8000000D03*
X66500000Y-9000000D03*
X35750000Y-16750000D03*
X57500000Y-16800000D03*
X48750000Y-16750000D03*
X47000000Y-16750000D03*
X37982000Y-16750000D03*
X27000000Y-16800000D03*
D15*
X30530800Y-9000000D03*
X30750000Y-1500000D03*
X8250000Y2654120D03*
X11772170Y2692730D03*
D16*
X43593770Y52492120D03*
D15*
X84554130Y15100740D03*
X87550000Y15025000D03*
X88679330Y15000730D03*
X89125000Y19525000D03*
X12100590Y12500610D03*
X16700000Y8425000D03*
X13550000Y4400000D03*
X11125000Y7400000D03*
X88993380Y2527420D03*
X87997700Y2527420D03*
X86998520Y2477410D03*
X86000000Y2477410D03*
X53950000Y44200000D03*
X54627670Y44227160D03*
X58700000Y41823870D03*
X58827870Y40551980D03*
X47427310Y41402020D03*
X95952200Y63352200D03*
X96152200Y68401800D03*
X95952200Y67001800D03*
X96052200Y65834400D03*
X15550000Y12450000D03*
X17425000Y13425000D03*
X16275000Y12325000D03*
X13600000Y7175000D03*
X17512500Y5687500D03*
X45500000Y-14250000D03*
X41500000Y-14250000D03*
X39500000Y-14250000D03*
X43500000Y-14250000D03*
X34250000Y-14250000D03*
X30255000Y-14250000D03*
X28250000Y-14250000D03*
X32250000Y-14250000D03*
X52000000Y-14250000D03*
X56000000Y-14250000D03*
X54000000Y-14250000D03*
X50000000Y-14250000D03*
D16*
X8000000Y88514570D03*
X9500000Y88494600D03*
X9500000Y87000000D03*
X8000000Y87019970D03*
X8000000Y91439570D03*
X9500000Y91419600D03*
X9500000Y89925000D03*
X8000000Y89944970D03*
X8000000Y94439570D03*
X9500000Y94419600D03*
X9500000Y92925000D03*
X8000000Y92944970D03*
X8000000Y95944970D03*
X9500000Y95925000D03*
X9500000Y97419600D03*
X8000000Y97439570D03*
D15*
X85575000Y15200000D03*
X86229210Y15700770D03*
X50446300Y77889100D03*
X48440000Y69888100D03*
X47449000Y69888100D03*
X46433100Y69888100D03*
X58453420Y69892820D03*
X54434100Y69888100D03*
X54434100Y67889500D03*
X54434100Y66889500D03*
X54434100Y70904100D03*
X53443500Y69888100D03*
X59453420Y67884780D03*
X53443500Y66889500D03*
X53443500Y70904100D03*
X52452900Y69888100D03*
X53443500Y71894700D03*
X53443500Y65889500D03*
X54434100Y72885300D03*
X52452900Y71894700D03*
X53443500Y72885300D03*
X52452900Y65889500D03*
X53443500Y64889500D03*
X51436900Y69888100D03*
X51436900Y67889500D03*
X51436900Y70904100D03*
X54434100Y73901300D03*
X52452900Y72885300D03*
X53443500Y63889500D03*
X51436900Y65889500D03*
X50446300Y67889500D03*
X62453420Y69892820D03*
X62453420Y67884780D03*
X52452900Y63889500D03*
X50446300Y66889500D03*
X58448700Y74891900D03*
X50446300Y70904100D03*
X54434100Y74891900D03*
X52452900Y73901300D03*
X62448700Y70904100D03*
X51436900Y64889500D03*
X50446300Y71894700D03*
X50446300Y65889500D03*
X59448700Y74891900D03*
X62448700Y71894700D03*
X62453420Y65884780D03*
X51436900Y63889500D03*
X51436900Y73901300D03*
X49455700Y67889500D03*
X50446300Y72885300D03*
X52452900Y62889500D03*
X50446300Y64889500D03*
X60448700Y74891900D03*
X63453420Y69892820D03*
X62453420Y64884770D03*
X58448700Y75882500D03*
X49455700Y70904100D03*
X58453420Y61884780D03*
X63453420Y66884780D03*
X54434100Y61889500D03*
X53443500Y61889500D03*
X63448700Y71894700D03*
X63453420Y65884780D03*
X61448700Y74891900D03*
X61453430Y62884780D03*
X62453420Y63884770D03*
X50446300Y73901300D03*
X51436900Y62889500D03*
X49455700Y72885300D03*
X49455700Y64889500D03*
X60448700Y75882500D03*
X52452900Y61889500D03*
X63448700Y72885300D03*
X64453420Y69892820D03*
X57448700Y76898500D03*
X64453420Y66884780D03*
X64448700Y70904100D03*
X48439700Y66889500D03*
X58448700Y76898500D03*
X48439700Y70904100D03*
X50446300Y62889500D03*
X62448700Y74891900D03*
X62453420Y62884780D03*
X49455700Y63889500D03*
X49455700Y73901300D03*
X51436900Y75882500D03*
X64448700Y71894700D03*
X59453420Y60884780D03*
X64453420Y65884780D03*
X63453420Y63884770D03*
X48439700Y71894700D03*
X48439700Y65889500D03*
X59448700Y76898500D03*
X52452900Y60889500D03*
X64448700Y72885300D03*
X48439700Y72885300D03*
X48439700Y64889500D03*
X49455700Y74891900D03*
X49455700Y62889500D03*
X62448700Y75882500D03*
X57448700Y77889100D03*
X65453430Y69892820D03*
X65453430Y67884780D03*
X47449100Y66889500D03*
X65453430Y66884780D03*
X65448700Y70904100D03*
X61453430Y60884780D03*
X64453420Y63884770D03*
X61448700Y76898500D03*
X64448700Y73901300D03*
X47449100Y71894700D03*
X47449100Y65889500D03*
X59448700Y77889100D03*
X59453420Y59884770D03*
X49455700Y75882500D03*
X47449100Y72885300D03*
X60448700Y77889100D03*
X65448700Y72885300D03*
X60453420Y59884770D03*
X65453430Y64884770D03*
X64448700Y74891900D03*
X62453420Y60884780D03*
X48439700Y74891900D03*
X62448700Y76898500D03*
X66453420Y67884780D03*
X46433100Y67889500D03*
X57448700Y78905100D03*
X47449100Y63889500D03*
X61448700Y77889100D03*
X47449100Y73901300D03*
X58453420Y58884780D03*
X66453420Y66884780D03*
X66448700Y70904100D03*
X65453430Y63884770D03*
X65448700Y73901300D03*
X58448700Y78905100D03*
X46433100Y70904100D03*
X66448700Y71894700D03*
X66453420Y65884780D03*
X46433100Y71894700D03*
X59448700Y78905100D03*
X48439700Y75882500D03*
X63453420Y60884780D03*
X63448700Y76898500D03*
X47449100Y74891900D03*
X66448700Y72885300D03*
X65448700Y74891900D03*
X66453420Y64884770D03*
X60448700Y78905100D03*
X67453420Y69892820D03*
X45442500Y67889500D03*
X66448700Y73901300D03*
X46433100Y63889500D03*
X61448700Y78905100D03*
X46433100Y73901300D03*
X58448700Y79895700D03*
X45442500Y70904100D03*
X67448700Y70904100D03*
X64453420Y60884780D03*
X65448700Y75882500D03*
X63448700Y77889100D03*
X45442500Y71894700D03*
X67448700Y71894700D03*
X67453420Y65884780D03*
X46433100Y74891900D03*
X50446300Y78905100D03*
X46433100Y62889500D03*
X62448700Y78905100D03*
X45442500Y72885300D03*
X60448700Y79895700D03*
X64448700Y77889100D03*
X47449100Y76898500D03*
X48439700Y77889100D03*
X45442500Y73901300D03*
X67448700Y73901300D03*
X66448700Y75882500D03*
X46433100Y75882500D03*
X63448700Y78905100D03*
X67448700Y74891900D03*
X62448700Y79895700D03*
X66448700Y76898500D03*
X46433100Y60889500D03*
X64448700Y78905100D03*
X46433100Y76898500D03*
X45442500Y75882500D03*
X67448700Y75882500D03*
X45442500Y61889500D03*
X66448700Y77889100D03*
X66453420Y59884770D03*
X64448700Y79895700D03*
X45442500Y76898500D03*
X67448700Y76898500D03*
X66448700Y78905100D03*
X45442500Y78905100D03*
X67448700Y78905100D03*
X67448700Y79895700D03*
X51475000Y76875000D03*
X52450000Y76875000D03*
X63453420Y62884780D03*
X75850000Y28075000D03*
X47025000Y36050000D03*
X37750000Y23375000D03*
X24585000Y42815000D03*
X76675000Y31975000D03*
X56100000Y44900000D03*
D16*
X52125000Y28150000D03*
D15*
X65350000Y33525000D03*
X71425000Y37075000D03*
X70500000Y91250000D03*
X92207800Y84632800D03*
X79450000Y21550000D03*
X69113400Y12736600D03*
X51436900Y77889100D03*
D16*
X46125000Y85949990D03*
X40950000Y87500000D03*
X47175000Y87350000D03*
X48700000Y87325000D03*
D15*
X55450100Y75882500D03*
X57448700Y75882500D03*
X72202200Y58097800D03*
X52550000Y56400000D03*
D16*
X55225000Y30175000D03*
D15*
X57453420Y67884780D03*
X58453420Y67884780D03*
X57448700Y70904100D03*
X58453420Y66884780D03*
X55450100Y71894700D03*
X59453420Y69892820D03*
X57453420Y65884780D03*
X58448700Y71894700D03*
X59453420Y66884780D03*
X54434100Y65889500D03*
X59448700Y70904100D03*
X52452900Y67889500D03*
X57448700Y72885300D03*
X55445380Y64884770D03*
X60453420Y69892820D03*
X59453420Y65884780D03*
X52452900Y70904100D03*
X58453420Y64884770D03*
X60453420Y66884780D03*
X59448700Y72885300D03*
X60448700Y71894700D03*
X57453420Y63884770D03*
X61453430Y67884780D03*
X55450100Y73901300D03*
X61448700Y70904100D03*
X51436900Y66889500D03*
X58448700Y73901300D03*
X60453420Y64884770D03*
X59453420Y63884770D03*
X61453430Y65884780D03*
X53443500Y73901300D03*
X59448700Y73901300D03*
X57448700Y74891900D03*
X61448700Y72885300D03*
X62453420Y66884780D03*
X60448700Y73901300D03*
X53443500Y62889500D03*
X61453430Y63884770D03*
X61448700Y73901300D03*
X49455700Y69888100D03*
X57453420Y61884780D03*
X63453420Y67884780D03*
X49455700Y66889500D03*
X63448700Y70904100D03*
X49455700Y71894700D03*
X59448700Y75882500D03*
X59453420Y61884780D03*
X50446300Y63889500D03*
X62448700Y73901300D03*
X60453420Y61884780D03*
X55450100Y76898500D03*
X48439700Y67889500D03*
X54434100Y76898500D03*
X50446300Y74891900D03*
X61448700Y75882500D03*
X61453430Y61884780D03*
X63448700Y73901300D03*
X60453420Y60884780D03*
X60448700Y76898500D03*
X55450100Y77889100D03*
X50446300Y61889500D03*
X63448700Y74891900D03*
X58448700Y77889100D03*
X65453430Y65884780D03*
X63448700Y75882500D03*
X47449100Y64889500D03*
X52452900Y59889500D03*
X64453420Y62884780D03*
X55445380Y58884780D03*
X66453420Y69892820D03*
X55450100Y78905100D03*
X49455700Y60889500D03*
X64448700Y75882500D03*
X48439700Y61889500D03*
X62448700Y77889100D03*
X46433100Y72885300D03*
X45442500Y69888100D03*
X57448700Y79895700D03*
X64448700Y76898500D03*
X48439700Y76898500D03*
X47449100Y75882500D03*
X63453420Y59884770D03*
X59453420Y57884780D03*
X59448700Y79895700D03*
X67448700Y72885300D03*
X48439700Y59889500D03*
X65448700Y76898500D03*
X61448700Y79895700D03*
X49455700Y58889500D03*
X46433100Y61889500D03*
X65448700Y77889100D03*
X48439700Y78905100D03*
X67453420Y61884780D03*
X63448700Y79895700D03*
X65448700Y78905100D03*
X66453420Y58884780D03*
X65448700Y79895700D03*
X45442500Y58889500D03*
X66448700Y79895700D03*
X46431200Y78909800D03*
X56413400Y79959200D03*
D16*
X7250000Y82000000D03*
X8250000Y82000000D03*
X9250000Y82000000D03*
X10250000Y82000000D03*
X11250000Y82000000D03*
X12250000Y82000000D03*
X13250000Y82000000D03*
X14250000Y82000000D03*
X15250000Y82000000D03*
X16250000Y82000000D03*
X17250000Y82000000D03*
X18250000Y82000000D03*
X18250000Y80750000D03*
X17250000Y80750000D03*
X16250000Y80750000D03*
X15250000Y80750000D03*
X14250000Y80750000D03*
X13250000Y80750000D03*
X12250000Y80750000D03*
X11250000Y80750000D03*
X10250000Y80750000D03*
X9250000Y80750000D03*
X8250000Y80750000D03*
X7250000Y80750000D03*
X18250000Y79500000D03*
X17250000Y79500000D03*
X16250000Y79500000D03*
X15250000Y79500000D03*
X14250000Y79500000D03*
X13250000Y79500000D03*
X12250000Y79500000D03*
X11250000Y79500000D03*
X10250000Y79500000D03*
X9250000Y79500000D03*
X8250000Y79500000D03*
X7250000Y79500000D03*
X18250000Y78250000D03*
X17250000Y78250000D03*
X16250000Y78250000D03*
X15250000Y78250000D03*
X14250000Y78250000D03*
X13250000Y78250000D03*
X12250000Y78250000D03*
X11250000Y78250000D03*
X10250000Y78250000D03*
X9250000Y78250000D03*
X8250000Y78250000D03*
X7250000Y78250000D03*
X18250000Y77000000D03*
X17250000Y77000000D03*
X16250000Y77000000D03*
X15250000Y77000000D03*
X14250000Y77000000D03*
X13250000Y77000000D03*
X12250000Y77000000D03*
X11250000Y77000000D03*
X10250000Y77000000D03*
X9250000Y77000000D03*
X8250000Y77000000D03*
X7250000Y77000000D03*
X18250000Y75750000D03*
X17250000Y75750000D03*
X16250000Y75750000D03*
X15250000Y75750000D03*
X14250000Y75750000D03*
X13250000Y75750000D03*
X12250000Y75750000D03*
X11250000Y75750000D03*
X10250000Y75750000D03*
X9250000Y75750000D03*
X8250000Y75750000D03*
X7250000Y75750000D03*
X18250000Y74500000D03*
X17250000Y74500000D03*
X16250000Y74500000D03*
X15250000Y74500000D03*
X14250000Y74500000D03*
X13250000Y74500000D03*
X12250000Y74500000D03*
X11250000Y74500000D03*
X10250000Y74500000D03*
X9250000Y74500000D03*
X8250000Y74500000D03*
X7250000Y74500000D03*
X39025000Y62075000D03*
X41475000Y62025000D03*
X41050000Y54450000D03*
X51300000Y53800000D03*
X55700000Y52700000D03*
X55775000Y55075000D03*
X67950000Y51650000D03*
X69750040Y51650000D03*
X70500000Y64675000D03*
X72750000Y64300000D03*
X76325000Y64300000D03*
X73825000Y63050000D03*
X75325000Y63050000D03*
X70375000Y71950000D03*
X72750000Y72025000D03*
X80400000Y73050000D03*
X78975000Y73025000D03*
X77925000Y74700000D03*
X81450000Y74625000D03*
X70350000Y73825000D03*
X74825000Y74525000D03*
X69275000Y80925000D03*
X68125000Y81450000D03*
X62875000Y82675000D03*
X55350000Y81525000D03*
X55325000Y84000000D03*
X62200000Y86850000D03*
X61000000Y85575000D03*
X54025000Y85750000D03*
X54025000Y83050000D03*
X49725000Y86075000D03*
X52300000Y89200000D03*
X50925000Y89175000D03*
X50925000Y92800000D03*
X52300000Y92775000D03*
X49925000Y91725000D03*
X49950000Y90275000D03*
X39525000Y86450000D03*
X42075010Y80975000D03*
X42200000Y78175000D03*
X42450000Y72675000D03*
X42875000Y66100000D03*
X40350000Y66375000D03*
X38775000Y76600000D03*
X39900000Y76600000D03*
X40375000Y79200000D03*
X38775000Y72825000D03*
X39825000Y72800000D03*
X38750000Y75425000D03*
X39875000Y75375000D03*
X24275000Y99850000D03*
X24275000Y98350000D03*
X24275000Y94850000D03*
X24275000Y93350000D03*
X24275000Y89850000D03*
X24275000Y88250000D03*
X5150000Y53724980D03*
X5100000Y54900000D03*
X6400000Y56700000D03*
X7700000Y56700000D03*
X7800000Y58900000D03*
X6500000Y58900000D03*
X5100000Y61600000D03*
X5100000Y60300000D03*
X12100000Y67900000D03*
X12100000Y66500000D03*
X13800000Y69600000D03*
X32900000Y54000000D03*
X36500000Y54200000D03*
X24800000Y51400000D03*
X24800000Y49900000D03*
X24800000Y47000000D03*
X24800000Y45500000D03*
X7200000Y40150000D03*
X7200000Y42100000D03*
X4150000Y40150000D03*
X4100000Y42100000D03*
X29750000Y24450000D03*
X92300000Y6200000D03*
X86425000Y5075000D03*
X74850000Y8475000D03*
X48275000Y8500000D03*
X26850000Y8975000D03*
X7750000Y17050000D03*
X25275000Y16900000D03*
X43549990Y51350000D03*
X74300000Y73300000D03*
D15*
X94100000Y62000000D03*
X93300000Y57800000D03*
X94600000Y58400000D03*
X94600000Y55400000D03*
X94600000Y52400000D03*
X94676800Y45423200D03*
X94795600Y41495600D03*
X93500000Y38100000D03*
X79000000Y60400000D03*
X77505400Y58894600D03*
X77424400Y56024400D03*
X73556800Y61456800D03*
X72128800Y52128800D03*
X60934600Y50865400D03*
X56588800Y51511200D03*
X50147600Y50052400D03*
X39717600Y50082400D03*
X31235800Y44935800D03*
X29821800Y41978200D03*
X29550000Y38550000D03*
X29417600Y36717600D03*
X27207800Y33007800D03*
X27550000Y32050000D03*
X31123000Y31377000D03*
X32700000Y39300000D03*
X39200000Y21400000D03*
X37800000Y21600000D03*
X40470200Y20729800D03*
D16*
X48450000Y13350000D03*
D15*
X55186200Y15313800D03*
X62400000Y15951200D03*
X67529000Y21971000D03*
X68584000Y23684000D03*
X67792600Y23007400D03*
X66156600Y30243400D03*
X66038400Y35161600D03*
X66285400Y41114600D03*
X65042800Y88442800D03*
X87923600Y60326400D03*
X89416000Y59166000D03*
X89454200Y56045800D03*
X88423600Y53326400D03*
X89487400Y45987400D03*
X89398000Y40648000D03*
X88439200Y39310800D03*
X48439700Y57889500D03*
D16*
X63200000Y52650000D03*
X60100000Y52800000D03*
D15*
X72150000Y55375000D03*
X58000000Y50825000D03*
X81450000Y53375000D03*
X72007600Y41392400D03*
X87800000Y43324000D03*
X43900000Y62875000D03*
X77453780Y45852240D03*
D16*
X66478240Y52027540D03*
X65053170Y52702570D03*
D15*
X72157800Y45042200D03*
X72117400Y38182600D03*
X78810800Y39310800D03*
X84599400Y11125600D03*
X81300000Y11150000D03*
X86131400Y10168600D03*
X89525000Y9425000D03*
X88100000Y10300000D03*
X89600000Y10275000D03*
X93163400Y19813400D03*
X88032000Y24968000D03*
X89032000Y24032000D03*
X83635400Y23039600D03*
X79655400Y18619600D03*
X83546400Y18103600D03*
X79600000Y15597000D03*
X81050000Y14900000D03*
X74225000Y16700000D03*
X12875000Y27375000D03*
X13000000Y23050000D03*
X12625000Y21175000D03*
X26600000Y24550000D03*
X51816000Y12559000D03*
X36000000Y15825000D03*
X19889200Y3689200D03*
X20750000Y7697600D03*
X21500000Y9225000D03*
X20625000Y11228200D03*
X22325000Y11375000D03*
X20686390Y12336400D03*
X8564000Y6886000D03*
X13575000Y2850000D03*
X53725000Y11975000D03*
X17225000Y4500000D03*
X17170000Y3000000D03*
X12717200Y15782800D03*
X73500000Y95250000D03*
X73500000Y90000000D03*
X73500000Y88000000D03*
X73500000Y82750000D03*
X77500000Y78750000D03*
X82250000Y78750000D03*
X85000000Y78750000D03*
X90000000Y78750000D03*
X94000000Y82750000D03*
X93954600Y92647600D03*
X90000000Y99250000D03*
X85000000Y99250000D03*
X82500000Y99250000D03*
X77500000Y99250000D03*
X76500000Y96250000D03*
X80000000Y96250000D03*
X83250000Y96250000D03*
X76500000Y93500000D03*
X80000000Y93500000D03*
X83250000Y93500000D03*
X76500000Y90750000D03*
X80000000Y90750000D03*
X76500000Y81500000D03*
X87000000Y83250000D03*
X92000000Y81250000D03*
X92250000Y96250000D03*
X94000000Y95250000D03*
X94000000Y90000000D03*
X94000000Y88000000D03*
X87000000Y96250000D03*
X70250000Y92500000D03*
X70250000Y98250000D03*
X70750000Y96338800D03*
X71500000Y85250000D03*
X71500000Y84000000D03*
X27200000Y84700000D03*
X27500000Y78100000D03*
X26831200Y71831200D03*
X28194000Y71431000D03*
X26050000Y74900000D03*
D16*
X25525000Y79000000D03*
X31525000Y82500000D03*
X32000000Y94000000D03*
X37000000Y94000000D03*
X44250000Y94000000D03*
D15*
X35375000Y81625000D03*
X30169400Y76344400D03*
X31580600Y76344400D03*
X30200000Y77300000D03*
X23225000Y63625000D03*
X23617800Y65082200D03*
X14833600Y48408600D03*
X14475000Y40625000D03*
X16217800Y41232200D03*
X32350000Y77375000D03*
X51970900Y81785740D03*
X53467000Y79925800D03*
X52451000Y74887200D03*
X51460400Y71890000D03*
X45448600Y66878200D03*
X68875000Y64900000D03*
X22150000Y48850000D03*
X21680000Y41545000D03*
X20125000Y40400000D03*
X40125000Y51675000D03*
X31823000Y49123000D03*
X50000000Y29475000D03*
X53275000Y40975000D03*
X76725000Y29075000D03*
X94239400Y72110600D03*
X91325000Y74000000D03*
D16*
X48450000Y55000000D03*
D15*
X44602400Y76352400D03*
D16*
X42875000Y70675000D03*
D15*
X68300000Y67775000D03*
D16*
X35400000Y65200000D03*
X31500000Y65200000D03*
X34100000Y65200000D03*
X31550000Y63475000D03*
X70800000Y53025000D03*
D15*
X35925000Y59100000D03*
D16*
X34425000Y52400000D03*
X42100000Y52675000D03*
D15*
X32600000Y29100000D03*
X44550000Y24225000D03*
X80125000Y29750000D03*
X82346800Y32003200D03*
X68264800Y30810200D03*
X71100000Y31975000D03*
X71625000Y29750000D03*
X73050000Y29800000D03*
D16*
X43725000Y76800000D03*
D15*
X70225000Y88750000D03*
X70144800Y89419800D03*
X70125000Y90075000D03*
X70225000Y82350000D03*
X15900780Y40426970D03*
D16*
X24617800Y82092800D03*
D15*
X67550000Y35675000D03*
X77503780Y40626980D03*
X78850000Y43750000D03*
X37875000Y16575000D03*
X42375000Y45025000D03*
X10850000Y35875000D03*
X16579200Y11375000D03*
X80350000Y10525000D03*
X85104150Y7750380D03*
X21076030Y4675230D03*
X25051220Y6675330D03*
X88135400Y15286200D03*
X84135120Y20567680D03*
D17*
X11745800Y41747200D03*
X11745800Y42347200D03*
X11745800Y42947200D03*
X11145800Y42947200D03*
X11145800Y42347200D03*
X11145800Y41747200D03*
X9945800Y41747200D03*
X9945800Y42347200D03*
X9945800Y42947200D03*
X10545800Y42947190D03*
X10545800Y42347190D03*
X10545800Y41747200D03*
X35758400Y75905600D03*
X35758400Y75305610D03*
X35758400Y74705610D03*
X36358400Y74705600D03*
X36358400Y75305600D03*
X36358400Y75905600D03*
X35158400Y75905600D03*
X35158400Y75305600D03*
X35158400Y74705600D03*
X34558400Y74705600D03*
X34558400Y75305600D03*
X34558400Y75905600D03*
X23509200Y54455200D03*
X23509200Y55055200D03*
X23509200Y55655200D03*
X22909200Y55655200D03*
X22909200Y55055200D03*
X22909200Y54455200D03*
X24109200Y54455210D03*
X24109200Y55055200D03*
X24109200Y55655200D03*
X24709200Y55655200D03*
X24709200Y55055200D03*
X24709200Y54455200D03*
X23509200Y56255200D03*
X23509200Y56855200D03*
X23509200Y57455200D03*
X22909200Y57455200D03*
X22909200Y56855200D03*
X22909200Y56255200D03*
X24109200Y56255210D03*
X24109200Y56855200D03*
X24109200Y57455200D03*
X24709200Y57455200D03*
X24709200Y56855200D03*
X24709200Y56255200D03*
X29234200Y59830200D03*
X29234200Y60430200D03*
X28634200Y60430200D03*
X28634200Y59830200D03*
X29834200Y59830200D03*
X29834200Y60430200D03*
X30434200Y60430200D03*
X30434200Y59830200D03*
X24709200Y58055210D03*
X24709200Y58655200D03*
X24709200Y59255200D03*
X24109200Y59255200D03*
X24109200Y58655200D03*
X24109200Y58055210D03*
X22909200Y58055210D03*
X22909200Y58655200D03*
X22909200Y59255200D03*
X23509200Y59255200D03*
X23509200Y58655200D03*
X23509200Y58055200D03*
D15*
X61000000Y8475000D03*
X61000000Y2000000D03*
X59500000Y5500000D03*
X48500000Y34425000D03*
X55550000Y40375000D03*
X45925000Y33475000D03*
X37982000Y42621260D03*
X66313640Y44843000D03*
X46000000Y41875000D03*
X67250000Y41600000D03*
X48002340Y31126520D03*
X64800000Y44350000D03*
X61975000Y35600000D03*
X61725000Y44875000D03*
X42025000Y37425000D03*
X61850000Y37250000D03*
X45975000Y14125000D03*
X41900000Y8075000D03*
X47352310Y9725470D03*
X46925000Y8700000D03*
X45800000Y10100000D03*
X44727180Y8725430D03*
X43450000Y8750000D03*
X44625000Y9925000D03*
X53925000Y36600000D03*
X54125000Y35950000D03*
X50427460Y31451530D03*
X50925000Y31000000D03*
X52675000Y21200000D03*
X56050000Y22150000D03*
X56825000Y21925000D03*
X57300000Y21400000D03*
X58175000Y43325000D03*
X56875000Y42700000D03*
X54402650Y40626980D03*
X53752660Y40497330D03*
X47449100Y78905100D03*
X50975000Y41000000D03*
X39025000Y43400000D03*
X47449100Y79895700D03*
X38126860Y43852140D03*
X47902340Y43877140D03*
X49455700Y79895700D03*
X39575000Y42900000D03*
X50152450Y41002000D03*
X48439700Y79895700D03*
X50650000Y40400000D03*
X39650000Y42225000D03*
X24000000Y9200000D03*
X30276480Y19475950D03*
X38650000Y25150000D03*
X45925000Y31650000D03*
X30026470Y9425460D03*
X56000000Y36425000D03*
X37800000Y25325000D03*
X45900000Y32375000D03*
X29238280Y9450000D03*
X55500000Y36950000D03*
X55452710Y19425950D03*
X44250000Y16550000D03*
X57975000Y29350000D03*
X26876310Y8025390D03*
X69175000Y32800000D03*
X57777820Y28551390D03*
X76125000Y16750000D03*
X51925000Y37300000D03*
X41400000Y19300000D03*
X48439700Y60889500D03*
X76050000Y83275000D03*
X56450000Y66925000D03*
X50446300Y59889500D03*
X90000000Y51300000D03*
X35400000Y27300000D03*
X72900000Y49000000D03*
X51436900Y57889500D03*
X90500000Y51900000D03*
X76700000Y51800000D03*
X39300000Y28500000D03*
X51436900Y58889500D03*
X76100000Y52300000D03*
X38500000Y28900000D03*
X89150000Y52350000D03*
X84625000Y52575000D03*
X51436900Y59889500D03*
X78103810Y54077640D03*
X32800000Y30200000D03*
X50446300Y57889500D03*
X38100000Y31400000D03*
X82654030Y52852580D03*
X77228770Y53902630D03*
X54434100Y58889500D03*
X39600000Y29500000D03*
X88504320Y50952490D03*
X78603840Y50952490D03*
X78290380Y50290380D03*
X90200000Y50300000D03*
X54434100Y57889500D03*
X45700000Y45900000D03*
X47900000Y49700000D03*
X52452900Y58889500D03*
X77600000Y50500000D03*
X88225000Y49875000D03*
X47000000Y48500000D03*
X52452900Y57889500D03*
X89300000Y49500000D03*
X76253790Y50864570D03*
X47499900Y48999900D03*
X54434100Y59889500D03*
X84925000Y49125000D03*
X81825000Y49075000D03*
X48000000Y48500000D03*
X53443500Y58889500D03*
X82554030Y50952490D03*
X69275000Y48425000D03*
X90600000Y49200000D03*
X53443500Y59889500D03*
X42925000Y45600000D03*
X77425000Y48400000D03*
X58453420Y57884780D03*
X89800000Y47700000D03*
X81850000Y47225000D03*
X61450000Y34300000D03*
X66453420Y61884780D03*
X64625000Y32800000D03*
X76700000Y49500000D03*
X55445380Y57884780D03*
X90799820Y49899900D03*
X60450000Y32950000D03*
X60453420Y57884780D03*
X94300000Y50300000D03*
X78903850Y46677280D03*
X61975000Y31828260D03*
X59453420Y58884780D03*
X61900000Y42300000D03*
X60453420Y58884780D03*
X62000000Y41600000D03*
X61453430Y59884770D03*
X64553150Y42025000D03*
X46433100Y57889500D03*
X35600000Y20400000D03*
X45442500Y57889500D03*
X35600000Y21100000D03*
X36800000Y21300000D03*
X47449100Y57889500D03*
X46433100Y59889500D03*
X35500000Y22900000D03*
X45442500Y59889500D03*
X32700000Y19800000D03*
X48900000Y19800000D03*
X49455700Y57889500D03*
X48439700Y58889500D03*
X48100000Y19650000D03*
X57453420Y60884780D03*
X59350000Y41625000D03*
X61453430Y57884780D03*
X61825000Y39975000D03*
X90425000Y39775000D03*
X77100000Y40075000D03*
X62375000Y57875000D03*
X76150000Y40800000D03*
X65675000Y39200000D03*
X90625000Y40875000D03*
X90879430Y41527030D03*
X67453420Y62884780D03*
X76400000Y41900000D03*
X59475000Y26725000D03*
X66453420Y62884780D03*
X90675000Y42300000D03*
X71675000Y39275000D03*
X58900000Y26050000D03*
X57453420Y57884780D03*
X90425000Y43000000D03*
X76953760Y43102100D03*
X55975000Y44200000D03*
X57440220Y58884780D03*
X53025000Y44200000D03*
X90525000Y43725000D03*
X76325000Y43875000D03*
X57453420Y59884770D03*
X50377460Y45877240D03*
X83175000Y44050000D03*
X55445380Y59884770D03*
X52150000Y48900000D03*
X83950000Y44325000D03*
X49455700Y59889500D03*
X51875000Y45950000D03*
X84850000Y43475000D03*
X46433100Y58889500D03*
X52300000Y44900000D03*
X89054350Y43475000D03*
X69525000Y43475000D03*
X47449100Y60889500D03*
X52975000Y45400000D03*
X81711360Y43656990D03*
X89600000Y42900000D03*
X52452900Y66889500D03*
X90025000Y41925000D03*
X82400000Y41600000D03*
X47449100Y62889500D03*
X76250000Y44850000D03*
X83375000Y40650000D03*
X67453420Y58884780D03*
X85000000Y41450000D03*
X67025000Y44750000D03*
X67453420Y57884780D03*
X81750000Y40100000D03*
X66453420Y57884780D03*
X90500000Y38900000D03*
X77725000Y39625000D03*
X76900000Y37425000D03*
X65453430Y57884780D03*
X90575000Y54450000D03*
X76200000Y54575000D03*
X65453430Y59884770D03*
X84475000Y55075000D03*
X66900000Y50025000D03*
X65453430Y58884780D03*
X84075000Y56550000D03*
X66128230Y49652420D03*
X63453420Y58884780D03*
X84754140Y56752770D03*
X67353290Y54652670D03*
X90725000Y57325000D03*
X63449880Y57874880D03*
X76250000Y57425000D03*
X66875000Y53375000D03*
X76400000Y58925000D03*
X64900000Y21769670D03*
X90404410Y58327850D03*
X64453420Y59884770D03*
X69375000Y61325000D03*
X64775000Y20975000D03*
X84575000Y59500000D03*
X71175000Y58850000D03*
X64453420Y58884780D03*
X84879140Y60477950D03*
X64453420Y61884780D03*
X62003030Y21576050D03*
X82375000Y59900000D03*
X88600000Y60075000D03*
X74300000Y61425000D03*
X58453420Y60884780D03*
X61925000Y23600000D03*
X83225000Y58875000D03*
X60825000Y21075000D03*
X64453420Y64884770D03*
X83525000Y62675000D03*
X60500000Y22300000D03*
X84100000Y58200000D03*
X74875000Y61050000D03*
X55445380Y60884780D03*
X90000000Y57807000D03*
X60125000Y23425000D03*
X53443500Y60889500D03*
X84750000Y57725010D03*
X86400000Y64325000D03*
X47449100Y61889500D03*
X82175000Y56100000D03*
X84350000Y69125000D03*
X32068820Y16075000D03*
X49455700Y61889500D03*
X78900000Y55800000D03*
X88450000Y64375000D03*
X31728800Y16775000D03*
X31175000Y23525000D03*
X46433100Y64889500D03*
X76875000Y55525000D03*
X87900000Y55425000D03*
X76428730Y56027730D03*
X30050000Y23275000D03*
X46433100Y65889500D03*
X90100000Y53450000D03*
X93675000Y47300000D03*
X76471760Y46265120D03*
X52200000Y23550000D03*
X90137400Y45987410D03*
X78450000Y47850000D03*
X53725000Y23550000D03*
X85279160Y53302600D03*
X69700000Y38825000D03*
X53700000Y25400000D03*
X78875000Y53650000D03*
X89325000Y53450000D03*
X53900000Y26100000D03*
X63453420Y61884780D03*
X57200000Y30075000D03*
X50446300Y60889500D03*
X51436900Y60889500D03*
X62453420Y59884770D03*
X66575000Y54675000D03*
X57700000Y31950000D03*
X66175000Y38200000D03*
X62453420Y58884780D03*
X61653010Y53252600D03*
X64950000Y20225000D03*
X66725000Y39050000D03*
X72950000Y47350000D03*
X42150000Y38425000D03*
X64875000Y27800000D03*
X53350000Y21800000D03*
X88054300Y48177350D03*
X76900000Y47950000D03*
X71950000Y43425000D03*
X82825000Y47700000D03*
X67225000Y39650000D03*
X51377510Y21301040D03*
X93885400Y48810400D03*
X78300000Y37325000D03*
X54350000Y24800000D03*
X38975000Y36175000D03*
X38125000Y37650000D03*
X49750000Y22375000D03*
X70228430Y42252060D03*
X76228260Y48175000D03*
X90575000Y48525000D03*
X44625000Y45775000D03*
X73450000Y46875000D03*
X90775000Y46775000D03*
X48439700Y63889500D03*
X25800000Y31300000D03*
X25775000Y29575000D03*
X45442500Y64889500D03*
X45442500Y65889500D03*
X55441360Y69896840D03*
X57448700Y73901300D03*
X22100000Y26750000D03*
X78275000Y4000000D03*
X50250000Y20900000D03*
X26900000Y48675000D03*
X39400000Y45425000D03*
X49455700Y78905100D03*
X70450000Y99125000D03*
X50446300Y76898500D03*
X65400000Y82800000D03*
X53443500Y75882500D03*
X54434100Y75882500D03*
X55448200Y79959200D03*
X54457600Y79959200D03*
X54434100Y77889100D03*
X54434100Y78905100D03*
X52452900Y79895700D03*
X52452900Y78905100D03*
X51436900Y79895700D03*
X52452900Y77889100D03*
X51436900Y78905100D03*
X53443500Y76898500D03*
X49455700Y77889100D03*
X46433100Y79895700D03*
X47449100Y77889100D03*
X45442500Y77889100D03*
X65453430Y62884780D03*
X69225000Y63425000D03*
X67453420Y63884770D03*
X45442500Y60889500D03*
X49075000Y42875000D03*
X77950000Y8400000D03*
X47449100Y58889500D03*
X51900000Y20850000D03*
X77975000Y7550000D03*
X55445380Y62884780D03*
X71409770Y66809780D03*
X88175000Y66575000D03*
X53443500Y74891900D03*
X65024990Y37656640D03*
X51436900Y74891900D03*
X61850000Y36375000D03*
X50446300Y75882500D03*
X52950000Y19675000D03*
X53443500Y77889100D03*
X52450000Y16375000D03*
X55445380Y61884780D03*
X71775000Y65350000D03*
X54434100Y64889500D03*
X68475000Y68975000D03*
X54434100Y62889500D03*
X72050000Y67575000D03*
X54434100Y63889500D03*
X69675000Y68889000D03*
X57453420Y62884780D03*
X58453420Y62884780D03*
X59453420Y62884780D03*
X55445380Y66884780D03*
X32900000Y47275000D03*
X42025000Y41900000D03*
X38275000Y34225000D03*
X41850000Y40650000D03*
X39275000Y33925000D03*
X42500000Y39150000D03*
X36000000Y40100000D03*
X39525000Y39475000D03*
X42575000Y40175000D03*
X49475000Y32650000D03*
X26475000Y26525000D03*
X55450100Y70904100D03*
X58448700Y70904100D03*
X55445380Y65884780D03*
X55450100Y72885300D03*
X57453420Y64884770D03*
X55424700Y67889500D03*
D16*
X47250000Y81625000D03*
X48650000Y81625000D03*
X46075000Y83150000D03*
X44000000Y73725000D03*
X51100000Y84125000D03*
X51100000Y86825000D03*
X46025000Y81650000D03*
X57802820Y55102690D03*
D15*
X57453420Y69892820D03*
X57453420Y66884780D03*
X57448700Y71894700D03*
X58453420Y65884780D03*
X60453420Y67884780D03*
X59448700Y71894700D03*
X58448700Y72885300D03*
X60448700Y70904100D03*
X59453420Y64884770D03*
X60453420Y65884780D03*
X61453430Y69892820D03*
X58453420Y63884770D03*
X61453430Y66884780D03*
X60448700Y72885300D03*
X61448700Y71894700D03*
X60453420Y63884770D03*
X61453430Y64884770D03*
D16*
X41825000Y69600000D03*
X40350000Y68100000D03*
X42800000Y68100000D03*
X43600000Y58924980D03*
X44675000Y56600000D03*
X57750000Y52725000D03*
X61225000Y56125000D03*
X75250000Y68550000D03*
X73875000Y68550000D03*
X76275000Y67375000D03*
X69425000Y67675000D03*
X77900000Y68825000D03*
X78900000Y66600000D03*
X80500000Y66575000D03*
X80350000Y69900000D03*
X70375000Y69975000D03*
X60900000Y82650000D03*
X59300000Y81450000D03*
X59275000Y84025000D03*
X57475000Y92825000D03*
X58800000Y92825000D03*
X59825000Y91775000D03*
X59850000Y90200000D03*
X57425000Y89175000D03*
X58850000Y89150000D03*
X72725000Y66950000D03*
X42050000Y58924980D03*
X72753550Y70078420D03*
D15*
X15050000Y14900000D03*
X38050000Y41400000D03*
X24575000Y38700000D03*
X32476580Y48952390D03*
X85400000Y19775000D03*
X86225000Y20075000D03*
X84600000Y20050000D03*
X93108400Y17433400D03*
X64653150Y26376290D03*
X90600000Y14525000D03*
X93800000Y15125000D03*
X64279110Y25785200D03*
X92250000Y21500000D03*
X93218000Y12718000D03*
X93968000Y11782000D03*
X91968000Y25032000D03*
X91032000Y24032000D03*
X83006000Y23844000D03*
X79725000Y19619600D03*
X79578000Y16597000D03*
X30000000Y5675000D03*
X32000000Y5625000D03*
X79171560Y19622870D03*
X84229700Y19084940D03*
X77173070Y15605840D03*
X38100000Y40550000D03*
X25275000Y37975000D03*
X39225000Y40200000D03*
X18025000Y17650000D03*
X6571600Y14071600D03*
X7773400Y13176600D03*
X7621000Y6204000D03*
X12500000Y2800000D03*
X19069200Y14919200D03*
X27351200Y17426200D03*
X14940800Y3590800D03*
X26450000Y16400000D03*
X20638600Y13336400D03*
X39550000Y4800000D03*
X12516240Y2253300D03*
D16*
X39425000Y7402400D03*
D15*
X31825000Y52450000D03*
X31750000Y51625000D03*
X38050000Y49123000D03*
X34075000Y50600000D03*
X69575000Y27000000D03*
X58275000Y28129350D03*
X70525000Y16775000D03*
X87847000Y37378000D03*
X52775000Y37300000D03*
X53700000Y37275000D03*
X69175000Y17575000D03*
X75750000Y21675000D03*
X77200000Y20100000D03*
X77250000Y16700000D03*
X51050000Y37275000D03*
X69425000Y28025000D03*
X59825000Y27350000D03*
X70300000Y20875000D03*
X54527660Y36951800D03*
X69675000Y33775000D03*
X70925000Y33625000D03*
X66453420Y60884780D03*
X67453420Y59884770D03*
X70775000Y27225000D03*
X67453420Y60884780D03*
X74725000Y33925000D03*
X65453430Y61884780D03*
X73225000Y33325000D03*
X75475000Y27050000D03*
X73538600Y23825000D03*
X75600000Y33625000D03*
X73950000Y37175000D03*
X75996800Y24175000D03*
X29802200Y63725000D03*
X32750000Y58650000D03*
X16825000Y37525000D03*
X82200000Y3150000D03*
X24250000Y80750000D03*
X32975000Y22325000D03*
X45442500Y62889500D03*
X32000000Y37000000D03*
X30300000Y73075000D03*
X10498200Y52700000D03*
X23436600Y62069330D03*
X13610600Y43360600D03*
X70500000Y88000000D03*
X24700000Y84700000D03*
X31600000Y73100000D03*
X20750000Y62575000D03*
X13698400Y44551600D03*
X26825000Y44225000D03*
X26950000Y42800000D03*
X26801310Y41552030D03*
X42400000Y31500000D03*
X27700000Y30675000D03*
X60125000Y19500000D03*
X61450000Y24600000D03*
X16375000Y9250000D03*
X16375000Y10050000D03*
X82797720Y5925000D03*
X13950000Y9950000D03*
X37125000Y71750000D03*
X18675000Y63625000D03*
X20450000Y64900000D03*
X12090000Y50165000D03*
X13425000Y40450000D03*
X9425000Y45425000D03*
X32575000Y78100000D03*
D16*
X43750000Y87525000D03*
X45125000Y86700080D03*
D15*
X50446300Y79895700D03*
D16*
X62075000Y55075000D03*
D15*
X53443500Y67889500D03*
X54434100Y71894700D03*
X55445380Y63884770D03*
X52452900Y64889500D03*
X50446300Y69888100D03*
X55450100Y74891900D03*
X51436900Y72885300D03*
X62448700Y72885300D03*
X60453420Y62884780D03*
X49455700Y65889500D03*
X52452900Y75882500D03*
X63453420Y64884770D03*
X64453420Y67884780D03*
X51436900Y61889500D03*
X62453420Y61884780D03*
X47449100Y70904100D03*
X58453420Y59884770D03*
X48439700Y73901300D03*
X65448700Y71894700D03*
X48439700Y62889500D03*
X46433100Y66889500D03*
X53443500Y78905100D03*
X49455700Y76898500D03*
X61453430Y58884780D03*
X66453420Y63884770D03*
X67453420Y66884780D03*
X53443500Y57889500D03*
X50446300Y58889500D03*
X66448700Y74891900D03*
X65453430Y60884780D03*
X45442500Y63889500D03*
X45442500Y74891900D03*
X47449100Y59889500D03*
X46433100Y77889100D03*
X64453420Y57884780D03*
X67448700Y77889100D03*
D16*
X41500000Y64075000D03*
X53300000Y53725000D03*
X68550000Y57175000D03*
X66600000Y56100000D03*
X71275000Y77225000D03*
X74875000Y76800000D03*
X64175000Y81475000D03*
X64950000Y86925000D03*
X64025000Y84325000D03*
X43800000Y80975000D03*
X43825000Y78175000D03*
X41600000Y75825000D03*
X9625000Y34575000D03*
X10575000Y33600000D03*
X10625000Y32525000D03*
X9650000Y31725000D03*
X29725000Y28700000D03*
X47650000Y51350000D03*
X70400000Y75500000D03*
D15*
X94600000Y60500000D03*
X94600000Y59377200D03*
X94700000Y56400000D03*
X94600000Y53400000D03*
X94600000Y46400000D03*
X94695600Y40495600D03*
X94692000Y39108000D03*
X77405400Y57894600D03*
X77375600Y55024400D03*
X72202200Y59097800D03*
X72300000Y60500000D03*
X72200000Y56200000D03*
X72128800Y53128800D03*
X51147600Y50052400D03*
X31335800Y45635800D03*
X31321800Y40978200D03*
X29721800Y40978200D03*
X31223000Y32377000D03*
X38000000Y19400000D03*
X38700000Y19300000D03*
D16*
X47050000Y13350000D03*
D15*
X54186200Y15286200D03*
X60841000Y15341000D03*
X66156600Y29243400D03*
X66061600Y36161600D03*
X66285400Y40114600D03*
X68080000Y87820000D03*
X66700400Y89099600D03*
X89416000Y58166000D03*
X89454200Y55045800D03*
X89487400Y44987400D03*
D16*
X70600000Y56124990D03*
X69625000Y57250000D03*
X46425000Y54550000D03*
D15*
X54434100Y60889500D03*
X57975000Y49025000D03*
X61675000Y48950000D03*
X38717600Y50082400D03*
X72107600Y40392400D03*
X72825000Y39700000D03*
X77453780Y44852190D03*
X89379360Y41627030D03*
X72042200Y46042200D03*
X91291800Y13633200D03*
X12850000Y31750000D03*
X18009600Y15059600D03*
X80695800Y80725000D03*
X47455200Y67894200D03*
X38075000Y50975000D03*
X26838600Y52211400D03*
X26940200Y49734800D03*
X42025000Y28825000D03*
X93052200Y68402200D03*
X93052200Y65827200D03*
X93127200Y63327200D03*
X79400000Y8700000D03*
X83704080Y71053470D03*
X44552170Y60377950D03*
D16*
X39000000Y64825000D03*
D15*
X36975000Y61225000D03*
X34150000Y67650000D03*
X31850000Y43975000D03*
X32175000Y42675000D03*
X31726550Y38751890D03*
X31500000Y30500000D03*
X48050000Y30175000D03*
X50225000Y26675000D03*
X29595000Y45355000D03*
X65800000Y21275000D03*
X77572600Y41727400D03*
X77290800Y86090800D03*
D16*
X70450000Y78175000D03*
D15*
X77048600Y76920600D03*
X81207400Y77225000D03*
D18*
X46000000Y41475000D02*
X46000000Y41875000D01*
X63239600Y40589600D02*
X66739600Y40589600D01*
X66739600Y40589600D02*
X67253280Y41103280D01*
X67253280Y41103280D02*
X67253280Y41600000D01*
X46000000Y41475000D02*
X48025000Y39450000D01*
X48025000Y39450000D02*
X62100000Y39450000D01*
X62100000Y39450000D02*
X63239600Y40589600D01*
X49151520Y31126520D02*
X50000000Y31975000D01*
X50000000Y31975000D02*
X57053250Y31975000D01*
X48002340Y31126520D02*
X49151520Y31126520D01*
X61475000Y35100000D02*
X61975000Y35600000D01*
X57053250Y31975000D02*
X60178250Y35100000D01*
X60178250Y35100000D02*
X61475000Y35100000D01*
X42025000Y37425000D02*
X43900000Y37425000D01*
X43900000Y37425000D02*
X44675000Y38200000D01*
X44675000Y38200000D02*
X60900000Y38200000D01*
X60900000Y38200000D02*
X61850000Y37250000D01*
X92473690Y-3000000D02*
X96500000Y1026310D01*
X37040000Y-3000000D02*
X92473690Y-3000000D01*
X34040000Y-6000000D02*
X37040000Y-3000000D01*
X96500000Y1026310D02*
X96500000Y16425730D01*
X94975730Y17950000D02*
X96500000Y16425730D01*
X84064550Y17950000D02*
X94975730Y17950000D01*
X44450000Y24996750D02*
X45025000Y24421750D01*
X48425000Y35207000D02*
X52532000Y35207000D01*
X47622580Y34404580D02*
X48425000Y35207000D01*
X52532000Y35207000D02*
X53925000Y36600000D01*
X44450000Y24996750D02*
X44450000Y33275000D01*
X44450000Y33275000D02*
X45579580Y34404580D01*
X45579580Y34404580D02*
X47622580Y34404580D01*
X45025000Y21375000D02*
X45025000Y24421750D01*
X45025000Y21375000D02*
X48300000Y18100000D01*
X83349650Y17628600D02*
X83743150Y17628600D01*
X48300000Y18100000D02*
X82878250Y18100000D01*
X82878250Y18100000D02*
X83349650Y17628600D01*
X83743150Y17628600D02*
X84064550Y17950000D01*
X92931680Y-3539210D02*
X97000000Y529100D01*
X39040790Y-3539210D02*
X92931680Y-3539210D01*
X36580000Y-6000000D02*
X39040790Y-3539210D01*
X97000000Y529100D02*
X97000000Y16926200D01*
X95564670Y18361530D02*
X97000000Y16926200D01*
X84048100Y18361530D02*
X95564670Y18361530D01*
D19*
X47125000Y33875000D02*
X48825000Y33875000D01*
D18*
X46196750Y33875000D02*
X47125000Y33875000D01*
X46121750Y33950000D02*
X46196750Y33875000D01*
X45728250Y33950000D02*
X46121750Y33950000D01*
X44900000Y33121750D02*
X45728250Y33950000D01*
D19*
X48825000Y33875000D02*
X49600000Y34650000D01*
X49600000Y34650000D02*
X52825000Y34650000D01*
X52825000Y34650000D02*
X54125000Y35950000D01*
D18*
X44900000Y25275000D02*
X44900000Y33121750D01*
X44900000Y25275000D02*
X45400000Y24775000D01*
X45400000Y21600000D02*
X45400000Y24775000D01*
X79458650Y19094600D02*
X79852150Y19094600D01*
X45400000Y21600000D02*
X48475000Y18525000D01*
X48475000Y18525000D02*
X78889050Y18525000D01*
X78889050Y18525000D02*
X79458650Y19094600D01*
X79852150Y19094600D02*
X80368150Y18578600D01*
X80368150Y18578600D02*
X83831030Y18578600D01*
X83831030Y18578600D02*
X84048100Y18361530D01*
X39120000Y-6000000D02*
X41120000Y-4000000D01*
X41120000Y-4000000D02*
X93413740Y-4000000D01*
X93413740Y-4000000D02*
X97500000Y86260D01*
X97500000Y86260D02*
X97500000Y17485780D01*
X92835780Y22150000D02*
X97500000Y17485780D01*
X68379750Y22150000D02*
X92835780Y22150000D01*
X65979750Y19750000D02*
X68379750Y22150000D01*
X60546750Y19750000D02*
X65979750Y19750000D01*
X60146750Y20150000D02*
X60546750Y19750000D01*
X50075000Y20150000D02*
X60146750Y20150000D01*
X47500000Y22725000D02*
X50075000Y20150000D01*
X47500000Y22725000D02*
X47500000Y28524070D01*
X47500000Y28524070D02*
X50427460Y31451530D01*
X93986990Y-4513010D02*
X98023590Y-476400D01*
X98023590Y-476400D02*
X98023590Y17955110D01*
X43436990Y-4513010D02*
X93986990Y-4513010D01*
X41950000Y-6000000D02*
X43436990Y-4513010D01*
X41660000Y-6000000D02*
X41950000Y-6000000D01*
X93446310Y22532400D02*
X98023590Y17955110D01*
X67560200Y22532400D02*
X93446310Y22532400D01*
X48300000Y22950000D02*
X48300000Y28446750D01*
X50321750Y22275000D02*
X55503250Y22275000D01*
X59323510Y22625000D02*
X59473510Y22775000D01*
X55853250Y22625000D02*
X59323510Y22625000D01*
X55503250Y22275000D02*
X55853250Y22625000D01*
X67317600Y22775000D02*
X67560200Y22532400D01*
X59473510Y22775000D02*
X67317600Y22775000D01*
X49946750Y21900000D02*
X50321750Y22275000D01*
X49350000Y21900000D02*
X49946750Y21900000D01*
X48300000Y22950000D02*
X49350000Y21900000D01*
X50853250Y31000000D02*
X50925000Y31000000D01*
X48300000Y28446750D02*
X50853250Y31000000D01*
X47369090Y78905100D02*
X47449100Y78905100D01*
X46828090Y78364100D02*
X47369090Y78905100D01*
X46236350Y78364100D02*
X46828090Y78364100D01*
X45958100Y78085850D02*
X46236350Y78364100D01*
X45958100Y75658100D02*
X45958100Y78085850D01*
X35150000Y47500750D02*
X39025000Y43625750D01*
X39025000Y43400000D02*
X39025000Y43625750D01*
X35150000Y47500750D02*
X35150000Y60275010D01*
X45675000Y75375000D02*
X45958100Y75658100D01*
X44100000Y75375000D02*
X45675000Y75375000D01*
X35150000Y60275010D02*
X36975000Y62100000D01*
X36975000Y62100000D02*
X36975000Y68250000D01*
X36975000Y68250000D02*
X44100000Y75375000D01*
X46938200Y79384800D02*
X47449100Y79895700D01*
X33600000Y48379000D02*
X33600000Y53249990D01*
X33600000Y48379000D02*
X38126860Y43852140D01*
X33600000Y53249990D02*
X34300000Y53949990D01*
X43000000Y78575000D02*
X43809800Y79384800D01*
X43809800Y79384800D02*
X46938200Y79384800D01*
X43000000Y74925000D02*
X43000000Y78575000D01*
X36550000Y62325000D02*
X36550000Y68475000D01*
X34300000Y60075000D02*
X36550000Y62325000D01*
X36550000Y68475000D02*
X43000000Y74925000D01*
X34300000Y53949990D02*
X34300000Y60075000D01*
X48940100Y79380100D02*
X49455700Y79895700D01*
X48242950Y79380100D02*
X48940100Y79380100D01*
X47964700Y79101850D02*
X48242950Y79380100D01*
X47964700Y78748950D02*
X47964700Y79101850D01*
X47579850Y78364100D02*
X47964700Y78748950D01*
X47252350Y78364100D02*
X47579850Y78364100D01*
X46974100Y78085850D02*
X47252350Y78364100D01*
X46974100Y75674100D02*
X46974100Y78085850D01*
X39575000Y42900000D02*
X39575000Y43750000D01*
X35600000Y47725000D02*
X39575000Y43750000D01*
X36600000Y59975000D02*
X37550000Y60925000D01*
X36600000Y55800000D02*
X36600000Y59975000D01*
X35600000Y54800000D02*
X36600000Y55800000D01*
X35600000Y47725000D02*
X35600000Y54800000D01*
X42900010Y71400000D02*
X44775000Y73275000D01*
X42574700Y71400000D02*
X42900010Y71400000D01*
X37550000Y60925000D02*
X37550000Y66375310D01*
X37550000Y66375310D02*
X42574700Y71400000D01*
X46707500Y75407500D02*
X46974100Y75674100D01*
X45917500Y75100000D02*
X46225000Y75407500D01*
X45917500Y74517500D02*
X45917500Y75100000D01*
X45776300Y74376300D02*
X45917500Y74517500D01*
X45245750Y74376300D02*
X45776300Y74376300D01*
X44775000Y73905550D02*
X45245750Y74376300D01*
X46225000Y75407500D02*
X46707500Y75407500D01*
X44775000Y73275000D02*
X44775000Y73905550D01*
X48120850Y79895700D02*
X48439700Y79895700D01*
X47645850Y80370700D02*
X48120850Y79895700D01*
X46236350Y80370700D02*
X47645850Y80370700D01*
X45790650Y79925000D02*
X46236350Y80370700D01*
X32175000Y52771750D02*
X32951590Y51995170D01*
X32951590Y48323410D02*
X32951590Y51995170D01*
X32951590Y48323410D02*
X39050000Y42225000D01*
X39050000Y42225000D02*
X39650000Y42225000D01*
X40825000Y78175000D02*
X42575000Y79925000D01*
X40825000Y74850000D02*
X40825000Y78175000D01*
X40150000Y74175000D02*
X40825000Y74850000D01*
X42575000Y79925000D02*
X45790650Y79925000D01*
X38878250Y74175000D02*
X40150000Y74175000D01*
X33375000Y55825000D02*
X33375000Y68671750D01*
X33375000Y68671750D02*
X38878250Y74175000D01*
X32175000Y54625000D02*
X33375000Y55825000D01*
X32175000Y52771750D02*
X32175000Y54625000D01*
X24000000Y9200000D02*
X27937500Y13137500D01*
X27937500Y13137500D02*
X27937500Y17136970D01*
X27937500Y17136970D02*
X30276480Y19475950D01*
X31703250Y18575000D02*
X32146750Y18575000D01*
X32146750Y18575000D02*
X38650000Y25078250D01*
X38650000Y25078250D02*
X38650000Y25150000D01*
X49821750Y32325000D02*
X52925000Y32325000D01*
X52925000Y32325000D02*
X56000000Y35400000D01*
X56000000Y35400000D02*
X56000000Y36425000D01*
X45925000Y31650000D02*
X49146750Y31650000D01*
X49146750Y31650000D02*
X49821750Y32325000D01*
X30026470Y9425460D02*
X30026470Y16898220D01*
X30026470Y16898220D02*
X31703250Y18575000D01*
X55500000Y35700000D02*
X55500000Y36950000D01*
X45900000Y32375000D02*
X48550000Y32375000D01*
X48550000Y32375000D02*
X49000000Y32825000D01*
X49000000Y32825000D02*
X49000000Y32846750D01*
X49000000Y32846750D02*
X49278250Y33125000D01*
X49278250Y33125000D02*
X52925000Y33125000D01*
X52925000Y33125000D02*
X55500000Y35700000D01*
X29238280Y9450000D02*
X29238280Y17138270D01*
X29238280Y17138270D02*
X35025000Y22925000D01*
X35025000Y22925000D02*
X35025000Y23096750D01*
X35025000Y23096750D02*
X37253250Y25325000D01*
X37253250Y25325000D02*
X37800000Y25325000D01*
X26975000Y7925000D02*
X30150000Y7925000D01*
X30150000Y7925000D02*
X38775000Y16550000D01*
X38775000Y16550000D02*
X44250000Y16550000D01*
X66631600Y30256600D02*
X69175000Y32800000D01*
X66631600Y30046650D02*
X66631600Y30256600D01*
X66353350Y29768400D02*
X66631600Y30046650D01*
X65731600Y29768400D02*
X66353350Y29768400D01*
X64567540Y28604350D02*
X65731600Y29768400D01*
X57830770Y28604350D02*
X64567540Y28604350D01*
X57777820Y28551390D02*
X57830770Y28604350D01*
X45700000Y36600000D02*
X51225000Y36600000D01*
X51225000Y36600000D02*
X51925000Y37300000D01*
X43275000Y34175000D02*
X45700000Y36600000D01*
X62797950Y16225000D02*
X75600000Y16225000D01*
X62596750Y16426200D02*
X62797950Y16225000D01*
X53172950Y16426200D02*
X62596750Y16426200D01*
X52646750Y15900000D02*
X53172950Y16426200D01*
X48525000Y15900000D02*
X52646750Y15900000D01*
X43275000Y21150000D02*
X48525000Y15900000D01*
X75600000Y16225000D02*
X76125000Y16750000D01*
X43275000Y21150000D02*
X43275000Y34175000D01*
X48439700Y60889500D02*
X48439700Y61201750D01*
X48439700Y61201750D02*
X48980700Y61742750D01*
X48980700Y61742750D02*
X48980700Y62086250D01*
X48980700Y62086250D02*
X49258950Y62364500D01*
X49258950Y62364500D02*
X49602450Y62364500D01*
X49602450Y62364500D02*
X49971300Y62733350D01*
X49971300Y62733350D02*
X49971300Y63086250D01*
X49971300Y63086250D02*
X50249550Y63364500D01*
X50249550Y63364500D02*
X50593050Y63364500D01*
X50593050Y63364500D02*
X50961900Y63733350D01*
X50961900Y63733350D02*
X50961900Y64086250D01*
X50961900Y64086250D02*
X51240150Y64364500D01*
X51240150Y64364500D02*
X51583650Y64364500D01*
X51583650Y64364500D02*
X51977900Y64758750D01*
X51977900Y64758750D02*
X51977900Y65086250D01*
X51977900Y65086250D02*
X52256150Y65364500D01*
X52256150Y65364500D02*
X52602450Y65364500D01*
X52602450Y65364500D02*
X52787950Y65550000D01*
X52787950Y65550000D02*
X53111250Y65550000D01*
X53111250Y65550000D02*
X53246750Y65414500D01*
X53246750Y65414500D02*
X53640250Y65414500D01*
X53640250Y65414500D02*
X53959100Y65733350D01*
X53959100Y65733350D02*
X53959100Y66086250D01*
X53959100Y66086250D02*
X54237350Y66364500D01*
X54237350Y66364500D02*
X54580850Y66364500D01*
X54580850Y66364500D02*
X54970380Y66754020D01*
X54970380Y66754020D02*
X54970380Y67081530D01*
X54970380Y67081530D02*
X55248620Y67359780D01*
X56015220Y67359780D02*
X56450000Y66925000D01*
X55248620Y67359780D02*
X56015220Y67359780D01*
D19*
X50954900Y57654900D02*
X50954900Y59380900D01*
X50200000Y56900000D02*
X50954900Y57654900D01*
X50200000Y52400000D02*
X50200000Y56900000D01*
X50446300Y59746300D02*
X50446300Y59889500D01*
X50446300Y59889500D02*
X50954900Y59380900D01*
X50200000Y52400000D02*
X57243000Y45357000D01*
X57243000Y45357000D02*
X69257000Y45357000D01*
X69257000Y45357000D02*
X72900000Y49000000D01*
X50514000Y52686000D02*
X50514000Y54514000D01*
X50514000Y54514000D02*
X51436900Y55436900D01*
X51436900Y55436900D02*
X51436900Y57889500D01*
X73099650Y49482000D02*
X73106650Y49475000D01*
X72657000Y49482000D02*
X73099650Y49482000D01*
X77049790Y50534860D02*
X77049790Y51450210D01*
X76700000Y51800000D02*
X77049790Y51450210D01*
X73106650Y49475000D02*
X74600000Y49475000D01*
X74600000Y49475000D02*
X75105030Y49980030D01*
X75105030Y49980030D02*
X76494970Y49980030D01*
X76494970Y49980030D02*
X77049790Y50534860D01*
X57529000Y45671000D02*
X68846000Y45671000D01*
X68846000Y45671000D02*
X72657000Y49482000D01*
X50514000Y52686000D02*
X57529000Y45671000D01*
X52032000Y51868000D02*
X57800000Y46100000D01*
X51754000Y57506050D02*
X51918900Y57670950D01*
X51754000Y54446000D02*
X52032000Y54168000D01*
X51754000Y54446000D02*
X51754000Y57506050D01*
X52032000Y51868000D02*
X52032000Y54168000D01*
X76100000Y51700000D02*
X76100000Y52300000D01*
X51918900Y57670950D02*
X51918900Y58089150D01*
X51436900Y58571150D02*
X51918900Y58089150D01*
X51436900Y58571150D02*
X51436900Y58889500D01*
X76100000Y51700000D02*
X76493000Y51307000D01*
X76360780Y50382570D02*
X76360780Y50382570D01*
X76493000Y51307000D02*
X76493010Y51307000D01*
X76360780Y50382570D02*
X76453440Y50382570D01*
X76453440Y50382570D02*
X76735790Y50664920D01*
X76735790Y50664920D02*
X76735790Y51064220D01*
X76493010Y51307000D02*
X76735790Y51064220D01*
X72450000Y49875000D02*
X74325000Y49875000D01*
X74325000Y49875000D02*
X74832570Y50382570D01*
X74832570Y50382570D02*
X76360780Y50382570D01*
X57800000Y46100000D02*
X68675000Y46100000D01*
X68675000Y46100000D02*
X72450000Y49875000D01*
X68400000Y50675000D02*
X68825000Y51100000D01*
X51436900Y59889500D02*
X51926400Y59400000D01*
X55248500Y58400000D02*
X55678800Y58400000D01*
X54916100Y58732400D02*
X55248500Y58400000D01*
X54916100Y58732400D02*
X54916100Y59089150D01*
X51926400Y59400000D02*
X54605250Y59400000D01*
X54605250Y59400000D02*
X54916100Y59089150D01*
X77796820Y54384630D02*
X78103810Y54077640D01*
X56178800Y56546200D02*
X56178800Y57900000D01*
X56178800Y56546200D02*
X56975000Y55750000D01*
X56975000Y54275000D02*
X56975000Y55750000D01*
X56975000Y54275000D02*
X57675000Y53575000D01*
X57675000Y53575000D02*
X58175000Y53575000D01*
X60250000Y50000000D02*
X65650000Y50000000D01*
X65650000Y50000000D02*
X66325000Y50675000D01*
X55678800Y58400000D02*
X56178800Y57900000D01*
X66325000Y50675000D02*
X68400000Y50675000D01*
X58525000Y51725000D02*
X60250000Y50000000D01*
X58525000Y51725000D02*
X58525000Y53225000D01*
X58175000Y53575000D02*
X58525000Y53225000D01*
X68825000Y51100000D02*
X68825000Y52925000D01*
X71475000Y53650000D02*
X74025000Y53650000D01*
X74025000Y53650000D02*
X75432000Y55057000D01*
X75432000Y55057000D02*
X76571680Y55057000D01*
X76571680Y55057000D02*
X77244050Y54384630D01*
X77244050Y54384630D02*
X77796820Y54384630D01*
X68825000Y52925000D02*
X69731440Y53831440D01*
X69731440Y53831440D02*
X71293560Y53831440D01*
X71293560Y53831440D02*
X71475000Y53650000D01*
X76963650Y49082000D02*
X78750000Y49082000D01*
X76899650Y49018000D02*
X76963650Y49082000D01*
X78750000Y49082000D02*
X79550000Y49882000D01*
X77228770Y53902630D02*
X77472370Y53902630D01*
X79550000Y49882000D02*
X79550000Y51825000D01*
X77472370Y53902630D02*
X79550000Y51825000D01*
X73642290Y49018000D02*
X76899650Y49018000D01*
X72620290Y48146000D02*
X72770290Y48146000D01*
X72770290Y48146000D02*
X73642290Y49018000D01*
X72104000Y47629710D02*
X72620290Y48146000D01*
X72104000Y47479000D02*
X72104000Y47629710D01*
X49750000Y52150000D02*
X49750000Y57193200D01*
X49750000Y57193200D02*
X50446300Y57889500D01*
X57425000Y44475000D02*
X61275000Y44475000D01*
X49750000Y52150000D02*
X57425000Y44475000D01*
X68450000Y43825000D02*
X72104000Y47479000D01*
X61275000Y44475000D02*
X61925000Y43825000D01*
X61925000Y43825000D02*
X68450000Y43825000D01*
X67000000Y48425000D02*
X67887500Y49312500D01*
X54434100Y58665900D02*
X54963370Y58136620D01*
X54434100Y58665900D02*
X54434100Y58889500D01*
X54963370Y54836630D02*
X54963370Y58136620D01*
X67887500Y49312500D02*
X69162500Y49312500D01*
X69162500Y49312500D02*
X71475000Y51625000D01*
X73164200Y51625000D02*
X75150000Y53610800D01*
X76899060Y53106630D02*
X77193370Y53106630D01*
X71475000Y51625000D02*
X73164200Y51625000D01*
X56500000Y52250000D02*
X56500000Y53300000D01*
X56025000Y51775000D02*
X56500000Y52250000D01*
X58174650Y49507000D02*
X58457000Y49224650D01*
X58457000Y48918000D02*
X58457000Y49224650D01*
X58457000Y48918000D02*
X58950000Y48425000D01*
X54963370Y54836630D02*
X56500000Y53300000D01*
X58950000Y48425000D02*
X67000000Y48425000D01*
X78603840Y50952490D02*
X78603840Y51696170D01*
X77193370Y53106630D02*
X78603840Y51696170D01*
X56025000Y51250000D02*
X56025000Y51775000D01*
X56025000Y51250000D02*
X57768000Y49507000D01*
X57768000Y49507000D02*
X58174650Y49507000D01*
X75150000Y53610800D02*
X76394890Y53610800D01*
X76394890Y53610800D02*
X76899060Y53106630D01*
X58393350Y47925000D02*
X67125000Y47925000D01*
X54925000Y51393350D02*
X58393350Y47925000D01*
X78290380Y50109620D02*
X78290380Y50290380D01*
X78082000Y50318000D02*
X78082000Y51718000D01*
X54434100Y54765900D02*
X54434100Y57889500D01*
X76410630Y53151000D02*
X76769000Y52792630D01*
X76769000Y52792630D02*
X77007370Y52792630D01*
X77007370Y52792630D02*
X78082000Y51718000D01*
X71800000Y51200000D02*
X73462500Y51200000D01*
X78082000Y50318000D02*
X78290380Y50109620D01*
X54434100Y54765900D02*
X54925000Y54275000D01*
X69507000Y48907000D02*
X71800000Y51200000D01*
X68107000Y48907000D02*
X69507000Y48907000D01*
X67125000Y47925000D02*
X68107000Y48907000D01*
X54925000Y51393350D02*
X54925000Y54275000D01*
X73462500Y51200000D02*
X75413500Y53151000D01*
X75413500Y53151000D02*
X76410630Y53151000D01*
X54100000Y51100000D02*
X58150000Y47050000D01*
X53450000Y54650000D02*
X54100000Y54000000D01*
X53450000Y54650000D02*
X53450000Y57162850D01*
X52961500Y57651350D02*
X53450000Y57162850D01*
X54100000Y51100000D02*
X54100000Y54000000D01*
X52961500Y57651350D02*
X52961500Y58062550D01*
X52452900Y58571150D02*
X52961500Y58062550D01*
X52452900Y58571150D02*
X52452900Y58889500D01*
X73793350Y50675000D02*
X75900350Y52782000D01*
X75900350Y52782000D02*
X76299650Y52782000D01*
X76603020Y52478630D02*
X76877310Y52478630D01*
X76299650Y52782000D02*
X76603020Y52478630D01*
X72000000Y50675000D02*
X73793350Y50675000D01*
X69757000Y48432000D02*
X72000000Y50675000D01*
X69757000Y48225350D02*
X69757000Y48432000D01*
X69474650Y47943000D02*
X69757000Y48225350D01*
X58150000Y47050000D02*
X68325000Y47050000D01*
X68325000Y47050000D02*
X69218000Y47943000D01*
X69218000Y47943000D02*
X69474650Y47943000D01*
X76877310Y52478630D02*
X77600000Y51755940D01*
X77600000Y50500000D02*
X77600000Y51755940D01*
X52452900Y52147100D02*
X57975000Y46625000D01*
X52068000Y57304000D02*
X52452900Y57688900D01*
X52068000Y54659900D02*
X52452900Y54275000D01*
X52068000Y54659900D02*
X52068000Y57304000D01*
X52452900Y52147100D02*
X52452900Y54275000D01*
X52452900Y57688900D02*
X52452900Y57889500D01*
X74125000Y50275000D02*
X74714570Y50864570D01*
X74714570Y50864570D02*
X76253790Y50864570D01*
X57975000Y46625000D02*
X68600710Y46625000D01*
X68600710Y46625000D02*
X72250710Y50275000D01*
X72250710Y50275000D02*
X74125000Y50275000D01*
X55897220Y59402770D02*
X56500000Y58800000D01*
X55046540Y59402770D02*
X55897220Y59402770D01*
X54559810Y59889500D02*
X55046540Y59402770D01*
X54434100Y59889500D02*
X54559810Y59889500D01*
X73693600Y54075000D02*
X76168600Y56550000D01*
X76168600Y56550000D02*
X77750000Y56550000D01*
X77750000Y56550000D02*
X78418000Y55882000D01*
X80575000Y50325000D02*
X81825000Y49075000D01*
X78418000Y55500000D02*
X78450000Y55500000D01*
X78450000Y55500000D02*
X80575000Y53375000D01*
X78418000Y55500000D02*
X78418000Y55882000D01*
X80575000Y50325000D02*
X80575000Y53375000D01*
X67218000Y51393000D02*
X67218000Y51953210D01*
X66925000Y51100000D02*
X67218000Y51393000D01*
X56500000Y56950000D02*
X56500000Y58800000D01*
X56500000Y56950000D02*
X57450000Y56000000D01*
X57450000Y56000000D02*
X58050000Y56000000D01*
X60466600Y50383400D02*
X65483400Y50383400D01*
X65483400Y50383400D02*
X66200000Y51100000D01*
X66200000Y51100000D02*
X66925000Y51100000D01*
X58950000Y51900000D02*
X60466600Y50383400D01*
X58950000Y51900000D02*
X58950000Y55100000D01*
X58050000Y56000000D02*
X58950000Y55100000D01*
X71621800Y54075000D02*
X73693600Y54075000D01*
X67218000Y51953210D02*
X69500060Y54235270D01*
X69500060Y54235270D02*
X71461530Y54235270D01*
X71461530Y54235270D02*
X71621800Y54075000D01*
X58275000Y47525000D02*
X67537500Y47525000D01*
X53443500Y58571150D02*
X53925500Y58089150D01*
X53443500Y58571150D02*
X53443500Y58889500D01*
X53925500Y54674500D02*
X53925500Y58089150D01*
X54550000Y51250000D02*
X58275000Y47525000D01*
X54550000Y51250000D02*
X54550000Y54050000D01*
X53925500Y54674500D02*
X54550000Y54050000D01*
X68437500Y48425000D02*
X69275000Y48425000D01*
X67537500Y47525000D02*
X68437500Y48425000D01*
X49256050Y58371500D02*
X49619350Y58371500D01*
X49619350Y58371500D02*
X49964300Y58716450D01*
X49964300Y58716450D02*
X49964300Y60089150D01*
X49964300Y60089150D02*
X50282650Y60407500D01*
X50282650Y60407500D02*
X52652550Y60407500D01*
X53170550Y59889500D02*
X53443500Y59889500D01*
X52652550Y60407500D02*
X53170550Y59889500D01*
X48973700Y55511510D02*
X48973700Y58089150D01*
X48973700Y58089150D02*
X49256050Y58371500D01*
X50665600Y49843350D02*
X50665600Y50509400D01*
X50665600Y49843350D02*
X50675000Y49833950D01*
X77168000Y48657000D02*
X77425000Y48400000D01*
X68718350Y43400000D02*
X72418000Y47099650D01*
X72418000Y47499650D02*
X72750350Y47832000D01*
X72418000Y47099650D02*
X72418000Y47499650D01*
X72750350Y47832000D02*
X73032000Y47832000D01*
X73032000Y47832000D02*
X73857000Y48657000D01*
X73857000Y48657000D02*
X77168000Y48657000D01*
X48973700Y55511510D02*
X49182000Y55303210D01*
X49182000Y51993000D02*
X49182000Y55303210D01*
X49182000Y51993000D02*
X50665600Y50509400D01*
X50675000Y49443350D02*
X50675000Y49833950D01*
X50675000Y49443350D02*
X55500000Y44618350D01*
X55493000Y44399650D02*
X55500000Y44406650D01*
X55500000Y44406650D02*
X55500000Y44618350D01*
X55493000Y43832000D02*
X55493000Y44399650D01*
X55493000Y43832000D02*
X55750000Y43575000D01*
X55750000Y43575000D02*
X56450000Y43575000D01*
X56450000Y43575000D02*
X56682000Y43807000D01*
X56682000Y43807000D02*
X58643000Y43807000D01*
X58643000Y43807000D02*
X59050000Y43400000D01*
X59050000Y43400000D02*
X68718350Y43400000D01*
X81932000Y52368000D02*
X81932000Y53574650D01*
X83200000Y48925000D02*
X83200000Y51100000D01*
X81932000Y52368000D02*
X83200000Y51100000D01*
X71808690Y55034660D02*
X71950350Y54893000D01*
X71950350Y54893000D02*
X72443000Y54893000D01*
X81850000Y47575000D02*
X83200000Y48925000D01*
X81850000Y47225000D02*
X81850000Y47575000D01*
X79837500Y55669150D02*
X81932000Y53574650D01*
X76693350Y57925000D02*
X77205750Y57412600D01*
X77205750Y57412600D02*
X77605050Y57412600D01*
X77605050Y57412600D02*
X77617450Y57425000D01*
X77617450Y57425000D02*
X79050000Y57425000D01*
X79050000Y57425000D02*
X79837500Y56637500D01*
X79837500Y55669150D02*
X79837500Y56637500D01*
X67772340Y54057000D02*
X68750000Y55034660D01*
X68750000Y55034660D02*
X71808690Y55034660D01*
X64749970Y53434570D02*
X65809570Y53434570D01*
X65809570Y53434570D02*
X66432000Y54057000D01*
X66432000Y54057000D02*
X67772340Y54057000D01*
X63625000Y51525000D02*
X64175000Y52075000D01*
X64175000Y52075000D02*
X64175000Y52859600D01*
X58453420Y57884780D02*
X59744100Y56594100D01*
X64175000Y52859600D02*
X64749970Y53434570D01*
X61675000Y51525000D02*
X63625000Y51525000D01*
X60850000Y52350000D02*
X61675000Y51525000D01*
X59744100Y54330900D02*
X59744100Y56594100D01*
X59744100Y54330900D02*
X60850000Y53225000D01*
X60850000Y52350000D02*
X60850000Y53225000D01*
X72443000Y54893000D02*
X75475000Y57925000D01*
X75475000Y57925000D02*
X76693350Y57925000D01*
X76700000Y49500000D02*
X76800000Y49600000D01*
X79100000Y50100000D02*
X79100000Y51818350D01*
X78600000Y49600000D02*
X79100000Y50100000D01*
X76800000Y49600000D02*
X78600000Y49600000D01*
X69010210Y49875000D02*
X71782010Y52646800D01*
X71782010Y52646800D02*
X72328450Y52646800D01*
X72328450Y52646800D02*
X72331650Y52650000D01*
X73625000Y52650000D02*
X74975000Y54000000D01*
X67675000Y49875000D02*
X69010210Y49875000D01*
X72331650Y52650000D02*
X73625000Y52650000D01*
X77029120Y53420630D02*
X77497720Y53420630D01*
X77497720Y53420630D02*
X79100000Y51818350D01*
X55445380Y56439830D02*
X55445380Y57884780D01*
X55445380Y56439830D02*
X56507000Y55378210D01*
X59963650Y49543000D02*
X65556000Y49543000D01*
X65556000Y49543000D02*
X65928580Y49170420D01*
X65928580Y49170420D02*
X66970420Y49170420D01*
X66970420Y49170420D02*
X67675000Y49875000D01*
X56814000Y52236000D02*
X57743000Y51307000D01*
X57743000Y51307000D02*
X58199650Y51307000D01*
X58199650Y51307000D02*
X59963650Y49543000D01*
X56507000Y53893000D02*
X56507000Y55378210D01*
X56507000Y53893000D02*
X56814000Y53586000D01*
X56814000Y52236000D02*
X56814000Y53586000D01*
X74975000Y54000000D02*
X76449750Y54000000D01*
X76449750Y54000000D02*
X77029120Y53420630D01*
X76063550Y58579800D02*
X76230750Y58412600D01*
X66928190Y55392990D02*
X70903210Y55392990D01*
X76230750Y58412600D02*
X78837400Y58412600D01*
X78837400Y58412600D02*
X80269130Y56980870D01*
X80269130Y55919130D02*
X80269130Y56980870D01*
X80269130Y55919130D02*
X83537500Y52650760D01*
X66296790Y55368000D02*
X66903200Y55368000D01*
X70903210Y55392990D02*
X71575000Y56064780D01*
X65078800Y54150000D02*
X66296790Y55368000D01*
X60453420Y54846580D02*
X60453420Y57884780D01*
X60453420Y54846580D02*
X61164000Y54136000D01*
X62975000Y53550000D02*
X63975000Y53550000D01*
X63975000Y53550000D02*
X64575000Y54150000D01*
X64575000Y54150000D02*
X65078800Y54150000D01*
X82483930Y46677280D02*
X83537500Y47730850D01*
X78903850Y46677280D02*
X82483930Y46677280D01*
X83537500Y47730850D02*
X83537500Y52650760D01*
X62025000Y52600000D02*
X62975000Y53550000D01*
X61164000Y52936000D02*
X61164000Y54136000D01*
X61164000Y52936000D02*
X61500000Y52600000D01*
X61500000Y52600000D02*
X62025000Y52600000D01*
X66903200Y55368000D02*
X66928190Y55392990D01*
X71575000Y56064780D02*
X71575000Y56475000D01*
X71575000Y56475000D02*
X73679800Y58579800D01*
X73679800Y58579800D02*
X76063550Y58579800D01*
X68150000Y56275000D02*
X69685210Y56275000D01*
X67500000Y56925000D02*
X68150000Y56275000D01*
X77501850Y59579800D02*
X78007790Y59073850D01*
X78007790Y59073850D02*
X78751150Y59073850D01*
X78751150Y59073850D02*
X80750000Y57075000D01*
X80750000Y56075000D02*
X80750000Y57075000D01*
X80750000Y56075000D02*
X84000000Y52825000D01*
X62406600Y56931600D02*
X66618400Y56931600D01*
X66618400Y56931600D02*
X66625000Y56925000D01*
X66625000Y56925000D02*
X67500000Y56925000D01*
X61453430Y57884780D02*
X62406600Y56931600D01*
X77100000Y40075000D02*
X77132000Y40107000D01*
X77132000Y40107000D02*
X77732000Y40107000D01*
X82707340Y46363280D02*
X84000000Y47655940D01*
X84000000Y47655940D02*
X84000000Y52825000D01*
X81513280Y46363280D02*
X82707340Y46363280D01*
X77732000Y40107000D02*
X79925000Y42300000D01*
X79925000Y42300000D02*
X79925000Y44775000D01*
X79925000Y44775000D02*
X81513280Y46363280D01*
X72401850Y58615800D02*
X72404710Y58618650D01*
X72404710Y58618650D02*
X72488850Y58618650D01*
X72488850Y58618650D02*
X73450000Y59579800D01*
X73450000Y59579800D02*
X77501850Y59579800D01*
X71720200Y58295200D02*
X71720200Y58297450D01*
X71720200Y58297450D02*
X72038550Y58615800D01*
X72038550Y58615800D02*
X72401850Y58615800D01*
X69850000Y56439790D02*
X69864790Y56439790D01*
X69685210Y56275000D02*
X69850000Y56439790D01*
X69864790Y56439790D02*
X71720200Y58295200D01*
X85107000Y51832000D02*
X85107000Y52774650D01*
X84400000Y51125000D02*
X85107000Y51832000D01*
X84824650Y53057000D02*
X85107000Y52774650D01*
X68800000Y57925000D02*
X70768800Y59893800D01*
X67600300Y57350000D02*
X68175300Y57925000D01*
X68175300Y57925000D02*
X68800000Y57925000D01*
X76150000Y40275000D02*
X76150000Y40800000D01*
X78987140Y59387850D02*
X81200000Y57175000D01*
X62375000Y57875000D02*
X62900000Y57350000D01*
X62900000Y57350000D02*
X67600300Y57350000D01*
X82837400Y46049280D02*
X82903120Y46115000D01*
X82903120Y46115000D02*
X83115000Y46115000D01*
X83115000Y46115000D02*
X84400000Y47400000D01*
X84400000Y47400000D02*
X84400000Y51125000D01*
X80375000Y44575000D02*
X81849280Y46049280D01*
X81849280Y46049280D02*
X82837400Y46049280D01*
X79750000Y41575000D02*
X80375000Y42200000D01*
X80375000Y42200000D02*
X80375000Y44575000D01*
X79750000Y40967520D02*
X79750000Y41575000D01*
X81200000Y56393350D02*
X84536350Y53057000D01*
X81200000Y56393350D02*
X81200000Y57175000D01*
X84536350Y53057000D02*
X84824650Y53057000D01*
X77925480Y39143000D02*
X79750000Y40967520D01*
X76150000Y40275000D02*
X77282000Y39143000D01*
X77282000Y39143000D02*
X77925480Y39143000D01*
X70768800Y59893800D02*
X78014590Y59893800D01*
X78014590Y59893800D02*
X78520530Y59387850D01*
X78520530Y59387850D02*
X78987140Y59387850D01*
X75628210Y63782000D02*
X75842210Y63568000D01*
X73267210Y63782000D02*
X75628210Y63782000D01*
X75725000Y41900000D02*
X76400000Y41900000D01*
X74950000Y41125000D02*
X75725000Y41900000D01*
X74950000Y39850000D02*
X74950000Y41125000D01*
X72369980Y62884780D02*
X73267210Y63782000D01*
X75842210Y63568000D02*
X79588650Y63568000D01*
X79588650Y63568000D02*
X86225000Y56931650D01*
X81229360Y43411710D02*
X81275000Y43366070D01*
X79700000Y38425000D02*
X80575000Y39300000D01*
X83097520Y45421280D02*
X83163240Y45487000D01*
X82600640Y45421280D02*
X83097520Y45421280D01*
X81229360Y44050000D02*
X82600640Y45421280D01*
X81229360Y43411710D02*
X81229360Y44050000D01*
X83163240Y45487000D02*
X83662000Y45487000D01*
X83662000Y45487000D02*
X86225000Y48050000D01*
X86225000Y48050000D02*
X86225000Y56931650D01*
X80575000Y39300000D02*
X80575000Y41200000D01*
X80575000Y41200000D02*
X81275000Y41900000D01*
X81275000Y41900000D02*
X81275000Y43366070D01*
X67453420Y62884780D02*
X72369980Y62884780D01*
X74950000Y39850000D02*
X76375000Y38425000D01*
X76375000Y38425000D02*
X79700000Y38425000D01*
X85057000Y59618000D02*
X86675000Y58000000D01*
X85057000Y59618000D02*
X85057000Y59699650D01*
X84760700Y59995950D02*
X85057000Y59699650D01*
X66771770Y62884780D02*
X67289770Y63402770D01*
X66453420Y62884780D02*
X66771770Y62884780D01*
X70950000Y63800000D02*
X72500000Y65350000D01*
X79325440Y65350000D02*
X84679490Y59995950D01*
X84679490Y59995950D02*
X84760700Y59995950D01*
X79850000Y38000000D02*
X81075000Y39225000D01*
X72500000Y65350000D02*
X79325440Y65350000D01*
X83227580Y45107280D02*
X83293300Y45173000D01*
X83207280Y45107280D02*
X83227580Y45107280D01*
X82375000Y44275000D02*
X83207280Y45107280D01*
X83293300Y45173000D02*
X83998000Y45173000D01*
X83998000Y45173000D02*
X86675000Y47850000D01*
X86675000Y47850000D02*
X86675000Y58000000D01*
X81075000Y39225000D02*
X81075000Y41100000D01*
X81075000Y41100000D02*
X82375000Y42400000D01*
X82375000Y42400000D02*
X82375000Y44275000D01*
X71675000Y39275000D02*
X71732000Y39218000D01*
X71732000Y39218000D02*
X73432000Y39218000D01*
X73432000Y39218000D02*
X74650000Y38000000D01*
X67289770Y63402770D02*
X68102770Y63402770D01*
X68102770Y63402770D02*
X68657000Y63957000D01*
X68657000Y63957000D02*
X69743000Y63957000D01*
X69900000Y63800000D02*
X70950000Y63800000D01*
X69743000Y63957000D02*
X69900000Y63800000D01*
X74650000Y38000000D02*
X79850000Y38000000D01*
X77947280Y44095630D02*
X77947280Y46571930D01*
X76953760Y43102100D02*
X77947280Y44095630D01*
X81325000Y47775000D02*
X82350000Y48800000D01*
X82350000Y48800000D02*
X82350000Y49975000D01*
X80968000Y51357000D02*
X82350000Y49975000D01*
X80968000Y51357000D02*
X80968000Y53857000D01*
X72775000Y54425000D02*
X75293000Y56943000D01*
X75293000Y56943000D02*
X78757000Y56943000D01*
X78757000Y56943000D02*
X79450000Y56250000D01*
X79450000Y55375000D02*
X80968000Y53857000D01*
X79450000Y55375000D02*
X79450000Y56250000D01*
X67300000Y52800000D02*
X68925000Y54425000D01*
X65785180Y52535180D02*
X66050000Y52800000D01*
X66050000Y52800000D02*
X67300000Y52800000D01*
X59368000Y52082000D02*
X59800000Y51650000D01*
X59800000Y51650000D02*
X61025000Y51650000D01*
X61025000Y51650000D02*
X61825000Y50850000D01*
X61825000Y50850000D02*
X64925000Y50850000D01*
X64925000Y50850000D02*
X65746240Y51671240D01*
X65746240Y52330740D02*
X65785180Y52369680D01*
X65746240Y51671240D02*
X65746240Y52330740D01*
X65785180Y52369680D02*
X65785180Y52535180D01*
X77947280Y46571930D02*
X79150350Y47775000D01*
X79150350Y47775000D02*
X81325000Y47775000D01*
X59368000Y52082000D02*
X59368000Y55970200D01*
X57453420Y57884780D02*
X59368000Y55970200D01*
X68925000Y54425000D02*
X68950000Y54425000D01*
X71800000Y54425000D02*
X72775000Y54425000D01*
X68950000Y54425000D02*
X69175000Y54650000D01*
X69175000Y54650000D02*
X71575000Y54650000D01*
X71575000Y54650000D02*
X71800000Y54425000D01*
X78438120Y60225000D02*
X78745120Y59918000D01*
X73425000Y60225000D02*
X78438120Y60225000D01*
X72650000Y61000000D02*
X73425000Y60225000D01*
X71125000Y61000000D02*
X72650000Y61000000D01*
X68506890Y58381880D02*
X71125000Y61000000D01*
X75525000Y40150000D02*
X75525000Y41050000D01*
X75525000Y41050000D02*
X75775000Y41300000D01*
X75775000Y41300000D02*
X76675000Y41300000D01*
X76325000Y42900000D02*
X76325000Y43875000D01*
X76325000Y42900000D02*
X77050000Y42175000D01*
X78745120Y59918000D02*
X79207000Y59918000D01*
X79207000Y59918000D02*
X83968000Y55157000D01*
X83968000Y54900350D02*
X83968000Y55157000D01*
X57440220Y58884780D02*
X57484780Y58884780D01*
X57484780Y58884780D02*
X58000000Y59400000D01*
X58000000Y59400000D02*
X62750000Y59400000D01*
X62750000Y59400000D02*
X62971420Y59178580D01*
X62971420Y58685130D02*
X62971420Y59178580D01*
X62971420Y58685130D02*
X63253770Y58402780D01*
X63253770Y58402780D02*
X63279110Y58402780D01*
X63279110Y58402780D02*
X63300000Y58381880D01*
X63300000Y58381880D02*
X68506890Y58381880D01*
X82967460Y45735280D02*
X83033180Y45801000D01*
X83033180Y45801000D02*
X83401000Y45801000D01*
X83401000Y45801000D02*
X85775000Y48175000D01*
X80849000Y44374000D02*
X82210280Y45735280D01*
X82210280Y45735280D02*
X82967460Y45735280D01*
X80225000Y39500000D02*
X80225000Y41450000D01*
X80225000Y41450000D02*
X80849000Y42074000D01*
X80849000Y42074000D02*
X80849000Y44374000D01*
X84943350Y53925000D02*
X85450000Y53925000D01*
X85450000Y53925000D02*
X85775000Y53600000D01*
X83968000Y54900350D02*
X84943350Y53925000D01*
X85775000Y48175000D02*
X85775000Y53600000D01*
X79525000Y38800000D02*
X80225000Y39500000D01*
X75525000Y40150000D02*
X76875000Y38800000D01*
X76875000Y38800000D02*
X79525000Y38800000D01*
X76675000Y41300000D02*
X77050000Y41675000D01*
X77050000Y41675000D02*
X77050000Y42175000D01*
X87175000Y47625000D02*
X87175000Y61900000D01*
X80982000Y68093000D02*
X87175000Y61900000D01*
X77428800Y68093000D02*
X80982000Y68093000D01*
X77414800Y68107000D02*
X77428800Y68093000D01*
X75842210Y68107000D02*
X77414800Y68107000D01*
X75553200Y67817990D02*
X75842210Y68107000D01*
X73357010Y67817990D02*
X75553200Y67817990D01*
X57453420Y59884770D02*
X57971420Y60402770D01*
X69927770Y66402780D02*
X70164000Y66639000D01*
X83175000Y44050000D02*
X83175000Y44459000D01*
X83175000Y44459000D02*
X83541000Y44825000D01*
X83541000Y44825000D02*
X84375000Y44825000D01*
X84375000Y44825000D02*
X87175000Y47625000D01*
X70164000Y66639000D02*
X70489000Y66639000D01*
X57971420Y60402770D02*
X59653070Y60402770D01*
X59653070Y60402770D02*
X59935420Y60685130D01*
X59935420Y60685130D02*
X59935420Y61048430D01*
X59935420Y61048430D02*
X60289780Y61402780D01*
X60289780Y61402780D02*
X60653070Y61402780D01*
X60653070Y61402780D02*
X60935430Y61685130D01*
X60935430Y61685130D02*
X60935430Y62048430D01*
X60935430Y62048430D02*
X61289780Y62402780D01*
X61289780Y62402780D02*
X61653070Y62402780D01*
X61653070Y62402780D02*
X61935430Y62685130D01*
X61935430Y62685130D02*
X61935430Y63048430D01*
X61935430Y63048430D02*
X62289770Y63402770D01*
X62289770Y63402770D02*
X62653070Y63402770D01*
X62653070Y63402770D02*
X62935420Y63685130D01*
X62935420Y63685130D02*
X62935420Y64048420D01*
X62935420Y64048420D02*
X63289770Y64402770D01*
X63289770Y64402770D02*
X63653070Y64402770D01*
X63653070Y64402770D02*
X63971420Y64721130D01*
X63971420Y64721130D02*
X63971420Y66084420D01*
X63971420Y66084420D02*
X64253780Y66366780D01*
X64253780Y66366780D02*
X65189000Y66366780D01*
X65189000Y66366780D02*
X65225000Y66402780D01*
X65225000Y66402780D02*
X69927770Y66402780D01*
X70489000Y66639000D02*
X71568000Y67718000D01*
X71568000Y67718000D02*
X71568000Y67774650D01*
X71568000Y67774650D02*
X71850350Y68057000D01*
X71850350Y68057000D02*
X73118000Y68057000D01*
X73118000Y68057000D02*
X73357010Y67817990D01*
X78203210Y69557000D02*
X79080110Y68680100D01*
X79080110Y68680100D02*
X81205100Y68680100D01*
X73846800Y69557000D02*
X78203210Y69557000D01*
X55445380Y59884770D02*
X56359780Y59884770D01*
X56359780Y59884770D02*
X56775000Y60300000D01*
X72864790Y68575000D02*
X73846800Y69557000D01*
X69975000Y66900000D02*
X71650000Y68575000D01*
X71650000Y68575000D02*
X72864790Y68575000D01*
X87541800Y46983200D02*
X87541800Y53216800D01*
X87541800Y53216800D02*
X88775000Y54450000D01*
X88775000Y54450000D02*
X88775000Y59568350D01*
X88775000Y59568350D02*
X89082000Y59875350D01*
X84883590Y44325000D02*
X87541800Y46983200D01*
X83950000Y44325000D02*
X84883590Y44325000D01*
X56775000Y60300000D02*
X56775000Y60888000D01*
X56775000Y60888000D02*
X57289770Y61402780D01*
X62971420Y66084420D02*
X63289770Y66402780D01*
X63289770Y66402780D02*
X63653070Y66402780D01*
X63653070Y66402780D02*
X63971420Y66721130D01*
X63971420Y66721130D02*
X63971420Y67084430D01*
X63971420Y67084430D02*
X64253780Y67366780D01*
X64253780Y67366780D02*
X64489000Y67366780D01*
X64489000Y67366780D02*
X64525000Y67402780D01*
X57289770Y61402780D02*
X59653070Y61402780D01*
X59653070Y61402780D02*
X59935420Y61685130D01*
X59935420Y61685130D02*
X59935420Y62048430D01*
X59935420Y62048430D02*
X60289780Y62402780D01*
X60289780Y62402780D02*
X60653070Y62402780D01*
X60653070Y62402780D02*
X60935430Y62685130D01*
X60935430Y62685130D02*
X60935430Y63048430D01*
X60935430Y63048430D02*
X61289770Y63402770D01*
X61289770Y63402770D02*
X61653070Y63402770D01*
X61653070Y63402770D02*
X61935430Y63685130D01*
X61935430Y63685130D02*
X61935430Y64048430D01*
X61935430Y64048430D02*
X62289770Y64402770D01*
X62289770Y64402770D02*
X62653070Y64402770D01*
X62653070Y64402770D02*
X62935420Y64685130D01*
X62935420Y64685130D02*
X62935420Y65048420D01*
X62935420Y65048420D02*
X62971420Y65084420D01*
X62971420Y65084420D02*
X62971420Y66084420D01*
X64525000Y67402780D02*
X67822220Y67402780D01*
X67822220Y67402780D02*
X68325000Y66900000D01*
X68325000Y66900000D02*
X69975000Y66900000D01*
X89082000Y59875350D02*
X89082000Y60803200D01*
X81205100Y68680100D02*
X89082000Y60803200D01*
X89125000Y51475000D02*
X91207000Y53557000D01*
X89125000Y50707000D02*
X89125000Y51475000D01*
X88812500Y50394500D02*
X89125000Y50707000D01*
X47957700Y57057700D02*
X47957700Y59182700D01*
X47957700Y59182700D02*
X48150000Y59375000D01*
X48150000Y59375000D02*
X48941200Y59375000D01*
X48941200Y59375000D02*
X49455700Y59889500D01*
X49455700Y59889500D02*
X49455700Y60055700D01*
X49455700Y60055700D02*
X49964300Y60564300D01*
X49665600Y49034400D02*
X49665600Y50734400D01*
X51875000Y45950000D02*
X51875000Y46825000D01*
X49665600Y49034400D02*
X51875000Y46825000D01*
X49964300Y60564300D02*
X49964300Y61089150D01*
X49964300Y61089150D02*
X50246650Y61371500D01*
X50246650Y61371500D02*
X52616550Y61371500D01*
X84850000Y43475000D02*
X84850000Y43550000D01*
X84850000Y43550000D02*
X88812500Y47512500D01*
X88812500Y47512500D02*
X88812500Y50394500D01*
X61617080Y66366780D02*
X61935430Y66685130D01*
X61935430Y66685130D02*
X61935430Y68048430D01*
X61935430Y68048430D02*
X62608000Y68721000D01*
X52616550Y61371500D02*
X52961500Y61716450D01*
X52961500Y61716450D02*
X52961500Y62089150D01*
X52961500Y62089150D02*
X53243850Y62371500D01*
X53243850Y62371500D02*
X55613750Y62371500D01*
X55613750Y62371500D02*
X56645020Y63402770D01*
X56645020Y63402770D02*
X59653070Y63402770D01*
X59653070Y63402770D02*
X59971420Y63721120D01*
X59971420Y63721120D02*
X59971420Y64084420D01*
X59971420Y64084420D02*
X60253780Y64366770D01*
X60253780Y64366770D02*
X60617070Y64366770D01*
X60617070Y64366770D02*
X60971420Y64721130D01*
X60971420Y64721130D02*
X60971420Y66084420D01*
X60971420Y66084420D02*
X61253780Y66366780D01*
X61253780Y66366780D02*
X61617080Y66366780D01*
X62608000Y68721000D02*
X67046010Y68721000D01*
X67046010Y68721000D02*
X69543000Y71218000D01*
X47675000Y52725000D02*
X49665600Y50734400D01*
X47675000Y52725000D02*
X47675000Y56775000D01*
X47675000Y56775000D02*
X47957700Y57057700D01*
X80438650Y71218000D02*
X91207000Y60449650D01*
X69543000Y71218000D02*
X80438650Y71218000D01*
X91207000Y53557000D02*
X91207000Y60449650D01*
X52418350Y44275000D02*
X52852510Y44709160D01*
X52852510Y44709160D02*
X54827310Y44709160D01*
X55109670Y44027510D02*
X55109670Y44426810D01*
X54827310Y44709160D02*
X55109670Y44426810D01*
X55082000Y43568000D02*
X55082000Y43999840D01*
X55082000Y43999840D02*
X55109670Y44027510D01*
X45925000Y58381400D02*
X46433100Y58889500D01*
X46433100Y58889500D02*
X46433100Y58941900D01*
X45975000Y59400000D02*
X46433100Y58941900D01*
X49825000Y44900000D02*
X52300000Y44900000D01*
X49675000Y44275000D02*
X52418350Y44275000D01*
X44850000Y58978650D02*
X45271350Y59400000D01*
X44850000Y57460210D02*
X44850000Y58978650D01*
X44850000Y57460210D02*
X45407000Y56903200D01*
X45407000Y55432000D02*
X45407000Y56903200D01*
X45175000Y55200000D02*
X45407000Y55432000D01*
X45271350Y59400000D02*
X45975000Y59400000D01*
X46375000Y48350000D02*
X49825000Y44900000D01*
X45912500Y48037500D02*
X49675000Y44275000D01*
X45693000Y54057000D02*
X46375000Y53375000D01*
X46375000Y48350000D02*
X46375000Y53375000D01*
X45175000Y53925000D02*
X45175000Y55200000D01*
X45175000Y53925000D02*
X45912500Y53187500D01*
X45912500Y48037500D02*
X45912500Y53187500D01*
X57325000Y43225000D02*
X57932000Y42618000D01*
X57932000Y42618000D02*
X58768000Y42618000D01*
X55082000Y43568000D02*
X55425000Y43225000D01*
X55425000Y43225000D02*
X57325000Y43225000D01*
X45693000Y54057000D02*
X45693000Y55043000D01*
X45693000Y55043000D02*
X45925000Y55275000D01*
X45925000Y55275000D02*
X45925000Y58381400D01*
X59100000Y42950000D02*
X69000000Y42950000D01*
X58768000Y42618000D02*
X59100000Y42950000D01*
X69000000Y42950000D02*
X69525000Y43475000D01*
X46967100Y59089150D02*
X47285450Y59407500D01*
X47285450Y59407500D02*
X47648750Y59407500D01*
X47648750Y59407500D02*
X47931100Y59689850D01*
X47931100Y59689850D02*
X47931100Y60371500D01*
X47449100Y60853500D02*
X47931100Y60371500D01*
X47449100Y60853500D02*
X47449100Y60889500D01*
X48200000Y50325000D02*
X49000000Y49525000D01*
X49000000Y48100000D02*
X49000000Y49525000D01*
X49000000Y48100000D02*
X51700000Y45400000D01*
X51700000Y45400000D02*
X52975000Y45400000D01*
X46918000Y50832000D02*
X47425000Y50325000D01*
X47425000Y50325000D02*
X48200000Y50325000D01*
X46967100Y55407900D02*
X46967100Y59089150D01*
X46967100Y55407900D02*
X47157000Y55218000D01*
X46918000Y50832000D02*
X46918000Y52018000D01*
X46918000Y52018000D02*
X47157000Y52257000D01*
X47157000Y52257000D02*
X47157000Y55218000D01*
X53224650Y43718000D02*
X53706640Y44200000D01*
X53706640Y44200000D02*
X53950000Y44200000D01*
X47957700Y62716450D02*
X47957700Y63089150D01*
X47612750Y62371500D02*
X47957700Y62716450D01*
X47957700Y63089150D02*
X48240050Y63371500D01*
X48240050Y63371500D02*
X48603350Y63371500D01*
X48603350Y63371500D02*
X48973700Y63741850D01*
X48973700Y63741850D02*
X48973700Y64089150D01*
X48973700Y64089150D02*
X49256050Y64371500D01*
X52452900Y66889500D02*
X52934900Y67371500D01*
X52934900Y67371500D02*
X53607150Y67371500D01*
X83793000Y42993000D02*
X85049650Y42993000D01*
X85049650Y42993000D02*
X89126500Y47069850D01*
X89126500Y47069850D02*
X89126500Y48644850D01*
X89126500Y48644850D02*
X89782000Y49300350D01*
X89782000Y49300350D02*
X89782000Y50036350D01*
X89718000Y50100350D02*
X89782000Y50036350D01*
X89718000Y50100350D02*
X89718000Y50499650D01*
X89718000Y50499650D02*
X90036350Y50818000D01*
X90036350Y50818000D02*
X90199650Y50818000D01*
X90199650Y50818000D02*
X91521000Y52139350D01*
X54234450Y68371500D02*
X54597680Y68371500D01*
X53952100Y68089150D02*
X54234450Y68371500D01*
X53952100Y67716450D02*
X53952100Y68089150D01*
X82400000Y41600000D02*
X83793000Y42993000D01*
X53607150Y67371500D02*
X53952100Y67716450D01*
X72123930Y74768000D02*
X73069940Y75714000D01*
X54597680Y68371500D02*
X56648270Y70422100D01*
X65648350Y70422100D02*
X65966700Y70740450D01*
X65966700Y70740450D02*
X65966700Y71103750D01*
X65966700Y71103750D02*
X66275650Y71412700D01*
X66275650Y71412700D02*
X66648350Y71412700D01*
X66648350Y71412700D02*
X66966700Y71731050D01*
X66966700Y71731050D02*
X66966700Y72094350D01*
X66966700Y72094350D02*
X67275650Y72403300D01*
X67275650Y72403300D02*
X67648350Y72403300D01*
X67648350Y72403300D02*
X67930700Y72685650D01*
X67930700Y72685650D02*
X67930700Y72705700D01*
X67930700Y72705700D02*
X69993000Y74768000D01*
X69993000Y74768000D02*
X72123930Y74768000D01*
X56648270Y70422100D02*
X65648350Y70422100D01*
X49775000Y64371500D02*
X49964300Y64560800D01*
X49964300Y64560800D02*
X49964300Y65089150D01*
X49964300Y65089150D02*
X50246650Y65371500D01*
X50246650Y65371500D02*
X50609950Y65371500D01*
X50609950Y65371500D02*
X50954900Y65716450D01*
X50954900Y65716450D02*
X50954900Y66089150D01*
X50954900Y66089150D02*
X51237250Y66371500D01*
X51237250Y66371500D02*
X51600550Y66371500D01*
X51600550Y66371500D02*
X51918900Y66689850D01*
X51918900Y66689850D02*
X52253250Y66689850D01*
X52253250Y66689850D02*
X52452900Y66889500D01*
X49256050Y64371500D02*
X49775000Y64371500D01*
X44536000Y59664650D02*
X45278850Y60407500D01*
X45278850Y60407500D02*
X46632750Y60407500D01*
X46632750Y60407500D02*
X46915100Y60689850D01*
X46915100Y60689850D02*
X46915100Y62136600D01*
X46915100Y62136600D02*
X47150000Y62371500D01*
X47150000Y62371500D02*
X47612750Y62371500D01*
X49457000Y43718000D02*
X53224650Y43718000D01*
X44536000Y58811000D02*
X44536000Y59664650D01*
X43900000Y58175000D02*
X44536000Y58811000D01*
X43900000Y56025000D02*
X43900000Y58175000D01*
X43900000Y56025000D02*
X44650000Y55275000D01*
X45375000Y47800000D02*
X49457000Y43718000D01*
X44650000Y53725000D02*
X44650000Y55275000D01*
X44650000Y53725000D02*
X45375000Y53000000D01*
X45375000Y47800000D02*
X45375000Y53000000D01*
X73069940Y75714000D02*
X79086000Y75714000D01*
X79086000Y75714000D02*
X83264530Y71535470D01*
X83264530Y71535470D02*
X83903730Y71535470D01*
X85089200Y68606800D02*
X85089200Y70350000D01*
X85089200Y68606800D02*
X91521000Y62175000D01*
X83903730Y71535470D02*
X85089200Y70350000D01*
X91521000Y52139350D02*
X91521000Y62175000D01*
X40875000Y56089010D02*
X41977960Y54986050D01*
X41977960Y53989370D02*
X41977960Y54986050D01*
X41000000Y53011410D02*
X41977960Y53989370D01*
X41000000Y50125000D02*
X41000000Y53011410D01*
X41000000Y50125000D02*
X45218000Y45907000D01*
X52731650Y42050000D02*
X54627670Y43946020D01*
X54627670Y43946020D02*
X54627670Y44227160D01*
X45218000Y45700350D02*
X45218000Y45907000D01*
X45218000Y45700350D02*
X48868350Y42050000D01*
X48868350Y42050000D02*
X52731650Y42050000D01*
X40875000Y56089010D02*
X40875000Y59550000D01*
X46732500Y62407500D02*
X47214500Y62889500D01*
X47214500Y62889500D02*
X47449100Y62889500D01*
X45057500Y62407500D02*
X46732500Y62407500D01*
X40875000Y59550000D02*
X42650000Y61325000D01*
X42650000Y61325000D02*
X43975000Y61325000D01*
X43975000Y61325000D02*
X45057500Y62407500D01*
X78243000Y60568000D02*
X78625000Y60950000D01*
X72925000Y61400000D02*
X73757000Y60568000D01*
X73757000Y60568000D02*
X78243000Y60568000D01*
X78625000Y60950000D02*
X79131650Y60950000D01*
X79131650Y60950000D02*
X79482000Y60599650D01*
X70825000Y61400000D02*
X72925000Y61400000D01*
X79482000Y60268000D02*
X79482000Y60599650D01*
X79482000Y60268000D02*
X84475000Y55275000D01*
X84475000Y55075000D02*
X84475000Y55275000D01*
X68791780Y59366780D02*
X70825000Y61400000D01*
X65453430Y59884770D02*
X65971420Y59366780D01*
X65971420Y59366780D02*
X68791780Y59366780D01*
X70638800Y61938800D02*
X78586910Y61938800D01*
X64935430Y60048420D02*
X65253780Y60366780D01*
X64935430Y59685130D02*
X64935430Y60048420D01*
X64925000Y59674700D02*
X64935430Y59685130D01*
X64925000Y59413200D02*
X64925000Y59674700D01*
X64925000Y59413200D02*
X65453430Y58884780D01*
X84075000Y56450710D02*
X84075000Y56550000D01*
X78586910Y61938800D02*
X84075000Y56450710D01*
X69857000Y61125350D02*
X69857000Y61157000D01*
X69857000Y61157000D02*
X70638800Y61938800D01*
X69098420Y60366780D02*
X69857000Y61125350D01*
X65253780Y60366780D02*
X69098420Y60366780D01*
X70351220Y62318000D02*
X79032000Y62318000D01*
X64971420Y62213200D02*
X65125000Y62366780D01*
X64971420Y61721130D02*
X64971420Y62213200D01*
X64653070Y61402780D02*
X64971420Y61721130D01*
X64289770Y61402780D02*
X64653070Y61402780D01*
X63971420Y61084420D02*
X64289770Y61402780D01*
X63971420Y59402780D02*
X63971420Y61084420D01*
X63453420Y58884780D02*
X63971420Y59402780D01*
X63453420Y58884780D02*
X63509780Y58884780D01*
X79032000Y62318000D02*
X84597230Y56752770D01*
X84597230Y56752770D02*
X84754140Y56752770D01*
X65125000Y62366780D02*
X67883220Y62366780D01*
X67883220Y62366780D02*
X68225000Y62025000D01*
X68225000Y62025000D02*
X70058220Y62025000D01*
X70058220Y62025000D02*
X70351220Y62318000D01*
X65253780Y61366780D02*
X69341770Y61366780D01*
X64971420Y61084420D02*
X65253780Y61366780D01*
X64971420Y60721130D02*
X64971420Y61084420D01*
X64453420Y60203130D02*
X64971420Y60721130D01*
X64453420Y59884770D02*
X64453420Y60203130D01*
X69375000Y61325000D02*
X69375000Y61400000D01*
X69341770Y61366780D02*
X69375000Y61400000D01*
X64935430Y64048420D02*
X65253780Y64366770D01*
X64935430Y62685130D02*
X64935430Y64048420D01*
X64657420Y62407130D02*
X64935430Y62685130D01*
X64657420Y62088780D02*
X64657420Y62407130D01*
X64453420Y61884780D02*
X64657420Y62088780D01*
X65253780Y64366770D02*
X69066770Y64366770D01*
X69066770Y64366770D02*
X70550000Y65850000D01*
X70550000Y65850000D02*
X79507090Y65850000D01*
X79507090Y65850000D02*
X84879140Y60477950D01*
X78596790Y67332000D02*
X80918000Y67332000D01*
X69416780Y65366780D02*
X70375000Y66325000D01*
X69074650Y65382000D02*
X69089870Y65366780D01*
X69089870Y65366780D02*
X69416780Y65366780D01*
X64950650Y65382000D02*
X69074650Y65382000D01*
X64453420Y64884770D02*
X64950650Y65382000D01*
X70375000Y66325000D02*
X72314790Y66325000D01*
X72314790Y66325000D02*
X72421800Y66218000D01*
X72421800Y66218000D02*
X77482790Y66218000D01*
X77482790Y66218000D02*
X78596790Y67332000D01*
X83525000Y62675000D02*
X83525000Y64725000D01*
X80918000Y67332000D02*
X83525000Y64725000D01*
X79307000Y69168000D02*
X81657000Y69168000D01*
X53443500Y60889500D02*
X53925500Y61371500D01*
X72021550Y69996550D02*
X72021550Y70381620D01*
X53925500Y61371500D02*
X56258500Y61371500D01*
X56258500Y61371500D02*
X57253770Y62366780D01*
X57253770Y62366780D02*
X59791780Y62366780D01*
X59791780Y62366780D02*
X59971420Y62546430D01*
X59971420Y62546430D02*
X59971420Y63084430D01*
X59971420Y63084430D02*
X60253780Y63366780D01*
X60253780Y63366780D02*
X60617080Y63366780D01*
X60617080Y63366780D02*
X60971420Y63721120D01*
X60971420Y63721120D02*
X60971420Y64084420D01*
X60971420Y64084420D02*
X61253780Y64366770D01*
X61253780Y64366770D02*
X61617080Y64366770D01*
X61617080Y64366770D02*
X61971420Y64721120D01*
X61971420Y64721120D02*
X61971420Y66084420D01*
X61971420Y66084420D02*
X62289770Y66402780D01*
X62289770Y66402780D02*
X62653070Y66402780D01*
X62653070Y66402780D02*
X62935420Y66685130D01*
X62935420Y66685130D02*
X62935420Y67048430D01*
X62935420Y67048430D02*
X63289770Y67402780D01*
X63289770Y67402780D02*
X63653070Y67402780D01*
X63653070Y67402780D02*
X63935420Y67685130D01*
X63935420Y67685130D02*
X63935420Y68048430D01*
X77700000Y70775000D02*
X79307000Y69168000D01*
X73092180Y70775000D02*
X77700000Y70775000D01*
X73056760Y70810420D02*
X73092180Y70775000D01*
X72450350Y70810420D02*
X73056760Y70810420D01*
X72021550Y70381620D02*
X72450350Y70810420D01*
X63935420Y68048430D02*
X64287000Y68400000D01*
X64287000Y68400000D02*
X67725000Y68400000D01*
X70432000Y68407000D02*
X72021550Y69996550D01*
X67732000Y68407000D02*
X70432000Y68407000D01*
X86400000Y64325000D02*
X86400000Y64425000D01*
X81657000Y69168000D02*
X86400000Y64425000D01*
X47449100Y61889500D02*
X47758050Y61889500D01*
X47758050Y61889500D02*
X48240050Y62371500D01*
X53607150Y66371500D02*
X53952100Y66716450D01*
X53952100Y66716450D02*
X53952100Y67089150D01*
X53952100Y67089150D02*
X54234450Y67371500D01*
X54234450Y67371500D02*
X54597750Y67371500D01*
X54597750Y67371500D02*
X54942700Y67716450D01*
X54942700Y67716450D02*
X54942700Y68089150D01*
X73025000Y74750000D02*
X73725000Y74750000D01*
X69293000Y73093000D02*
X71368000Y73093000D01*
X71368000Y73093000D02*
X73025000Y74750000D01*
X65971420Y69729170D02*
X65971420Y70092470D01*
X65971420Y70092470D02*
X66301050Y70422100D01*
X66301050Y70422100D02*
X66648350Y70422100D01*
X66648350Y70422100D02*
X66966700Y70740450D01*
X66966700Y70740450D02*
X66966700Y71103750D01*
X66966700Y71103750D02*
X67275650Y71412700D01*
X67275650Y71412700D02*
X67648350Y71412700D01*
X67648350Y71412700D02*
X67930700Y71695050D01*
X67930700Y71695050D02*
X67930700Y71730700D01*
X67930700Y71730700D02*
X69293000Y73093000D01*
X48603350Y62371500D02*
X48973700Y62741850D01*
X48973700Y62741850D02*
X48973700Y63089150D01*
X48973700Y63089150D02*
X49256050Y63371500D01*
X48240050Y62371500D02*
X48603350Y62371500D01*
X52253250Y66371500D02*
X53607150Y66371500D01*
X49256050Y63371500D02*
X49619350Y63371500D01*
X49619350Y63371500D02*
X49964300Y63716450D01*
X49964300Y63716450D02*
X49964300Y64089150D01*
X49964300Y64089150D02*
X50246650Y64371500D01*
X50246650Y64371500D02*
X50609950Y64371500D01*
X50609950Y64371500D02*
X50954900Y64716450D01*
X50954900Y64716450D02*
X50954900Y65089150D01*
X50954900Y65089150D02*
X51237250Y65371500D01*
X51237250Y65371500D02*
X51600550Y65371500D01*
X51600550Y65371500D02*
X51970900Y65741850D01*
X51970900Y65741850D02*
X51970900Y66089150D01*
X51970900Y66089150D02*
X52253250Y66371500D01*
X54942700Y68089150D02*
X55903550Y69050000D01*
X78625000Y72150000D02*
X81325000Y72150000D01*
X81325000Y72150000D02*
X84350000Y69125000D01*
X74232000Y75257000D02*
X75518000Y75257000D01*
X73725000Y74750000D02*
X74232000Y75257000D01*
X75518000Y75257000D02*
X78625000Y72150000D01*
X65642250Y69400000D02*
X65971420Y69729170D01*
X55903550Y69050000D02*
X56500000Y69050000D01*
X56500000Y69050000D02*
X56850000Y69400000D01*
X56850000Y69400000D02*
X65642250Y69400000D01*
X49455700Y61889500D02*
X49764650Y61889500D01*
X49764650Y61889500D02*
X50282650Y62407500D01*
X74825000Y71700000D02*
X81050000Y71700000D01*
X81050000Y71700000D02*
X88375000Y64375000D01*
X66971420Y69729170D02*
X66971420Y70092470D01*
X66971420Y70092470D02*
X67253770Y70374820D01*
X67253770Y70374820D02*
X67745830Y70374820D01*
X67745830Y70374820D02*
X70150000Y72779000D01*
X50282650Y62407500D02*
X52652550Y62407500D01*
X52652550Y62407500D02*
X52934900Y62689850D01*
X52934900Y62689850D02*
X52934900Y63062550D01*
X52934900Y63062550D02*
X53243850Y63371500D01*
X53243850Y63371500D02*
X55621500Y63371500D01*
X55621500Y63371500D02*
X56652770Y64402770D01*
X56652770Y64402770D02*
X58653070Y64402770D01*
X58653070Y64402770D02*
X58971420Y64721130D01*
X58971420Y64721130D02*
X58971420Y65084420D01*
X58971420Y65084420D02*
X59289770Y65402770D01*
X59289770Y65402770D02*
X59653070Y65402770D01*
X59653070Y65402770D02*
X59971420Y65721130D01*
X59971420Y65721130D02*
X59971420Y66084420D01*
X59971420Y66084420D02*
X60289780Y66402780D01*
X60289780Y66402780D02*
X60653070Y66402780D01*
X60653070Y66402780D02*
X60935430Y66685130D01*
X60935430Y66685130D02*
X60935430Y68048430D01*
X88375000Y64375000D02*
X88450000Y64375000D01*
X70150000Y72779000D02*
X73746000Y72779000D01*
X73746000Y72779000D02*
X74825000Y71700000D01*
X60935430Y68048430D02*
X61937000Y69050000D01*
X61937000Y69050000D02*
X66292250Y69050000D01*
X66292250Y69050000D02*
X66971420Y69729170D01*
X76471760Y46265120D02*
X76500000Y46293360D01*
X76500000Y46293360D02*
X76500000Y46350000D01*
X65675000Y35679600D02*
X66261250Y35679600D01*
X66261250Y35679600D02*
X66656650Y36075000D01*
X66656650Y36894150D02*
X71737500Y41975000D01*
X66656650Y36075000D02*
X66656650Y36894150D01*
X71737500Y41975000D02*
X72125000Y41975000D01*
X52200000Y23550000D02*
X53043350Y23550000D01*
X53043350Y23550000D02*
X53525350Y24032000D01*
X72125000Y41975000D02*
X76500000Y46350000D01*
X62457000Y31628610D02*
X62457000Y32461600D01*
X62457000Y32461600D02*
X65675000Y35679600D01*
X56200000Y25968350D02*
X56200000Y30100000D01*
X54263650Y24032000D02*
X56200000Y25968350D01*
X53525350Y24032000D02*
X54263650Y24032000D01*
X56200000Y30100000D02*
X56666140Y30566140D01*
X56666140Y30566140D02*
X61394530Y30566140D01*
X61394530Y30566140D02*
X62457000Y31628610D01*
X78100000Y47600000D02*
X78325000Y47825000D01*
X78100000Y47200000D02*
X78100000Y47600000D01*
X71850000Y40875000D02*
X72250000Y40875000D01*
X71450000Y40475000D02*
X71850000Y40875000D01*
X76318350Y45600000D02*
X76500000Y45600000D01*
X76500000Y45600000D02*
X78100000Y47200000D01*
X72250000Y40875000D02*
X72575000Y41200000D01*
X72575000Y41200000D02*
X72575000Y41856650D01*
X72575000Y41856650D02*
X76318350Y45600000D01*
X71450000Y39731650D02*
X71450000Y40475000D01*
X53725000Y23550000D02*
X55050000Y23550000D01*
X64143000Y32643000D02*
X64143000Y32999650D01*
X64143000Y32999650D02*
X65718350Y34575000D01*
X56700000Y25200000D02*
X56700000Y28758020D01*
X55050000Y23550000D02*
X56700000Y25200000D01*
X70571680Y38853330D02*
X71450000Y39731650D01*
X65718350Y34575000D02*
X67350000Y34575000D01*
X67350000Y34575000D02*
X70571680Y37796680D01*
X70571680Y37796680D02*
X70571680Y38853330D01*
X56700000Y28758020D02*
X57845890Y29903920D01*
X57845890Y29903920D02*
X61403920Y29903920D01*
X61403920Y29903920D02*
X64143000Y32643000D01*
X78875000Y53600000D02*
X80175000Y52300000D01*
X78875000Y53600000D02*
X78875000Y53650000D01*
X78500000Y48625000D02*
X78825000Y48625000D01*
X78825000Y48625000D02*
X80175000Y49975000D01*
X80175000Y49975000D02*
X80175000Y52300000D01*
X71875000Y42400000D02*
X76943000Y47468000D01*
X76943000Y47468000D02*
X77343000Y47468000D01*
X77343000Y47468000D02*
X78500000Y48625000D01*
X71525000Y42400000D02*
X71875000Y42400000D01*
X63625000Y34250000D02*
X63625000Y34500000D01*
X63625000Y34500000D02*
X71525000Y42400000D01*
X53900000Y26100000D02*
X53900000Y30625000D01*
X53900000Y30625000D02*
X54275000Y31000000D01*
X54275000Y31000000D02*
X60375000Y31000000D01*
X60375000Y31000000D02*
X63625000Y34250000D01*
X62974650Y34793000D02*
X66175000Y37993350D01*
X60543000Y34793000D02*
X62974650Y34793000D01*
X57700000Y31950000D02*
X60543000Y34793000D01*
X66175000Y37993350D02*
X66175000Y38200000D01*
X61971420Y58402780D02*
X62453420Y58884780D01*
X61227770Y58402780D02*
X61971420Y58402780D01*
X60935430Y58110430D02*
X61227770Y58402780D01*
X60935430Y57674700D02*
X60935430Y58110430D01*
X60925000Y57664270D02*
X60935430Y57674700D01*
X60925000Y57460210D02*
X60925000Y57664270D01*
X60925000Y57460210D02*
X62910200Y55475000D01*
X61653010Y53252600D02*
X61653010Y53278010D01*
X61653010Y53278010D02*
X62910200Y54535200D01*
X62910200Y54535200D02*
X62910200Y55475000D01*
X66668350Y39050000D02*
X66725000Y39050000D01*
X66036350Y39682000D02*
X66668350Y39050000D01*
X65275000Y39682000D02*
X66036350Y39682000D01*
X64593000Y39000000D02*
X65275000Y39682000D01*
X42150000Y38425000D02*
X43525000Y38425000D01*
X43525000Y38425000D02*
X44100000Y39000000D01*
X44100000Y39000000D02*
X64593000Y39000000D01*
X71950000Y43425000D02*
X72375000Y43425000D01*
X72375000Y43425000D02*
X76900000Y47950000D01*
X93885400Y48703750D02*
X93885400Y48810400D01*
X89138650Y43957000D02*
X93885400Y48703750D01*
X88854700Y43957000D02*
X89138650Y43957000D01*
X88282000Y43384300D02*
X88854700Y43957000D01*
X88282000Y43124350D02*
X88282000Y43384300D01*
X82482650Y37325000D02*
X88282000Y43124350D01*
X78300000Y37325000D02*
X82482650Y37325000D01*
X70228430Y41571780D02*
X70228430Y42252060D01*
X51100000Y23725000D02*
X51100000Y30000000D01*
X49750000Y22375000D02*
X51100000Y23725000D01*
X52568000Y31468000D02*
X60124650Y31468000D01*
X60124650Y31468000D02*
X70228430Y41571780D01*
X51100000Y30000000D02*
X52568000Y31468000D01*
X46893350Y41254330D02*
X48254690Y39893000D01*
X46893350Y41254330D02*
X46893350Y43156650D01*
X72300000Y43975000D02*
X76228260Y47903260D01*
X76228260Y47903260D02*
X76228260Y48175000D01*
X71724990Y43975000D02*
X72300000Y43975000D01*
X70028780Y42734060D02*
X70484060Y42734060D01*
X70484060Y42734060D02*
X71724990Y43975000D01*
X59875000Y40650000D02*
X62500000Y40650000D01*
X44625000Y45425000D02*
X44625000Y45775000D01*
X44625000Y45425000D02*
X46893350Y43156650D01*
X63262500Y41412500D02*
X65687500Y41412500D01*
X65687500Y41412500D02*
X66375000Y42100000D01*
X66375000Y42100000D02*
X69394720Y42100000D01*
X62500000Y40650000D02*
X63262500Y41412500D01*
X69394720Y42100000D02*
X70028780Y42734060D01*
X48254690Y39893000D02*
X59118000Y39893000D01*
X59118000Y39893000D02*
X59875000Y40650000D01*
X47518290Y41493000D02*
X53482000Y41493000D01*
X47427310Y41402020D02*
X47518290Y41493000D01*
X73450000Y46768350D02*
X73450000Y46875000D01*
X72205850Y45524200D02*
X73450000Y46768350D01*
X71958150Y45524200D02*
X72205850Y45524200D01*
X70450000Y44016040D02*
X71958150Y45524200D01*
X70450000Y43625000D02*
X70450000Y44016040D01*
X69407000Y42582000D02*
X70450000Y43625000D01*
X53482000Y41493000D02*
X53857000Y41118000D01*
X53857000Y41118000D02*
X62199650Y41118000D01*
X62199650Y41118000D02*
X63663650Y42582000D01*
X63663650Y42582000D02*
X69407000Y42582000D01*
D18*
X74955700Y-14269300D02*
X78204820Y-14269300D01*
X72725000Y-16500000D02*
X74955700Y-14269300D01*
X84157700Y-6842300D02*
X84500000Y-6500000D01*
X84157700Y-8316420D02*
X84157700Y-6842300D01*
X78204820Y-14269300D02*
X84157700Y-8316420D01*
X49455700Y78905100D02*
X49774550Y78905100D01*
X49774550Y78905100D02*
X50249550Y79380100D01*
X50249550Y79380100D02*
X50602450Y79380100D01*
X50602450Y79380100D02*
X50961900Y79739550D01*
X50961900Y79739550D02*
X50961900Y80092450D01*
X50961900Y80092450D02*
X53194450Y82325000D01*
X53194450Y82325000D02*
X54675310Y82325000D01*
X54675310Y82325000D02*
X61350000Y88999690D01*
X61350000Y88999690D02*
X61350000Y92250000D01*
X61350000Y92250000D02*
X62725000Y93625000D01*
X69175000Y97850000D02*
X70450000Y99125000D01*
X68000000Y97850000D02*
X69175000Y97850000D01*
X67250000Y97100000D02*
X68000000Y97850000D01*
X62725000Y93625000D02*
X65525000Y93625000D01*
X65525000Y93625000D02*
X67250000Y95350000D01*
X67250000Y95350000D02*
X67250000Y97100000D01*
X48851230Y43098770D02*
X48851230Y43600000D01*
X48851230Y43098770D02*
X49075000Y42875000D01*
X42800000Y59575000D02*
X44114500Y60889500D01*
X42800000Y56200000D02*
X42800000Y59575000D01*
X42800000Y56200000D02*
X44150000Y54850000D01*
X44114500Y60889500D02*
X45442500Y60889500D01*
X44150000Y53600000D02*
X44150000Y54850000D01*
X44150000Y53600000D02*
X44900000Y52850000D01*
X44900000Y47551230D02*
X44900000Y52850000D01*
X44900000Y47551230D02*
X48851230Y43600000D01*
X52927900Y74376300D02*
X53443500Y74891900D01*
X52256150Y74376300D02*
X52927900Y74376300D01*
X51977900Y74098050D02*
X52256150Y74376300D01*
X51977900Y73770550D02*
X51977900Y74098050D01*
X51567650Y73360300D02*
X51977900Y73770550D01*
X51240150Y73360300D02*
X51567650Y73360300D01*
X50961900Y73082050D02*
X51240150Y73360300D01*
X50961900Y72729150D02*
X50961900Y73082050D01*
X50602450Y72369700D02*
X50961900Y72729150D01*
X50249550Y72369700D02*
X50602450Y72369700D01*
X49971300Y72091450D02*
X50249550Y72369700D01*
X49971300Y71738550D02*
X49971300Y72091450D01*
X49611850Y71379100D02*
X49971300Y71738550D01*
X49258950Y71379100D02*
X49611850Y71379100D01*
X48980700Y71100850D02*
X49258950Y71379100D01*
X48980700Y70773350D02*
X48980700Y71100850D01*
X48570450Y70363100D02*
X48980700Y70773350D01*
X48243250Y70363100D02*
X48570450Y70363100D01*
X47965000Y70084850D02*
X48243250Y70363100D01*
X47965000Y69732350D02*
X47965000Y70084850D01*
X46597150Y68364500D02*
X47965000Y69732350D01*
X46236350Y68364500D02*
X46597150Y68364500D01*
X45958100Y68086250D02*
X46236350Y68364500D01*
X45958100Y67733350D02*
X45958100Y68086250D01*
X45577950Y67353200D02*
X45958100Y67733350D01*
X45251850Y67353200D02*
X45577950Y67353200D01*
X44973600Y67074950D02*
X45251850Y67353200D01*
X44973600Y66523290D02*
X44973600Y67074950D01*
X41200310Y62750000D02*
X44973600Y66523290D01*
X41174700Y62750000D02*
X41200310Y62750000D01*
X37825000Y59400310D02*
X41174700Y62750000D01*
X37825000Y52525000D02*
X37825000Y59400310D01*
X37375000Y52075000D02*
X37825000Y52525000D01*
X37375000Y48225000D02*
X37375000Y52075000D01*
X37375000Y48225000D02*
X40600000Y45000000D01*
X40600000Y39128250D02*
X40600000Y45000000D01*
X40600000Y39128250D02*
X41778250Y37950000D01*
X41778250Y37950000D02*
X43800000Y37950000D01*
X43800000Y37950000D02*
X44450000Y38600000D01*
X44450000Y38600000D02*
X64081630Y38600000D01*
X64081630Y38600000D02*
X65024990Y37656640D01*
X50921300Y74376300D02*
X51436900Y74891900D01*
X50249550Y74376300D02*
X50921300Y74376300D01*
X49971300Y74098050D02*
X50249550Y74376300D01*
X49971300Y73745150D02*
X49971300Y74098050D01*
X49586450Y73360300D02*
X49971300Y73745150D01*
X49258950Y73360300D02*
X49586450Y73360300D01*
X48980700Y73082050D02*
X49258950Y73360300D01*
X48980700Y72754550D02*
X48980700Y73082050D01*
X48595850Y72369700D02*
X48980700Y72754550D01*
X48242950Y72369700D02*
X48595850Y72369700D01*
X47964700Y72091450D02*
X48242950Y72369700D01*
X47964700Y71738550D02*
X47964700Y72091450D01*
X47605250Y71379100D02*
X47964700Y71738550D01*
X47252350Y71379100D02*
X47605250Y71379100D01*
X46974100Y71100850D02*
X47252350Y71379100D01*
X46974100Y70773350D02*
X46974100Y71100850D01*
X46563850Y70363100D02*
X46974100Y70773350D01*
X46236350Y70363100D02*
X46563850Y70363100D01*
X45958100Y70084850D02*
X46236350Y70363100D01*
X45958100Y69731950D02*
X45958100Y70084850D01*
X37400000Y53550000D02*
X37425000Y53550000D01*
X43551150Y67325000D02*
X45958100Y69731950D01*
X40192600Y38582400D02*
X40192600Y43907400D01*
X37425000Y53550000D02*
X37425000Y60050000D01*
X37425000Y60050000D02*
X38200000Y60825000D01*
X41875000Y36900000D02*
X44275000Y36900000D01*
X44275000Y36900000D02*
X45200000Y37825000D01*
X45200000Y37825000D02*
X60400000Y37825000D01*
X40192600Y38582400D02*
X41875000Y36900000D01*
X60400000Y37825000D02*
X61825000Y36400000D01*
X61825000Y36400000D02*
X61850000Y36375000D01*
X61825000Y36400000D02*
X62050000Y36400000D01*
X42150000Y66400300D02*
X43074700Y67325000D01*
X42150000Y66400000D02*
X42150000Y66400300D01*
X38200000Y62450000D02*
X42150000Y66400000D01*
X43074700Y67325000D02*
X43551150Y67325000D01*
X38200000Y60825000D02*
X38200000Y62450000D01*
X36575000Y47525000D02*
X40192600Y43907400D01*
X36575000Y47525000D02*
X36575000Y52725000D01*
X36575000Y52725000D02*
X37400000Y53550000D01*
X39425000Y7402400D02*
X39828570Y7805970D01*
D20*
X39828570Y7805970D02*
X39828570Y12470030D01*
X38506390Y13792200D02*
X39828570Y12470030D01*
D18*
X67750000Y25175000D02*
X69575000Y27000000D01*
X58850000Y25175000D02*
X67750000Y25175000D01*
X58275000Y25749990D02*
X58850000Y25175000D01*
X58275000Y25749990D02*
X58275000Y28129350D01*
X87847000Y33705800D02*
X87847000Y37378000D01*
X47200000Y35450000D02*
X47925000Y36175000D01*
X47925000Y36175000D02*
X51750000Y36175000D01*
X51750000Y36175000D02*
X52775000Y37200000D01*
X52775000Y37200000D02*
X52775000Y37300000D01*
X43700000Y33900000D02*
X45250000Y35450000D01*
X45250000Y35450000D02*
X47200000Y35450000D01*
X70450000Y16850000D02*
X70525000Y16775000D01*
X48275000Y16850000D02*
X70450000Y16850000D01*
X43700000Y21425000D02*
X48275000Y16850000D01*
X43700000Y21425000D02*
X43700000Y33900000D01*
X47450000Y35075000D02*
X48100370Y35725370D01*
X48100370Y35725370D02*
X52250370Y35725370D01*
X52250370Y35725370D02*
X53700000Y37175000D01*
X53700000Y37175000D02*
X53700000Y37275000D01*
X44075000Y33575000D02*
X45575000Y35075000D01*
X45575000Y35075000D02*
X47450000Y35075000D01*
X44075000Y21650000D02*
X44075000Y33575000D01*
X44075000Y21650000D02*
X48025000Y17700000D01*
X48025000Y17700000D02*
X69175000Y17700000D01*
X69175000Y17575000D02*
X69175000Y17700000D01*
X77250000Y16700000D02*
X77250000Y16725000D01*
X45575000Y37275000D02*
X51050000Y37275000D01*
X42875000Y34575000D02*
X45575000Y37275000D01*
X61377550Y15476200D02*
X76001200Y15476200D01*
X61037750Y15816000D02*
X61377550Y15476200D01*
X53491000Y15816000D02*
X61037750Y15816000D01*
X53100000Y15425000D02*
X53491000Y15816000D01*
X48425000Y15425000D02*
X53100000Y15425000D01*
X42875000Y20975000D02*
X48425000Y15425000D01*
X76001200Y15476200D02*
X77250000Y16725000D01*
X42875000Y20975000D02*
X42875000Y34575000D01*
X68725000Y27325000D02*
X69425000Y28025000D01*
X59825000Y27350000D02*
X59850000Y27325000D01*
X59850000Y27325000D02*
X68725000Y27325000D01*
X48943000Y33568000D02*
X52693000Y33568000D01*
X52693000Y33568000D02*
X54975000Y35850000D01*
X54975000Y35850000D02*
X54975000Y36504460D01*
X54527660Y36951800D02*
X54975000Y36504460D01*
X45853250Y33000000D02*
X48375000Y33000000D01*
X45350000Y25800000D02*
X45350000Y32496750D01*
X45350000Y32496750D02*
X45853250Y33000000D01*
X48375000Y33000000D02*
X48943000Y33568000D01*
X45350000Y25800000D02*
X45775000Y25375000D01*
X45775000Y23700000D02*
X45775000Y25375000D01*
X45775000Y23700000D02*
X50524050Y18950950D01*
X50524050Y18950950D02*
X68375950Y18950950D01*
X68375950Y18950950D02*
X70300000Y20875000D01*
X77887480Y-13796460D02*
X83500000Y-8183940D01*
X73953540Y-13796460D02*
X77887480Y-13796460D01*
X72750000Y-15000000D02*
X73953540Y-13796460D01*
X83500000Y-8183940D02*
X83500000Y-6500000D01*
X83961360Y-9250000D02*
X85054210Y-9250000D01*
X78247780Y-14963590D02*
X83961360Y-9250000D01*
X77496220Y-14963590D02*
X78247780Y-14963590D01*
X85957950Y-8346260D02*
X85957950Y-6957950D01*
X85054210Y-9250000D02*
X85957950Y-8346260D01*
X85500000Y-6500000D02*
X85957950Y-6957950D01*
X85257960Y-9750000D02*
X86500000Y-8507960D01*
X84215680Y-9750000D02*
X85257960Y-9750000D01*
X77496220Y-16469460D02*
X84215680Y-9750000D01*
X86500000Y-8507960D02*
X86500000Y-6500000D01*
X10498200Y52700000D02*
X20275000Y62476800D01*
X20275000Y62476800D02*
X20275000Y62840250D01*
X20275000Y62840250D02*
X30300000Y72865250D01*
X30300000Y72865250D02*
X30300000Y73075000D01*
X35475000Y34800000D02*
X38775000Y31500000D01*
X38775000Y31500000D02*
X42400000Y31500000D01*
X19520000Y32015000D02*
X22305000Y34800000D01*
X22305000Y34800000D02*
X35475000Y34800000D01*
X86144300Y15005700D02*
X86250000Y14900000D01*
X85896820Y15005700D02*
X86144300Y15005700D01*
X85702520Y15200000D02*
X85896820Y15005700D01*
X85575000Y15200000D02*
X85702520Y15200000D01*
X86250000Y13450000D02*
X86250000Y14900000D01*
X85547200Y12747200D02*
X86250000Y13450000D01*
X75949600Y12747200D02*
X85547200Y12747200D01*
X74904590Y13792200D02*
X75949600Y12747200D01*
X86229210Y15557190D02*
X86229210Y15700770D01*
X86229210Y15557190D02*
X86568200Y15218200D01*
X86568200Y13131800D02*
X86568200Y15218200D01*
X85733600Y12297200D02*
X86568200Y13131800D01*
X75949590Y12297200D02*
X85733600Y12297200D01*
X74904590Y11252200D02*
X75949590Y12297200D01*
D21*
X32157100Y6175000D02*
X32232100Y6100000D01*
X17725000Y6175000D02*
X32157100Y6175000D01*
X13950000Y9950000D02*
X17725000Y6175000D01*
X32232100Y6100000D02*
X82622730Y6100000D01*
X82622730Y6100000D02*
X82797720Y5925000D01*
M02*
